<?xml version="1.0" encoding="UTF-8" ?>
<!DOCTYPE svg PUBLIC "-//W3C//DTD SVG 1.1//EN" "http://www.w3.org/Graphics/SVG/1.1/DTD/svg11.dtd">
<svg width="386.164222861" height="258.957184742" viewBox="0 0 425 285" version="1.1" xmlns="http://www.w3.org/2000/svg">
<g id="#ffffffff">
<path fill="#ffffff" opacity="1.00" d=" M 0.00 0.00 L 425.00 0.00 L 425.00 285.00 L 0.00 285.00 L 0.00 0.00 M 422.90 1.51 C 282.44 1.49 141.97 1.49 1.50 1.50 C 1.48 95.28 1.58 189.05 1.46 282.82 C 1.38 283.08 1.23 283.59 1.16 283.85 C 142.04 283.70 282.91 283.77 423.79 283.81 C 423.76 189.56 423.77 95.32 423.79 1.08 C 423.57 1.18 423.13 1.40 422.90 1.51 Z" />
<path fill="#ffffff" opacity="1.00" d=" M 159.63 42.79 C 163.74 40.70 168.34 41.85 172.72 41.83 C 175.98 42.69 179.23 43.84 181.79 46.12 C 181.20 47.68 180.48 49.19 179.63 50.62 C 178.55 50.53 176.39 50.36 175.31 50.28 C 175.29 48.76 175.27 47.25 175.25 45.73 C 171.04 45.58 166.83 45.50 162.63 45.42 C 161.62 44.55 160.62 43.67 159.63 42.79 Z" />
<path fill="#ffffff" opacity="1.00" d=" M 160.21 46.32 C 164.34 47.37 168.59 47.36 172.81 47.49 C 172.86 48.18 172.95 49.55 173.00 50.23 C 168.90 50.31 164.80 50.45 160.71 50.33 C 160.58 49.32 160.34 47.32 160.21 46.32 Z" />
<path fill="#ffffff" opacity="1.00" d=" M 118.59 51.65 C 123.87 47.18 131.43 46.63 137.93 48.23 C 151.92 51.40 166.35 52.88 180.67 51.74 L 180.60 53.00 C 165.17 53.22 149.72 52.68 134.30 53.20 C 134.19 57.06 134.23 60.92 134.25 64.78 C 129.33 64.94 124.43 63.32 120.39 60.58 C 117.64 58.67 115.61 54.27 118.59 51.65 Z" />
<path fill="#ffffff" opacity="1.00" d=" M 216.85 57.60 C 225.31 54.45 234.59 55.41 243.34 53.48 C 244.40 53.44 245.47 53.40 246.54 53.37 C 254.67 53.97 262.85 53.06 270.96 54.13 C 273.74 54.52 276.55 54.64 279.37 54.65 C 288.79 56.46 299.49 57.28 306.85 64.11 C 306.17 65.65 305.99 67.58 304.68 68.75 C 303.00 69.47 301.19 69.85 299.45 70.38 C 299.43 68.17 299.40 65.96 299.39 63.75 C 294.40 62.14 287.95 59.30 283.52 63.59 C 283.85 66.32 284.22 69.05 284.48 71.79 C 284.53 74.37 284.27 76.94 284.01 79.50 C 280.58 78.82 277.11 78.43 273.62 78.38 C 273.16 78.35 272.25 78.29 271.79 78.26 C 268.40 77.28 264.88 77.09 261.38 77.32 C 258.90 77.29 256.42 77.33 253.95 77.54 C 246.36 77.31 238.90 79.28 231.30 78.70 C 230.39 79.08 229.49 79.46 228.59 79.83 C 222.68 80.42 216.75 81.00 210.91 82.15 C 193.31 84.94 175.78 88.36 158.04 90.25 C 155.66 90.46 153.27 90.65 150.96 91.25 C 141.77 91.69 132.36 92.32 123.45 89.51 C 121.20 88.14 118.44 87.16 116.90 84.92 C 117.53 76.97 118.85 69.05 118.21 61.03 C 123.48 65.71 130.63 66.55 137.34 67.33 C 148.25 66.46 159.24 65.88 170.02 63.88 C 172.36 63.61 174.72 63.38 177.02 62.83 C 179.86 62.45 182.71 62.14 185.49 61.39 C 191.80 60.99 197.98 59.40 204.25 58.63 C 208.43 57.99 212.62 57.52 216.85 57.60 M 231.11 57.81 C 232.05 58.98 233.07 60.07 234.12 61.14 C 234.27 64.83 234.19 68.53 234.35 72.22 C 237.20 76.72 243.60 75.98 247.49 73.34 C 249.42 68.86 247.60 63.92 248.39 59.25 C 248.76 58.85 249.49 58.07 249.86 57.68 C 248.17 55.87 245.41 56.98 243.30 57.03 C 246.95 60.00 245.38 64.95 246.29 69.01 C 246.04 71.95 243.41 73.11 240.76 72.58 C 238.31 68.88 239.63 64.24 239.28 60.08 C 239.87 59.19 240.45 58.30 241.01 57.39 C 237.70 57.34 234.40 57.46 231.11 57.81 M 253.12 56.58 C 255.00 62.63 252.21 68.75 250.24 74.30 C 252.26 73.95 254.31 73.76 256.36 73.62 C 255.67 72.77 254.98 71.93 254.27 71.11 C 254.64 68.71 255.28 66.37 255.91 64.03 C 256.67 66.04 257.26 68.11 257.72 70.22 C 258.11 71.58 258.41 72.96 258.72 74.34 C 259.57 74.37 260.42 74.39 261.27 74.42 C 261.84 72.62 262.48 70.85 263.06 69.06 C 263.88 67.36 264.95 65.80 265.83 64.13 C 265.81 64.46 265.77 65.12 265.75 65.45 C 265.41 68.01 267.37 71.34 264.64 73.04 C 264.55 73.42 264.36 74.17 264.26 74.54 C 267.14 74.90 270.01 75.29 272.91 75.42 C 270.52 70.96 271.03 65.73 270.48 60.85 C 271.09 59.76 271.67 58.66 272.23 57.54 C 269.82 57.24 267.38 57.07 264.96 57.39 C 264.93 60.60 263.46 63.45 261.76 66.07 C 260.96 62.86 260.19 59.64 259.40 56.43 C 257.30 56.49 255.21 56.51 253.12 56.58 M 212.90 60.70 C 213.62 61.46 214.36 62.20 215.11 62.94 C 216.17 66.98 216.53 71.12 216.57 75.29 C 216.03 75.81 214.95 76.86 214.41 77.39 C 217.44 77.72 220.49 77.39 223.53 77.32 C 223.50 76.96 223.46 76.24 223.43 75.88 C 221.43 74.56 221.18 72.23 221.81 70.10 C 223.19 72.23 224.61 74.33 225.97 76.48 C 228.31 76.39 230.65 76.25 232.99 76.09 C 230.77 73.42 228.49 70.79 226.40 68.01 C 230.38 67.08 230.36 61.26 226.99 59.64 C 222.29 59.14 217.50 59.65 212.90 60.70 M 194.69 68.77 C 194.70 69.60 194.73 71.25 194.75 72.07 C 195.88 75.14 197.57 78.41 200.91 79.49 C 204.58 80.22 209.14 79.67 211.33 76.28 C 213.51 73.53 212.45 69.80 212.46 66.59 C 210.47 63.82 207.85 60.72 204.02 61.25 C 199.37 60.75 195.85 64.62 194.69 68.77 M 179.65 66.60 C 175.89 71.60 177.14 79.44 182.77 82.52 C 185.94 82.70 189.23 82.85 192.11 81.27 C 192.71 80.93 193.92 80.24 194.52 79.90 C 194.30 77.71 195.02 74.52 191.71 74.84 C 191.29 76.35 190.85 77.86 190.44 79.37 C 188.94 80.18 186.86 81.11 185.65 79.29 C 182.76 75.61 182.01 69.72 184.91 65.84 C 187.82 65.59 189.48 70.52 192.18 68.27 C 191.93 67.03 191.67 65.80 191.38 64.57 C 187.37 64.02 182.98 63.92 179.65 66.60 M 164.55 68.55 C 164.63 72.08 163.82 75.54 162.91 78.94 C 162.82 81.73 161.73 84.26 160.05 86.46 C 162.52 86.52 164.96 86.18 167.25 85.24 C 165.11 83.84 163.74 81.73 165.55 79.44 C 167.13 79.45 168.84 78.93 170.27 79.85 C 170.66 81.55 170.42 83.29 170.28 85.01 C 173.14 84.62 176.04 84.36 178.81 83.49 C 173.90 79.39 173.05 72.46 169.31 67.48 C 167.63 67.31 166.09 68.03 164.55 68.55 M 141.94 71.43 C 142.67 73.93 143.57 76.42 143.56 79.06 C 143.58 82.28 144.53 85.89 142.20 88.60 C 147.16 88.13 152.40 88.29 157.03 86.18 C 160.50 82.17 160.82 75.10 156.53 71.56 C 152.11 68.89 146.69 70.94 141.94 71.43 Z" />
<path fill="#ffffff" opacity="1.00" d=" M 136.12 54.94 C 162.28 55.09 188.43 54.46 214.58 54.92 C 214.63 55.24 214.71 55.88 214.75 56.19 C 212.64 55.98 210.52 55.99 208.41 56.23 C 206.64 56.41 204.90 56.82 203.14 57.13 C 181.67 57.79 160.15 57.15 138.66 57.45 C 138.66 60.13 138.65 62.80 138.64 65.48 C 138.23 65.63 137.40 65.94 136.98 66.09 C 135.69 62.51 136.12 58.66 136.12 54.94 Z" />
<path fill="#ffffff" opacity="1.00" d=" M 220.58 61.29 C 223.07 61.09 224.18 63.06 224.54 65.23 C 224.18 65.73 223.47 66.73 223.11 67.22 C 222.71 67.31 221.89 67.47 221.49 67.55 C 220.57 65.58 220.54 63.41 220.58 61.29 Z" />
<path fill="#ffffff" opacity="1.00" d=" M 201.64 63.61 C 202.57 63.54 203.51 63.47 204.45 63.40 C 205.91 65.67 206.59 68.28 207.25 70.86 C 207.28 72.38 207.33 73.91 207.41 75.44 C 206.47 77.32 204.80 77.95 202.80 77.46 C 201.20 73.08 199.57 68.12 201.64 63.61 Z" />
<path fill="#ffffff" opacity="1.00" d=" M 285.33 66.23 C 284.61 63.79 287.17 63.10 289.03 63.31 C 292.13 63.32 295.12 64.31 298.00 65.39 C 297.85 66.49 297.54 68.69 297.39 69.79 C 293.15 69.95 288.10 70.11 285.33 66.23 Z" />
<path fill="#ffffff" opacity="1.00" d=" M 286.36 69.93 C 288.95 70.79 291.61 71.42 294.31 71.84 C 297.51 72.63 300.83 72.63 304.08 72.15 C 304.14 72.81 304.25 74.13 304.31 74.79 C 303.05 81.32 302.61 88.17 304.55 94.61 L 304.72 95.29 C 301.51 96.33 298.13 96.51 294.79 96.30 L 294.01 96.13 C 290.77 95.38 287.27 95.27 284.40 93.41 C 282.48 92.28 283.98 90.06 284.15 88.41 C 284.96 86.39 285.71 84.32 285.99 82.15 C 286.64 78.11 286.64 74.00 286.36 69.93 Z" />
<path fill="#ffffff" opacity="1.00" d=" M 148.33 72.26 C 154.05 72.22 155.25 79.68 153.56 83.95 C 153.26 85.82 151.07 85.57 149.67 85.70 C 148.79 81.27 148.53 76.76 148.33 72.26 Z" />
<path fill="#ffffff" opacity="1.00" d=" M 165.81 74.79 C 166.21 74.69 167.02 74.48 167.42 74.38 C 167.59 75.41 167.77 76.43 167.94 77.46 C 167.31 77.45 166.07 77.45 165.44 77.45 C 165.57 76.56 165.69 75.67 165.81 74.79 Z" />
<path fill="#ffffff" opacity="1.00" d=" M 136.19 93.08 C 136.81 93.12 138.04 93.21 138.66 93.25 C 138.71 114.20 138.55 135.15 138.74 156.10 C 139.72 162.18 140.54 168.33 142.75 174.13 C 145.41 180.69 149.35 186.59 153.17 192.51 C 160.53 204.01 171.62 212.35 182.55 220.21 C 191.74 226.83 201.24 233.01 210.65 239.31 C 211.63 240.12 212.91 239.55 213.81 238.93 C 225.18 231.32 236.67 223.85 247.60 215.60 C 255.68 209.51 263.58 202.86 269.35 194.45 C 272.35 190.05 275.16 185.52 277.89 180.94 C 279.08 178.68 280.06 176.30 281.07 173.95 C 281.70 171.92 282.39 169.89 283.05 167.86 C 284.11 163.33 284.86 158.69 284.79 154.02 C 284.75 134.58 284.84 115.13 284.75 95.70 C 285.44 95.61 286.82 95.45 287.51 95.37 C 288.15 109.26 287.60 123.18 287.79 137.08 C 287.63 145.74 288.19 154.43 287.29 163.06 C 286.81 164.71 286.43 166.39 286.11 168.09 C 285.11 171.83 283.90 175.52 282.36 179.08 C 277.21 188.66 271.42 198.04 263.94 205.99 C 255.92 213.38 247.27 220.08 238.24 226.20 C 233.93 229.24 229.60 232.23 225.22 235.17 C 222.36 237.11 219.45 239.00 216.51 240.82 C 214.93 242.03 213.24 243.10 211.35 243.74 C 210.03 242.71 208.68 241.75 207.31 240.80 C 191.27 230.25 175.01 219.77 160.77 206.82 C 152.80 198.83 146.89 189.07 141.56 179.20 C 140.05 175.64 138.83 171.96 137.72 168.26 C 136.03 160.99 135.22 153.47 136.03 146.02 C 136.00 136.01 135.77 126.00 135.98 115.98 C 136.40 108.35 135.48 100.70 136.19 93.08 Z" />
<path fill="#ffffff" opacity="1.00" d=" M 205.51 143.46 C 206.93 142.17 208.35 140.87 209.99 139.86 C 208.96 141.85 204.67 143.40 206.50 145.92 C 207.93 144.32 209.43 142.52 211.69 142.15 C 211.96 145.56 208.25 147.14 205.41 146.44 C 205.44 145.44 205.48 144.45 205.51 143.46 Z" />
<path fill="#ffffff" opacity="1.00" d=" M 213.97 139.86 C 215.84 140.80 217.62 141.90 219.45 142.92 C 219.46 143.20 219.46 143.76 219.47 144.04 C 217.52 142.81 215.63 141.47 213.97 139.86 Z" />
<path fill="#ffffff" opacity="1.00" d=" M 213.20 142.17 C 213.64 142.37 214.51 142.77 214.94 142.97 C 216.28 144.46 218.70 144.69 219.33 146.79 C 218.70 146.79 217.43 146.78 216.80 146.78 C 216.13 145.50 215.02 144.94 213.45 145.10 C 213.36 144.12 213.28 143.15 213.20 142.17 Z" />
<path fill="#ffffff" opacity="1.00" d=" M 204.12 148.16 C 205.93 148.38 207.87 148.64 207.94 150.92 C 210.63 154.02 205.59 155.72 206.78 158.77 C 206.43 158.72 205.74 158.61 205.40 158.56 L 204.82 158.52 C 204.77 158.31 204.66 157.87 204.61 157.65 L 206.32 157.61 C 205.08 155.63 203.69 153.69 203.01 151.42 L 204.63 151.32 C 205.03 153.06 205.52 154.77 206.09 156.47 C 207.65 153.52 205.14 150.77 204.12 148.16 Z" />
<path fill="#ffffff" opacity="1.00" d=" M 219.22 156.60 C 215.82 154.67 217.74 150.53 219.27 148.05 C 219.69 149.78 219.69 151.56 219.65 153.32 C 219.52 154.41 219.38 155.51 219.22 156.60 Z" />
<path fill="#ffffff" opacity="1.00" d=" M 210.85 154.73 C 213.14 154.37 215.60 154.30 217.02 156.60 C 214.82 156.60 212.64 156.60 210.45 156.57 C 210.36 157.04 210.18 157.99 210.09 158.47 C 211.80 158.38 213.50 158.35 215.22 158.38 C 213.46 160.11 211.11 159.05 209.11 158.56 C 209.48 157.20 209.57 155.60 210.85 154.73 Z" />
</g>
<g id="#c2c2c2ff">
<path fill="#c2c2c2" opacity="1.00" d=" M 422.90 1.51 C 423.13 1.40 423.57 1.18 423.79 1.08 C 423.77 95.32 423.76 189.56 423.79 283.81 C 282.91 283.77 142.04 283.70 1.16 283.85 C 1.23 283.59 1.38 283.08 1.46 282.82 C 7.95 283.23 14.46 283.05 20.97 283.07 C 129.64 283.09 238.30 283.07 346.97 283.09 C 372.29 282.98 397.61 283.28 422.92 282.93 C 423.31 250.30 422.96 217.67 423.08 185.04 C 422.96 123.86 423.31 62.68 422.90 1.51 Z" />
</g>
<g id="#008400ff">
<path fill="#008400" opacity="1.00" d=" M 1.50 1.50 C 141.97 1.49 282.44 1.49 422.90 1.51 C 423.31 62.68 422.96 123.86 423.08 185.04 C 422.96 217.67 423.31 250.30 422.92 282.93 C 397.61 283.28 372.29 282.98 346.97 283.09 C 238.30 283.07 129.64 283.09 20.97 283.07 C 14.46 283.05 7.95 283.23 1.46 282.82 C 1.58 189.05 1.48 95.28 1.50 1.50 M 159.50 41.54 C 159.08 44.49 160.27 48.17 158.17 50.57 C 150.71 49.39 143.26 48.06 135.83 46.70 C 129.58 45.84 122.67 46.53 117.67 50.69 C 115.64 52.88 116.57 56.19 116.70 58.86 C 118.30 67.77 116.36 76.74 115.45 85.61 C 117.52 87.15 119.44 89.52 122.25 89.41 C 126.05 91.41 130.28 92.26 134.49 92.79 C 134.84 113.82 134.37 134.86 134.74 155.89 C 135.71 163.23 136.67 170.71 139.91 177.45 C 146.39 191.44 155.44 204.49 167.62 214.10 C 172.63 217.85 177.29 222.09 182.73 225.24 C 192.18 232.39 202.49 238.31 211.96 245.43 C 213.93 243.90 215.70 242.10 217.85 240.83 C 227.72 235.18 236.75 228.23 246.21 221.96 C 254.88 215.55 263.26 208.61 270.15 200.28 C 274.02 195.10 277.44 189.60 280.82 184.09 C 283.44 179.91 284.62 175.07 286.36 170.50 C 290.01 159.70 289.00 148.17 289.12 136.97 C 289.14 123.59 289.08 110.20 289.15 96.82 C 293.78 95.96 298.29 98.58 303.00 97.46 C 300.21 97.44 297.43 97.24 294.79 96.30 C 298.13 96.51 301.51 96.33 304.72 95.29 L 304.55 94.61 C 304.83 88.75 303.80 82.84 304.95 77.04 C 305.52 73.63 306.80 70.39 307.47 67.00 C 307.70 65.09 307.60 62.58 305.77 61.45 C 301.82 59.16 297.61 57.15 293.08 56.38 C 290.17 55.93 288.16 52.96 285.04 53.38 C 277.14 53.47 269.37 51.76 261.48 51.66 C 253.57 51.52 245.52 51.56 237.78 53.25 C 237.23 53.33 236.13 53.49 235.58 53.57 C 217.87 53.20 200.15 53.53 182.44 53.34 C 182.36 50.70 182.35 48.06 182.39 45.42 C 179.51 42.72 175.71 41.28 171.77 41.30 C 168.09 38.69 163.21 39.36 159.50 41.54 Z" />
</g>
<g id="#404740ff">
<path fill="#404740" opacity="1.00" d=" M 159.50 41.54 C 163.21 39.36 168.09 38.69 171.77 41.30 L 172.72 41.83 C 168.34 41.85 163.74 40.70 159.63 42.79 C 160.62 43.67 161.62 44.55 162.63 45.42 C 166.83 45.50 171.04 45.58 175.25 45.73 C 175.27 47.25 175.29 48.76 175.31 50.28 C 176.39 50.36 178.55 50.53 179.63 50.62 C 180.48 49.19 181.20 47.68 181.79 46.12 C 181.72 48.83 181.45 51.52 181.24 54.21 C 192.10 54.73 203.02 53.31 213.87 54.24 C 214.05 54.41 214.40 54.75 214.58 54.92 C 188.43 54.46 162.28 55.09 136.12 54.94 C 136.12 58.66 135.69 62.51 136.98 66.09 L 137.34 67.33 C 130.63 66.55 123.48 65.71 118.21 61.03 C 118.85 69.05 117.53 76.97 116.90 84.92 C 118.44 87.16 121.20 88.14 123.45 89.51 L 122.25 89.41 C 119.44 89.52 117.52 87.15 115.45 85.61 C 116.36 76.74 118.30 67.77 116.70 58.86 C 116.57 56.19 115.64 52.88 117.67 50.69 C 122.67 46.53 129.58 45.84 135.83 46.70 C 143.26 48.06 150.71 49.39 158.17 50.57 C 160.27 48.17 159.08 44.49 159.50 41.54 M 160.21 46.32 C 160.34 47.32 160.58 49.32 160.71 50.33 C 164.80 50.45 168.90 50.31 173.00 50.23 C 172.95 49.55 172.86 48.18 172.81 47.49 C 168.59 47.36 164.34 47.37 160.21 46.32 M 118.59 51.65 C 115.61 54.27 117.64 58.67 120.39 60.58 C 124.43 63.32 129.33 64.94 134.25 64.78 C 134.23 60.92 134.19 57.06 134.30 53.20 C 149.72 52.68 165.17 53.22 180.60 53.00 L 180.67 51.74 C 166.35 52.88 151.92 51.40 137.93 48.23 C 131.43 46.63 123.87 47.18 118.59 51.65 Z" />
</g>
<g id="#020202ff">
<path fill="#020202" opacity="1.00" d=" M 171.77 41.30 C 175.71 41.28 179.51 42.72 182.39 45.42 C 182.35 48.06 182.36 50.70 182.44 53.34 C 200.15 53.53 217.87 53.20 235.58 53.57 C 229.93 54.45 224.22 54.88 218.55 55.65 C 215.47 57.64 211.77 56.86 208.41 56.23 C 210.52 55.99 212.64 55.98 214.75 56.19 C 214.71 55.88 214.63 55.24 214.58 54.92 C 214.40 54.75 214.05 54.41 213.87 54.24 C 203.02 53.31 192.10 54.73 181.24 54.21 C 181.45 51.52 181.72 48.83 181.79 46.12 C 179.23 43.84 175.98 42.69 172.72 41.83 L 171.77 41.30 Z" />
<path fill="#020202" opacity="1.00" d=" M 210.91 82.15 C 216.75 81.00 222.68 80.42 228.59 79.83 C 223.42 81.87 217.64 81.34 212.23 82.45 C 208.86 83.80 205.07 82.88 201.78 84.46 C 197.68 84.61 193.71 85.59 189.86 86.93 C 187.35 87.67 184.72 87.76 182.14 87.96 C 175.93 89.63 169.48 90.00 163.13 90.86 C 160.19 91.68 157.13 91.70 154.11 91.82 C 149.98 92.98 145.66 92.95 141.41 93.25 C 141.31 112.49 141.42 131.73 141.35 150.98 C 141.10 161.68 143.73 172.51 149.20 181.75 C 154.01 190.00 159.30 198.14 166.51 204.52 C 179.28 216.04 193.96 225.14 208.09 234.87 C 209.66 235.72 211.55 237.69 213.37 236.29 C 219.94 232.27 226.19 227.75 232.59 223.47 C 242.44 216.51 252.51 209.65 260.96 200.97 C 266.20 195.70 269.95 189.22 273.89 182.97 C 280.04 173.20 282.88 161.47 282.47 149.97 C 282.22 130.58 282.71 111.18 282.22 91.80 C 282.39 88.33 282.42 84.86 282.52 81.39 C 280.70 81.03 278.87 80.68 277.04 80.39 C 276.97 80.31 276.85 80.15 276.79 80.07 C 279.64 80.16 282.50 80.16 285.36 80.15 C 285.00 82.91 284.64 85.67 284.15 88.41 C 283.98 90.06 282.48 92.28 284.40 93.41 C 287.27 95.27 290.77 95.38 294.01 96.13 L 294.79 96.30 C 297.43 97.24 300.21 97.44 303.00 97.46 C 298.29 98.58 293.78 95.96 289.15 96.82 C 289.08 110.20 289.14 123.59 289.12 136.97 C 289.00 148.17 290.01 159.70 286.36 170.50 C 284.62 175.07 283.44 179.91 280.82 184.09 C 277.44 189.60 274.02 195.10 270.15 200.28 C 263.26 208.61 254.88 215.55 246.21 221.96 C 236.75 228.23 227.72 235.18 217.85 240.83 C 215.70 242.10 213.93 243.90 211.96 245.43 C 202.49 238.31 192.18 232.39 182.73 225.24 C 177.29 222.09 172.63 217.85 167.62 214.10 C 155.44 204.49 146.39 191.44 139.91 177.45 C 136.67 170.71 135.71 163.23 134.74 155.89 C 134.37 134.86 134.84 113.82 134.49 92.79 C 130.28 92.26 126.05 91.41 122.25 89.41 L 123.45 89.51 C 132.36 92.32 141.77 91.69 150.96 91.25 C 153.27 90.65 155.66 90.46 158.04 90.25 C 175.78 88.36 193.31 84.94 210.91 82.15 M 136.19 93.08 C 135.48 100.70 136.40 108.35 135.98 115.98 C 135.77 126.00 136.00 136.01 136.03 146.02 C 135.22 153.47 136.03 160.99 137.72 168.26 C 138.83 171.96 140.05 175.64 141.56 179.20 C 146.89 189.07 152.80 198.83 160.77 206.82 C 175.01 219.77 191.27 230.25 207.31 240.80 C 208.68 241.75 210.03 242.71 211.35 243.74 C 213.24 243.10 214.93 242.03 216.51 240.82 C 219.45 239.00 222.36 237.11 225.22 235.17 C 229.60 232.23 233.93 229.24 238.24 226.20 C 247.27 220.08 255.92 213.38 263.94 205.99 C 271.42 198.04 277.21 188.66 282.36 179.08 C 283.90 175.52 285.11 171.83 286.11 168.09 C 286.43 166.39 286.81 164.71 287.29 163.06 C 288.19 154.43 287.63 145.74 287.79 137.08 C 287.60 123.18 288.15 109.26 287.51 95.37 C 286.82 95.45 285.44 95.61 284.75 95.70 C 284.84 115.13 284.75 134.58 284.79 154.02 C 284.86 158.69 284.11 163.33 283.05 167.86 C 282.39 169.89 281.70 171.92 281.07 173.95 C 280.06 176.30 279.08 178.68 277.89 180.94 C 275.16 185.52 272.35 190.05 269.35 194.45 C 263.58 202.86 255.68 209.51 247.60 215.60 C 236.67 223.85 225.18 231.32 213.81 238.93 C 212.91 239.55 211.63 240.12 210.65 239.31 C 201.24 233.01 191.74 226.83 182.55 220.21 C 171.62 212.35 160.53 204.01 153.17 192.51 C 149.35 186.59 145.41 180.69 142.75 174.13 C 140.54 168.33 139.72 162.18 138.74 156.10 C 138.55 135.15 138.71 114.20 138.66 93.25 C 138.04 93.21 136.81 93.12 136.19 93.08 Z" />
<path fill="#020202" opacity="1.00" d=" M 209.69 86.70 C 213.39 84.47 219.47 85.39 221.10 89.79 C 221.56 91.38 222.78 92.30 224.28 92.85 C 224.56 93.29 225.13 94.18 225.42 94.62 C 228.04 94.03 230.97 94.58 232.08 97.36 C 233.59 100.95 230.52 103.94 228.22 106.25 C 228.76 106.65 229.84 107.45 230.38 107.84 C 230.59 110.30 230.94 113.00 229.21 115.03 C 229.33 115.70 229.56 117.04 229.67 117.71 C 230.64 117.76 231.60 117.78 232.57 117.78 C 233.46 115.39 234.55 113.04 236.71 111.55 C 238.19 111.60 239.68 111.65 241.17 111.69 C 242.44 107.92 247.07 106.86 250.07 109.31 C 251.26 108.44 252.61 108.04 254.09 108.33 C 258.01 108.59 262.71 106.93 265.82 110.21 C 269.31 112.91 269.61 118.14 266.70 121.37 C 267.06 122.69 267.15 124.05 266.99 125.43 C 267.80 127.50 270.54 129.57 268.80 131.93 C 267.14 135.30 262.83 135.75 259.57 134.81 C 258.88 136.33 258.39 137.99 257.34 139.31 C 256.04 140.87 253.83 140.42 252.05 140.74 C 251.20 142.24 250.31 143.72 249.42 145.20 C 252.65 144.15 256.19 143.16 259.08 145.64 C 259.58 148.31 262.25 147.50 264.23 147.59 C 265.25 148.33 266.27 149.08 267.30 149.83 C 267.43 150.96 267.57 152.10 267.72 153.23 C 269.94 153.43 271.28 154.92 271.89 156.97 C 276.35 159.53 278.85 165.97 275.50 170.35 C 274.25 172.65 271.36 172.52 269.23 173.37 C 268.12 174.53 266.97 175.68 265.31 175.95 C 264.95 178.06 264.44 180.41 262.20 181.27 C 258.61 182.82 255.25 179.30 254.03 176.22 C 251.44 176.84 248.26 178.29 246.11 175.92 C 244.70 174.11 242.57 174.40 240.54 174.65 C 239.85 178.46 244.95 178.78 245.57 182.08 C 245.98 183.68 245.26 185.20 244.66 186.66 C 248.02 189.13 247.14 193.59 244.49 196.22 C 244.79 196.63 245.39 197.47 245.69 197.89 C 244.15 200.74 243.36 203.86 243.35 207.11 C 241.70 208.67 240.13 210.39 238.12 211.51 C 234.79 212.19 230.81 212.09 229.02 208.71 C 228.24 208.70 226.67 208.69 225.89 208.69 C 225.67 208.31 225.22 207.57 225.00 207.19 C 223.03 208.42 220.19 209.71 218.13 207.97 C 215.05 205.49 216.30 201.09 217.37 197.90 C 214.35 197.55 211.41 193.35 213.75 190.75 C 212.98 189.33 211.62 187.82 209.81 188.65 C 210.01 191.81 210.23 195.24 207.26 197.22 C 205.06 197.16 204.44 198.76 204.30 200.64 C 203.61 201.60 202.92 202.57 202.24 203.54 C 200.71 203.60 199.19 203.65 197.66 203.68 C 197.17 204.46 196.67 205.25 196.17 206.03 C 192.16 205.80 190.08 210.36 186.04 210.14 C 180.70 210.81 176.13 205.62 177.39 200.39 C 176.55 199.16 175.92 197.81 175.23 196.51 C 173.81 195.14 171.06 194.48 171.43 192.01 C 170.60 187.99 174.93 185.56 178.32 185.12 C 178.27 183.49 178.06 181.84 178.31 180.22 C 179.01 177.41 183.83 177.02 182.37 173.57 C 179.86 172.89 178.77 176.24 176.42 176.55 C 174.50 177.34 172.55 176.53 170.96 175.43 C 168.91 176.25 166.55 177.58 164.34 176.45 C 163.22 175.59 162.29 174.53 161.28 173.55 C 158.51 174.04 156.52 171.71 153.95 171.20 C 151.12 170.63 148.55 168.71 147.49 165.99 C 147.00 163.64 147.27 161.23 147.41 158.85 C 150.22 157.21 151.72 154.52 153.44 151.92 C 153.45 149.57 152.45 146.27 154.95 144.85 C 158.07 143.19 161.75 144.56 164.29 146.67 C 166.37 143.21 170.63 142.49 174.02 144.45 C 175.01 143.22 176.00 141.98 176.97 140.74 C 174.49 140.18 171.32 140.66 169.55 138.44 C 168.31 137.30 168.47 135.52 168.19 134.01 C 165.87 133.44 163.73 132.04 162.83 129.75 C 162.73 128.37 163.42 127.09 163.71 125.78 C 163.20 125.34 162.18 124.45 161.67 124.00 C 162.29 119.73 158.15 116.16 159.89 111.89 C 160.61 108.43 163.90 106.81 166.86 105.59 C 169.14 106.52 171.62 107.20 173.87 105.80 C 174.43 105.76 175.55 105.69 176.12 105.65 C 177.25 102.79 181.13 101.52 183.54 103.59 C 185.92 105.06 186.25 108.03 186.87 110.50 C 190.49 110.73 193.85 112.94 194.38 116.73 C 195.81 116.99 197.25 117.25 198.70 117.49 C 198.33 114.81 195.77 112.78 196.41 109.92 C 196.25 108.30 197.72 107.36 198.60 106.24 C 198.47 104.29 197.94 102.27 198.50 100.35 C 199.32 98.92 201.02 98.40 202.38 97.65 C 202.48 96.75 202.59 95.85 202.70 94.95 C 206.23 93.22 206.24 88.50 209.69 86.70 M 207.65 92.02 C 207.21 94.24 204.44 94.84 204.17 97.17 C 205.85 98.13 207.78 98.40 209.64 98.77 C 209.71 99.29 209.85 100.33 209.92 100.86 C 206.61 100.41 203.24 99.93 199.92 100.58 C 200.37 102.36 199.84 105.04 202.05 105.77 C 204.62 106.81 207.57 106.65 210.02 108.09 C 209.28 108.80 208.57 109.56 207.77 110.20 C 204.74 109.24 201.80 107.46 198.51 108.44 C 198.41 109.90 198.32 111.37 198.25 112.83 C 201.53 115.40 207.52 114.08 209.00 118.78 C 205.82 118.48 203.14 115.62 199.86 116.72 C 199.79 117.34 199.66 118.58 199.59 119.20 C 201.77 123.21 206.78 124.12 210.06 127.02 C 209.87 126.16 209.50 124.45 209.32 123.59 C 209.87 123.61 210.98 123.64 211.54 123.66 C 213.41 123.47 215.20 122.90 216.93 122.19 C 216.14 122.94 215.35 123.70 214.58 124.47 C 213.14 124.34 211.70 124.22 210.26 124.09 C 210.29 124.91 210.34 126.54 210.36 127.36 C 212.05 127.05 213.76 126.75 215.46 126.45 C 217.90 122.88 222.03 121.88 225.97 120.94 C 228.12 120.79 227.53 118.36 227.97 116.90 C 224.79 115.88 221.86 117.55 219.02 118.78 C 219.09 118.33 219.22 117.44 219.28 116.99 C 222.08 115.86 224.96 114.93 227.67 113.57 C 228.66 111.28 228.95 108.36 226.08 107.36 C 224.03 108.19 222.07 109.21 220.02 110.03 C 219.57 105.56 224.93 105.75 227.48 103.53 C 229.77 102.21 230.46 99.02 229.08 96.81 C 226.26 95.74 223.80 98.21 221.18 98.92 C 221.79 97.42 222.43 95.95 223.06 94.47 C 222.35 94.26 220.93 93.85 220.22 93.65 C 219.67 90.60 217.91 88.06 214.90 86.99 C 214.90 87.75 214.90 89.28 214.90 90.04 C 214.49 89.07 214.06 88.11 213.63 87.16 C 211.20 88.10 208.28 89.13 207.65 92.02 M 175.92 112.07 C 175.44 110.56 175.50 108.70 174.14 107.63 C 173.57 108.04 172.42 108.85 171.85 109.26 C 168.92 107.48 165.41 107.38 162.77 109.72 C 161.82 112.02 161.37 114.45 161.62 116.94 C 163.61 118.71 163.71 121.26 163.64 123.74 C 166.46 123.58 168.08 120.88 170.77 120.32 C 170.88 124.75 163.35 124.90 165.28 129.99 C 169.07 134.12 173.17 128.05 176.38 126.08 C 176.33 127.28 177.51 129.20 176.06 129.95 C 174.26 131.10 172.33 132.03 170.44 133.03 C 170.46 134.39 170.55 135.75 170.71 137.10 C 172.81 138.16 175.62 138.14 177.33 136.35 C 179.21 134.63 181.33 133.13 184.01 133.24 C 183.43 137.00 177.55 135.83 177.34 139.77 C 178.61 142.23 181.72 141.69 183.90 140.94 C 186.72 139.90 189.64 139.10 192.36 137.78 C 191.21 137.60 188.91 137.25 187.76 137.07 C 188.37 136.57 189.60 135.56 190.21 135.06 C 187.85 132.96 185.37 130.28 181.91 130.55 C 183.05 130.18 184.15 129.71 185.22 129.14 C 183.83 127.79 182.44 126.46 181.08 125.09 C 180.04 122.54 178.09 120.57 176.04 118.82 C 174.63 117.67 173.22 116.09 171.21 116.52 C 171.59 116.28 172.35 115.80 172.72 115.56 L 172.33 115.28 C 173.80 116.27 175.37 117.11 176.91 117.98 C 177.91 120.06 179.35 121.87 181.58 122.71 C 182.84 124.19 183.99 125.76 185.29 127.21 C 185.61 125.48 185.94 123.77 186.28 122.05 C 186.90 125.85 187.16 130.02 190.28 132.74 C 191.76 133.14 193.22 133.99 194.80 133.85 C 195.10 131.60 194.97 129.33 194.89 127.08 C 195.95 125.12 197.30 123.18 197.52 120.90 C 197.40 118.82 194.87 118.89 193.50 119.57 C 192.15 121.22 191.96 123.47 191.27 125.44 C 190.75 125.50 189.71 125.62 189.19 125.68 C 190.18 122.13 193.55 118.30 191.31 114.65 C 190.27 112.50 187.69 113.35 185.87 113.67 C 185.79 115.95 185.98 118.52 183.89 120.05 C 181.09 116.19 185.76 112.13 184.04 108.06 C 183.47 106.00 181.32 103.60 179.02 104.78 C 177.11 106.77 178.09 110.15 175.92 112.07 M 243.13 111.31 C 242.36 115.29 245.94 118.09 245.87 121.96 C 241.41 121.85 242.04 116.34 240.27 113.43 C 238.55 113.54 236.48 113.08 235.54 114.95 C 234.24 119.09 238.38 122.32 237.78 126.49 C 237.26 126.49 236.21 126.48 235.68 126.48 C 235.39 124.22 235.26 121.84 234.10 119.81 C 233.23 119.74 231.50 119.60 230.63 119.53 C 229.69 121.67 229.20 123.95 229.33 126.30 L 228.49 124.96 C 227.77 120.87 223.24 123.47 220.89 124.68 C 219.77 125.14 218.86 125.96 217.88 126.65 C 219.55 127.48 221.34 128.08 222.92 126.70 C 223.41 127.27 224.39 128.41 224.88 128.98 C 225.64 128.39 227.18 127.21 227.94 126.62 C 228.49 126.56 229.57 126.43 230.11 126.36 C 230.15 128.63 230.18 130.89 230.27 133.16 L 231.41 132.85 L 230.06 133.85 C 231.28 134.96 232.51 136.07 233.76 137.16 C 235.75 137.34 237.95 137.09 239.73 138.22 C 242.50 139.83 244.59 142.75 248.05 142.90 C 248.46 142.14 249.28 140.63 249.69 139.87 C 247.34 138.23 244.82 136.74 242.95 134.53 C 243.54 134.55 244.72 134.61 245.31 134.63 C 247.37 136.18 249.40 137.98 251.96 138.61 C 254.45 138.85 257.51 136.72 256.42 133.92 C 255.09 132.89 253.43 132.52 251.88 132.00 C 251.64 131.42 251.18 130.28 250.95 129.71 C 255.51 128.80 258.71 133.94 263.41 132.66 C 266.05 132.72 266.65 130.02 266.75 127.93 C 264.60 127.06 262.15 126.49 260.66 124.56 C 262.04 124.39 263.42 124.23 264.80 124.09 C 264.25 122.17 264.11 120.20 265.56 118.63 C 267.34 116.69 266.47 113.98 265.05 112.12 C 263.89 111.05 262.45 110.35 261.10 109.56 C 260.35 109.63 258.84 109.75 258.09 109.81 C 256.33 111.25 254.31 110.41 252.61 109.36 C 250.25 111.54 253.03 114.17 253.59 116.56 C 252.96 116.63 251.70 116.77 251.07 116.83 C 250.14 113.89 249.15 110.57 246.05 109.22 C 245.08 109.92 244.11 110.62 243.13 111.31 M 198.84 122.50 C 198.37 124.50 197.82 126.48 197.29 128.47 C 198.44 128.54 199.59 128.61 200.74 128.68 C 201.04 128.25 201.64 127.41 201.94 126.98 C 203.55 127.66 205.32 128.46 206.35 126.51 C 203.70 125.46 201.13 124.20 198.84 122.50 M 222.33 129.38 C 222.60 130.12 223.13 131.61 223.39 132.35 C 222.43 131.40 221.42 130.51 220.38 129.65 C 215.59 129.95 210.78 129.43 206.00 129.93 C 204.42 130.32 202.01 130.83 202.11 132.93 C 201.76 136.05 205.06 137.80 206.90 139.81 C 208.35 139.03 209.59 137.89 211.14 137.30 C 211.04 137.72 210.84 138.56 210.74 138.97 C 212.19 141.75 215.27 136.99 211.97 136.97 C 214.54 135.90 216.01 139.91 218.60 140.18 C 220.21 138.12 221.69 135.94 222.79 133.55 L 223.97 133.57 C 225.64 133.47 227.32 133.39 229.00 133.27 C 228.60 133.02 227.80 132.53 227.41 132.28 C 227.40 130.78 227.38 129.27 227.36 127.77 C 226.81 128.27 225.71 129.25 225.16 129.75 C 224.23 129.49 223.29 129.37 222.33 129.38 M 196.79 129.23 C 196.98 130.73 197.15 132.24 197.31 133.75 C 198.73 134.22 200.15 134.69 201.58 135.17 C 201.56 133.93 201.54 131.44 201.53 130.20 C 199.95 129.84 198.37 129.52 196.79 129.23 M 194.10 135.18 C 194.57 135.51 195.51 136.19 195.98 136.53 C 194.18 139.71 194.32 143.51 192.70 146.77 C 191.67 148.80 191.51 151.05 191.56 153.28 C 192.06 153.65 193.06 154.40 193.56 154.77 C 192.87 154.57 191.50 154.18 190.81 153.98 C 190.41 154.80 189.60 156.43 189.19 157.25 C 190.47 158.01 191.82 158.68 193.07 159.50 C 193.34 158.13 194.07 156.96 194.75 155.77 L 194.27 155.23 L 194.96 155.58 C 197.06 154.53 199.46 153.75 201.10 151.99 C 200.99 149.54 200.80 147.09 200.78 144.64 C 202.42 143.67 204.41 142.82 204.97 140.80 C 204.14 138.86 202.56 137.36 201.01 135.99 C 199.66 134.53 197.66 135.76 196.02 135.86 C 195.54 135.69 194.58 135.35 194.10 135.18 M 223.57 135.58 C 222.19 137.29 221.15 139.24 220.00 141.12 C 221.80 142.65 223.71 144.05 225.62 145.44 C 224.97 147.68 224.54 149.97 224.36 152.30 C 226.48 153.13 228.57 154.26 230.90 154.35 L 229.84 154.75 L 230.90 155.99 C 228.63 155.18 226.28 154.63 223.94 154.05 C 222.97 155.43 221.98 156.80 221.00 158.16 L 222.52 158.25 C 221.69 159.33 220.90 160.45 220.15 161.59 C 218.19 161.44 216.23 161.28 214.28 161.15 C 214.17 163.67 214.00 166.19 213.83 168.71 L 213.05 167.85 L 212.31 168.61 C 212.50 166.29 212.80 163.62 211.50 161.57 C 209.82 159.93 207.40 160.56 205.30 160.50 C 205.33 160.01 205.37 159.05 205.40 158.56 C 205.74 158.61 206.43 158.72 206.78 158.77 C 205.59 155.72 210.63 154.02 207.94 150.92 C 207.87 148.64 205.93 148.38 204.12 148.16 C 205.14 150.77 207.65 153.52 206.09 156.47 C 205.52 154.77 205.03 153.06 204.63 151.32 L 203.01 151.42 C 203.69 153.69 205.08 155.63 206.32 157.61 L 204.61 157.65 C 204.66 157.87 204.77 158.31 204.82 158.52 L 203.75 158.49 C 203.65 157.85 203.47 156.59 203.38 155.96 C 202.91 155.57 201.97 154.80 201.50 154.41 C 199.95 155.20 198.24 155.40 196.53 155.43 C 195.83 156.17 195.13 156.92 194.44 157.68 C 194.44 158.59 194.45 160.41 194.45 161.32 C 199.49 164.67 204.20 168.66 209.68 171.30 C 210.14 171.40 211.07 171.62 211.53 171.72 C 211.62 172.08 211.80 172.80 211.90 173.16 C 210.55 172.93 209.20 173.03 207.84 173.47 C 207.41 173.08 206.55 172.31 206.11 171.92 C 206.50 176.26 210.40 178.88 212.04 182.68 C 215.31 179.76 219.22 176.98 219.96 172.33 C 218.84 173.65 217.11 173.21 215.61 173.28 C 214.96 174.72 214.42 176.23 213.52 177.54 C 211.58 178.32 212.68 174.86 212.16 173.78 C 212.37 174.01 212.78 174.46 212.99 174.69 C 213.53 173.08 214.52 171.87 215.97 171.06 L 215.73 170.80 C 220.20 171.23 223.08 167.71 225.95 164.95 C 228.87 163.28 232.00 161.33 232.26 157.57 C 232.53 157.91 233.06 158.58 233.33 158.92 C 234.08 157.36 235.52 156.56 237.15 156.19 C 236.52 155.70 235.90 155.19 235.30 154.66 C 235.39 154.12 235.56 153.06 235.65 152.52 L 234.48 152.98 C 234.73 147.08 230.23 142.35 230.33 136.41 C 228.55 134.65 225.69 133.97 223.57 135.58 M 234.03 138.99 C 235.08 142.96 237.11 146.73 236.78 150.97 C 239.51 149.20 241.91 146.46 243.68 143.95 C 241.80 140.85 237.68 139.16 234.03 138.99 M 205.51 143.46 C 205.48 144.45 205.44 145.44 205.41 146.44 C 208.25 147.14 211.96 145.56 211.69 142.15 C 209.43 142.52 207.93 144.32 206.50 145.92 C 204.67 143.40 208.96 141.85 209.99 139.86 C 208.35 140.87 206.93 142.17 205.51 143.46 M 213.97 139.86 C 215.63 141.47 217.52 142.81 219.47 144.04 C 219.46 143.76 219.46 143.20 219.45 142.92 C 217.62 141.90 215.84 140.80 213.97 139.86 M 181.17 144.11 C 182.91 147.10 184.56 150.23 187.10 152.66 C 188.72 152.11 189.63 150.68 189.42 148.98 C 189.61 146.01 190.96 143.23 190.76 140.21 C 187.65 141.71 184.63 143.53 181.17 144.11 M 213.20 142.17 C 213.28 143.15 213.36 144.12 213.45 145.10 C 215.02 144.94 216.13 145.50 216.80 146.78 C 217.43 146.78 218.70 146.79 219.33 146.79 C 218.70 144.69 216.28 144.46 214.94 142.97 C 214.51 142.77 213.64 142.37 213.20 142.17 M 175.43 145.90 C 176.01 148.51 177.93 150.56 179.08 152.94 C 176.07 152.74 175.55 149.22 173.86 147.31 C 172.26 144.33 168.24 144.82 166.07 146.85 C 166.68 148.80 167.84 150.44 169.35 151.79 C 169.42 152.34 169.57 153.44 169.64 153.99 C 164.87 153.74 164.51 146.96 159.88 146.29 C 158.39 146.21 156.40 145.82 155.33 147.17 C 154.28 150.10 157.50 152.09 158.62 154.45 C 157.03 154.15 155.45 153.83 153.87 153.51 C 153.82 154.29 153.73 155.85 153.68 156.63 C 150.69 157.68 148.49 159.96 148.45 163.29 C 149.70 165.55 150.91 168.58 153.85 168.94 C 156.29 169.15 158.32 170.46 160.21 171.93 C 161.43 169.93 160.99 167.66 160.60 165.50 C 161.55 165.44 162.51 165.37 163.47 165.31 C 163.55 168.49 161.88 175.13 167.07 174.52 C 171.16 172.93 169.24 167.85 169.49 164.55 C 170.56 164.45 171.62 164.34 172.69 164.22 C 172.78 167.37 171.80 170.53 172.40 173.66 C 174.37 175.62 178.04 174.44 178.37 171.65 C 178.55 168.79 178.46 165.89 179.47 163.16 C 180.06 163.20 181.24 163.29 181.82 163.34 C 180.99 165.93 179.95 168.63 180.75 171.39 C 183.29 172.38 185.45 170.13 186.15 167.88 C 187.12 164.95 188.05 162.01 189.25 159.16 C 188.01 159.99 186.79 160.84 185.59 161.72 C 185.61 160.97 185.63 159.48 185.64 158.74 L 186.40 158.58 C 185.59 157.56 184.79 156.55 183.99 155.53 L 184.80 155.21 C 186.28 155.38 187.77 155.56 189.26 155.73 C 187.35 154.30 185.18 153.21 183.48 151.52 C 181.81 149.40 181.07 146.71 179.48 144.54 C 178.06 143.81 175.78 144.02 175.43 145.90 M 201.21 144.49 C 201.27 145.49 201.37 146.48 201.50 147.47 C 202.38 147.53 204.15 147.65 205.03 147.70 C 204.59 146.87 203.70 145.20 203.26 144.37 C 202.74 144.40 201.72 144.46 201.21 144.49 M 221.76 146.00 C 222.12 146.23 222.84 146.69 223.20 146.92 C 225.62 146.60 223.35 143.49 221.98 145.21 C 220.57 143.04 219.48 147.27 221.76 146.00 M 244.37 146.25 C 241.59 148.84 238.70 151.34 236.04 154.06 C 236.90 153.90 238.63 153.57 239.49 153.40 L 239.78 155.40 L 238.24 154.79 C 238.66 156.25 239.11 157.70 239.54 159.15 C 238.70 158.71 237.03 157.83 236.20 157.38 C 236.86 159.77 238.20 161.88 239.08 164.18 C 239.32 166.46 239.07 168.76 239.29 171.04 C 239.80 173.68 244.00 172.13 243.47 170.00 C 243.74 167.92 241.96 164.99 244.38 163.78 C 244.84 166.83 245.06 169.95 245.93 172.93 C 247.14 175.14 249.84 174.49 251.91 174.74 C 252.34 172.10 251.66 169.50 251.12 166.94 C 252.11 167.23 253.08 167.57 254.04 167.95 C 254.81 171.10 254.50 174.75 256.82 177.32 C 258.06 179.11 260.48 178.77 262.34 178.46 C 263.64 176.05 262.00 173.22 261.96 170.66 C 263.30 171.49 264.28 173.23 265.98 173.30 C 266.25 172.68 266.78 171.45 267.05 170.83 C 269.85 170.78 273.18 170.82 274.26 167.64 L 274.75 167.73 C 274.92 164.99 274.56 162.26 273.22 159.84 C 272.24 159.44 271.27 159.05 270.30 158.65 C 269.77 156.79 269.28 154.63 266.79 155.14 C 266.03 156.64 265.40 158.21 264.75 159.77 C 264.12 159.69 262.85 159.55 262.22 159.47 C 263.16 156.61 265.90 154.20 265.38 151.03 C 264.40 149.10 261.86 148.90 260.24 150.11 C 257.29 151.74 258.36 157.42 254.16 156.96 C 253.95 154.22 255.73 152.27 257.31 150.29 C 258.91 147.77 255.81 144.05 253.13 145.93 C 250.25 148.25 249.41 152.22 246.71 154.77 C 246.39 154.38 245.77 153.60 245.45 153.21 C 246.56 151.23 248.27 149.67 249.73 147.96 C 249.14 145.33 246.41 144.46 244.37 146.25 M 209.69 152.46 C 211.38 152.48 213.25 153.21 214.86 152.39 C 216.02 151.14 217.09 149.60 216.07 147.89 C 214.56 146.48 212.49 146.35 210.53 146.33 C 209.52 148.25 209.07 150.33 209.69 152.46 M 219.27 148.05 C 217.74 150.53 215.82 154.67 219.22 156.60 C 219.38 155.51 219.52 154.41 219.65 153.32 C 220.22 153.62 221.35 154.23 221.92 154.54 C 224.18 152.97 222.49 149.48 223.06 147.15 C 221.77 147.37 220.51 147.65 219.27 148.05 M 210.85 154.73 C 209.57 155.60 209.48 157.20 209.11 158.56 C 211.11 159.05 213.46 160.11 215.22 158.38 C 213.50 158.35 211.80 158.38 210.09 158.47 C 210.18 157.99 210.36 157.04 210.45 156.57 C 212.64 156.60 214.82 156.60 217.02 156.60 C 215.60 154.30 213.14 154.37 210.85 154.73 M 217.34 157.13 C 217.35 158.35 217.37 159.57 217.39 160.80 C 219.54 160.83 220.70 159.81 220.85 157.73 C 219.68 157.53 218.51 157.33 217.34 157.13 M 226.45 168.39 C 225.93 169.30 225.41 170.23 224.90 171.15 C 224.41 170.80 223.42 170.11 222.92 169.76 C 221.75 172.12 220.65 174.53 219.86 177.05 C 218.09 180.03 214.78 181.40 212.46 183.81 C 211.75 185.91 213.49 186.85 215.02 187.76 C 217.21 186.02 218.93 183.01 222.09 183.18 C 220.08 185.42 217.59 187.18 215.62 189.45 C 214.27 191.63 215.52 194.15 216.84 196.01 C 219.35 195.15 221.00 193.03 222.94 191.36 L 223.96 191.84 C 224.00 194.57 221.32 196.02 219.93 198.04 C 217.86 200.23 217.22 204.50 219.94 206.44 C 223.04 206.69 224.24 203.11 226.59 201.67 C 226.55 203.22 226.50 204.78 226.44 206.34 C 227.29 206.29 228.99 206.21 229.84 206.16 C 231.43 209.32 234.60 210.28 237.96 209.62 L 237.18 208.54 C 240.94 209.16 242.36 203.82 241.71 200.82 C 242.30 199.49 243.52 198.24 243.12 196.66 C 240.86 196.05 238.63 197.02 236.46 197.52 C 236.46 196.61 236.46 195.71 236.46 194.81 C 239.14 194.52 241.81 194.10 244.43 193.44 C 244.60 191.77 244.55 190.09 244.41 188.42 C 241.11 188.09 237.61 187.87 234.57 189.47 C 234.11 188.77 233.65 188.08 233.26 187.34 C 235.84 184.14 240.75 187.15 243.70 184.25 C 243.30 182.49 243.18 180.20 241.03 179.71 C 237.65 178.98 234.30 181.01 230.85 180.30 C 230.68 179.77 230.34 178.73 230.17 178.20 C 232.94 177.81 236.12 179.09 238.56 177.42 C 239.73 174.87 236.80 173.04 234.61 172.89 C 235.85 172.62 237.08 172.31 238.31 171.96 C 238.63 168.79 238.69 165.43 236.66 162.78 C 236.28 162.06 235.51 160.63 235.13 159.92 C 232.50 163.01 230.12 166.40 226.45 168.39 M 190.19 162.19 C 189.04 164.85 188.50 167.72 188.03 170.56 C 191.91 171.72 196.16 172.31 199.91 170.39 C 200.21 167.68 197.25 166.89 195.64 165.36 C 193.94 164.09 192.69 161.66 190.19 162.19 M 196.10 173.05 C 193.31 173.72 190.68 172.33 188.02 171.73 C 186.25 171.09 185.16 173.03 183.98 173.90 C 185.40 177.60 189.58 176.64 192.69 177.08 L 191.88 178.51 C 188.52 178.95 184.67 176.46 181.73 178.84 C 179.99 179.92 180.34 182.05 180.18 183.78 C 182.35 184.40 184.61 184.45 186.84 184.31 C 186.83 184.93 186.79 186.17 186.78 186.79 C 182.77 187.02 177.91 185.57 174.61 188.54 C 172.92 189.69 173.60 191.80 173.54 193.50 C 176.07 193.53 178.60 193.49 181.13 193.53 C 180.42 194.87 179.15 195.65 177.85 196.33 C 178.37 197.32 178.96 198.29 179.58 199.23 C 178.78 202.60 179.53 205.95 182.50 208.04 L 182.97 206.74 L 182.81 207.68 C 186.09 207.80 189.86 208.02 191.56 204.59 C 192.34 204.61 193.90 204.63 194.67 204.65 C 195.68 202.00 193.63 200.38 191.59 199.19 C 191.57 198.65 191.54 197.58 191.52 197.04 C 194.90 197.68 196.46 201.89 200.11 201.65 C 202.16 201.01 203.24 198.11 201.68 196.48 C 200.10 193.87 195.28 193.18 196.51 189.37 C 199.93 189.93 201.05 193.58 203.83 195.09 C 205.12 195.88 206.44 194.73 207.69 194.45 C 207.63 193.12 207.79 191.75 207.41 190.46 C 205.32 187.64 201.67 185.94 200.93 182.24 C 201.47 182.32 202.55 182.48 203.10 182.57 C 204.08 184.00 204.93 185.58 206.24 186.76 C 207.10 187.75 210.04 187.83 209.81 185.98 C 210.71 181.34 205.75 178.53 204.92 174.25 C 204.20 175.41 203.50 176.60 203.26 177.97 C 202.82 177.52 201.93 176.64 201.49 176.19 C 200.73 177.49 199.97 178.79 199.25 180.11 C 199.25 179.62 199.25 178.65 199.24 178.16 C 198.76 178.26 197.80 178.47 197.32 178.57 C 198.52 177.63 199.72 176.69 200.84 175.65 C 199.61 175.56 197.17 175.39 195.95 175.30 C 198.26 173.98 200.72 174.95 202.91 176.00 L 202.56 174.62 C 204.67 174.04 204.69 172.14 204.58 170.25 C 201.61 170.73 198.95 172.17 196.10 173.05 Z" />
<path fill="#020202" opacity="1.00" d=" M 224.88 136.54 C 226.06 136.52 227.24 136.49 228.42 136.45 C 228.73 140.27 228.96 144.31 231.40 147.48 C 232.94 149.05 233.29 152.87 230.26 152.48 C 230.65 151.88 231.43 150.69 231.81 150.09 C 230.80 147.92 228.75 146.44 227.77 144.26 C 227.39 142.12 227.59 139.94 227.59 137.78 C 226.65 137.45 225.74 137.03 224.88 136.54 Z" />
<path fill="#020202" opacity="1.00" d=" M 228.41 156.90 C 231.15 158.72 228.72 161.72 226.30 162.22 C 222.10 163.61 220.65 169.24 215.83 169.21 C 217.76 167.96 219.57 166.55 220.76 164.53 C 222.41 161.76 225.78 161.08 228.62 160.17 C 228.57 159.36 228.46 157.72 228.41 156.90 Z" />
<path fill="#020202" opacity="1.00" d=" M 195.76 158.00 C 197.85 160.67 201.13 161.61 203.95 163.24 C 206.13 164.50 206.87 167.76 209.71 167.79 C 209.72 168.11 209.72 168.75 209.73 169.07 C 205.91 168.54 204.47 164.29 200.94 163.20 C 198.42 162.36 195.87 161.01 195.76 158.00 Z" />
<path fill="#020202" opacity="1.00" d=" M 251.10 160.20 C 251.53 160.37 252.40 160.70 252.83 160.86 C 255.50 164.33 260.52 163.91 264.26 165.60 C 261.45 165.39 258.72 164.75 256.00 164.06 C 255.55 164.04 254.65 164.00 254.20 163.98 C 253.26 162.64 252.27 161.34 251.10 160.20 Z" />
<path fill="#020202" opacity="1.00" d=" M 190.54 187.21 C 192.87 184.49 195.46 181.83 199.00 180.77 C 196.30 183.42 193.06 185.58 190.99 188.83 C 190.87 188.43 190.65 187.62 190.54 187.21 Z" />
</g>
<g id="#181719ff">
<path fill="#181719" opacity="1.00" d=" M 237.78 53.25 C 245.52 51.56 253.57 51.52 261.48 51.66 C 269.37 51.76 277.14 53.47 285.04 53.38 C 288.16 52.96 290.17 55.93 293.08 56.38 C 297.61 57.15 301.82 59.16 305.77 61.45 C 307.60 62.58 307.70 65.09 307.47 67.00 C 306.80 70.39 305.52 73.63 304.95 77.04 C 303.80 82.84 304.83 88.75 304.55 94.61 C 302.61 88.17 303.05 81.32 304.31 74.79 C 304.86 73.57 305.25 72.28 305.71 71.01 C 304.54 71.00 302.18 70.98 301.00 70.96 C 302.35 70.54 303.71 70.13 305.07 69.73 C 306.37 68.12 307.24 66.23 306.85 64.11 C 299.49 57.28 288.79 56.46 279.37 54.65 C 268.58 52.70 257.44 51.79 246.54 53.37 C 245.47 53.40 244.40 53.44 243.34 53.48 C 241.48 53.41 239.63 53.27 237.78 53.25 Z" />
<path fill="#181719" opacity="1.00" d=" M 215.04 90.86 C 216.37 96.68 216.49 102.66 216.44 108.61 C 216.02 108.91 215.19 109.51 214.78 109.81 C 215.51 106.39 215.29 102.87 215.10 99.41 C 215.77 96.58 215.57 93.68 215.04 90.86 Z" />
<path fill="#181719" opacity="1.00" d=" M 239.59 127.52 C 240.43 127.76 241.28 127.99 242.13 128.20 L 242.69 128.29 C 241.15 129.07 239.46 129.50 237.80 129.96 C 238.40 129.15 239.00 128.34 239.59 127.52 Z" />
</g>
<g id="#6a6868ff">
<path fill="#6a6868" opacity="1.00" d=" M 235.58 53.57 C 236.13 53.49 237.23 53.33 237.78 53.25 C 239.63 53.27 241.48 53.41 243.34 53.48 C 234.59 55.41 225.31 54.45 216.85 57.60 C 212.62 57.52 208.43 57.99 204.25 58.63 C 203.97 58.25 203.42 57.50 203.14 57.13 C 204.90 56.82 206.64 56.41 208.41 56.23 C 211.77 56.86 215.47 57.64 218.55 55.65 C 224.22 54.88 229.93 54.45 235.58 53.57 Z" />
<path fill="#6a6868" opacity="1.00" d=" M 219.27 148.05 C 220.51 147.65 221.77 147.37 223.06 147.15 C 222.49 149.48 224.18 152.97 221.92 154.54 C 221.35 154.23 220.22 153.62 219.65 153.32 C 219.69 151.56 219.69 149.78 219.27 148.05 Z" />
</g>
<g id="#afb2aeff">
<path fill="#afb2ae" opacity="1.00" d=" M 246.54 53.37 C 257.44 51.79 268.58 52.70 279.37 54.65 C 276.55 54.64 273.74 54.52 270.96 54.13 C 262.85 53.06 254.67 53.97 246.54 53.37 Z" />
</g>
<g id="#02030dff">
<path fill="#02030d" opacity="1.00" d=" M 138.66 57.45 C 160.15 57.15 181.67 57.79 203.14 57.13 C 203.42 57.50 203.97 58.25 204.25 58.63 C 197.98 59.40 191.80 60.99 185.49 61.39 C 183.38 60.66 181.30 59.59 179.01 59.72 C 166.53 59.84 154.05 59.81 141.57 59.77 C 141.45 61.72 141.37 63.68 141.28 65.63 C 153.92 65.16 166.45 63.12 178.91 61.06 C 181.09 60.53 183.32 60.97 185.49 61.39 C 182.71 62.14 179.86 62.45 177.02 62.83 C 174.72 63.38 172.36 63.61 170.02 63.88 C 159.24 65.88 148.25 66.46 137.34 67.33 L 136.98 66.09 C 137.40 65.94 138.23 65.63 138.64 65.48 C 138.65 62.80 138.66 60.13 138.66 57.45 Z" />
<path fill="#02030d" opacity="1.00" d=" M 159.54 159.70 C 163.19 158.43 167.29 158.65 170.60 156.46 C 170.42 157.11 170.25 157.77 170.09 158.42 C 166.57 158.81 163.06 159.32 159.54 159.70 Z" />
</g>
<g id="#000000ff">
<path fill="#000000" opacity="1.00" d=" M 231.11 57.81 C 234.40 57.46 237.70 57.34 241.01 57.39 C 240.45 58.30 239.87 59.19 239.28 60.08 C 239.63 64.24 238.31 68.88 240.76 72.58 C 243.41 73.11 246.04 71.95 246.29 69.01 C 245.38 64.95 246.95 60.00 243.30 57.03 C 245.41 56.98 248.17 55.87 249.86 57.68 C 249.49 58.07 248.76 58.85 248.39 59.25 C 247.60 63.92 249.42 68.86 247.49 73.34 C 243.60 75.98 237.20 76.72 234.35 72.22 C 234.19 68.53 234.27 64.83 234.12 61.14 C 233.07 60.07 232.05 58.98 231.11 57.81 Z" />
<path fill="#000000" opacity="1.00" d=" M 253.12 56.58 C 255.21 56.51 257.30 56.49 259.40 56.43 C 260.19 59.64 260.96 62.86 261.76 66.07 C 263.46 63.45 264.93 60.60 264.96 57.39 C 267.38 57.07 269.82 57.24 272.23 57.54 C 271.67 58.66 271.09 59.76 270.48 60.85 C 271.03 65.73 270.52 70.96 272.91 75.42 C 270.01 75.29 267.14 74.90 264.26 74.54 C 264.36 74.17 264.55 73.42 264.64 73.04 C 267.37 71.34 265.41 68.01 265.75 65.45 C 265.77 65.12 265.81 64.46 265.83 64.13 C 264.95 65.80 263.88 67.36 263.06 69.06 C 262.48 70.85 261.84 72.62 261.27 74.42 C 260.42 74.39 259.57 74.37 258.72 74.34 C 258.41 72.96 258.11 71.58 257.72 70.22 C 257.26 68.11 256.67 66.04 255.91 64.03 C 255.28 66.37 254.64 68.71 254.27 71.11 C 254.98 71.93 255.67 72.77 256.36 73.62 C 254.31 73.76 252.26 73.95 250.24 74.30 C 252.21 68.75 255.00 62.63 253.12 56.58 Z" />
<path fill="#000000" opacity="1.00" d=" M 212.90 60.70 C 217.50 59.65 222.29 59.14 226.99 59.64 C 230.36 61.26 230.38 67.08 226.40 68.01 C 228.49 70.79 230.77 73.42 232.99 76.09 C 230.65 76.25 228.31 76.39 225.97 76.48 C 224.61 74.33 223.19 72.23 221.81 70.10 C 221.18 72.23 221.43 74.56 223.43 75.88 C 223.46 76.24 223.50 76.96 223.53 77.32 C 220.49 77.39 217.44 77.72 214.41 77.39 C 214.95 76.86 216.03 75.81 216.57 75.29 C 216.53 71.12 216.17 66.98 215.11 62.94 C 214.36 62.20 213.62 61.46 212.90 60.70 M 220.58 61.29 C 220.54 63.41 220.57 65.58 221.49 67.55 C 221.89 67.47 222.71 67.31 223.11 67.22 C 223.47 66.73 224.18 65.73 224.54 65.23 C 224.18 63.06 223.07 61.09 220.58 61.29 Z" />
<path fill="#000000" opacity="1.00" d=" M 194.69 68.77 C 195.85 64.62 199.37 60.75 204.02 61.25 C 207.85 60.72 210.47 63.82 212.46 66.59 C 212.45 69.80 213.51 73.53 211.33 76.28 C 209.14 79.67 204.58 80.22 200.91 79.49 C 197.57 78.41 195.88 75.14 194.75 72.07 C 194.73 71.25 194.70 69.60 194.69 68.77 M 201.64 63.61 C 199.57 68.12 201.20 73.08 202.80 77.46 C 204.80 77.95 206.47 77.32 207.41 75.44 C 207.33 73.91 207.28 72.38 207.25 70.86 C 206.59 68.28 205.91 65.67 204.45 63.40 C 203.51 63.47 202.57 63.54 201.64 63.61 Z" />
<path fill="#000000" opacity="1.00" d=" M 179.65 66.60 C 182.98 63.92 187.37 64.02 191.38 64.57 C 191.67 65.80 191.93 67.03 192.18 68.27 C 189.48 70.52 187.82 65.59 184.91 65.84 C 182.01 69.72 182.76 75.61 185.65 79.29 C 186.86 81.11 188.94 80.18 190.44 79.37 C 190.85 77.86 191.29 76.35 191.71 74.84 C 195.02 74.52 194.30 77.71 194.52 79.90 C 193.92 80.24 192.71 80.93 192.11 81.27 C 189.23 82.85 185.94 82.70 182.77 82.52 C 177.14 79.44 175.89 71.60 179.65 66.60 Z" />
<path fill="#000000" opacity="1.00" d=" M 164.55 68.55 C 166.09 68.03 167.63 67.31 169.31 67.48 C 173.05 72.46 173.90 79.39 178.81 83.49 C 176.04 84.36 173.14 84.62 170.28 85.01 C 170.42 83.29 170.66 81.55 170.27 79.85 C 168.84 78.93 167.13 79.45 165.55 79.44 C 163.74 81.73 165.11 83.84 167.25 85.24 C 164.96 86.18 162.52 86.52 160.05 86.46 C 161.73 84.26 162.82 81.73 162.91 78.94 C 163.82 75.54 164.63 72.08 164.55 68.55 M 165.81 74.79 C 165.69 75.67 165.57 76.56 165.44 77.45 C 166.07 77.45 167.31 77.45 167.94 77.46 C 167.77 76.43 167.59 75.41 167.42 74.38 C 167.02 74.48 166.21 74.69 165.81 74.79 Z" />
<path fill="#000000" opacity="1.00" d=" M 141.94 71.43 C 146.69 70.94 152.11 68.89 156.53 71.56 C 160.82 75.10 160.50 82.17 157.03 86.18 C 152.40 88.29 147.16 88.13 142.20 88.60 C 144.53 85.89 143.58 82.28 143.56 79.06 C 143.57 76.42 142.67 73.93 141.94 71.43 M 148.33 72.26 C 148.53 76.76 148.79 81.27 149.67 85.70 C 151.07 85.57 153.26 85.82 153.56 83.95 C 155.25 79.68 154.05 72.22 148.33 72.26 Z" />
<path fill="#000000" opacity="1.00" d=" M 231.30 78.70 C 238.90 79.28 246.36 77.31 253.95 77.54 C 249.65 78.79 245.04 77.49 240.83 79.20 C 237.71 80.49 234.41 79.34 231.30 78.70 Z" />
</g>
<g id="#f2ce02ff">
<path fill="#f2ce02" opacity="1.00" d=" M 141.28 65.63 C 141.37 63.68 141.45 61.72 141.57 59.77 C 154.05 59.81 166.53 59.84 179.01 59.72 C 181.30 59.59 183.38 60.66 185.49 61.39 C 183.32 60.97 181.09 60.53 178.91 61.06 C 166.45 63.12 153.92 65.16 141.28 65.63 Z" />
</g>
<g id="#494949ff">
<path fill="#494949" opacity="1.00" d=" M 283.52 63.59 C 287.95 59.30 294.40 62.14 299.39 63.75 C 299.40 65.96 299.43 68.17 299.45 70.38 C 299.44 70.72 299.42 71.41 299.42 71.75 C 297.71 71.79 296.01 71.84 294.31 71.84 C 291.61 71.42 288.95 70.79 286.36 69.93 C 286.64 74.00 286.64 78.11 285.99 82.15 C 285.36 78.71 284.82 75.26 284.48 71.79 C 284.22 69.05 283.85 66.32 283.52 63.59 M 285.33 66.23 C 288.10 70.11 293.15 69.95 297.39 69.79 C 297.54 68.69 297.85 66.49 298.00 65.39 C 295.12 64.31 292.13 63.32 289.03 63.31 C 287.17 63.10 284.61 63.79 285.33 66.23 Z" />
</g>
<g id="#a2a3a2ff">
<path fill="#a2a3a2" opacity="1.00" d=" M 306.85 64.11 C 307.24 66.23 306.37 68.12 305.07 69.73 C 303.71 70.13 302.35 70.54 301.00 70.96 C 302.18 70.98 304.54 71.00 305.71 71.01 C 305.25 72.28 304.86 73.57 304.31 74.79 C 304.25 74.13 304.14 72.81 304.08 72.15 C 300.83 72.63 297.51 72.63 294.31 71.84 C 296.01 71.84 297.71 71.79 299.42 71.75 C 299.42 71.41 299.44 70.72 299.45 70.38 C 301.19 69.85 303.00 69.47 304.68 68.75 C 305.99 67.58 306.17 65.65 306.85 64.11 Z" />
</g>
<g id="#9e9e9fff">
<path fill="#9e9e9f" opacity="1.00" d=" M 284.48 71.79 C 284.82 75.26 285.36 78.71 285.99 82.15 C 285.71 84.32 284.96 86.39 284.15 88.41 C 284.64 85.67 285.00 82.91 285.36 80.15 C 282.50 80.16 279.64 80.16 276.79 80.07 L 276.22 79.88 C 275.36 79.36 274.49 78.87 273.62 78.38 C 277.11 78.43 280.58 78.82 284.01 79.50 C 284.27 76.94 284.53 74.37 284.48 71.79 Z" />
</g>
<g id="#675319ff">
<path fill="#675319" opacity="1.00" d=" M 253.95 77.54 C 256.42 77.33 258.90 77.29 261.38 77.32 C 264.82 77.90 268.29 78.33 271.79 78.26 C 272.25 78.29 273.16 78.35 273.62 78.38 C 274.49 78.87 275.36 79.36 276.22 79.88 C 269.78 80.55 263.41 78.92 256.98 79.08 C 241.60 79.56 226.36 81.73 211.14 83.80 C 204.02 84.71 197.08 86.86 189.86 86.93 C 193.71 85.59 197.68 84.61 201.78 84.46 C 205.07 82.88 208.86 83.80 212.23 82.45 C 217.64 81.34 223.42 81.87 228.59 79.83 C 229.49 79.46 230.39 79.08 231.30 78.70 C 234.41 79.34 237.71 80.49 240.83 79.20 C 245.04 77.49 249.65 78.79 253.95 77.54 Z" />
</g>
<g id="#979898ff">
<path fill="#979898" opacity="1.00" d=" M 261.38 77.32 C 264.88 77.09 268.40 77.28 271.79 78.26 C 268.29 78.33 264.82 77.90 261.38 77.32 Z" />
</g>
<g id="#f5ce00ff">
<path fill="#f5ce00" opacity="1.00" d=" M 211.14 83.80 C 226.36 81.73 241.60 79.56 256.98 79.08 C 263.41 78.92 269.78 80.55 276.22 79.88 L 276.79 80.07 C 276.85 80.15 276.97 80.31 277.04 80.39 C 278.87 80.68 280.70 81.03 282.52 81.39 C 282.42 84.86 282.39 88.33 282.22 91.80 C 282.71 111.18 282.22 130.58 282.47 149.97 C 282.88 161.47 280.04 173.20 273.89 182.97 C 269.95 189.22 266.20 195.70 260.96 200.97 C 252.51 209.65 242.44 216.51 232.59 223.47 C 226.19 227.75 219.94 232.27 213.37 236.29 C 211.55 237.69 209.66 235.72 208.09 234.87 C 193.96 225.14 179.28 216.04 166.51 204.52 C 159.30 198.14 154.01 190.00 149.20 181.75 C 143.73 172.51 141.10 161.68 141.35 150.98 C 141.42 131.73 141.31 112.49 141.41 93.25 C 145.66 92.95 149.98 92.98 154.11 91.82 C 157.13 91.70 160.19 91.68 163.13 90.86 C 169.48 90.00 175.93 89.63 182.14 87.96 C 184.72 87.76 187.35 87.67 189.86 86.93 C 197.08 86.86 204.02 84.71 211.14 83.80 M 209.69 86.70 C 206.24 88.50 206.23 93.22 202.70 94.95 C 202.59 95.85 202.48 96.75 202.38 97.65 C 201.02 98.40 199.32 98.92 198.50 100.35 C 197.94 102.27 198.47 104.29 198.60 106.24 C 197.72 107.36 196.25 108.30 196.41 109.92 C 195.77 112.78 198.33 114.81 198.70 117.49 C 197.25 117.25 195.81 116.99 194.38 116.73 C 193.85 112.94 190.49 110.73 186.87 110.50 C 186.25 108.03 185.92 105.06 183.54 103.59 C 181.13 101.52 177.25 102.79 176.12 105.65 C 175.55 105.69 174.43 105.76 173.87 105.80 C 171.62 107.20 169.14 106.52 166.86 105.59 C 163.90 106.81 160.61 108.43 159.89 111.89 C 158.15 116.16 162.29 119.73 161.67 124.00 C 162.18 124.45 163.20 125.34 163.71 125.78 C 163.42 127.09 162.73 128.37 162.83 129.75 C 163.73 132.04 165.87 133.44 168.19 134.01 C 168.47 135.52 168.31 137.30 169.55 138.44 C 171.32 140.66 174.49 140.18 176.97 140.74 C 176.00 141.98 175.01 143.22 174.02 144.45 C 170.63 142.49 166.37 143.21 164.29 146.67 C 161.75 144.56 158.07 143.19 154.95 144.85 C 152.45 146.27 153.45 149.57 153.44 151.92 C 151.72 154.52 150.22 157.21 147.41 158.85 C 147.27 161.23 147.00 163.64 147.49 165.99 C 148.55 168.71 151.12 170.63 153.95 171.20 C 156.52 171.71 158.51 174.04 161.28 173.55 C 162.29 174.53 163.22 175.59 164.34 176.45 C 166.55 177.58 168.91 176.25 170.96 175.43 C 172.55 176.53 174.50 177.34 176.42 176.55 C 178.77 176.24 179.86 172.89 182.37 173.57 C 183.83 177.02 179.01 177.41 178.31 180.22 C 178.06 181.84 178.27 183.49 178.32 185.12 C 174.93 185.56 170.60 187.99 171.43 192.01 C 171.06 194.48 173.81 195.14 175.23 196.51 C 175.92 197.81 176.55 199.16 177.39 200.39 C 176.13 205.62 180.70 210.81 186.04 210.14 C 190.08 210.36 192.16 205.80 196.17 206.03 C 196.67 205.25 197.17 204.46 197.66 203.68 C 199.19 203.65 200.71 203.60 202.24 203.54 C 202.92 202.57 203.61 201.60 204.30 200.64 C 204.44 198.76 205.06 197.16 207.26 197.22 C 210.23 195.24 210.01 191.81 209.81 188.65 C 211.62 187.82 212.98 189.33 213.75 190.75 C 211.41 193.35 214.35 197.55 217.37 197.90 C 216.30 201.09 215.05 205.49 218.13 207.97 C 220.19 209.71 223.03 208.42 225.00 207.19 C 225.22 207.57 225.67 208.31 225.89 208.69 C 226.67 208.69 228.24 208.70 229.02 208.71 C 230.81 212.09 234.79 212.19 238.12 211.51 C 240.13 210.39 241.70 208.67 243.35 207.11 C 243.36 203.86 244.15 200.74 245.69 197.89 C 245.39 197.47 244.79 196.63 244.49 196.22 C 247.14 193.59 248.02 189.13 244.66 186.66 C 245.26 185.20 245.98 183.68 245.57 182.08 C 244.95 178.78 239.85 178.46 240.54 174.65 C 242.57 174.40 244.70 174.11 246.11 175.92 C 248.26 178.29 251.44 176.84 254.03 176.22 C 255.25 179.30 258.61 182.82 262.20 181.27 C 264.44 180.41 264.95 178.06 265.31 175.95 C 266.97 175.68 268.12 174.53 269.23 173.37 C 271.36 172.52 274.25 172.65 275.50 170.35 C 278.85 165.97 276.35 159.53 271.89 156.97 C 271.28 154.92 269.94 153.43 267.72 153.23 C 267.57 152.10 267.43 150.96 267.30 149.83 C 266.27 149.08 265.25 148.33 264.23 147.59 C 262.25 147.50 259.58 148.31 259.08 145.64 C 256.19 143.16 252.65 144.15 249.42 145.20 C 250.31 143.72 251.20 142.24 252.05 140.74 C 253.83 140.42 256.04 140.87 257.34 139.31 C 258.39 137.99 258.88 136.33 259.57 134.81 C 262.83 135.75 267.14 135.30 268.80 131.93 C 270.54 129.57 267.80 127.50 266.99 125.43 C 267.15 124.05 267.06 122.69 266.70 121.37 C 269.61 118.14 269.31 112.91 265.82 110.21 C 262.71 106.93 258.01 108.59 254.09 108.33 C 252.61 108.04 251.26 108.44 250.07 109.31 C 247.07 106.86 242.44 107.92 241.17 111.69 C 239.68 111.65 238.19 111.60 236.71 111.55 C 234.55 113.04 233.46 115.39 232.57 117.78 C 231.60 117.78 230.64 117.76 229.67 117.71 C 229.56 117.04 229.33 115.70 229.21 115.03 C 230.94 113.00 230.59 110.30 230.38 107.84 C 229.84 107.45 228.76 106.65 228.22 106.25 C 230.52 103.94 233.59 100.95 232.08 97.36 C 230.97 94.58 228.04 94.03 225.42 94.62 C 225.13 94.18 224.56 93.29 224.28 92.85 C 222.78 92.30 221.56 91.38 221.10 89.79 C 219.47 85.39 213.39 84.47 209.69 86.70 Z" />
<path fill="#f5ce00" opacity="1.00" d=" M 234.03 138.99 C 237.68 139.16 241.80 140.85 243.68 143.95 C 241.91 146.46 239.51 149.20 236.78 150.97 C 237.11 146.73 235.08 142.96 234.03 138.99 Z" />
<path fill="#f5ce00" opacity="1.00" d=" M 226.45 168.39 C 230.12 166.40 232.50 163.01 235.13 159.92 C 235.51 160.63 236.28 162.06 236.66 162.78 C 236.83 165.48 236.85 168.18 236.92 170.88 C 233.47 170.67 230.01 170.55 226.57 170.21 C 226.54 169.76 226.48 168.84 226.45 168.39 Z" />
<path fill="#f5ce00" opacity="1.00" d=" M 190.19 162.19 C 192.69 161.66 193.94 164.09 195.64 165.36 C 197.25 166.89 200.21 167.68 199.91 170.39 C 196.16 172.31 191.91 171.72 188.03 170.56 C 188.50 167.72 189.04 164.85 190.19 162.19 Z" />
</g>
<g id="#c2de36ff">
<path fill="#c2de36" opacity="1.00" d=" M 207.65 92.02 C 208.28 89.13 211.20 88.10 213.63 87.16 C 214.06 88.11 214.49 89.07 214.90 90.04 L 215.04 90.86 C 215.57 93.68 215.77 96.58 215.10 99.41 C 215.29 102.87 215.51 106.39 214.78 109.81 C 214.47 110.05 213.86 110.52 213.55 110.76 C 213.54 112.02 213.53 113.28 213.53 114.54 C 212.83 115.32 212.13 116.10 211.44 116.89 C 211.53 119.14 211.56 121.40 211.54 123.66 C 210.98 123.64 209.87 123.61 209.32 123.59 C 209.50 124.45 209.87 126.16 210.06 127.02 C 206.78 124.12 201.77 123.21 199.59 119.20 C 199.66 118.58 199.79 117.34 199.86 116.72 C 203.14 115.62 205.82 118.48 209.00 118.78 C 207.52 114.08 201.53 115.40 198.25 112.83 C 198.32 111.37 198.41 109.90 198.51 108.44 C 201.80 107.46 204.74 109.24 207.77 110.20 C 208.57 109.56 209.28 108.80 210.02 108.09 C 207.57 106.65 204.62 106.81 202.05 105.77 C 199.84 105.04 200.37 102.36 199.92 100.58 C 203.24 99.93 206.61 100.41 209.92 100.86 C 209.85 100.33 209.71 99.29 209.64 98.77 C 207.78 98.40 205.85 98.13 204.17 97.17 C 204.44 94.84 207.21 94.24 207.65 92.02 Z" />
<path fill="#c2de36" opacity="1.00" d=" M 162.77 109.72 C 166.05 111.40 169.31 113.15 172.33 115.28 L 172.72 115.56 C 172.35 115.80 171.59 116.28 171.21 116.52 C 173.22 116.09 174.63 117.67 176.04 118.82 C 178.09 120.57 180.04 122.54 181.08 125.09 C 182.44 126.46 183.83 127.79 185.22 129.14 C 184.15 129.71 183.05 130.18 181.91 130.55 C 185.37 130.28 187.85 132.96 190.21 135.06 C 189.60 135.56 188.37 136.57 187.76 137.07 C 188.91 137.25 191.21 137.60 192.36 137.78 C 189.64 139.10 186.72 139.90 183.90 140.94 C 181.72 141.69 178.61 142.23 177.34 139.77 C 177.55 135.83 183.43 137.00 184.01 133.24 C 181.33 133.13 179.21 134.63 177.33 136.35 C 175.62 138.14 172.81 138.16 170.71 137.10 C 170.55 135.75 170.46 134.39 170.44 133.03 C 172.33 132.03 174.26 131.10 176.06 129.95 C 177.51 129.20 176.33 127.28 176.38 126.08 C 173.17 128.05 169.07 134.12 165.28 129.99 C 163.35 124.90 170.88 124.75 170.77 120.32 C 168.08 120.88 166.46 123.58 163.64 123.74 C 163.71 121.26 163.61 118.71 161.62 116.94 C 161.37 114.45 161.82 112.02 162.77 109.72 Z" />
<path fill="#c2de36" opacity="1.00" d=" M 243.13 111.31 C 244.11 110.62 245.08 109.92 246.05 109.22 C 249.15 110.57 250.14 113.89 251.07 116.83 C 251.70 116.77 252.96 116.63 253.59 116.56 C 253.03 114.17 250.25 111.54 252.61 109.36 C 254.31 110.41 256.33 111.25 258.09 109.81 C 258.84 109.75 260.35 109.63 261.10 109.56 C 262.45 110.35 263.89 111.05 265.05 112.12 C 260.00 120.26 251.02 124.37 242.69 128.29 L 242.13 128.20 C 241.28 127.99 240.43 127.76 239.59 127.52 C 239.00 128.34 238.40 129.15 237.80 129.96 C 237.28 130.39 236.25 131.23 235.73 131.65 C 235.00 130.89 234.28 130.13 233.57 129.37 C 232.63 130.39 231.69 131.40 230.76 132.42 C 230.56 128.13 230.53 123.83 230.63 119.53 C 231.50 119.60 233.23 119.74 234.10 119.81 C 235.26 121.84 235.39 124.22 235.68 126.48 C 236.21 126.48 237.26 126.49 237.78 126.49 C 238.38 122.32 234.24 119.09 235.54 114.95 C 236.48 113.08 238.55 113.54 240.27 113.43 C 242.04 116.34 241.41 121.85 245.87 121.96 C 245.94 118.09 242.36 115.29 243.13 111.31 Z" />
<path fill="#c2de36" opacity="1.00" d=" M 244.37 146.25 C 246.41 144.46 249.14 145.33 249.73 147.96 C 248.27 149.67 246.56 151.23 245.45 153.21 C 245.77 153.60 246.39 154.38 246.71 154.77 C 249.41 152.22 250.25 148.25 253.13 145.93 C 255.81 144.05 258.91 147.77 257.31 150.29 C 255.73 152.27 253.95 154.22 254.16 156.96 C 258.36 157.42 257.29 151.74 260.24 150.11 C 261.86 148.90 264.40 149.10 265.38 151.03 C 265.90 154.20 263.16 156.61 262.22 159.47 C 262.85 159.55 264.12 159.69 264.75 159.77 C 265.40 158.21 266.03 156.64 266.79 155.14 C 269.28 154.63 269.77 156.79 270.30 158.65 C 271.27 159.05 272.24 159.44 273.22 159.84 C 274.56 162.26 274.92 164.99 274.75 167.73 L 274.26 167.64 C 270.91 167.03 267.58 166.36 264.26 165.60 C 260.52 163.91 255.50 164.33 252.83 160.86 C 252.40 160.70 251.53 160.37 251.10 160.20 C 249.83 159.74 248.57 159.28 247.31 158.81 C 247.38 158.24 247.52 157.10 247.59 156.53 C 246.19 156.62 244.79 156.73 243.40 156.81 C 242.18 156.36 240.98 155.90 239.78 155.40 L 239.49 153.40 C 238.63 153.57 236.90 153.90 236.04 154.06 C 238.70 151.34 241.59 148.84 244.37 146.25 Z" />
<path fill="#c2de36" opacity="1.00" d=" M 230.90 154.35 C 232.10 153.91 233.29 153.45 234.48 152.98 L 235.65 152.52 C 235.56 153.06 235.39 154.12 235.30 154.66 C 235.90 155.19 236.52 155.70 237.15 156.19 C 235.52 156.56 234.08 157.36 233.33 158.92 C 233.06 158.58 232.53 157.91 232.26 157.57 C 231.92 157.18 231.24 156.38 230.90 155.99 L 229.84 154.75 L 230.90 154.35 Z" />
<path fill="#c2de36" opacity="1.00" d=" M 159.54 159.70 C 163.06 159.32 166.57 158.81 170.09 158.42 C 170.26 158.70 170.59 159.26 170.75 159.54 C 172.92 159.50 175.09 159.27 177.25 159.02 C 177.56 159.41 178.20 160.19 178.52 160.58 C 180.85 159.80 183.23 159.20 185.64 158.74 C 185.63 159.48 185.61 160.97 185.59 161.72 C 186.79 160.84 188.01 159.99 189.25 159.16 C 188.05 162.01 187.12 164.95 186.15 167.88 C 185.45 170.13 183.29 172.38 180.75 171.39 C 179.95 168.63 180.99 165.93 181.82 163.34 C 181.24 163.29 180.06 163.20 179.47 163.16 C 178.46 165.89 178.55 168.79 178.37 171.65 C 178.04 174.44 174.37 175.62 172.40 173.66 C 171.80 170.53 172.78 167.37 172.69 164.22 C 171.62 164.34 170.56 164.45 169.49 164.55 C 169.24 167.85 171.16 172.93 167.07 174.52 C 161.88 175.13 163.55 168.49 163.47 165.31 C 162.51 165.37 161.55 165.44 160.60 165.50 C 160.99 167.66 161.43 169.93 160.21 171.93 C 158.32 170.46 156.29 169.15 153.85 168.94 C 150.91 168.58 149.70 165.55 148.45 163.29 C 152.18 162.20 155.81 160.77 159.54 159.70 Z" />
<path fill="#c2de36" opacity="1.00" d=" M 212.31 168.61 L 213.05 167.85 L 213.83 168.71 C 214.46 169.41 215.09 170.10 215.73 170.80 L 215.97 171.06 C 214.52 171.87 213.53 173.08 212.99 174.69 C 212.78 174.46 212.37 174.01 212.16 173.78 L 211.90 173.16 C 211.80 172.80 211.62 172.08 211.53 171.72 C 211.07 171.62 210.14 171.40 209.68 171.30 C 210.56 170.41 211.44 169.51 212.31 168.61 Z" />
<path fill="#c2de36" opacity="1.00" d=" M 225.61 171.66 C 228.57 172.32 231.58 172.68 234.61 172.89 C 236.80 173.04 239.73 174.87 238.56 177.42 C 236.12 179.09 232.94 177.81 230.17 178.20 C 230.34 178.73 230.68 179.77 230.85 180.30 C 234.30 181.01 237.65 178.98 241.03 179.71 C 243.18 180.20 243.30 182.49 243.70 184.25 C 240.75 187.15 235.84 184.14 233.26 187.34 C 233.65 188.08 234.11 188.77 234.57 189.47 C 237.61 187.87 241.11 188.09 244.41 188.42 C 244.55 190.09 244.60 191.77 244.43 193.44 C 241.81 194.10 239.14 194.52 236.46 194.81 C 236.46 195.71 236.46 196.61 236.46 197.52 C 238.63 197.02 240.86 196.05 243.12 196.66 C 243.52 198.24 242.30 199.49 241.71 200.82 C 242.36 203.82 240.94 209.16 237.18 208.54 C 233.13 203.81 230.72 197.99 229.09 192.05 C 228.50 189.38 228.85 186.52 227.69 183.98 L 227.08 182.21 C 227.73 182.24 229.03 182.30 229.68 182.34 C 227.84 180.28 226.44 177.89 225.65 175.24 C 226.43 175.28 228.01 175.36 228.80 175.40 C 227.74 174.15 226.69 172.88 225.61 171.66 Z" />
<path fill="#c2de36" opacity="1.00" d=" M 203.26 177.97 C 203.50 176.60 204.20 175.41 204.92 174.25 C 205.75 178.53 210.71 181.34 209.81 185.98 C 210.04 187.83 207.10 187.75 206.24 186.76 C 204.93 185.58 204.08 184.00 203.10 182.57 C 202.55 182.48 201.47 182.32 200.93 182.24 C 201.67 185.94 205.32 187.64 207.41 190.46 C 207.79 191.75 207.63 193.12 207.69 194.45 C 206.44 194.73 205.12 195.88 203.83 195.09 C 201.05 193.58 199.93 189.93 196.51 189.37 C 195.28 193.18 200.10 193.87 201.68 196.48 C 203.24 198.11 202.16 201.01 200.11 201.65 C 196.46 201.89 194.90 197.68 191.52 197.04 C 191.54 197.58 191.57 198.65 191.59 199.19 C 193.63 200.38 195.68 202.00 194.67 204.65 C 193.90 204.63 192.34 204.61 191.56 204.59 C 189.86 208.02 186.09 207.80 182.81 207.68 L 182.97 206.74 C 183.30 199.92 187.19 194.22 190.99 188.83 C 193.06 185.58 196.30 183.42 199.00 180.77 L 199.25 180.11 C 199.97 178.79 200.73 177.49 201.49 176.19 C 201.93 176.64 202.82 177.52 203.26 177.97 Z" />
</g>
<g id="#02926eff">
<path fill="#02926e" opacity="1.00" d=" M 214.90 90.04 C 214.90 89.28 214.90 87.75 214.90 86.99 C 217.91 88.06 219.67 90.60 220.22 93.65 C 220.93 93.85 222.35 94.26 223.06 94.47 C 222.43 95.95 221.79 97.42 221.18 98.92 C 223.80 98.21 226.26 95.74 229.08 96.81 C 230.46 99.02 229.77 102.21 227.48 103.53 C 224.93 105.75 219.57 105.56 220.02 110.03 C 222.07 109.21 224.03 108.19 226.08 107.36 C 228.95 108.36 228.66 111.28 227.67 113.57 C 224.96 114.93 222.08 115.86 219.28 116.99 C 219.22 117.44 219.09 118.33 219.02 118.78 C 221.86 117.55 224.79 115.88 227.97 116.90 C 227.53 118.36 228.12 120.79 225.97 120.94 C 222.03 121.88 217.90 122.88 215.46 126.45 C 213.76 126.75 212.05 127.05 210.36 127.36 C 210.34 126.54 210.29 124.91 210.26 124.09 C 211.70 124.22 213.14 124.34 214.58 124.47 C 215.35 123.70 216.14 122.94 216.93 122.19 C 215.20 122.90 213.41 123.47 211.54 123.66 C 211.56 121.40 211.53 119.14 211.44 116.89 C 212.13 116.10 212.83 115.32 213.53 114.54 C 213.53 113.28 213.54 112.02 213.55 110.76 C 213.86 110.52 214.47 110.05 214.78 109.81 C 215.19 109.51 216.02 108.91 216.44 108.61 C 216.49 102.66 216.37 96.68 215.04 90.86 L 214.90 90.04 Z" />
<path fill="#02926e" opacity="1.00" d=" M 265.05 112.12 C 266.47 113.98 267.34 116.69 265.56 118.63 C 264.11 120.20 264.25 122.17 264.80 124.09 C 263.42 124.23 262.04 124.39 260.66 124.56 C 262.15 126.49 264.60 127.06 266.75 127.93 C 266.65 130.02 266.05 132.72 263.41 132.66 C 258.71 133.94 255.51 128.80 250.95 129.71 C 251.18 130.28 251.64 131.42 251.88 132.00 C 253.43 132.52 255.09 132.89 256.42 133.92 C 257.51 136.72 254.45 138.85 251.96 138.61 C 249.40 137.98 247.37 136.18 245.31 134.63 C 244.72 134.61 243.54 134.55 242.95 134.53 C 244.82 136.74 247.34 138.23 249.69 139.87 C 249.28 140.63 248.46 142.14 248.05 142.90 C 244.59 142.75 242.50 139.83 239.73 138.22 C 237.95 137.09 235.75 137.34 233.76 137.16 C 232.51 136.07 231.28 134.96 230.06 133.85 L 231.41 132.85 C 232.84 132.44 234.30 132.09 235.73 131.65 C 236.25 131.23 237.28 130.39 237.80 129.96 C 239.46 129.50 241.15 129.07 242.69 128.29 C 251.02 124.37 260.00 120.26 265.05 112.12 M 233.44 132.88 C 234.03 135.70 236.92 136.20 239.35 135.95 C 237.71 134.37 235.72 133.23 233.44 132.88 Z" />
<path fill="#02926e" opacity="1.00" d=" M 175.43 145.90 C 175.78 144.02 178.06 143.81 179.48 144.54 C 181.07 146.71 181.81 149.40 183.48 151.52 C 185.18 153.21 187.35 154.30 189.26 155.73 C 187.77 155.56 186.28 155.38 184.80 155.21 L 183.99 155.53 C 179.77 157.51 175.05 157.82 170.75 159.54 C 170.59 159.26 170.26 158.70 170.09 158.42 C 170.25 157.77 170.42 157.11 170.60 156.46 C 167.29 158.65 163.19 158.43 159.54 159.70 C 155.81 160.77 152.18 162.20 148.45 163.29 C 148.49 159.96 150.69 157.68 153.68 156.63 C 153.73 155.85 153.82 154.29 153.87 153.51 C 155.45 153.83 157.03 154.15 158.62 154.45 C 157.50 152.09 154.28 150.10 155.33 147.17 C 156.40 145.82 158.39 146.21 159.88 146.29 C 164.51 146.96 164.87 153.74 169.64 153.99 C 169.57 153.44 169.42 152.34 169.35 151.79 C 167.84 150.44 166.68 148.80 166.07 146.85 C 168.24 144.82 172.26 144.33 173.86 147.31 C 175.55 149.22 176.07 152.74 179.08 152.94 C 177.93 150.56 176.01 148.51 175.43 145.90 Z" />
<path fill="#02926e" opacity="1.00" d=" M 238.24 154.79 L 239.78 155.40 C 240.98 155.90 242.18 156.36 243.40 156.81 C 244.70 157.46 245.98 158.18 247.31 158.81 C 248.57 159.28 249.83 159.74 251.10 160.20 C 252.27 161.34 253.26 162.64 254.20 163.98 C 254.65 164.00 255.55 164.04 256.00 164.06 C 258.72 164.75 261.45 165.39 264.26 165.60 C 267.58 166.36 270.91 167.03 274.26 167.64 C 273.18 170.82 269.85 170.78 267.05 170.83 C 266.78 171.45 266.25 172.68 265.98 173.30 C 264.28 173.23 263.30 171.49 261.96 170.66 C 262.00 173.22 263.64 176.05 262.34 178.46 C 260.48 178.77 258.06 179.11 256.82 177.32 C 254.50 174.75 254.81 171.10 254.04 167.95 C 253.08 167.57 252.11 167.23 251.12 166.94 C 251.66 169.50 252.34 172.10 251.91 174.74 C 249.84 174.49 247.14 175.14 245.93 172.93 C 245.06 169.95 244.84 166.83 244.38 163.78 C 241.96 164.99 243.74 167.92 243.47 170.00 C 244.00 172.13 239.80 173.68 239.29 171.04 C 239.07 168.76 239.32 166.46 239.08 164.18 C 238.20 161.88 236.86 159.77 236.20 157.38 C 237.03 157.83 238.70 158.71 239.54 159.15 C 239.11 157.70 238.66 156.25 238.24 154.79 Z" />
<path fill="#02926e" opacity="1.00" d=" M 196.10 173.05 C 198.95 172.17 201.61 170.73 204.58 170.25 C 204.69 172.14 204.67 174.04 202.56 174.62 L 202.91 176.00 C 200.72 174.95 198.26 173.98 195.95 175.30 C 197.17 175.39 199.61 175.56 200.84 175.65 C 199.72 176.69 198.52 177.63 197.32 178.57 C 197.80 178.47 198.76 178.26 199.24 178.16 C 199.25 178.65 199.25 179.62 199.25 180.11 L 199.00 180.77 C 195.46 181.83 192.87 184.49 190.54 187.21 C 190.65 187.62 190.87 188.43 190.99 188.83 C 187.19 194.22 183.30 199.92 182.97 206.74 L 182.50 208.04 C 179.53 205.95 178.78 202.60 179.58 199.23 C 178.96 198.29 178.37 197.32 177.85 196.33 C 179.15 195.65 180.42 194.87 181.13 193.53 C 178.60 193.49 176.07 193.53 173.54 193.50 C 173.60 191.80 172.92 189.69 174.61 188.54 C 177.91 185.57 182.77 187.02 186.78 186.79 C 186.79 186.17 186.83 184.93 186.84 184.31 C 184.61 184.45 182.35 184.40 180.18 183.78 C 180.34 182.05 179.99 179.92 181.73 178.84 C 184.67 176.46 188.52 178.95 191.88 178.51 L 192.69 177.08 C 189.58 176.64 185.40 177.60 183.98 173.90 C 185.16 173.03 186.25 171.09 188.02 171.73 C 190.68 172.33 193.31 173.72 196.10 173.05 Z" />
<path fill="#02926e" opacity="1.00" d=" M 219.86 177.05 C 220.38 177.33 221.40 177.90 221.92 178.18 C 222.36 177.99 223.26 177.63 223.70 177.44 C 223.79 179.33 223.88 181.22 223.97 183.12 C 224.38 182.67 225.22 181.76 225.64 181.31 C 226.32 182.19 227.02 183.08 227.69 183.98 C 228.85 186.52 228.50 189.38 229.09 192.05 C 230.72 197.99 233.13 203.81 237.18 208.54 L 237.96 209.62 C 234.60 210.28 231.43 209.32 229.84 206.16 C 228.99 206.21 227.29 206.29 226.44 206.34 C 226.50 204.78 226.55 203.22 226.59 201.67 C 224.24 203.11 223.04 206.69 219.94 206.44 C 217.22 204.50 217.86 200.23 219.93 198.04 C 221.32 196.02 224.00 194.57 223.96 191.84 L 222.94 191.36 C 221.00 193.03 219.35 195.15 216.84 196.01 C 215.52 194.15 214.27 191.63 215.62 189.45 C 217.59 187.18 220.08 185.42 222.09 183.18 C 218.93 183.01 217.21 186.02 215.02 187.76 C 213.49 186.85 211.75 185.91 212.46 183.81 C 214.78 181.40 218.09 180.03 219.86 177.05 Z" />
</g>
<g id="#029272ff">
<path fill="#029272" opacity="1.00" d=" M 175.92 112.07 C 178.09 110.15 177.11 106.77 179.02 104.78 C 181.32 103.60 183.47 106.00 184.04 108.06 C 185.76 112.13 181.09 116.19 183.89 120.05 C 185.98 118.52 185.79 115.95 185.87 113.67 C 187.69 113.35 190.27 112.50 191.31 114.65 C 193.55 118.30 190.18 122.13 189.19 125.68 C 189.71 125.62 190.75 125.50 191.27 125.44 C 191.96 123.47 192.15 121.22 193.50 119.57 C 194.87 118.89 197.40 118.82 197.52 120.90 C 197.30 123.18 195.95 125.12 194.89 127.08 C 194.68 127.44 194.26 128.16 194.04 128.52 C 193.63 128.51 192.79 128.51 192.37 128.50 C 191.67 129.91 190.98 131.33 190.28 132.74 C 187.16 130.02 186.90 125.85 186.28 122.05 C 185.94 123.77 185.61 125.48 185.29 127.21 C 183.99 125.76 182.84 124.19 181.58 122.71 C 179.35 121.87 177.91 120.06 176.91 117.98 C 175.37 117.11 173.80 116.27 172.33 115.28 C 169.31 113.15 166.05 111.40 162.77 109.72 C 165.41 107.38 168.92 107.48 171.85 109.26 C 172.42 108.85 173.57 108.04 174.14 107.63 C 175.50 108.70 175.44 110.56 175.92 112.07 Z" />
</g>
<g id="#777f1aff">
<path fill="#777f1a" opacity="1.00" d=" M 229.33 126.30 C 229.20 123.95 229.69 121.67 230.63 119.53 C 230.53 123.83 230.56 128.13 230.76 132.42 C 231.69 131.40 232.63 130.39 233.57 129.37 C 234.28 130.13 235.00 130.89 235.73 131.65 C 234.30 132.09 232.84 132.44 231.41 132.85 L 230.27 133.16 C 230.18 130.89 230.15 128.63 230.11 126.36 C 229.57 126.43 228.49 126.56 227.94 126.62 C 227.66 126.02 227.09 124.83 226.81 124.23 C 224.91 123.20 222.82 124.36 220.89 124.68 C 223.24 123.47 227.77 120.87 228.49 124.96 L 229.33 126.30 Z" />
</g>
<g id="#fedb02ff">
<path fill="#fedb02" opacity="1.00" d=" M 198.84 122.50 C 201.13 124.20 203.70 125.46 206.35 126.51 C 205.32 128.46 203.55 127.66 201.94 126.98 C 201.64 127.41 201.04 128.25 200.74 128.68 C 199.59 128.61 198.44 128.54 197.29 128.47 C 197.82 126.48 198.37 124.50 198.84 122.50 Z" />
</g>
<g id="#fed602ff">
<path fill="#fed602" opacity="1.00" d=" M 220.89 124.68 C 222.82 124.36 224.91 123.20 226.81 124.23 C 227.09 124.83 227.66 126.02 227.94 126.62 C 227.18 127.21 225.64 128.39 224.88 128.98 C 224.39 128.41 223.41 127.27 222.92 126.70 C 221.34 128.08 219.55 127.48 217.88 126.65 C 218.86 125.96 219.77 125.14 220.89 124.68 Z" />
<path fill="#fed602" opacity="1.00" d=" M 206.11 171.92 C 206.55 172.31 207.41 173.08 207.84 173.47 C 209.20 173.03 210.55 172.93 211.90 173.16 L 212.16 173.78 C 212.68 174.86 211.58 178.32 213.52 177.54 C 214.42 176.23 214.96 174.72 215.61 173.28 C 217.11 173.21 218.84 173.65 219.96 172.33 C 219.22 176.98 215.31 179.76 212.04 182.68 C 210.40 178.88 206.50 176.26 206.11 171.92 Z" />
</g>
<g id="#035f49ff">
<path fill="#035f49" opacity="1.00" d=" M 194.04 128.52 C 194.26 128.16 194.68 127.44 194.89 127.08 C 194.97 129.33 195.10 131.60 194.80 133.85 C 193.22 133.99 191.76 133.14 190.28 132.74 C 190.98 131.33 191.67 129.91 192.37 128.50 C 192.79 128.51 193.63 128.51 194.04 128.52 Z" />
</g>
<g id="#c6ea3aff">
<path fill="#c6ea3a" opacity="1.00" d=" M 222.33 129.38 C 223.29 129.37 224.23 129.49 225.16 129.75 C 225.71 129.25 226.81 128.27 227.36 127.77 C 227.38 129.27 227.40 130.78 227.41 132.28 C 227.80 132.53 228.60 133.02 229.00 133.27 C 227.32 133.39 225.64 133.47 223.97 133.57 C 223.82 133.26 223.54 132.66 223.39 132.35 C 223.13 131.61 222.60 130.12 222.33 129.38 Z" />
<path fill="#c6ea3a" opacity="1.00" d=" M 201.21 144.49 C 201.72 144.46 202.74 144.40 203.26 144.37 C 203.70 145.20 204.59 146.87 205.03 147.70 C 204.15 147.65 202.38 147.53 201.50 147.47 C 201.37 146.48 201.27 145.49 201.21 144.49 Z" />
<path fill="#c6ea3a" opacity="1.00" d=" M 190.81 153.98 C 191.50 154.18 192.87 154.57 193.56 154.77 L 194.27 155.23 L 194.75 155.77 C 194.07 156.96 193.34 158.13 193.07 159.50 C 191.82 158.68 190.47 158.01 189.19 157.25 C 189.60 156.43 190.41 154.80 190.81 153.98 Z" />
<path fill="#c6ea3a" opacity="1.00" d=" M 217.34 157.13 C 218.51 157.33 219.68 157.53 220.85 157.73 C 220.70 159.81 219.54 160.83 217.39 160.80 C 217.37 159.57 217.35 158.35 217.34 157.13 Z" />
</g>
<g id="#b3cf34ff">
<path fill="#b3cf34" opacity="1.00" d=" M 196.79 129.23 C 198.37 129.52 199.95 129.84 201.53 130.20 C 201.54 131.44 201.56 133.93 201.58 135.17 C 200.15 134.69 198.73 134.22 197.31 133.75 C 197.15 132.24 196.98 130.73 196.79 129.23 Z" />
</g>
<g id="#e8463aff">
<path fill="#e8463a" opacity="1.00" d=" M 202.11 132.93 C 202.01 130.83 204.42 130.32 206.00 129.93 C 210.78 129.43 215.59 129.95 220.38 129.65 L 219.96 131.06 C 219.52 131.06 218.66 131.05 218.22 131.05 C 217.70 131.24 216.66 131.61 216.14 131.80 C 211.96 132.50 207.73 131.98 203.55 131.60 C 203.53 132.24 203.51 133.52 203.49 134.15 C 207.33 133.23 211.18 134.97 215.00 134.00 C 217.56 133.47 220.18 133.36 222.79 133.55 C 221.69 135.94 220.21 138.12 218.60 140.18 C 216.01 139.91 214.54 135.90 211.97 136.97 L 211.14 137.30 C 209.59 137.89 208.35 139.03 206.90 139.81 C 205.06 137.80 201.76 136.05 202.11 132.93 Z" />
<path fill="#e8463a" opacity="1.00" d=" M 194.10 135.18 C 194.58 135.35 195.54 135.69 196.02 135.86 C 197.66 135.76 199.66 134.53 201.01 135.99 C 202.56 137.36 204.14 138.86 204.97 140.80 C 204.41 142.82 202.42 143.67 200.78 144.64 C 200.80 147.09 200.99 149.54 201.10 151.99 C 199.46 153.75 197.06 154.53 194.96 155.58 L 194.27 155.23 L 193.56 154.77 C 193.06 154.40 192.06 153.65 191.56 153.28 C 191.51 151.05 191.67 148.80 192.70 146.77 C 194.32 143.51 194.18 139.71 195.98 136.53 C 195.51 136.19 194.57 135.51 194.10 135.18 M 197.44 137.39 C 196.54 141.38 196.13 145.53 194.04 149.14 C 193.05 150.49 193.60 151.99 194.41 153.26 C 194.50 152.51 194.69 151.03 194.78 150.29 C 196.17 148.38 198.37 146.64 198.38 144.07 C 198.43 141.45 198.88 138.88 200.01 136.51 C 199.37 136.73 198.08 137.17 197.44 137.39 Z" />
<path fill="#e8463a" opacity="1.00" d=" M 223.57 135.58 C 225.69 133.97 228.55 134.65 230.33 136.41 C 230.23 142.35 234.73 147.08 234.48 152.98 C 233.29 153.45 232.10 153.91 230.90 154.35 C 228.57 154.26 226.48 153.13 224.36 152.30 C 224.54 149.97 224.97 147.68 225.62 145.44 C 223.71 144.05 221.80 142.65 220.00 141.12 C 221.15 139.24 222.19 137.29 223.57 135.58 M 224.88 136.54 C 225.74 137.03 226.65 137.45 227.59 137.78 C 227.59 139.94 227.39 142.12 227.77 144.26 C 228.75 146.44 230.80 147.92 231.81 150.09 C 231.43 150.69 230.65 151.88 230.26 152.48 C 233.29 152.87 232.94 149.05 231.40 147.48 C 228.96 144.31 228.73 140.27 228.42 136.45 C 227.24 136.49 226.06 136.52 224.88 136.54 Z" />
<path fill="#e8463a" opacity="1.00" d=" M 196.53 155.43 C 198.24 155.40 199.95 155.20 201.50 154.41 C 201.97 154.80 202.91 155.57 203.38 155.96 C 203.47 156.59 203.65 157.85 203.75 158.49 L 204.82 158.52 L 205.40 158.56 C 205.37 159.05 205.33 160.01 205.30 160.50 C 207.40 160.56 209.82 159.93 211.50 161.57 C 212.80 163.62 212.50 166.29 212.31 168.61 C 211.44 169.51 210.56 170.41 209.68 171.30 C 204.20 168.66 199.49 164.67 194.45 161.32 C 194.45 160.41 194.44 158.59 194.44 157.68 C 195.13 156.92 195.83 156.17 196.53 155.43 M 195.76 158.00 C 195.87 161.01 198.42 162.36 200.94 163.20 C 204.47 164.29 205.91 168.54 209.73 169.07 C 209.72 168.75 209.72 168.11 209.71 167.79 C 206.87 167.76 206.13 164.50 203.95 163.24 C 201.13 161.61 197.85 160.67 195.76 158.00 Z" />
<path fill="#e8463a" opacity="1.00" d=" M 221.00 158.16 C 221.98 156.80 222.97 155.43 223.94 154.05 C 226.28 154.63 228.63 155.18 230.90 155.99 C 231.24 156.38 231.92 157.18 232.26 157.57 C 232.00 161.33 228.87 163.28 225.95 164.95 C 223.08 167.71 220.20 171.23 215.73 170.80 C 215.09 170.10 214.46 169.41 213.83 168.71 C 214.00 166.19 214.17 163.67 214.28 161.15 C 216.23 161.28 218.19 161.44 220.15 161.59 C 220.90 160.45 221.69 159.33 222.52 158.25 L 221.00 158.16 M 228.41 156.90 C 228.46 157.72 228.57 159.36 228.62 160.17 C 225.78 161.08 222.41 161.76 220.76 164.53 C 219.57 166.55 217.76 167.96 215.83 169.21 C 220.65 169.24 222.10 163.61 226.30 162.22 C 228.72 161.72 231.15 158.72 228.41 156.90 Z" />
</g>
<g id="#8d2b23ff">
<path fill="#8d2b23" opacity="1.00" d=" M 220.38 129.65 C 221.42 130.51 222.43 131.40 223.39 132.35 C 223.54 132.66 223.82 133.26 223.97 133.57 L 222.79 133.55 C 220.18 133.36 217.56 133.47 215.00 134.00 C 215.29 133.45 215.86 132.35 216.14 131.80 C 216.66 131.61 217.70 131.24 218.22 131.05 C 218.70 132.52 219.28 132.52 219.96 131.06 L 220.38 129.65 Z" />
</g>
<g id="#3e1310ff">
<path fill="#3e1310" opacity="1.00" d=" M 218.22 131.05 C 218.66 131.05 219.52 131.06 219.96 131.06 C 219.28 132.52 218.70 132.52 218.22 131.05 Z" />
<path fill="#3e1310" opacity="1.00" d=" M 203.55 131.60 C 207.73 131.98 211.96 132.50 216.14 131.80 C 215.86 132.35 215.29 133.45 215.00 134.00 C 211.18 134.97 207.33 133.23 203.49 134.15 C 203.51 133.52 203.53 132.24 203.55 131.60 Z" />
<path fill="#3e1310" opacity="1.00" d=" M 197.44 137.39 C 198.08 137.17 199.37 136.73 200.01 136.51 C 198.88 138.88 198.43 141.45 198.38 144.07 C 198.37 146.64 196.17 148.38 194.78 150.29 C 194.69 151.03 194.50 152.51 194.41 153.26 C 193.60 151.99 193.05 150.49 194.04 149.14 C 196.13 145.53 196.54 141.38 197.44 137.39 Z" />
</g>
<g id="#035541ff">
<path fill="#035541" opacity="1.00" d=" M 233.44 132.88 C 235.72 133.23 237.71 134.37 239.35 135.95 C 236.92 136.20 234.03 135.70 233.44 132.88 Z" />
</g>
<g id="#9eb62eff">
<path fill="#9eb62e" opacity="1.00" d=" M 211.14 137.30 L 211.97 136.97 C 215.27 136.99 212.19 141.75 210.74 138.97 C 210.84 138.56 211.04 137.72 211.14 137.30 Z" />
</g>
<g id="#f6d202ff">
<path fill="#f6d202" opacity="1.00" d=" M 181.17 144.11 C 184.63 143.53 187.65 141.71 190.76 140.21 C 190.96 143.23 189.61 146.01 189.42 148.98 C 189.63 150.68 188.72 152.11 187.10 152.66 C 184.56 150.23 182.91 147.10 181.17 144.11 Z" />
<path fill="#f6d202" opacity="1.00" d=" M 209.69 152.46 C 209.07 150.33 209.52 148.25 210.53 146.33 C 212.49 146.35 214.56 146.48 216.07 147.89 C 217.09 149.60 216.02 151.14 214.86 152.39 C 213.25 153.21 211.38 152.48 209.69 152.46 Z" />
</g>
<g id="#7f8b81ff">
<path fill="#7f8b81" opacity="1.00" d=" M 221.76 146.00 C 219.48 147.27 220.57 143.04 221.98 145.21 L 221.76 146.00 Z" />
</g>
<g id="#a6be30ff">
<path fill="#a6be30" opacity="1.00" d=" M 221.98 145.21 C 223.35 143.49 225.62 146.60 223.20 146.92 C 222.84 146.69 222.12 146.23 221.76 146.00 L 221.98 145.21 Z" />
</g>
<g id="#035a45ff">
<path fill="#035a45" opacity="1.00" d=" M 170.75 159.54 C 175.05 157.82 179.77 157.51 183.99 155.53 C 184.79 156.55 185.59 157.56 186.40 158.58 L 185.64 158.74 C 183.23 159.20 180.85 159.80 178.52 160.58 C 178.20 160.19 177.56 159.41 177.25 159.02 C 175.09 159.27 172.92 159.50 170.75 159.54 Z" />
</g>
<g id="#342a02ff">
<path fill="#342a02" opacity="1.00" d=" M 243.40 156.81 C 244.79 156.73 246.19 156.62 247.59 156.53 C 247.52 157.10 247.38 158.24 247.31 158.81 C 245.98 158.18 244.70 157.46 243.40 156.81 Z" />
<path fill="#342a02" opacity="1.00" d=" M 236.66 162.78 C 238.69 165.43 238.63 168.79 238.31 171.96 C 237.08 172.31 235.85 172.62 234.61 172.89 C 231.58 172.68 228.57 172.32 225.61 171.66 C 225.43 171.53 225.08 171.28 224.90 171.15 C 225.41 170.23 225.93 169.30 226.45 168.39 C 226.48 168.84 226.54 169.76 226.57 170.21 C 230.01 170.55 233.47 170.67 236.92 170.88 C 236.85 168.18 236.83 165.48 236.66 162.78 Z" />
</g>
<g id="#027c5fff">
<path fill="#027c5f" opacity="1.00" d=" M 222.92 169.76 C 223.42 170.11 224.41 170.80 224.90 171.15 C 225.08 171.28 225.43 171.53 225.61 171.66 C 226.69 172.88 227.74 174.15 228.80 175.40 C 228.01 175.36 226.43 175.28 225.65 175.24 C 226.44 177.89 227.84 180.28 229.68 182.34 C 229.03 182.30 227.73 182.24 227.08 182.21 L 227.69 183.98 C 227.02 183.08 226.32 182.19 225.64 181.31 C 225.22 181.76 224.38 182.67 223.97 183.12 C 223.88 181.22 223.79 179.33 223.70 177.44 C 223.26 177.63 222.36 177.99 221.92 178.18 C 221.40 177.90 220.38 177.33 219.86 177.05 C 220.65 174.53 221.75 172.12 222.92 169.76 Z" />
</g>
</svg>
