<?xml version="1.0" encoding="UTF-8" standalone="no"?>
<!-- Created with Inkscape (http://www.inkscape.org/) -->
<svg
   xmlns:dc="http://purl.org/dc/elements/1.1/"
   xmlns:cc="http://creativecommons.org/ns#"
   xmlns:rdf="http://www.w3.org/1999/02/22-rdf-syntax-ns#"
   xmlns:svg="http://www.w3.org/2000/svg"
   xmlns="http://www.w3.org/2000/svg"
   xmlns:xlink="http://www.w3.org/1999/xlink"
   xmlns:sodipodi="http://sodipodi.sourceforge.net/DTD/sodipodi-0.dtd"
   xmlns:inkscape="http://www.inkscape.org/namespaces/inkscape"
   version="1.0"
   width="500"
   height="300"
   id="Flag of the City of London"
   sodipodi:version="0.32"
   inkscape:version="0.46"
   sodipodi:docname="East Anglia.svg"
   inkscape:output_extension="org.inkscape.output.svg.inkscape">
  <metadata
     id="metadata3203">
    <rdf:RDF>
      <cc:Work
         rdf:about="">
        <dc:format>image/svg+xml</dc:format>
        <dc:type
           rdf:resource="http://purl.org/dc/dcmitype/StillImage" />
      </cc:Work>
    </rdf:RDF>
  </metadata>
  <sodipodi:namedview
     inkscape:window-height="719"
     inkscape:window-width="1024"
     inkscape:pageshadow="2"
     inkscape:pageopacity="0.0"
     guidetolerance="10.0"
     gridtolerance="10.0"
     objecttolerance="10.0"
     borderopacity="1.0"
     bordercolor="#666666"
     pagecolor="#ffffff"
     id="base"
     showgrid="false"
     inkscape:zoom="1.6866667"
     inkscape:cx="250"
     inkscape:cy="150"
     inkscape:window-x="-4"
     inkscape:window-y="-4"
     inkscape:current-layer="Flag of the City of London" />
  <defs
     id="defs1448">
    <inkscape:perspective
       sodipodi:type="inkscape:persp3d"
       inkscape:vp_x="0 : 150 : 1"
       inkscape:vp_y="0 : 1000 : 0"
       inkscape:vp_z="500 : 150 : 1"
       inkscape:persp3d-origin="250 : 100 : 1"
       id="perspective3205" />
    <inkscape:perspective
       sodipodi:type="inkscape:persp3d"
       inkscape:vp_x="0 : 526.18109 : 1"
       inkscape:vp_y="0 : 1000 : 0"
       inkscape:vp_z="744.09448 : 526.18109 : 1"
       inkscape:persp3d-origin="372.04724 : 350.78739 : 1"
       id="perspective5847" />
    <clipPath
       id="clip">
      <path
         id="path10"
         d="M 0,-200 L 0,600 L 300,600 L 300,-200 L 0,-200 z" />
    </clipPath>
    <polygon
       points="0,-1 0.58778525,0.80901699 -0.95105652,-0.30901699 0.95105652,-0.30901699 -0.58778525,0.80901699 0,-1 "
       transform="scale(53,53)"
       id="star" />
    <radialGradient
       gradientUnits="userSpaceOnUse"
       gradientTransform="matrix(-4.167939e-4,2.182867,-1.884232,-3.599562e-4,615.5972,-289.1214)"
       r="300"
       fy="218.90099"
       fx="225.52438"
       cy="218.90099"
       cx="225.52438"
       id="radialGradient2961"
       xlink:href="#linearGradient2955"
       inkscape:collect="always" />
    <linearGradient
       id="linearGradient2955">
      <stop
         id="stop2965"
         offset="0"
         style="stop-color:white;stop-opacity:0;" />
      <stop
         id="stop2959"
         offset="1"
         style="stop-color:black;stop-opacity:0.64583331;" />
    </linearGradient>
    <inkscape:perspective
       id="perspective2497"
       inkscape:persp3d-origin="300 : 220 : 1"
       inkscape:vp_z="600 : 330 : 1"
       inkscape:vp_y="0 : 1000 : 0"
       inkscape:vp_x="0 : 330 : 1"
       sodipodi:type="inkscape:persp3d" />
    <inkscape:perspective
       id="perspective14049"
       inkscape:persp3d-origin="87.022789 : 37.9297 : 1"
       inkscape:vp_z="174.04558 : 56.89455 : 1"
       inkscape:vp_y="0 : 1000 : 0"
       inkscape:vp_x="0 : 56.89455 : 1"
       sodipodi:type="inkscape:persp3d" />
  </defs>
  <g
     id="g14082">
    <g
       id="g14075">
      <g
         id="g3219">
        <rect
           id="Argent"
           style="fill:#ffffff;fill-opacity:1;fill-rule:evenodd"
           y="0"
           x="0"
           height="300"
           width="500" />
        <rect
           id="GulesHoriz"
           style="fill:#cf142b;fill-opacity:1;fill-rule:evenodd"
           y="120"
           x="0"
           height="60"
           width="500" />
        <use
           xlink:href="#GulesHoriz"
           height="300"
           width="500"
           y="0"
           x="0"
           id="GulesVerti"
           style="fill:#cf142b"
           transform="matrix(0,0.6,-1,0,400,0)" />
      </g>
      <path
         sodipodi:nodetypes="cccccc"
         d="M 250,232.5 C 250,232.5 325,204.2917 325,132.60297 C 325,60.914227 325,67.669897 325,67.669897 L 175,67.669897 L 175,132.60297 C 175,204.2917 250,232.5 250,232.5 z"
         style="fill:#0000e6;fill-opacity:1;fill-rule:evenodd;stroke:none;stroke-width:1px;stroke-linecap:butt;stroke-linejoin:miter;stroke-opacity:1"
         id="path2855" />
    </g>
    <g
       transform="matrix(0.7603222,0,0,0.7603222,183.83464,99.034302)"
       id="g14052">
      <g
         style="display:none"
         id="Grid"
         display="none"
         transform="translate(-484.5875,-425.6901)" />
      <path
         id="path2309"
         style="fill:none;fill-rule:evenodd;stroke:#000000;stroke-width:0.2840901"
         d="" />
      <path
         id="path2311"
         style="fill:none;fill-rule:evenodd;stroke:#000000;stroke-width:0.2840901"
         d="" />
      <path
         id="path2405"
         style="fill:none;fill-rule:evenodd;stroke:#000000;stroke-width:0.2840901"
         d="" />
      <path
         id="path2407"
         style="fill:none;fill-rule:evenodd;stroke:#000000;stroke-width:0.2840901"
         d="" />
      <path
         id="path2471"
         style="fill:none;fill-rule:evenodd;stroke:#000000;stroke-width:0.2840901"
         d="" />
      <path
         id="path4011"
         d="M 85.298753,-345.05873 L 85.298753,-345.05873 L 85.298753,-345.05873 z" />
      <path
         id="path4013"
         d="M 85.298753,-345.05873 L 85.298753,-345.05873 L 85.298753,-345.05873 z" />
      <path
         id="path4015"
         d="M 64.706473,-341.38661 L 64.706473,-341.38661 L 64.706473,-341.38661 z" />
      <g
         id="g7745"
         transform="matrix(5.448634,0,0,5.448634,62.94198,-0.4884)">
        <path
           d="M -9.2718989,7.8599942 L 1.6355482,7.9562176 C 1.717251,7.943967 2.7747476,1.8515345 3.6503349,0.58575243 C 2.910996,0.28842559 1.8730538,0.77479346 1.6083118,1.6919229 C 0.66364528,1.5553512 -0.69166317,2.5661343 -0.57047285,3.1499225 C 0.16558647,3.3923844 1.1827135,3.8442338 0.28003203,4.5956906 C -0.46107416,5.1479043 -0.039058461,4.0243345 -0.93810729,3.8058055 C -1.8371525,3.5872861 -1.9644676,5.1189088 -2.6100099,4.5372316 C -3.2555408,3.9555591 -2.0746768,3.0040949 -1.5489221,3.1772942 C -1.2135125,2.8602302 -1.8523881,1.7175369 -2.6100142,1.6623877 C -2.6828058,1.2885028 -3.6711532,-1.3486981 -5.245261,1.4158041 C -5.4904772,1.3350408 -6.752968,1.9758744 -6.4502604,3.3768669 C -5.6242806,3.2216447 -4.4539631,3.8654586 -5.305523,4.5914017 C -5.9989607,5.1825499 -5.9931888,4.146812 -6.7382773,4.1095825 C -7.5958928,4.0667412 -7.0829011,5.1354245 -8.0302154,4.7065766 C -8.9775202,4.2777287 -7.9090977,3.4129167 -7.4419859,3.5278623 C -7.1776163,3.0708452 -7.7242778,1.7641036 -9.0153467,2.0381687 C -9.2290924,1.5597978 -9.6362135,0.18222711 -11.473599,0.64559639 C -10.269833,2.616154 -9.9950829,7.7574472 -9.2718989,7.8599942 z"
           style="fill:#ffc726;fill-opacity:1;stroke:#000000;stroke-width:0.20592082"
           id="path7747"
           sodipodi:nodetypes="ccccccssccccssscccc" />
        <path
           sodipodi:nodetypes="cc"
           id="path7749"
           d="M -10.098503,5.5691209 L 2.1213241,5.6555864"
           style="fill:none;fill-rule:evenodd;stroke:#000000;stroke-width:0.62816364px;stroke-linecap:butt;stroke-linejoin:miter;stroke-opacity:1" />
        <path
           sodipodi:type="arc"
           style="fill:#f4e0f2;fill-opacity:1;stroke:#0d0b04;stroke-width:1.34416699;stroke-linejoin:round;stroke-miterlimit:4;stroke-dasharray:none;stroke-opacity:1"
           id="path7751"
           sodipodi:cx="95.407593"
           sodipodi:cy="-10.584682"
           sodipodi:rx="2.5948935"
           sodipodi:ry="2.5948935"
           d="M 98.002486,-10.584682 A 2.5948935,2.5948935 0 1 1 92.812699,-10.584682 A 2.5948935,2.5948935 0 1 1 98.002486,-10.584682 z"
           transform="matrix(0.264173,0,0,0.264173,-29.27889,5.425485)" />
      </g>
      <g
         id="g7753"
         transform="matrix(5.448634,0,0,5.448634,153.7297,-0.4884)">
        <path
           d="M -9.2718989,7.8599942 L 1.6355482,7.9562176 C 1.717251,7.943967 2.7747476,1.9258272 3.6503349,0.66004508 C 3.0150795,0.33333494 1.8748452,0.61517724 1.6083118,1.6919229 C 0.66364528,1.5553512 -0.69166317,2.5661343 -0.57047285,3.1499225 C 0.16558647,3.3923844 1.1827135,3.8442338 0.28003203,4.5956906 C -0.46107416,5.1479043 -0.039058461,4.0243345 -0.93810729,3.8058055 C -1.8371525,3.5872861 -1.9644676,5.1189088 -2.6100099,4.5372316 C -3.2555408,3.9555591 -2.0746768,3.0040949 -1.5489221,3.1772942 C -1.2135125,2.8602302 -1.8523881,1.7175369 -2.6100142,1.6623877 C -2.6828058,1.2885028 -3.6711532,-1.3486981 -5.245261,1.4158041 C -5.4904772,1.3350408 -6.752968,1.9758744 -6.4502604,3.3768669 C -5.6242806,3.2216447 -4.4539631,3.8654586 -5.305523,4.5914017 C -5.9989607,5.1825499 -5.9931888,4.146812 -6.7382773,4.1095825 C -7.5958928,4.0667412 -7.0829011,5.1354245 -8.0302154,4.7065766 C -8.9775202,4.2777287 -7.9090977,3.4129167 -7.4419859,3.5278623 C -7.1776163,3.0708452 -7.7242778,1.7641036 -9.0153467,2.0381687 C -9.2290924,1.5597978 -9.6362135,0.18222711 -11.473599,0.64559639 C -10.269833,2.616154 -9.9950829,7.7574472 -9.2718989,7.8599942 z"
           style="fill:#ffc726;fill-opacity:1;stroke:#000000;stroke-width:0.20592082"
           id="path7755"
           sodipodi:nodetypes="ccccccssccccssscccc" />
        <path
           sodipodi:nodetypes="cc"
           id="path7757"
           d="M -10.098503,5.5691209 L 2.1584705,5.6555864"
           style="fill:none;fill-rule:evenodd;stroke:#000000;stroke-width:0.62816364px;stroke-linecap:butt;stroke-linejoin:miter;stroke-opacity:1" />
        <path
           sodipodi:type="arc"
           style="fill:#f4e0f2;fill-opacity:1;stroke:#0d0b04;stroke-width:1.34416699;stroke-linejoin:round;stroke-miterlimit:4;stroke-dasharray:none;stroke-opacity:1"
           id="path7759"
           sodipodi:cx="95.407593"
           sodipodi:cy="-10.584682"
           sodipodi:rx="2.5948935"
           sodipodi:ry="2.5948935"
           d="M 98.002486,-10.584682 A 2.5948935,2.5948935 0 1 1 92.812699,-10.584682 A 2.5948935,2.5948935 0 1 1 98.002486,-10.584682 z"
           transform="matrix(0.264173,0,0,0.264173,-29.27889,5.425485)" />
      </g>
      <g
         id="g7765"
         transform="matrix(5.448634,0,0,5.448634,104.2156,70.01205)">
        <path
           d="M -9.2718989,7.8599942 L 1.6355482,7.9562176 C 1.717251,7.943967 2.7747476,1.9258272 3.6503349,0.66004508 C 3.0150795,0.33333494 1.8748452,0.61517724 1.6083118,1.6919229 C 0.66364528,1.5553512 -0.69166317,2.5661343 -0.57047285,3.1499225 C 0.16558647,3.3923844 1.1827135,3.8442338 0.28003203,4.5956906 C -0.46107416,5.1479043 -0.039058461,4.0243345 -0.93810729,3.8058055 C -1.8371525,3.5872861 -1.9644676,5.1189088 -2.6100099,4.5372316 C -3.2555408,3.9555591 -2.0746768,3.0040949 -1.5489221,3.1772942 C -1.2135125,2.8602302 -1.8523881,1.7175369 -2.6100142,1.6623877 C -2.6828058,1.2885028 -3.6711532,-1.3486981 -5.245261,1.4158041 C -5.4904772,1.3350408 -6.752968,1.9758744 -6.4502604,3.3768669 C -5.6242806,3.2216447 -4.4539631,3.8654586 -5.305523,4.5914017 C -5.9989607,5.1825499 -5.9931888,4.146812 -6.7382773,4.1095825 C -7.5958928,4.0667412 -7.0829011,5.1354245 -8.0302154,4.7065766 C -8.9775202,4.2777287 -7.9090977,3.4129167 -7.4419859,3.5278623 C -7.1776163,3.0708452 -7.7242778,1.7641036 -9.0153467,2.0381687 C -9.2290924,1.5597978 -9.6362135,0.18222711 -11.473599,0.64559639 C -10.269833,2.616154 -9.9950829,7.7574472 -9.2718989,7.8599942 z"
           style="fill:#ffc726;fill-opacity:1;stroke:#000000;stroke-width:0.20592082"
           id="path7767"
           sodipodi:nodetypes="ccccccssccccssscccc" />
        <path
           sodipodi:nodetypes="cc"
           id="path7769"
           d="M -10.098503,5.5691209 L 2.1584705,5.6555864"
           style="fill:none;fill-rule:evenodd;stroke:#000000;stroke-width:0.62816364px;stroke-linecap:butt;stroke-linejoin:miter;stroke-opacity:1" />
        <path
           sodipodi:type="arc"
           style="fill:#f4e0f2;fill-opacity:1;stroke:#0d0b04;stroke-width:1.34416699;stroke-linejoin:round;stroke-miterlimit:4;stroke-dasharray:none;stroke-opacity:1"
           id="path7771"
           sodipodi:cx="95.407593"
           sodipodi:cy="-10.584682"
           sodipodi:rx="2.5948935"
           sodipodi:ry="2.5948935"
           d="M 98.002486,-10.584682 A 2.5948935,2.5948935 0 1 1 92.812699,-10.584682 A 2.5948935,2.5948935 0 1 1 98.002486,-10.584682 z"
           transform="matrix(0.264173,0,0,0.264173,-29.27889,5.425485)" />
      </g>
    </g>
  </g>
</svg>
