<?xml version="1.0" encoding="UTF-8" standalone="no"?>
<svg xmlns="http://www.w3.org/2000/svg" xmlns:xlink="http://www.w3.org/1999/xlink" version="1.1" width="2000" height="1200">

<def>
	<rect id="v" fill="#ffcb41" width="68" height="167.75"/>
	<rect id="h" fill="#ffcb41" width="164.6" height="78"/>
</def>
<rect width="2000" height="1200" fill="#ffcb41"/>
<rect x="64" y="62" width="1872" height="1076" fill="#ec2029"/>

<use xlink:href="#v" x="54" y="143"/>
<use xlink:href="#v" x="54" y="391.75"/>
<use xlink:href="#v" x="54" y="640.5"/>
<use xlink:href="#v" x="54" y="889.25"/>

<use xlink:href="#v" x="1878" y="143"/>
<use xlink:href="#v" x="1878" y="391.75"/>
<use xlink:href="#v" x="1878" y="640.5"/>
<use xlink:href="#v" x="1878" y="889.25"/>

<use xlink:href="#h" x="154" y="1080"/>
<use xlink:href="#h" x="408.6" y="1080"/>
<use xlink:href="#h" x="663.2" y="1080"/>
<use xlink:href="#h" x="917.8" y="1080"/>
<use xlink:href="#h" x="1172.4" y="1080"/>
<use xlink:href="#h" x="1427" y="1080"/>
<use xlink:href="#h" x="1681.6" y="1080"/>

<use xlink:href="#h" x="154" y="42"/>
<use xlink:href="#h" x="408.6" y="42"/>
<use xlink:href="#h" x="663.2" y="42"/>
<use xlink:href="#h" x="917.8" y="42"/>
<use xlink:href="#h" x="1172.4" y="42"/>
<use xlink:href="#h" x="1427" y="42"/>
<use xlink:href="#h" x="1681.6" y="42"/>

  <path
     d="m 1527.3125,210.625 -35.5,4.59375 7.0937,25.15625 34.3438,-4.9375 0.094,0 0.094,0 c 7.5141,-0.12676 14.9988,-0.29079 22.5,-0.46875 l -22.3125,0.375 -6.3125,-24.71875 z m 115.7813,0.59375 -3.875,24.40625 -1.0938,-0.0312 c 0.6457,0.0437 1.2907,0.0786 1.9375,0.125 l 0.031,0 0.031,0 28.5938,3.46875 6.125,-24.09375 -31.75,-3.875 z m -76.2813,0.28125 0,23.21875 c 6.4315,-0.14056 12.8765,-0.27701 19.3437,-0.34375 4.4166,-0.0456 8.8342,-0.0771 13.2813,-0.0625 1.5274,0.005 3.062,0.0171 4.5937,0.0312 L 1603.75,211.5 l -36.9375,0 z m 24.3437,25.8125 c -12.9423,0.0756 -25.7968,0.41236 -38.6562,0.71875 l 0,19.96875 c 32.0317,0.21394 51.3179,0.41773 67.5,1.21875 l 1.4062,-21.46875 c -7.3732,-0.2686 -14.6975,-0.4124 -21.9687,-0.4375 -2.7689,-0.01 -5.5227,-0.0161 -8.2813,0 z m 33.25,0.5625 -1.4062,21.5 c 13.0254,0.72305 24.419,1.87911 39.5938,3.84375 l 5.375,-21.09375 -28.125,-3.4375 0,0.0312 c -5.1854,-0.37176 -10.3198,-0.63023 -15.4376,-0.84375 z m -74.9062,0.21875 c -5.327,0.12476 -10.6542,0.25357 -16,0.34375 l -33.75,4.84375 5.875,20.875 c 14.5073,-2.56494 29.0565,-5.36379 43.875,-6.09375 l 0,-19.96875 z M 1551.2812,261 c -5.3007,0.20366 -10.5967,0.68374 -15.875,1.34375 L 1535,285.03125 c 16.007,-1.82238 32.5228,-2.67737 49.5938,-2.84375 l 0.5,-20.90625 c -9.6022,-0.12312 -20.4249,-0.19282 -33.75,-0.28125 -0.026,-1.7e-4 -0.037,1.7e-4 -0.063,0 z m 36.8126,0.3125 -0.5,20.84375 c 15.0597,-0.0737 30.5641,0.39446 45.9687,1.46875 l 0.125,-20.5 c -13.0038,-1.05242 -26.2209,-1.53899 -45.5937,-1.8125 z m -55.6876,1.4375 c -8.6528,1.18433 -17.283,2.77507 -25.9687,4.3125 l 5.7813,20.4375 0.75,0.71875 c 6.2642,-1.1037 12.6095,-2.0309 19.0312,-2.8125 l 0.4062,-22.65625 z m 104.2813,0.625 -0.125,20.46875 c 6.7808,0.50854 13.5409,1.12108 20.2187,1.875 l 0.125,-0.0937 4.9376,-19.4375 c -9.4162,-1.21672 -17.3517,-2.12631 -25.1563,-2.8125 z m -50.625,21.78125 c -24.6131,0.18132 -48.0139,1.83966 -70.375,5.625 l 12.9063,12.25 0.125,0.21875 c 18.7625,-1.97285 37.4832,-2.4506 56.1874,-2.46875 17.4192,-0.0169 34.818,0.34391 52.1876,0.125 l 0.5624,-0.75 15.6563,-11.8125 c -22.233,-2.36699 -45.2541,-3.34954 -67.25,-3.1875 z m -2.3125,18.65625 c -5.6309,0.0188 -11.2517,0.069 -16.875,0.1875 l 0.1562,20.8125 7.9063,-0.1875 0,-7.0625 c 0,-2.5323 2.0302,-4.5625 4.5625,-4.5625 l 2.9375,0 c 2.5323,0 4.5625,2.0302 4.5625,4.5625 l 0,6.78125 15.8125,-0.34375 -2.1563,-20.15625 c -5.6338,-0.0374 -11.2753,-0.05 -16.9062,-0.0312 z m 19.9062,0.0625 2.1563,20.15625 11.3125,2.75 22.0938,-1.4375 -4.75,-21.03125 0.3124,-0.40625 c -10.3884,0.10276 -20.7521,0.0409 -31.125,-0.0312 z m -39.7812,0.1875 c -11.1564,0.28631 -22.3016,0.87827 -33.4375,2 l 0.1563,0.25 -3.9688,19.4375 37.4062,-0.875 -0.1562,-20.8125 z m 41.2188,22.875 -18.0938,0.40625 0,21.25 c 9.7612,0.14603 19.5909,0.40404 29.4375,0.75 l -1.75,-20.0625 -9.5937,-2.34375 z m -30.1563,0.6875 -22.5937,0.53125 -0.6563,20.40625 c 7.6588,-0.12463 15.4219,-0.13826 23.25,-0.0937 l 0,-20.84375 z m -25.5937,0.59375 -23.3126,0.53125 -4.25,20.8125 c 8.7804,-0.44602 17.7725,-0.76091 26.9063,-0.9375 l 0.6563,-20.40625 z m 90.5624,0.0937 -22.1562,1.46875 1.7188,19.6875 c 8.496,0.31472 17.0036,0.65573 25.4687,1.09375 l -5.0313,-22.25 z m -73.3437,23.125 c -0.8285,0.002 -1.6427,0.0275 -2.4687,0.0312 l -0.75,19.375 c 6.0265,-0.37942 12.1956,-0.668 18.8124,-0.78125 9.6845,-0.16574 16.3728,0.0249 26.1876,0.625 l -0.75,-18.625 c -13.7974,-0.41392 -27.54,-0.65625 -41.0313,-0.625 z m -5.4687,0.0312 c -13.6504,0.10024 -27.0249,0.45504 -39.9376,1.125 l -4.3437,21.375 c 16.0762,-0.61004 29.4625,-1.95159 43.5,-2.90625 l 0.7813,-19.59375 z m 49.5312,0.6875 0.7188,18.71875 c 8.9387,0.58308 20.4688,1.46075 38.8124,2.75 l -4.5312,-20 c -11.6344,-0.60809 -23.3292,-1.0952 -35,-1.46875 z M 1589.375,373 c -1.7475,-0.003 -3.6555,0.0356 -5.5938,0.0625 l -0.6562,22.90625 c 7.454,0.0942 14.8513,0.22379 21.9375,0.40625 7.53,0.19389 14.6563,0.42632 21.2813,0.6875 l -0.6563,-22.1875 c -17.5278,-1.27463 -26.1037,-1.85537 -36.3125,-1.875 z m -8.5625,0.0937 c -12.9872,0.27487 -24.4383,1.22304 -36.375,2.15625 l -0.9375,20.8125 c 3.1828,-0.0706 6.4066,-0.1188 9.6875,-0.15625 8.8252,-0.10074 17.9334,-0.0962 26.9687,0 l 0.6563,-22.8125 z m 47.875,2 0.6563,22.09375 c 6.788,0.28289 12.9418,0.59007 18.0937,0.90625 3.269,0.20062 5.9851,0.39034 8.4063,0.59375 l -5,-22 c -8.8207,-0.61888 -15.9516,-1.14174 -22.1563,-1.59375 z M 1541.4062,375.5 c -7.9143,0.60726 -16.1284,1.17074 -25.2187,1.5 L 1512,397.5625 c 8.3431,-0.69096 18.0957,-1.16726 28.5312,-1.4375 l 0.875,-20.625 z m 23.875,23.34375 0.125,18.53125 c 4.4853,-0.0744 8.9666,-0.101 13.4063,-0.0937 8.9442,0.0146 17.7382,0.18362 26.125,0.4375 0.9882,0.0299 1.9299,0.0614 2.9063,0.0937 l -2.2813,-18.40625 c -0.203,-0.005 -0.3909,-0.026 -0.5937,-0.0312 -12.4285,-0.32 -25.7374,-0.53033 -38.8126,-0.53125 -0.2923,-2e-5 -0.5815,-1.9e-4 -0.875,0 z m -6.6874,0.0312 c -10.0109,0.0651 -19.7301,0.25779 -28.6563,0.625 l 0.1563,19.53125 c 10.4824,-0.87089 21.3946,-1.36377 32.3124,-1.59375 l -0.125,-18.5625 c -1.2284,0.004 -2.4664,-0.008 -3.6874,0 z m 50,0.59375 2.2812,18.46875 c 12.1088,0.43707 22.8514,1.03251 32.0312,1.625 -0.1322,-1.7897 -0.3759,-4.81441 -0.75,-8.65625 -0.2582,-2.66305 -0.5335,-5.37498 -0.8437,-7.5 -0.1551,-1.06251 -0.3208,-1.96154 -0.4687,-2.625 -0.01,-0.0269 -0.025,-0.0361 -0.031,-0.0625 -9.0551,-0.47704 -20.1166,-0.91139 -32.2187,-1.25 z m -81.6563,0.1875 c -5.57,0.2587 -10.8283,0.56356 -15.5625,0.96875 l -4.3125,21.09375 c 6.3733,-0.99479 13.101,-1.7777 20.0313,-2.40625 l -0.1563,-19.65625 z m 116.9687,1.25 c 0.1289,0.63059 0.2618,1.31586 0.375,2.09375 0.3234,2.21226 0.6142,4.93604 0.875,7.625 0.4111,4.21534 0.6688,7.55914 0.7813,9.125 5.7739,0.38673 11.0169,0.76097 14.9063,1.0625 l -4.3126,-19.03125 c -2.5716,-0.22185 -5.5299,-0.45925 -9.25,-0.6875 -1.0268,-0.0631 -2.2708,-0.12506 -3.375,-0.1875 z m -65.0937,19.375 c -6.6971,-0.01 -13.4642,0.0661 -20.2187,0.25 l -10.8126,25 c 10.8322,-0.6191 21.6694,-0.88096 32.5,-0.84375 l 0.4063,-24.40625 c -0.6262,-0.002 -1.2471,9.2e-4 -1.875,0 z m 4.875,0.0312 -0.4063,24.375 c 11.0203,0.0982 22.0423,0.53401 33.0626,1.28125 l -9.75,-25.1875 c -0.5924,-0.019 -1.154,-0.0444 -1.75,-0.0625 -6.8321,-0.20678 -13.9277,-0.35033 -21.1563,-0.40625 z m -28.4063,0.34375 c -6.7889,0.2215 -13.5629,0.52825 -20.1562,1 l -20.375,26.8125 c 9.8823,-1.19843 19.774,-2.09016 29.6562,-2.71875 l 10.875,-25.09375 z m 54.5626,0.21875 9.8124,25.3125 c 11.0091,0.81005 22.0225,1.94793 33.0313,3.375 l -18.4063,-27.53125 c -7.4121,-0.42369 -15.6539,-0.84684 -24.4374,-1.15625 z m -78.7188,1.09375 c -9.4428,0.76486 -18.5336,1.82228 -26.9062,3.25 l -0.063,0.0625 L 1475,454.875 c 11.8437,-2.3901 23.6885,-4.33943 35.5312,-5.875 l 20.5938,-27.03125 z m 106.9062,0.25 18.5938,27.875 c 11.2482,1.53154 22.5018,3.35727 33.75,5.5 l -27.5938,-30.875 -0.4062,-0.78125 c -5.6746,-0.44591 -14.0983,-1.10141 -24.3438,-1.71875 z"
     id="path2987"
     style="fill:#ffcb41;fill-opacity:1;stroke:none"/>
  <path
     d="m 1527.3125,572.625 -35.5,4.59375 7.0937,25.15625 34.3438,-4.9375 0.094,0 0.094,0 c 7.5141,-0.12676 14.9988,-0.29079 22.5,-0.46875 l -22.3125,0.375 -6.3125,-24.71875 z m 115.7813,0.59375 -3.875,24.40625 -1.0938,-0.0312 c 0.6457,0.0437 1.2907,0.0786 1.9375,0.125 l 0.031,0 0.031,0 28.5938,3.46875 6.125,-24.09375 -31.75,-3.875 z m -76.2813,0.28125 0,23.21875 c 6.4315,-0.14056 12.8765,-0.27701 19.3437,-0.34375 4.4166,-0.0456 8.8342,-0.0771 13.2813,-0.0625 1.5274,0.005 3.062,0.0171 4.5937,0.0312 L 1603.75,573.5 l -36.9375,0 z m 24.3437,25.8125 c -12.9423,0.0756 -25.7968,0.41236 -38.6562,0.71875 l 0,19.96875 c 32.0317,0.21394 51.3179,0.41773 67.5,1.21875 l 1.4062,-21.46875 c -7.3732,-0.2686 -14.6975,-0.4124 -21.9687,-0.4375 -2.7689,-0.01 -5.5227,-0.0161 -8.2813,0 z m 33.25,0.5625 -1.4062,21.5 c 13.0254,0.72305 24.419,1.87911 39.5938,3.84375 l 5.375,-21.09375 -28.125,-3.4375 0,0.0312 c -5.1854,-0.37176 -10.3198,-0.63023 -15.4376,-0.84375 z m -74.9062,0.21875 c -5.327,0.12476 -10.6542,0.25357 -16,0.34375 l -33.75,4.84375 5.875,20.875 c 14.5073,-2.56494 29.0565,-5.36379 43.875,-6.09375 l 0,-19.96875 z M 1551.2812,623 c -5.3007,0.20366 -10.5967,0.68374 -15.875,1.34375 L 1535,647.03125 c 16.007,-1.82238 32.5228,-2.67737 49.5938,-2.84375 l 0.5,-20.90625 c -9.6022,-0.12312 -20.4249,-0.19282 -33.75,-0.28125 -0.026,-1.7e-4 -0.037,1.7e-4 -0.063,0 z m 36.8126,0.3125 -0.5,20.84375 c 15.0597,-0.0737 30.5641,0.39446 45.9687,1.46875 l 0.125,-20.5 c -13.0038,-1.05242 -26.2209,-1.53899 -45.5937,-1.8125 z m -55.6876,1.4375 c -8.6528,1.18433 -17.283,2.77507 -25.9687,4.3125 l 5.7813,20.4375 0.75,0.71875 c 6.2642,-1.1037 12.6095,-2.0309 19.0312,-2.8125 l 0.4062,-22.65625 z m 104.2813,0.625 -0.125,20.46875 c 6.7808,0.50854 13.5409,1.12108 20.2187,1.875 l 0.125,-0.0937 4.9376,-19.4375 c -9.4162,-1.21672 -17.3517,-2.12631 -25.1563,-2.8125 z m -50.625,21.78125 c -24.6131,0.18132 -48.0139,1.83966 -70.375,5.625 l 12.9063,12.25 0.125,0.21875 c 18.7625,-1.97285 37.4832,-2.4506 56.1874,-2.46875 17.4192,-0.0169 34.818,0.34391 52.1876,0.125 l 0.5624,-0.75 15.6563,-11.8125 c -22.233,-2.36699 -45.2541,-3.34954 -67.25,-3.1875 z m -2.3125,18.65625 c -5.6309,0.0188 -11.2517,0.069 -16.875,0.1875 l 0.1562,20.8125 7.9063,-0.1875 0,-7.0625 c 0,-2.5323 2.0302,-4.5625 4.5625,-4.5625 l 2.9375,0 c 2.5323,0 4.5625,2.0302 4.5625,4.5625 l 0,6.78125 15.8125,-0.34375 -2.1563,-20.15625 c -5.6338,-0.0374 -11.2753,-0.05 -16.9062,-0.0312 z m 19.9062,0.0625 2.1563,20.15625 11.3125,2.75 22.0938,-1.4375 -4.75,-21.03125 0.3124,-0.40625 c -10.3884,0.10276 -20.7521,0.0409 -31.125,-0.0312 z m -39.7812,0.1875 c -11.1564,0.28631 -22.3016,0.87827 -33.4375,2 l 0.1563,0.25 -3.9688,19.4375 37.4062,-0.875 -0.1562,-20.8125 z m 41.2188,22.875 -18.0938,0.40625 0,21.25 c 9.7612,0.14603 19.5909,0.40404 29.4375,0.75 l -1.75,-20.0625 -9.5937,-2.34375 z m -30.1563,0.6875 -22.5937,0.53125 -0.6563,20.40625 c 7.6588,-0.12463 15.4219,-0.13826 23.25,-0.0937 l 0,-20.84375 z m -25.5937,0.59375 -23.3126,0.53125 -4.25,20.8125 c 8.7804,-0.44602 17.7725,-0.76091 26.9063,-0.9375 l 0.6563,-20.40625 z m 90.5624,0.0937 -22.1562,1.46875 1.7188,19.6875 c 8.496,0.31472 17.0036,0.65573 25.4687,1.09375 l -5.0313,-22.25 z m -73.3437,23.125 c -0.8285,0.002 -1.6427,0.0275 -2.4687,0.0312 l -0.75,19.375 c 6.0265,-0.37942 12.1956,-0.668 18.8124,-0.78125 9.6845,-0.16574 16.3728,0.0249 26.1876,0.625 l -0.75,-18.625 c -13.7974,-0.41392 -27.54,-0.65625 -41.0313,-0.625 z m -5.4687,0.0312 c -13.6504,0.10024 -27.0249,0.45504 -39.9376,1.125 l -4.3437,21.375 c 16.0762,-0.61004 29.4625,-1.95159 43.5,-2.90625 l 0.7813,-19.59375 z m 49.5312,0.6875 0.7188,18.71875 c 8.9387,0.58308 20.4688,1.46075 38.8124,2.75 l -4.5312,-20 c -11.6344,-0.60809 -23.3292,-1.0952 -35,-1.46875 z M 1589.375,735 c -1.7475,-0.003 -3.6555,0.0356 -5.5938,0.0625 l -0.6562,22.90625 c 7.454,0.0942 14.8513,0.22379 21.9375,0.40625 7.53,0.19389 14.6563,0.42632 21.2813,0.6875 l -0.6563,-22.1875 c -17.5278,-1.27463 -26.1037,-1.85537 -36.3125,-1.875 z m -8.5625,0.0937 c -12.9872,0.27487 -24.4383,1.22304 -36.375,2.15625 l -0.9375,20.8125 c 3.1828,-0.0706 6.4066,-0.1188 9.6875,-0.15625 8.8252,-0.10074 17.9334,-0.0962 26.9687,0 l 0.6563,-22.8125 z m 47.875,2 0.6563,22.09375 c 6.788,0.28289 12.9418,0.59007 18.0937,0.90625 3.269,0.20062 5.9851,0.39034 8.4063,0.59375 l -5,-22 c -8.8207,-0.61888 -15.9516,-1.14174 -22.1563,-1.59375 z m -87.2813,0.4063 c -7.9143,0.60726 -16.1284,1.17074 -25.2187,1.5 L 1512,759.5625 c 8.3431,-0.69096 18.0957,-1.16726 28.5312,-1.4375 l 0.875,-20.625 z m 23.875,23.34375 0.125,18.53125 c 4.4853,-0.0744 8.9666,-0.101 13.4063,-0.0937 8.9442,0.0146 17.7382,0.18362 26.125,0.4375 0.9882,0.0299 1.9299,0.0614 2.9063,0.0937 l -2.2813,-18.40625 c -0.203,-0.005 -0.3909,-0.026 -0.5937,-0.0312 -12.4285,-0.32 -25.7374,-0.53033 -38.8126,-0.53125 -0.2923,-2e-5 -0.5815,-1.9e-4 -0.875,0 z m -6.6874,0.0312 c -10.0109,0.0651 -19.7301,0.25779 -28.6563,0.625 l 0.1563,19.53125 c 10.4824,-0.87089 21.3946,-1.36377 32.3124,-1.59375 l -0.125,-18.5625 c -1.2284,0.004 -2.4664,-0.008 -3.6874,0 z m 50,0.59375 2.2812,18.46875 c 12.1088,0.43707 22.8514,1.03251 32.0312,1.625 -0.1322,-1.7897 -0.3759,-4.81441 -0.75,-8.65625 -0.2582,-2.66305 -0.5335,-5.37498 -0.8437,-7.5 -0.1551,-1.06251 -0.3208,-1.96154 -0.4687,-2.625 -0.01,-0.0269 -0.025,-0.0361 -0.031,-0.0625 -9.0551,-0.47704 -20.1166,-0.91139 -32.2187,-1.25 z m -81.6563,0.1875 c -5.57,0.2587 -10.8283,0.56356 -15.5625,0.96875 l -4.3125,21.09375 c 6.3733,-0.99479 13.101,-1.7777 20.0313,-2.40625 l -0.1563,-19.65625 z m 116.9687,1.25 c 0.1289,0.63059 0.2618,1.31586 0.375,2.09375 0.3234,2.21226 0.6142,4.93604 0.875,7.625 0.4111,4.21534 0.6688,7.55914 0.7813,9.125 5.7739,0.38673 11.0169,0.76097 14.9063,1.0625 l -4.3126,-19.03125 c -2.5716,-0.22185 -5.5299,-0.45925 -9.25,-0.6875 -1.0268,-0.0631 -2.2708,-0.12506 -3.375,-0.1875 z m -65.0937,19.375 c -6.6971,-0.01 -13.4642,0.0661 -20.2187,0.25 l -10.8126,25 c 10.8322,-0.6191 21.6694,-0.88096 32.5,-0.84375 l 0.4063,-24.40625 c -0.6262,-0.002 -1.2471,9.2e-4 -1.875,0 z m 4.875,0.0312 -0.4063,24.375 c 11.0203,0.0982 22.0423,0.53401 33.0626,1.28125 l -9.75,-25.1875 c -0.5924,-0.019 -1.154,-0.0444 -1.75,-0.0625 -6.8321,-0.20678 -13.9277,-0.35033 -21.1563,-0.40625 z m -28.4063,0.34375 c -6.7889,0.2215 -13.5629,0.52825 -20.1562,1 l -20.375,26.8125 c 9.8823,-1.19843 19.774,-2.09016 29.6562,-2.71875 l 10.875,-25.09375 z m 54.5626,0.21875 9.8124,25.3125 c 11.0091,0.81005 22.0225,1.94793 33.0313,3.375 l -18.4063,-27.53125 c -7.4121,-0.42369 -15.6539,-0.84684 -24.4374,-1.15625 z m -78.7188,1.09375 c -9.4428,0.76486 -18.5336,1.82228 -26.9062,3.25 l -0.063,0.0625 L 1475,816.875 c 11.8437,-2.3901 23.6885,-4.33943 35.5312,-5.875 l 20.5938,-27.03125 z m 106.9062,0.25 18.5938,27.875 c 11.2482,1.53154 22.5018,3.35727 33.75,5.5 l -27.5938,-30.875 -0.4062,-0.78125 c -5.6746,-0.44591 -14.0983,-1.10141 -24.3438,-1.71875 z"
     id="path3204"
     style="fill:#ffcb41;fill-opacity:1;stroke:none"/>
  <path
     d="m 945.3125,210.625 -35.5,4.59375 7.0937,25.15625 34.3438,-4.9375 0.094,0 0.094,0 c 7.5141,-0.12676 14.9988,-0.29079 22.5,-0.46875 l -22.3125,0.375 -6.3125,-24.71875 z m 115.7813,0.59375 -3.875,24.40625 -1.0938,-0.0312 c 0.6457,0.0437 1.2907,0.0786 1.9375,0.125 l 0.031,0 0.031,0 28.5938,3.46875 6.125,-24.09375 -31.75,-3.875 z m -76.2813,0.28125 0,23.21875 c 6.4315,-0.14056 12.8765,-0.27701 19.3437,-0.34375 4.4166,-0.0456 8.8342,-0.0771 13.2813,-0.0625 1.5274,0.005 3.062,0.0171 4.5937,0.0312 L 1021.75,211.5 l -36.9375,0 z m 24.3437,25.8125 c -12.9423,0.0756 -25.7968,0.41236 -38.6562,0.71875 L 970.5,258 c 32.0317,0.21394 51.3179,0.41773 67.5,1.21875 l 1.4062,-21.46875 c -7.3732,-0.2686 -14.6975,-0.4124 -21.9687,-0.4375 -2.7689,-0.01 -5.5227,-0.0161 -8.2813,0 z m 33.25,0.5625 -1.4062,21.5 c 13.0254,0.72305 24.419,1.87911 39.5938,3.84375 l 5.375,-21.09375 -28.125,-3.4375 0,0.0312 c -5.1854,-0.37176 -10.3198,-0.63023 -15.4376,-0.84375 z M 967.5,238.09375 c -5.327,0.12476 -10.6542,0.25357 -16,0.34375 l -33.75,4.84375 5.875,20.875 c 14.5073,-2.56494 29.0565,-5.36379 43.875,-6.09375 l 0,-19.96875 z M 969.2812,261 c -5.3007,0.20366 -10.5967,0.68374 -15.875,1.34375 L 953,285.03125 c 16.007,-1.82238 32.5228,-2.67737 49.5938,-2.84375 l 0.5,-20.90625 c -9.6022,-0.12312 -20.4249,-0.19282 -33.75,-0.28125 -0.026,-1.7e-4 -0.037,1.7e-4 -0.063,0 z m 36.8126,0.3125 -0.5,20.84375 c 15.0597,-0.0737 30.5641,0.39446 45.9687,1.46875 l 0.125,-20.5 c -13.0038,-1.05242 -26.2209,-1.53899 -45.5937,-1.8125 z m -55.6876,1.4375 c -8.6528,1.18433 -17.283,2.77507 -25.9687,4.3125 l 5.7813,20.4375 0.75,0.71875 c 6.2642,-1.1037 12.6095,-2.0309 19.0312,-2.8125 L 950.4062,262.75 z m 104.2813,0.625 -0.125,20.46875 c 6.7808,0.50854 13.5409,1.12108 20.2187,1.875 l 0.125,-0.0937 4.9376,-19.4375 c -9.4162,-1.21672 -17.3517,-2.12631 -25.1563,-2.8125 z m -50.625,21.78125 c -24.6131,0.18132 -48.0139,1.83966 -70.375,5.625 l 12.9063,12.25 0.125,0.21875 c 18.7625,-1.97285 37.4832,-2.4506 56.1874,-2.46875 17.4192,-0.0169 34.818,0.34391 52.1876,0.125 l 0.5624,-0.75 15.6563,-11.8125 c -22.233,-2.36699 -45.2541,-3.34954 -67.25,-3.1875 z m -2.3125,18.65625 c -5.6309,0.0188 -11.2517,0.069 -16.875,0.1875 l 0.1562,20.8125 7.9063,-0.1875 0,-7.0625 c 0,-2.5323 2.0302,-4.5625 4.5625,-4.5625 l 2.9375,0 c 2.5323,0 4.5625,2.0302 4.5625,4.5625 l 0,6.78125 15.8125,-0.34375 -2.1563,-20.15625 c -5.6338,-0.0374 -11.2753,-0.05 -16.9062,-0.0312 z m 19.9062,0.0625 2.1563,20.15625 11.3125,2.75 22.0938,-1.4375 -4.75,-21.03125 0.3124,-0.40625 c -10.3884,0.10276 -20.7521,0.0409 -31.125,-0.0312 z m -39.7812,0.1875 c -11.1564,0.28631 -22.3016,0.87827 -33.4375,2 l 0.1563,0.25 -3.9688,19.4375 37.4062,-0.875 -0.1562,-20.8125 z m 41.2188,22.875 -18.0938,0.40625 0,21.25 c 9.7612,0.14603 19.5909,0.40404 29.4375,0.75 l -1.75,-20.0625 -9.5937,-2.34375 z m -30.1563,0.6875 -22.5937,0.53125 -0.6563,20.40625 c 7.6588,-0.12463 15.4219,-0.13826 23.25,-0.0937 l 0,-20.84375 z m -25.5937,0.59375 -23.3126,0.53125 -4.25,20.8125 c 8.7804,-0.44602 17.7725,-0.76091 26.9063,-0.9375 l 0.6563,-20.40625 z m 90.5624,0.0937 -22.1562,1.46875 1.7188,19.6875 c 8.496,0.31472 17.0036,0.65573 25.4687,1.09375 l -5.0313,-22.25 z m -73.3437,23.125 c -0.8285,0.002 -1.6427,0.0275 -2.4687,0.0312 l -0.75,19.375 c 6.0265,-0.37942 12.1956,-0.668 18.8124,-0.78125 9.6845,-0.16574 16.3728,0.0249 26.1876,0.625 l -0.75,-18.625 c -13.7974,-0.41392 -27.54,-0.65625 -41.0313,-0.625 z m -5.4687,0.0312 c -13.6504,0.10024 -27.0249,0.45504 -39.9376,1.125 l -4.3437,21.375 c 16.0762,-0.61004 29.4625,-1.95159 43.5,-2.90625 l 0.7813,-19.59375 z m 49.5312,0.6875 0.7188,18.71875 c 8.9387,0.58308 20.4688,1.46075 38.8124,2.75 l -4.5312,-20 c -11.6344,-0.60809 -23.3292,-1.0952 -35,-1.46875 z M 1007.375,373 c -1.7475,-0.003 -3.6555,0.0356 -5.5938,0.0625 l -0.6562,22.90625 c 7.454,0.0942 14.8513,0.22379 21.9375,0.40625 7.53,0.19389 14.6563,0.42632 21.2813,0.6875 l -0.6563,-22.1875 c -17.5278,-1.27463 -26.1037,-1.85537 -36.3125,-1.875 z m -8.5625,0.0937 c -12.9872,0.27487 -24.4383,1.22304 -36.375,2.15625 l -0.9375,20.8125 c 3.1828,-0.0706 6.4066,-0.1188 9.6875,-0.15625 8.8252,-0.10074 17.9334,-0.0962 26.9687,0 l 0.6563,-22.8125 z m 47.875,2 0.6563,22.09375 c 6.788,0.28289 12.9418,0.59007 18.0937,0.90625 3.269,0.20062 5.9851,0.39034 8.4063,0.59375 l -5,-22 c -8.8207,-0.61888 -15.9516,-1.14174 -22.1563,-1.59375 z M 959.4062,375.5 c -7.9143,0.60726 -16.1284,1.17074 -25.2187,1.5 L 930,397.5625 c 8.3431,-0.69096 18.0957,-1.16726 28.5312,-1.4375 l 0.875,-20.625 z m 23.875,23.34375 0.125,18.53125 c 4.4853,-0.0744 8.9666,-0.101 13.4063,-0.0937 8.9442,0.0146 17.7382,0.18362 26.125,0.4375 0.9882,0.0299 1.9299,0.0614 2.9063,0.0937 l -2.2813,-18.40625 c -0.203,-0.005 -0.3909,-0.026 -0.5937,-0.0312 -12.4285,-0.32 -25.7374,-0.53033 -38.8126,-0.53125 -0.2923,-2e-5 -0.5815,-1.9e-4 -0.875,0 z m -6.6874,0.0312 c -10.0109,0.0651 -19.7301,0.25779 -28.6563,0.625 l 0.1563,19.53125 c 10.4824,-0.87089 21.3946,-1.36377 32.3124,-1.59375 l -0.125,-18.5625 c -1.2284,0.004 -2.4664,-0.008 -3.6874,0 z m 50,0.59375 2.2812,18.46875 c 12.1088,0.43707 22.8514,1.03251 32.0312,1.625 -0.1322,-1.7897 -0.3759,-4.81441 -0.75,-8.65625 -0.2582,-2.66305 -0.5335,-5.37498 -0.8437,-7.5 -0.1551,-1.06251 -0.3208,-1.96154 -0.4687,-2.625 -0.01,-0.0269 -0.025,-0.0361 -0.031,-0.0625 -9.0551,-0.47704 -20.1166,-0.91139 -32.2187,-1.25 z m -81.6563,0.1875 c -5.57,0.2587 -10.8283,0.56356 -15.5625,0.96875 l -4.3125,21.09375 c 6.3733,-0.99479 13.101,-1.7777 20.0313,-2.40625 l -0.1563,-19.65625 z m 116.9687,1.25 c 0.1289,0.63059 0.2618,1.31586 0.375,2.09375 0.3234,2.21226 0.6142,4.93604 0.875,7.625 0.4111,4.21534 0.6688,7.55914 0.7813,9.125 5.7739,0.38673 11.0169,0.76097 14.9063,1.0625 l -4.3126,-19.03125 c -2.5716,-0.22185 -5.5299,-0.45925 -9.25,-0.6875 -1.0268,-0.0631 -2.2708,-0.12506 -3.375,-0.1875 z m -65.0937,19.375 c -6.6971,-0.01 -13.4642,0.0661 -20.2187,0.25 l -10.8126,25 c 10.8322,-0.6191 21.6694,-0.88096 32.5,-0.84375 l 0.4063,-24.40625 c -0.6262,-0.002 -1.2471,9.2e-4 -1.875,0 z m 4.875,0.0312 -0.4063,24.375 c 11.0203,0.0982 22.0423,0.53401 33.0626,1.28125 l -9.75,-25.1875 c -0.5924,-0.019 -1.154,-0.0444 -1.75,-0.0625 -6.8321,-0.20678 -13.9277,-0.35033 -21.1563,-0.40625 z m -28.4063,0.34375 c -6.7889,0.2215 -13.5629,0.52825 -20.1562,1 l -20.375,26.8125 c 9.8823,-1.19843 19.774,-2.09016 29.6562,-2.71875 l 10.875,-25.09375 z m 54.5626,0.21875 9.8124,25.3125 c 11.0091,0.81005 22.0225,1.94793 33.0313,3.375 l -18.4063,-27.53125 c -7.4121,-0.42369 -15.6539,-0.84684 -24.4374,-1.15625 z m -78.7188,1.09375 c -9.4428,0.76486 -18.5336,1.82228 -26.9062,3.25 l -0.063,0.0625 L 893,454.875 c 11.8437,-2.3901 23.6885,-4.33943 35.5312,-5.875 l 20.5938,-27.03125 z m 106.9062,0.25 18.5938,27.875 c 11.2482,1.53154 22.5018,3.35727 33.75,5.5 l -27.5938,-30.875 -0.4062,-0.78125 c -5.6746,-0.44591 -14.0983,-1.10141 -24.3438,-1.71875 z"
     id="path3206"
     style="fill:#ffcb41;fill-opacity:1;stroke:none"/>
  <path
     d="m 945.3125,572.625 -35.5,4.59375 7.0937,25.15625 34.3438,-4.9375 0.094,0 0.094,0 c 7.5141,-0.12676 14.9988,-0.29079 22.5,-0.46875 l -22.3125,0.375 -6.3125,-24.71875 z m 115.7813,0.59375 -3.875,24.40625 -1.0938,-0.0312 c 0.6457,0.0437 1.2907,0.0786 1.9375,0.125 l 0.031,0 0.031,0 28.5938,3.46875 6.125,-24.09375 -31.75,-3.875 z m -76.2813,0.28125 0,23.21875 c 6.4315,-0.14056 12.8765,-0.27701 19.3437,-0.34375 4.4166,-0.0456 8.8342,-0.0771 13.2813,-0.0625 1.5274,0.005 3.062,0.0171 4.5937,0.0312 L 1021.75,573.5 l -36.9375,0 z m 24.3437,25.8125 c -12.9423,0.0756 -25.7968,0.41236 -38.6562,0.71875 L 970.5,620 c 32.0317,0.21394 51.3179,0.41773 67.5,1.21875 l 1.4062,-21.46875 c -7.3732,-0.2686 -14.6975,-0.4124 -21.9687,-0.4375 -2.7689,-0.01 -5.5227,-0.0161 -8.2813,0 z m 33.25,0.5625 -1.4062,21.5 c 13.0254,0.72305 24.419,1.87911 39.5938,3.84375 l 5.375,-21.09375 -28.125,-3.4375 0,0.0312 c -5.1854,-0.37176 -10.3198,-0.63023 -15.4376,-0.84375 z M 967.5,600.09375 c -5.327,0.12476 -10.6542,0.25357 -16,0.34375 l -33.75,4.84375 5.875,20.875 c 14.5073,-2.56494 29.0565,-5.36379 43.875,-6.09375 l 0,-19.96875 z M 969.2812,623 c -5.3007,0.20366 -10.5967,0.68374 -15.875,1.34375 L 953,647.03125 c 16.007,-1.82238 32.5228,-2.67737 49.5938,-2.84375 l 0.5,-20.90625 c -9.6022,-0.12312 -20.4249,-0.19282 -33.75,-0.28125 -0.026,-1.7e-4 -0.037,1.7e-4 -0.063,0 z m 36.8126,0.3125 -0.5,20.84375 c 15.0597,-0.0737 30.5641,0.39446 45.9687,1.46875 l 0.125,-20.5 c -13.0038,-1.05242 -26.2209,-1.53899 -45.5937,-1.8125 z m -55.6876,1.4375 c -8.6528,1.18433 -17.283,2.77507 -25.9687,4.3125 l 5.7813,20.4375 0.75,0.71875 c 6.2642,-1.1037 12.6095,-2.0309 19.0312,-2.8125 L 950.4062,624.75 z m 104.2813,0.625 -0.125,20.46875 c 6.7808,0.50854 13.5409,1.12108 20.2187,1.875 l 0.125,-0.0937 4.9376,-19.4375 c -9.4162,-1.21672 -17.3517,-2.12631 -25.1563,-2.8125 z m -50.625,21.78125 c -24.6131,0.18132 -48.0139,1.83966 -70.375,5.625 l 12.9063,12.25 0.125,0.21875 c 18.7625,-1.97285 37.4832,-2.4506 56.1874,-2.46875 17.4192,-0.0169 34.818,0.34391 52.1876,0.125 l 0.5624,-0.75 15.6563,-11.8125 c -22.233,-2.36699 -45.2541,-3.34954 -67.25,-3.1875 z m -2.3125,18.65625 c -5.6309,0.0188 -11.2517,0.069 -16.875,0.1875 l 0.1562,20.8125 7.9063,-0.1875 0,-7.0625 c 0,-2.5323 2.0302,-4.5625 4.5625,-4.5625 l 2.9375,0 c 2.5323,0 4.5625,2.0302 4.5625,4.5625 l 0,6.78125 15.8125,-0.34375 -2.1563,-20.15625 c -5.6338,-0.0374 -11.2753,-0.05 -16.9062,-0.0312 z m 19.9062,0.0625 2.1563,20.15625 11.3125,2.75 22.0938,-1.4375 -4.75,-21.03125 0.3124,-0.40625 c -10.3884,0.10276 -20.7521,0.0409 -31.125,-0.0312 z m -39.7812,0.1875 c -11.1564,0.28631 -22.3016,0.87827 -33.4375,2 l 0.1563,0.25 -3.9688,19.4375 37.4062,-0.875 -0.1562,-20.8125 z m 41.2188,22.875 -18.0938,0.40625 0,21.25 c 9.7612,0.14603 19.5909,0.40404 29.4375,0.75 l -1.75,-20.0625 -9.5937,-2.34375 z m -30.1563,0.6875 -22.5937,0.53125 -0.6563,20.40625 c 7.6588,-0.12463 15.4219,-0.13826 23.25,-0.0937 l 0,-20.84375 z m -25.5937,0.59375 -23.3126,0.53125 -4.25,20.8125 c 8.7804,-0.44602 17.7725,-0.76091 26.9063,-0.9375 l 0.6563,-20.40625 z m 90.5624,0.0937 -22.1562,1.46875 1.7188,19.6875 c 8.496,0.31472 17.0036,0.65573 25.4687,1.09375 l -5.0313,-22.25 z m -73.3437,23.125 c -0.8285,0.002 -1.6427,0.0275 -2.4687,0.0312 l -0.75,19.375 c 6.0265,-0.37942 12.1956,-0.668 18.8124,-0.78125 9.6845,-0.16574 16.3728,0.0249 26.1876,0.625 l -0.75,-18.625 c -13.7974,-0.41392 -27.54,-0.65625 -41.0313,-0.625 z m -5.4687,0.0312 c -13.6504,0.10024 -27.0249,0.45504 -39.9376,1.125 l -4.3437,21.375 c 16.0762,-0.61004 29.4625,-1.95159 43.5,-2.90625 l 0.7813,-19.59375 z m 49.5312,0.6875 0.7188,18.71875 c 8.9387,0.58308 20.4688,1.46075 38.8124,2.75 l -4.5312,-20 c -11.6344,-0.60809 -23.3292,-1.0952 -35,-1.46875 z M 1007.375,735 c -1.7475,-0.003 -3.6555,0.0356 -5.5938,0.0625 l -0.6562,22.90625 c 7.454,0.0942 14.8513,0.22379 21.9375,0.40625 7.53,0.19389 14.6563,0.42632 21.2813,0.6875 l -0.6563,-22.1875 c -17.5278,-1.27463 -26.1037,-1.85537 -36.3125,-1.875 z m -8.5625,0.0937 c -12.9872,0.27487 -24.4383,1.22304 -36.375,2.15625 l -0.9375,20.8125 c 3.1828,-0.0706 6.4066,-0.1188 9.6875,-0.15625 8.8252,-0.10074 17.9334,-0.0962 26.9687,0 l 0.6563,-22.8125 z m 47.875,2 0.6563,22.09375 c 6.788,0.28289 12.9418,0.59007 18.0937,0.90625 3.269,0.20062 5.9851,0.39034 8.4063,0.59375 l -5,-22 c -8.8207,-0.61888 -15.9516,-1.14174 -22.1563,-1.59375 z M 959.4062,737.5 c -7.9143,0.60726 -16.1284,1.17074 -25.2187,1.5 L 930,759.5625 c 8.3431,-0.69096 18.0957,-1.16726 28.5312,-1.4375 l 0.875,-20.625 z m 23.875,23.34375 0.125,18.53125 c 4.4853,-0.0744 8.9666,-0.101 13.4063,-0.0937 8.9442,0.0146 17.7382,0.18362 26.125,0.4375 0.9882,0.0299 1.9299,0.0614 2.9063,0.0937 l -2.2813,-18.40625 c -0.203,-0.005 -0.3909,-0.026 -0.5937,-0.0312 -12.4285,-0.32 -25.7374,-0.53033 -38.8126,-0.53125 -0.2923,-2e-5 -0.5815,-1.9e-4 -0.875,0 z m -6.6874,0.0312 c -10.0109,0.0651 -19.7301,0.25779 -28.6563,0.625 l 0.1563,19.53125 c 10.4824,-0.87089 21.3946,-1.36377 32.3124,-1.59375 l -0.125,-18.5625 c -1.2284,0.004 -2.4664,-0.008 -3.6874,0 z m 50,0.59375 2.2812,18.46875 c 12.1088,0.43707 22.8514,1.03251 32.0312,1.625 -0.1322,-1.7897 -0.3759,-4.81441 -0.75,-8.65625 -0.2582,-2.66305 -0.5335,-5.37498 -0.8437,-7.5 -0.1551,-1.06251 -0.3208,-1.96154 -0.4687,-2.625 -0.01,-0.0269 -0.025,-0.0361 -0.031,-0.0625 -9.0551,-0.47704 -20.1166,-0.91139 -32.2187,-1.25 z m -81.6563,0.1875 c -5.57,0.2587 -10.8283,0.56356 -15.5625,0.96875 l -4.3125,21.09375 c 6.3733,-0.99479 13.101,-1.7777 20.0313,-2.40625 l -0.1563,-19.65625 z m 116.9687,1.25 c 0.1289,0.63059 0.2618,1.31586 0.375,2.09375 0.3234,2.21226 0.6142,4.93604 0.875,7.625 0.4111,4.21534 0.6688,7.55914 0.7813,9.125 5.7739,0.38673 11.0169,0.76097 14.9063,1.0625 l -4.3126,-19.03125 c -2.5716,-0.22185 -5.5299,-0.45925 -9.25,-0.6875 -1.0268,-0.0631 -2.2708,-0.12506 -3.375,-0.1875 z m -65.0937,19.375 c -6.6971,-0.01 -13.4642,0.0661 -20.2187,0.25 l -10.8126,25 c 10.8322,-0.6191 21.6694,-0.88096 32.5,-0.84375 l 0.4063,-24.40625 c -0.6262,-0.002 -1.2471,9.2e-4 -1.875,0 z m 4.875,0.0312 -0.4063,24.375 c 11.0203,0.0982 22.0423,0.53401 33.0626,1.28125 l -9.75,-25.1875 c -0.5924,-0.019 -1.154,-0.0444 -1.75,-0.0625 -6.8321,-0.20678 -13.9277,-0.35033 -21.1563,-0.40625 z m -28.4063,0.34375 c -6.7889,0.2215 -13.5629,0.52825 -20.1562,1 l -20.375,26.8125 c 9.8823,-1.19843 19.774,-2.09016 29.6562,-2.71875 l 10.875,-25.09375 z m 54.5626,0.21875 9.8124,25.3125 c 11.0091,0.81005 22.0225,1.94793 33.0313,3.375 l -18.4063,-27.53125 c -7.4121,-0.42369 -15.6539,-0.84684 -24.4374,-1.15625 z m -78.7188,1.09375 c -9.4428,0.76486 -18.5336,1.82228 -26.9062,3.25 l -0.063,0.0625 L 893,816.875 c 11.8437,-2.3901 23.6885,-4.33943 35.5312,-5.875 l 20.5938,-27.03125 z m 106.9062,0.25 18.5938,27.875 c 11.2482,1.53154 22.5018,3.35727 33.75,5.5 l -27.5938,-30.875 -0.4062,-0.78125 c -5.6746,-0.44591 -14.0983,-1.10141 -24.3438,-1.71875 z"
     id="path3208"
     style="fill:#ffcb41;fill-opacity:1;stroke:none"/>
  <path
     d="m 361.3125,210.625 -35.5,4.59375 7.0937,25.15625 34.3438,-4.9375 0.094,0 0.094,0 c 7.5141,-0.12676 14.9988,-0.29079 22.5,-0.46875 l -22.3125,0.375 -6.3125,-24.71875 z m 115.7813,0.59375 -3.875,24.40625 -1.0938,-0.0312 c 0.6457,0.0437 1.2907,0.0786 1.9375,0.125 l 0.031,0 0.031,0 28.5938,3.46875 6.125,-24.09375 -31.75,-3.875 z m -76.2813,0.28125 0,23.21875 c 6.4315,-0.14056 12.8765,-0.27701 19.3437,-0.34375 4.4166,-0.0456 8.8342,-0.0771 13.2813,-0.0625 1.5274,0.005 3.062,0.0171 4.5937,0.0312 L 437.75,211.5 l -36.9375,0 z m 24.3437,25.8125 c -12.9423,0.0756 -25.7968,0.41236 -38.6562,0.71875 L 386.5,258 c 32.0317,0.21394 51.3179,0.41773 67.5,1.21875 L 455.4062,237.75 c -7.3732,-0.2686 -14.6975,-0.4124 -21.9687,-0.4375 -2.7689,-0.01 -5.5227,-0.0161 -8.2813,0 z m 33.25,0.5625 -1.4062,21.5 c 13.0254,0.72305 24.419,1.87911 39.5938,3.84375 l 5.375,-21.09375 -28.125,-3.4375 0,0.0312 c -5.1854,-0.37176 -10.3198,-0.63023 -15.4376,-0.84375 z M 383.5,238.09375 c -5.327,0.12476 -10.6542,0.25357 -16,0.34375 l -33.75,4.84375 5.875,20.875 c 14.5073,-2.56494 29.0565,-5.36379 43.875,-6.09375 l 0,-19.96875 z M 385.2812,261 c -5.3007,0.20366 -10.5967,0.68374 -15.875,1.34375 L 369,285.03125 c 16.007,-1.82238 32.5228,-2.67737 49.5938,-2.84375 l 0.5,-20.90625 c -9.6022,-0.12312 -20.4249,-0.19282 -33.75,-0.28125 -0.026,-1.7e-4 -0.037,1.7e-4 -0.063,0 z m 36.8126,0.3125 -0.5,20.84375 c 15.0597,-0.0737 30.5641,0.39446 45.9687,1.46875 l 0.125,-20.5 c -13.0038,-1.05242 -26.2209,-1.53899 -45.5937,-1.8125 z m -55.6876,1.4375 c -8.6528,1.18433 -17.283,2.77507 -25.9687,4.3125 l 5.7813,20.4375 0.75,0.71875 c 6.2642,-1.1037 12.6095,-2.0309 19.0312,-2.8125 L 366.4062,262.75 z m 104.2813,0.625 -0.125,20.46875 c 6.7808,0.50854 13.5409,1.12108 20.2187,1.875 l 0.125,-0.0937 4.9376,-19.4375 c -9.4162,-1.21672 -17.3517,-2.12631 -25.1563,-2.8125 z m -50.625,21.78125 c -24.6131,0.18132 -48.0139,1.83966 -70.375,5.625 l 12.9063,12.25 0.125,0.21875 c 18.7625,-1.97285 37.4832,-2.4506 56.1874,-2.46875 17.4192,-0.0169 34.818,0.34391 52.1876,0.125 l 0.5624,-0.75 15.6563,-11.8125 c -22.233,-2.36699 -45.2541,-3.34954 -67.25,-3.1875 z M 417.75,303.8125 c -5.6309,0.0188 -11.2517,0.069 -16.875,0.1875 l 0.1562,20.8125 7.9063,-0.1875 0,-7.0625 c 0,-2.5323 2.0302,-4.5625 4.5625,-4.5625 l 2.9375,0 c 2.5323,0 4.5625,2.0302 4.5625,4.5625 l 0,6.78125 L 436.8125,324 434.6562,303.84375 c -5.6338,-0.0374 -11.2753,-0.05 -16.9062,-0.0312 z m 19.9062,0.0625 2.1563,20.15625 11.3125,2.75 22.0938,-1.4375 -4.75,-21.03125 0.3124,-0.40625 c -10.3884,0.10276 -20.7521,0.0409 -31.125,-0.0312 z m -39.7812,0.1875 c -11.1564,0.28631 -22.3016,0.87827 -33.4375,2 l 0.1563,0.25 -3.9688,19.4375 37.4062,-0.875 -0.1562,-20.8125 z m 41.2188,22.875 -18.0938,0.40625 0,21.25 c 9.7612,0.14603 19.5909,0.40404 29.4375,0.75 l -1.75,-20.0625 -9.5937,-2.34375 z m -30.1563,0.6875 -22.5937,0.53125 -0.6563,20.40625 c 7.6588,-0.12463 15.4219,-0.13826 23.25,-0.0937 l 0,-20.84375 z m -25.5937,0.59375 -23.3126,0.53125 -4.25,20.8125 c 8.7804,-0.44602 17.7725,-0.76091 26.9063,-0.9375 l 0.6563,-20.40625 z m 90.5624,0.0937 -22.1562,1.46875 1.7188,19.6875 c 8.496,0.31472 17.0036,0.65573 25.4687,1.09375 l -5.0313,-22.25 z m -73.3437,23.125 c -0.8285,0.002 -1.6427,0.0275 -2.4687,0.0312 l -0.75,19.375 c 6.0265,-0.37942 12.1956,-0.668 18.8124,-0.78125 9.6845,-0.16574 16.3728,0.0249 26.1876,0.625 l -0.75,-18.625 c -13.7974,-0.41392 -27.54,-0.65625 -41.0313,-0.625 z m -5.4687,0.0312 c -13.6504,0.10024 -27.0249,0.45504 -39.9376,1.125 l -4.3437,21.375 c 16.0762,-0.61004 29.4625,-1.95159 43.5,-2.90625 l 0.7813,-19.59375 z m 49.5312,0.6875 0.7188,18.71875 c 8.9387,0.58308 20.4688,1.46075 38.8124,2.75 l -4.5312,-20 c -11.6344,-0.60809 -23.3292,-1.0952 -35,-1.46875 z M 423.375,373 c -1.7475,-0.003 -3.6555,0.0356 -5.5938,0.0625 l -0.6562,22.90625 c 7.454,0.0942 14.8513,0.22379 21.9375,0.40625 7.53,0.19389 14.6563,0.42632 21.2813,0.6875 L 459.6875,374.875 C 442.1597,373.60037 433.5838,373.01963 423.375,373 z m -8.5625,0.0937 c -12.9872,0.27487 -24.4383,1.22304 -36.375,2.15625 l -0.9375,20.8125 c 3.1828,-0.0706 6.4066,-0.1188 9.6875,-0.15625 8.8252,-0.10074 17.9334,-0.0962 26.9687,0 l 0.6563,-22.8125 z m 47.875,2 0.6563,22.09375 c 6.788,0.28289 12.9418,0.59007 18.0937,0.90625 3.269,0.20062 5.9851,0.39034 8.4063,0.59375 l -5,-22 c -8.8207,-0.61888 -15.9516,-1.14174 -22.1563,-1.59375 z M 375.4062,375.5 c -7.9143,0.60726 -16.1284,1.17074 -25.2187,1.5 L 346,397.5625 c 8.3431,-0.69096 18.0957,-1.16726 28.5312,-1.4375 l 0.875,-20.625 z m 23.875,23.34375 0.125,18.53125 c 4.4853,-0.0744 8.9666,-0.101 13.4063,-0.0937 8.9442,0.0146 17.7382,0.18362 26.125,0.4375 0.9882,0.0299 1.9299,0.0614 2.9063,0.0937 l -2.2813,-18.40625 c -0.203,-0.005 -0.3909,-0.026 -0.5937,-0.0312 -12.4285,-0.32 -25.7374,-0.53033 -38.8126,-0.53125 -0.2923,-2e-5 -0.5815,-1.9e-4 -0.875,0 z m -6.6874,0.0312 c -10.0109,0.0651 -19.7301,0.25779 -28.6563,0.625 l 0.1563,19.53125 c 10.4824,-0.87089 21.3946,-1.36377 32.3124,-1.59375 l -0.125,-18.5625 c -1.2284,0.004 -2.4664,-0.008 -3.6874,0 z m 50,0.59375 2.2812,18.46875 c 12.1088,0.43707 22.8514,1.03251 32.0312,1.625 -0.1322,-1.7897 -0.3759,-4.81441 -0.75,-8.65625 -0.2582,-2.66305 -0.5335,-5.37498 -0.8437,-7.5 -0.1551,-1.06251 -0.3208,-1.96154 -0.4687,-2.625 -0.01,-0.0269 -0.025,-0.0361 -0.031,-0.0625 -9.0551,-0.47704 -20.1166,-0.91139 -32.2187,-1.25 z m -81.6563,0.1875 c -5.57,0.2587 -10.8283,0.56356 -15.5625,0.96875 l -4.3125,21.09375 c 6.3733,-0.99479 13.101,-1.7777 20.0313,-2.40625 l -0.1563,-19.65625 z m 116.9687,1.25 c 0.1289,0.63059 0.2618,1.31586 0.375,2.09375 0.3234,2.21226 0.6142,4.93604 0.875,7.625 0.4111,4.21534 0.6688,7.55914 0.7813,9.125 5.7739,0.38673 11.0169,0.76097 14.9063,1.0625 l -4.3126,-19.03125 c -2.5716,-0.22185 -5.5299,-0.45925 -9.25,-0.6875 -1.0268,-0.0631 -2.2708,-0.12506 -3.375,-0.1875 z m -65.0937,19.375 c -6.6971,-0.01 -13.4642,0.0661 -20.2187,0.25 l -10.8126,25 c 10.8322,-0.6191 21.6694,-0.88096 32.5,-0.84375 l 0.4063,-24.40625 c -0.6262,-0.002 -1.2471,9.2e-4 -1.875,0 z m 4.875,0.0312 -0.4063,24.375 c 11.0203,0.0982 22.0423,0.53401 33.0626,1.28125 l -9.75,-25.1875 c -0.5924,-0.019 -1.154,-0.0444 -1.75,-0.0625 -6.8321,-0.20678 -13.9277,-0.35033 -21.1563,-0.40625 z m -28.4063,0.34375 c -6.7889,0.2215 -13.5629,0.52825 -20.1562,1 l -20.375,26.8125 c 9.8823,-1.19843 19.774,-2.09016 29.6562,-2.71875 l 10.875,-25.09375 z m 54.5626,0.21875 9.8124,25.3125 c 11.0091,0.81005 22.0225,1.94793 33.0313,3.375 l -18.4063,-27.53125 c -7.4121,-0.42369 -15.6539,-0.84684 -24.4374,-1.15625 z m -78.7188,1.09375 c -9.4428,0.76486 -18.5336,1.82228 -26.9062,3.25 l -0.063,0.0625 L 309,454.875 c 11.8437,-2.3901 23.6885,-4.33943 35.5312,-5.875 l 20.5938,-27.03125 z m 106.9062,0.25 18.5938,27.875 c 11.2482,1.53154 22.5018,3.35727 33.75,5.5 l -27.5938,-30.875 -0.4062,-0.78125 c -5.6746,-0.44591 -14.0983,-1.10141 -24.3438,-1.71875 z"
     id="path3210"
     style="fill:#ffcb41;fill-opacity:1;stroke:none"/>
  <path
     d="m 361.3125,572.625 -35.5,4.59375 7.0937,25.15625 34.3438,-4.9375 0.094,0 0.094,0 c 7.5141,-0.12676 14.9988,-0.29079 22.5,-0.46875 l -22.3125,0.375 -6.3125,-24.71875 z m 115.7813,0.59375 -3.875,24.40625 -1.0938,-0.0312 c 0.6457,0.0437 1.2907,0.0786 1.9375,0.125 l 0.031,0 0.031,0 28.5938,3.46875 6.125,-24.09375 -31.75,-3.875 z m -76.2813,0.28125 0,23.21875 c 6.4315,-0.14056 12.8765,-0.27701 19.3437,-0.34375 4.4166,-0.0456 8.8342,-0.0771 13.2813,-0.0625 1.5274,0.005 3.062,0.0171 4.5937,0.0312 L 437.75,573.5 l -36.9375,0 z m 24.3437,25.8125 c -12.9423,0.0756 -25.7968,0.41236 -38.6562,0.71875 L 386.5,620 c 32.0317,0.21394 51.3179,0.41773 67.5,1.21875 L 455.4062,599.75 c -7.3732,-0.2686 -14.6975,-0.4124 -21.9687,-0.4375 -2.7689,-0.01 -5.5227,-0.0161 -8.2813,0 z m 33.25,0.5625 -1.4062,21.5 c 13.0254,0.72305 24.419,1.87911 39.5938,3.84375 l 5.375,-21.09375 -28.125,-3.4375 0,0.0312 c -5.1854,-0.37176 -10.3198,-0.63023 -15.4376,-0.84375 z M 383.5,600.09375 c -5.327,0.12476 -10.6542,0.25357 -16,0.34375 l -33.75,4.84375 5.875,20.875 c 14.5073,-2.56494 29.0565,-5.36379 43.875,-6.09375 l 0,-19.96875 z M 385.2812,623 c -5.3007,0.20366 -10.5967,0.68374 -15.875,1.34375 L 369,647.03125 c 16.007,-1.82238 32.5228,-2.67737 49.5938,-2.84375 l 0.5,-20.90625 c -9.6022,-0.12312 -20.4249,-0.19282 -33.75,-0.28125 -0.026,-1.7e-4 -0.037,1.7e-4 -0.063,0 z m 36.8126,0.3125 -0.5,20.84375 c 15.0597,-0.0737 30.5641,0.39446 45.9687,1.46875 l 0.125,-20.5 c -13.0038,-1.05242 -26.2209,-1.53899 -45.5937,-1.8125 z m -55.6876,1.4375 c -8.6528,1.18433 -17.283,2.77507 -25.9687,4.3125 l 5.7813,20.4375 0.75,0.71875 c 6.2642,-1.1037 12.6095,-2.0309 19.0312,-2.8125 L 366.4062,624.75 z m 104.2813,0.625 -0.125,20.46875 c 6.7808,0.50854 13.5409,1.12108 20.2187,1.875 l 0.125,-0.0937 4.9376,-19.4375 c -9.4162,-1.21672 -17.3517,-2.12631 -25.1563,-2.8125 z m -50.625,21.78125 c -24.6131,0.18132 -48.0139,1.83966 -70.375,5.625 l 12.9063,12.25 0.125,0.21875 c 18.7625,-1.97285 37.4832,-2.4506 56.1874,-2.46875 17.4192,-0.0169 34.818,0.34391 52.1876,0.125 l 0.5624,-0.75 15.6563,-11.8125 c -22.233,-2.36699 -45.2541,-3.34954 -67.25,-3.1875 z M 417.75,665.8125 c -5.6309,0.0188 -11.2517,0.069 -16.875,0.1875 l 0.1562,20.8125 7.9063,-0.1875 0,-7.0625 c 0,-2.5323 2.0302,-4.5625 4.5625,-4.5625 l 2.9375,0 c 2.5323,0 4.5625,2.0302 4.5625,4.5625 l 0,6.78125 L 436.8125,686 434.6562,665.84375 c -5.6338,-0.0374 -11.2753,-0.05 -16.9062,-0.0312 z m 19.9062,0.0625 2.1563,20.15625 11.3125,2.75 22.0938,-1.4375 -4.75,-21.03125 0.3124,-0.40625 c -10.3884,0.10276 -20.7521,0.0409 -31.125,-0.0312 z m -39.7812,0.1875 c -11.1564,0.28631 -22.3016,0.87827 -33.4375,2 l 0.1563,0.25 -3.9688,19.4375 37.4062,-0.875 -0.1562,-20.8125 z m 41.2188,22.875 -18.0938,0.40625 0,21.25 c 9.7612,0.14603 19.5909,0.40404 29.4375,0.75 l -1.75,-20.0625 -9.5937,-2.34375 z m -30.1563,0.6875 -22.5937,0.53125 -0.6563,20.40625 c 7.6588,-0.12463 15.4219,-0.13826 23.25,-0.0937 l 0,-20.84375 z m -25.5937,0.59375 -23.3126,0.53125 -4.25,20.8125 c 8.7804,-0.44602 17.7725,-0.76091 26.9063,-0.9375 l 0.6563,-20.40625 z m 90.5624,0.0937 -22.1562,1.46875 1.7188,19.6875 c 8.496,0.31472 17.0036,0.65573 25.4687,1.09375 l -5.0313,-22.25 z m -73.3437,23.125 c -0.8285,0.002 -1.6427,0.0275 -2.4687,0.0312 l -0.75,19.375 c 6.0265,-0.37942 12.1956,-0.668 18.8124,-0.78125 9.6845,-0.16574 16.3728,0.0249 26.1876,0.625 l -0.75,-18.625 c -13.7974,-0.41392 -27.54,-0.65625 -41.0313,-0.625 z m -5.4687,0.0312 c -13.6504,0.10024 -27.0249,0.45504 -39.9376,1.125 l -4.3437,21.375 c 16.0762,-0.61004 29.4625,-1.95159 43.5,-2.90625 l 0.7813,-19.59375 z m 49.5312,0.6875 0.7188,18.71875 c 8.9387,0.58308 20.4688,1.46075 38.8124,2.75 l -4.5312,-20 c -11.6344,-0.60809 -23.3292,-1.0952 -35,-1.46875 z M 423.375,735 c -1.7475,-0.003 -3.6555,0.0356 -5.5938,0.0625 l -0.6562,22.90625 c 7.454,0.0942 14.8513,0.22379 21.9375,0.40625 7.53,0.19389 14.6563,0.42632 21.2813,0.6875 L 459.6875,736.875 C 442.1597,735.60037 433.5838,735.01963 423.375,735 z m -8.5625,0.0937 c -12.9872,0.27487 -24.4383,1.22304 -36.375,2.15625 l -0.9375,20.8125 c 3.1828,-0.0706 6.4066,-0.1188 9.6875,-0.15625 8.8252,-0.10074 17.9334,-0.0962 26.9687,0 l 0.6563,-22.8125 z m 47.875,2 0.6563,22.09375 c 6.788,0.28289 12.9418,0.59007 18.0937,0.90625 3.269,0.20062 5.9851,0.39034 8.4063,0.59375 l -5,-22 c -8.8207,-0.61888 -15.9516,-1.14174 -22.1563,-1.59375 z M 375.4062,737.5 c -7.9143,0.60726 -16.1284,1.17074 -25.2187,1.5 L 346,759.5625 c 8.3431,-0.69096 18.0957,-1.16726 28.5312,-1.4375 l 0.875,-20.625 z m 23.875,23.34375 0.125,18.53125 c 4.4853,-0.0744 8.9666,-0.101 13.4063,-0.0937 8.9442,0.0146 17.7382,0.18362 26.125,0.4375 0.9882,0.0299 1.9299,0.0614 2.9063,0.0937 l -2.2813,-18.40625 c -0.203,-0.005 -0.3909,-0.026 -0.5937,-0.0312 -12.4285,-0.32 -25.7374,-0.53033 -38.8126,-0.53125 -0.2923,-2e-5 -0.5815,-1.9e-4 -0.875,0 z m -6.6874,0.0312 c -10.0109,0.0651 -19.7301,0.25779 -28.6563,0.625 l 0.1563,19.53125 c 10.4824,-0.87089 21.3946,-1.36377 32.3124,-1.59375 l -0.125,-18.5625 c -1.2284,0.004 -2.4664,-0.008 -3.6874,0 z m 50,0.59375 2.2812,18.46875 c 12.1088,0.43707 22.8514,1.03251 32.0312,1.625 -0.1322,-1.7897 -0.3759,-4.81441 -0.75,-8.65625 -0.2582,-2.66305 -0.5335,-5.37498 -0.8437,-7.5 -0.1551,-1.06251 -0.3208,-1.96154 -0.4687,-2.625 -0.01,-0.0269 -0.025,-0.0361 -0.031,-0.0625 -9.0551,-0.47704 -20.1166,-0.91139 -32.2187,-1.25 z m -81.6563,0.1875 c -5.57,0.2587 -10.8283,0.56356 -15.5625,0.96875 l -4.3125,21.09375 c 6.3733,-0.99479 13.101,-1.7777 20.0313,-2.40625 l -0.1563,-19.65625 z m 116.9687,1.25 c 0.1289,0.63059 0.2618,1.31586 0.375,2.09375 0.3234,2.21226 0.6142,4.93604 0.875,7.625 0.4111,4.21534 0.6688,7.55914 0.7813,9.125 5.7739,0.38673 11.0169,0.76097 14.9063,1.0625 l -4.3126,-19.03125 c -2.5716,-0.22185 -5.5299,-0.45925 -9.25,-0.6875 -1.0268,-0.0631 -2.2708,-0.12506 -3.375,-0.1875 z m -65.0937,19.375 c -6.6971,-0.01 -13.4642,0.0661 -20.2187,0.25 l -10.8126,25 c 10.8322,-0.6191 21.6694,-0.88096 32.5,-0.84375 l 0.4063,-24.40625 c -0.6262,-0.002 -1.2471,9.2e-4 -1.875,0 z m 4.875,0.0312 -0.4063,24.375 c 11.0203,0.0982 22.0423,0.53401 33.0626,1.28125 l -9.75,-25.1875 c -0.5924,-0.019 -1.154,-0.0444 -1.75,-0.0625 -6.8321,-0.20678 -13.9277,-0.35033 -21.1563,-0.40625 z m -28.4063,0.34375 c -6.7889,0.2215 -13.5629,0.52825 -20.1562,1 l -20.375,26.8125 c 9.8823,-1.19843 19.774,-2.09016 29.6562,-2.71875 l 10.875,-25.09375 z m 54.5626,0.21875 9.8124,25.3125 c 11.0091,0.81005 22.0225,1.94793 33.0313,3.375 l -18.4063,-27.53125 c -7.4121,-0.42369 -15.6539,-0.84684 -24.4374,-1.15625 z m -78.7188,1.09375 c -9.4428,0.76486 -18.5336,1.82228 -26.9062,3.25 l -0.063,0.0625 L 309,816.875 c 11.8437,-2.3901 23.6885,-4.33943 35.5312,-5.875 l 20.5938,-27.03125 z m 106.9062,0.25 18.5938,27.875 c 11.2482,1.53154 22.5018,3.35727 33.75,5.5 l -27.5938,-30.875 -0.4062,-0.78125 c -5.6746,-0.44591 -14.0983,-1.10141 -24.3438,-1.71875 z"
     id="path3212"
     style="fill:#ffcb41;fill-opacity:1;stroke:none"/>
  <path
     d="m 652.53165,391.57124 -35.5,4.59375 7.0937,25.15625 34.3438,-4.9375 0.094,0 0.094,0 c 7.5141,-0.12676 14.9988,-0.29079 22.5,-0.46875 l -22.3125,0.375 -6.3125,-24.71875 z m 115.7813,0.59375 -3.875,24.40625 -1.0938,-0.0312 c 0.6457,0.0437 1.2907,0.0786 1.9375,0.125 l 0.031,0 0.031,0 28.5938,3.46875 6.125,-24.09375 -31.75,-3.875 z m -76.2813,0.28125 0,23.21875 c 6.4315,-0.14056 12.8765,-0.27701 19.3437,-0.34375 4.4166,-0.0456 8.8342,-0.0771 13.2813,-0.0625 1.5274,0.005 3.062,0.0171 4.5937,0.0312 l -0.2812,-22.8437 -36.9375,0 z m 24.3437,25.8125 c -12.9423,0.0756 -25.7968,0.41236 -38.6562,0.71875 l 0,19.96875 c 32.0317,0.21394 51.3179,0.41773 67.5,1.21875 l 1.4062,-21.46875 c -7.3732,-0.2686 -14.6975,-0.4124 -21.9687,-0.4375 -2.7689,-0.01 -5.5227,-0.0161 -8.2813,0 z m 33.25,0.5625 -1.4062,21.5 c 13.0254,0.72305 24.419,1.87911 39.5938,3.84375 l 5.375,-21.09375 -28.125,-3.4375 0,0.0312 c -5.1854,-0.37176 -10.3198,-0.63023 -15.4376,-0.84375 z m -74.9062,0.21875 c -5.327,0.12476 -10.6542,0.25357 -16,0.34375 l -33.75,4.84375 5.875,20.875 c 14.5073,-2.56494 29.0565,-5.36379 43.875,-6.09375 l 0,-19.96875 z m 1.7812,22.90625 c -5.3007,0.20366 -10.5967,0.68374 -15.875,1.34375 l -0.4062,22.6875 c 16.007,-1.82238 32.5228,-2.67737 49.5938,-2.84375 l 0.5,-20.90625 c -9.6022,-0.12312 -20.4249,-0.19282 -33.75,-0.28125 -0.026,-1.7e-4 -0.037,1.7e-4 -0.063,0 z m 36.8126,0.3125 -0.5,20.84375 c 15.0597,-0.0737 30.5641,0.39446 45.9687,1.46875 l 0.125,-20.5 c -13.0038,-1.05242 -26.2209,-1.53899 -45.5937,-1.8125 z m -55.6876,1.4375 c -8.6528,1.18433 -17.283,2.77507 -25.9687,4.3125 l 5.7813,20.4375 0.75,0.71875 c 6.2642,-1.1037 12.6095,-2.0309 19.0312,-2.8125 l 0.4062,-22.65625 z m 104.2813,0.625 -0.125,20.46875 c 6.7808,0.50854 13.5409,1.12108 20.2187,1.875 l 0.125,-0.0937 4.9376,-19.4375 c -9.4162,-1.21672 -17.3517,-2.12631 -25.1563,-2.8125 z m -50.625,21.78125 c -24.6131,0.18132 -48.0139,1.83966 -70.375,5.625 l 12.9063,12.25 0.125,0.21875 c 18.7625,-1.97285 37.4832,-2.4506 56.1874,-2.46875 17.4192,-0.0169 34.818,0.34391 52.1876,0.125 l 0.5624,-0.75 15.6563,-11.8125 c -22.233,-2.36699 -45.2541,-3.34954 -67.25,-3.1875 z m -2.3125,18.65625 c -5.6309,0.0188 -11.2517,0.069 -16.875,0.1875 l 0.1562,20.8125 7.9063,-0.1875 0,-7.0625 c 0,-2.5323 2.0302,-4.5625 4.5625,-4.5625 l 2.9375,0 c 2.5323,0 4.5625,2.0302 4.5625,4.5625 l 0,6.78125 15.8125,-0.34375 -2.1563,-20.15625 c -5.6338,-0.0374 -11.2753,-0.05 -16.9062,-0.0312 z m 19.9062,0.0625 2.1563,20.15625 11.3125,2.75 22.0938,-1.4375 -4.75,-21.03125 0.3124,-0.40625 c -10.3884,0.10276 -20.7521,0.0409 -31.125,-0.0312 z m -39.7812,0.1875 c -11.1564,0.28631 -22.3016,0.87827 -33.4375,2 l 0.1563,0.25 -3.9688,19.4375 37.4062,-0.875 -0.1562,-20.8125 z m 41.2188,22.875 -18.0938,0.40625 0,21.25 c 9.7612,0.14603 19.5909,0.40404 29.4375,0.75 l -1.75,-20.0625 -9.5937,-2.34375 z m -30.1563,0.6875 -22.5937,0.53125 -0.6563,20.40625 c 7.6588,-0.12463 15.4219,-0.13826 23.25,-0.0937 l 0,-20.84375 z m -25.5937,0.59375 -23.3126,0.53125 -4.25,20.8125 c 8.7804,-0.44602 17.7725,-0.76091 26.9063,-0.9375 l 0.6563,-20.40625 z m 90.5624,0.0937 -22.1562,1.46875 1.7188,19.6875 c 8.496,0.31472 17.0036,0.65573 25.4687,1.09375 l -5.0313,-22.25 z m -73.3437,23.125 c -0.8285,0.002 -1.6427,0.0275 -2.4687,0.0312 l -0.75,19.375 c 6.0265,-0.37942 12.1956,-0.668 18.8124,-0.78125 9.6845,-0.16574 16.3728,0.0249 26.1876,0.625 l -0.75,-18.625 c -13.7974,-0.41392 -27.54,-0.65625 -41.0313,-0.625 z m -5.4687,0.0312 c -13.6504,0.10024 -27.0249,0.45504 -39.9376,1.125 l -4.3437,21.375 c 16.0762,-0.61004 29.4625,-1.95159 43.5,-2.90625 l 0.7813,-19.59375 z m 49.5312,0.6875 0.7188,18.71875 c 8.9387,0.58308 20.4688,1.46075 38.8124,2.75 l -4.5312,-20 c -11.6344,-0.60809 -23.3292,-1.0952 -35,-1.46875 z m -21.25,20.84385 c -1.7475,-0.003 -3.6555,0.0356 -5.5938,0.0625 l -0.6562,22.90625 c 7.454,0.0942 14.8513,0.22379 21.9375,0.40625 7.53,0.19389 14.6563,0.42632 21.2813,0.6875 l -0.6563,-22.1875 c -17.5278,-1.27463 -26.1037,-1.85537 -36.3125,-1.875 z m -8.5625,0.0937 c -12.9872,0.27487 -24.4383,1.22304 -36.375,2.15625 l -0.9375,20.8125 c 3.1828,-0.0706 6.4066,-0.1188 9.6875,-0.15625 8.8252,-0.10074 17.9334,-0.0962 26.9687,0 l 0.6563,-22.8125 z m 47.875,2 0.6563,22.09375 c 6.788,0.28289 12.9418,0.59007 18.0937,0.90625 3.269,0.20062 5.9851,0.39034 8.4063,0.59375 l -5,-22 c -8.8207,-0.61888 -15.9516,-1.14174 -22.1563,-1.59375 z m -87.2813,0.4063 c -7.9143,0.60726 -16.1284,1.17074 -25.2187,1.5 l -4.1875,20.5625 c 8.3431,-0.69096 18.0957,-1.16726 28.5312,-1.4375 l 0.875,-20.625 z m 23.875,23.34375 0.125,18.53125 c 4.4853,-0.0744 8.9666,-0.101 13.4063,-0.0937 8.9442,0.0146 17.7382,0.18362 26.125,0.4375 0.9882,0.0299 1.9299,0.0614 2.9063,0.0937 l -2.2813,-18.40625 c -0.203,-0.005 -0.3909,-0.026 -0.5937,-0.0312 -12.4285,-0.32 -25.7374,-0.53033 -38.8126,-0.53125 -0.2923,-2e-5 -0.5815,-1.9e-4 -0.875,0 z m -6.6874,0.0312 c -10.0109,0.0651 -19.7301,0.25779 -28.6563,0.625 l 0.1563,19.53125 c 10.4824,-0.87089 21.3946,-1.36377 32.3124,-1.59375 l -0.125,-18.5625 c -1.2284,0.004 -2.4664,-0.008 -3.6874,0 z m 50,0.59375 2.2812,18.46875 c 12.1088,0.43707 22.8514,1.03251 32.0312,1.625 -0.1322,-1.7897 -0.3759,-4.81441 -0.75,-8.65625 -0.2582,-2.66305 -0.5335,-5.37498 -0.8437,-7.5 -0.1551,-1.06251 -0.3208,-1.96154 -0.4687,-2.625 -0.01,-0.0269 -0.025,-0.0361 -0.031,-0.0625 -9.0551,-0.47704 -20.1166,-0.91139 -32.2187,-1.25 z m -81.6563,0.1875 c -5.57,0.2587 -10.8283,0.56356 -15.5625,0.96875 l -4.3125,21.09375 c 6.3733,-0.99479 13.101,-1.7777 20.0313,-2.40625 l -0.1563,-19.65625 z m 116.9687,1.25 c 0.1289,0.63059 0.2618,1.31586 0.375,2.09375 0.3234,2.21226 0.6142,4.93604 0.875,7.625 0.4111,4.21534 0.6688,7.55914 0.7813,9.125 5.7739,0.38673 11.0169,0.76097 14.9063,1.0625 l -4.3126,-19.03125 c -2.5716,-0.22185 -5.5299,-0.45925 -9.25,-0.6875 -1.0268,-0.0631 -2.2708,-0.12506 -3.375,-0.1875 z m -65.0937,19.375 c -6.6971,-0.01 -13.4642,0.0661 -20.2187,0.25 l -10.8126,25 c 10.8322,-0.6191 21.6694,-0.88096 32.5,-0.84375 l 0.4063,-24.40625 c -0.6262,-0.002 -1.2471,9.2e-4 -1.875,0 z m 4.875,0.0312 -0.4063,24.375 c 11.0203,0.0982 22.0423,0.53401 33.0626,1.28125 l -9.75,-25.1875 c -0.5924,-0.019 -1.154,-0.0444 -1.75,-0.0625 -6.8321,-0.20678 -13.9277,-0.35033 -21.1563,-0.40625 z m -28.4063,0.34375 c -6.7889,0.2215 -13.5629,0.52825 -20.1562,1 l -20.375,26.8125 c 9.8823,-1.19843 19.774,-2.09016 29.6562,-2.71875 l 10.875,-25.09375 z m 54.5626,0.21875 9.8124,25.3125 c 11.0091,0.81005 22.0225,1.94793 33.0313,3.375 l -18.4063,-27.53125 c -7.4121,-0.42369 -15.6539,-0.84684 -24.4374,-1.15625 z m -78.7188,1.09375 c -9.4428,0.76486 -18.5336,1.82228 -26.9062,3.25 l -0.063,0.0625 -29.1558,29.59385 c 11.8437,-2.3901 23.6885,-4.33943 35.5312,-5.875 l 20.5938,-27.03125 z m 106.9062,0.25 18.5938,27.875 c 11.2482,1.53154 22.5018,3.35727 33.75,5.5 l -27.5938,-30.875 -0.4062,-0.78125 c -5.6746,-0.44591 -14.0983,-1.10141 -24.3438,-1.71875 z"
     id="path3214"
     style="fill:#ffcb41;fill-opacity:1;stroke:none"/>
  <path
     d="m 652.53165,753.57124 -35.5,4.59375 7.0937,25.15625 34.3438,-4.9375 0.094,0 0.094,0 c 7.5141,-0.12676 14.9988,-0.29079 22.5,-0.46875 l -22.3125,0.375 -6.3125,-24.71875 z m 115.7813,0.59375 -3.875,24.40625 -1.0938,-0.0312 c 0.6457,0.0437 1.2907,0.0786 1.9375,0.125 l 0.031,0 0.031,0 28.5938,3.46875 6.125,-24.09375 -31.75,-3.875 z m -76.2813,0.28125 0,23.21875 c 6.4315,-0.14056 12.8765,-0.27701 19.3437,-0.34375 4.4166,-0.0456 8.8342,-0.0771 13.2813,-0.0625 1.5274,0.005 3.062,0.0171 4.5937,0.0312 l -0.2812,-22.8437 -36.9375,0 z m 24.3437,25.8125 c -12.9423,0.0756 -25.7968,0.41236 -38.6562,0.71875 l 0,19.96875 c 32.0317,0.21394 51.3179,0.41773 67.5,1.21875 l 1.4062,-21.46875 c -7.3732,-0.2686 -14.6975,-0.4124 -21.9687,-0.4375 -2.7689,-0.01 -5.5227,-0.0161 -8.2813,0 z m 33.25,0.5625 -1.4062,21.5 c 13.0254,0.72305 24.419,1.87911 39.5938,3.84375 l 5.375,-21.09375 -28.125,-3.4375 0,0.0312 c -5.1854,-0.37176 -10.3198,-0.63023 -15.4376,-0.84375 z m -74.9062,0.21875 c -5.327,0.12476 -10.6542,0.25357 -16,0.34375 l -33.75,4.84375 5.875,20.875 c 14.5073,-2.56494 29.0565,-5.36379 43.875,-6.09375 l 0,-19.96875 z m 1.7812,22.90625 c -5.3007,0.20366 -10.5967,0.68374 -15.875,1.34375 l -0.4062,22.6875 c 16.007,-1.82238 32.5228,-2.67737 49.5938,-2.84375 l 0.5,-20.90625 c -9.6022,-0.12312 -20.4249,-0.19282 -33.75,-0.28125 -0.026,-1.7e-4 -0.037,1.7e-4 -0.063,0 z m 36.8126,0.3125 -0.5,20.84375 c 15.0597,-0.0737 30.5641,0.39446 45.9687,1.46875 l 0.125,-20.5 c -13.0038,-1.05242 -26.2209,-1.53899 -45.5937,-1.8125 z m -55.6876,1.4375 c -8.6528,1.18433 -17.283,2.77507 -25.9687,4.3125 l 5.7813,20.4375 0.75,0.71875 c 6.2642,-1.1037 12.6095,-2.0309 19.0312,-2.8125 l 0.4062,-22.65625 z m 104.2813,0.625 -0.125,20.46875 c 6.7808,0.50854 13.5409,1.12108 20.2187,1.875 l 0.125,-0.0937 4.9376,-19.4375 c -9.4162,-1.21672 -17.3517,-2.12631 -25.1563,-2.8125 z m -50.625,21.78125 c -24.6131,0.18132 -48.0139,1.83966 -70.375,5.625 l 12.9063,12.25 0.125,0.21875 c 18.7625,-1.97285 37.4832,-2.4506 56.1874,-2.46875 17.4192,-0.0169 34.818,0.34391 52.1876,0.125 l 0.5624,-0.75 15.6563,-11.8125 c -22.233,-2.36699 -45.2541,-3.34954 -67.25,-3.1875 z m -2.3125,18.65625 c -5.6309,0.0188 -11.2517,0.069 -16.875,0.1875 l 0.1562,20.8125 7.9063,-0.1875 0,-7.0625 c 0,-2.5323 2.0302,-4.5625 4.5625,-4.5625 l 2.9375,0 c 2.5323,0 4.5625,2.0302 4.5625,4.5625 l 0,6.78125 15.8125,-0.34375 -2.1563,-20.15625 c -5.6338,-0.0374 -11.2753,-0.05 -16.9062,-0.0312 z m 19.9062,0.0625 2.1563,20.15625 11.3125,2.75 22.0938,-1.4375 -4.75,-21.03125 0.3124,-0.40625 c -10.3884,0.10276 -20.7521,0.0409 -31.125,-0.0312 z m -39.7812,0.1875 c -11.1564,0.28631 -22.3016,0.87827 -33.4375,2 l 0.1563,0.25 -3.9688,19.4375 37.4062,-0.875 -0.1562,-20.8125 z m 41.2188,22.875 -18.0938,0.40625 0,21.25 c 9.7612,0.14603 19.5909,0.40404 29.4375,0.75 l -1.75,-20.0625 -9.5937,-2.34375 z m -30.1563,0.6875 -22.5937,0.53125 -0.6563,20.40625 c 7.6588,-0.12463 15.4219,-0.13826 23.25,-0.0937 l 0,-20.84375 z m -25.5937,0.59375 -23.3126,0.53125 -4.25,20.8125 c 8.7804,-0.44602 17.7725,-0.76091 26.9063,-0.9375 l 0.6563,-20.40625 z m 90.5624,0.0937 -22.1562,1.46875 1.7188,19.6875 c 8.496,0.31472 17.0036,0.65573 25.4687,1.09375 l -5.0313,-22.25 z m -73.3437,23.125 c -0.8285,0.002 -1.6427,0.0275 -2.4687,0.0312 l -0.75,19.375 c 6.0265,-0.37942 12.1956,-0.668 18.8124,-0.78125 9.6845,-0.16574 16.3728,0.0249 26.1876,0.625 l -0.75,-18.625 c -13.7974,-0.41392 -27.54,-0.65625 -41.0313,-0.625 z m -5.4687,0.0312 c -13.6504,0.10024 -27.0249,0.45504 -39.9376,1.125 l -4.3437,21.375 c 16.0762,-0.61004 29.4625,-1.95159 43.5,-2.90625 l 0.7813,-19.59375 z m 49.5312,0.6875 0.7188,18.71875 c 8.9387,0.58308 20.4688,1.46075 38.8124,2.75 l -4.5312,-20 c -11.6344,-0.60809 -23.3292,-1.0952 -35,-1.46875 z m -21.25,20.84385 c -1.7475,-0.003 -3.6555,0.0356 -5.5938,0.0625 l -0.6562,22.90625 c 7.454,0.0942 14.8513,0.22379 21.9375,0.40625 7.53,0.19389 14.6563,0.42632 21.2813,0.6875 l -0.6563,-22.1875 c -17.5278,-1.27463 -26.1037,-1.85537 -36.3125,-1.875 z m -8.5625,0.0937 c -12.9872,0.27487 -24.4383,1.22304 -36.375,2.15625 l -0.9375,20.8125 c 3.1828,-0.0706 6.4066,-0.1188 9.6875,-0.15625 8.8252,-0.10074 17.9334,-0.0962 26.9687,0 l 0.6563,-22.8125 z m 47.875,2 0.6563,22.09375 c 6.788,0.28289 12.9418,0.59007 18.0937,0.90625 3.269,0.20062 5.9851,0.39034 8.4063,0.59375 l -5,-22 c -8.8207,-0.61888 -15.9516,-1.14174 -22.1563,-1.59375 z m -87.2813,0.4063 c -7.9143,0.60726 -16.1284,1.17074 -25.2187,1.5 l -4.1875,20.5625 c 8.3431,-0.69096 18.0957,-1.16726 28.5312,-1.4375 l 0.875,-20.625 z m 23.875,23.34375 0.125,18.53125 c 4.4853,-0.0744 8.9666,-0.101 13.4063,-0.0937 8.9442,0.0146 17.7382,0.18362 26.125,0.4375 0.9882,0.0299 1.9299,0.0614 2.9063,0.0937 l -2.2813,-18.40625 c -0.203,-0.005 -0.3909,-0.026 -0.5937,-0.0312 -12.4285,-0.32 -25.7374,-0.53033 -38.8126,-0.53125 -0.2923,-2e-5 -0.5815,-1.9e-4 -0.875,0 z m -6.6874,0.0312 c -10.0109,0.0651 -19.7301,0.25779 -28.6563,0.625 l 0.1563,19.53125 c 10.4824,-0.87089 21.3946,-1.36377 32.3124,-1.59375 l -0.125,-18.5625 c -1.2284,0.004 -2.4664,-0.008 -3.6874,0 z m 50,0.59375 2.2812,18.46875 c 12.1088,0.43707 22.8514,1.03251 32.0312,1.625 -0.1322,-1.7897 -0.3759,-4.81441 -0.75,-8.65625 -0.2582,-2.66305 -0.5335,-5.37498 -0.8437,-7.5 -0.1551,-1.06251 -0.3208,-1.96154 -0.4687,-2.625 -0.01,-0.0269 -0.025,-0.0361 -0.031,-0.0625 -9.0551,-0.47704 -20.1166,-0.91139 -32.2187,-1.25 z m -81.6563,0.1875 c -5.57,0.2587 -10.8283,0.56356 -15.5625,0.96875 l -4.3125,21.09375 c 6.3733,-0.99479 13.101,-1.7777 20.0313,-2.40625 l -0.1563,-19.65625 z m 116.9687,1.25 c 0.1289,0.63059 0.2618,1.31586 0.375,2.09375 0.3234,2.21226 0.6142,4.93604 0.875,7.625 0.4111,4.21534 0.6688,7.55914 0.7813,9.125 5.7739,0.38673 11.0169,0.76097 14.9063,1.0625 l -4.3126,-19.03125 c -2.5716,-0.22185 -5.5299,-0.45925 -9.25,-0.6875 -1.0268,-0.0631 -2.2708,-0.12506 -3.375,-0.1875 z m -65.0937,19.375 c -6.6971,-0.01 -13.4642,0.0661 -20.2187,0.25 l -10.8126,25 c 10.8322,-0.6191 21.6694,-0.88096 32.5,-0.84375 l 0.4063,-24.40625 c -0.6262,-0.002 -1.2471,9.2e-4 -1.875,0 z m 4.875,0.0312 -0.4063,24.375 c 11.0203,0.0982 22.0423,0.53401 33.0626,1.28125 l -9.75,-25.1875 c -0.5924,-0.019 -1.154,-0.0444 -1.75,-0.0625 -6.8321,-0.20678 -13.9277,-0.35033 -21.1563,-0.40625 z m -28.4063,0.34375 c -6.7889,0.2215 -13.5629,0.52825 -20.1562,1 l -20.375,26.8125 c 9.8823,-1.19843 19.774,-2.09016 29.6562,-2.71875 l 10.875,-25.09375 z m 54.5626,0.21875 9.8124,25.3125 c 11.0091,0.81005 22.0225,1.94793 33.0313,3.375 l -18.4063,-27.53125 c -7.4121,-0.42369 -15.6539,-0.84684 -24.4374,-1.15625 z m -78.7188,1.09375 c -9.4428,0.76486 -18.5336,1.82228 -26.9062,3.25 l -0.063,0.0625 -29.1558,29.59385 c 11.8437,-2.3901 23.6885,-4.33943 35.5312,-5.875 l 20.5938,-27.03125 z m 106.9062,0.25 18.5938,27.875 c 11.2482,1.53154 22.5018,3.35727 33.75,5.5 l -27.5938,-30.875 -0.4062,-0.78125 c -5.6746,-0.44591 -14.0983,-1.10141 -24.3438,-1.71875 z"
     id="path3216"
     style="fill:#ffcb41;fill-opacity:1;stroke:none"/>
  <path
     d="m 1234.5317,391.57124 -35.5,4.59375 7.0937,25.15625 34.3438,-4.9375 0.094,0 0.094,0 c 7.5141,-0.12676 14.9988,-0.29079 22.5,-0.46875 l -22.3125,0.375 -6.3125,-24.71875 z m 115.7812,0.59375 -3.875,24.40625 -1.0937,-0.0312 c 0.6457,0.0437 1.2907,0.0786 1.9375,0.125 l 0.031,0 0.031,0 28.5938,3.46875 6.125,-24.09375 -31.75,-3.875 z m -76.2813,0.28125 0,23.21875 c 6.4315,-0.14056 12.8765,-0.27701 19.3437,-0.34375 4.4166,-0.0456 8.8342,-0.0771 13.2813,-0.0625 1.5274,0.005 3.062,0.0171 4.5937,0.0312 l -0.2812,-22.8437 -36.9374,0 z m 24.3437,25.8125 c -12.9423,0.0756 -25.7968,0.41236 -38.6562,0.71875 l 0,19.96875 c 32.0317,0.21394 51.3179,0.41773 67.5001,1.21875 l 1.4062,-21.46875 c -7.3733,-0.2686 -14.6976,-0.4124 -21.9688,-0.4375 -2.7689,-0.01 -5.5227,-0.0161 -8.2813,0 z m 33.2501,0.5625 -1.4062,21.5 c 13.0253,0.72305 24.4189,1.87911 39.5937,3.84375 l 5.375,-21.09375 -28.125,-3.4375 0,0.0312 c -5.1854,-0.37176 -10.3198,-0.63023 -15.4376,-0.84375 z m -74.9063,0.21875 c -5.327,0.12476 -10.6542,0.25357 -16,0.34375 l -33.75,4.84375 5.875,20.875 c 14.5073,-2.56494 29.0565,-5.36379 43.875,-6.09375 l 0,-19.96875 z m 1.7812,22.90625 c -5.3007,0.20366 -10.5967,0.68374 -15.875,1.34375 l -0.4062,22.6875 c 16.007,-1.82238 32.5228,-2.67737 49.5938,-2.84375 l 0.5,-20.90625 c -9.6022,-0.12312 -20.4249,-0.19282 -33.75,-0.28125 -0.026,-1.7e-4 -0.037,1.7e-4 -0.063,0 z m 36.8126,0.3125 -0.5,20.84375 c 15.0597,-0.0737 30.5641,0.39446 45.9688,1.46875 l 0.125,-20.5 c -13.0039,-1.05242 -26.221,-1.53899 -45.5938,-1.8125 z m -55.6876,1.4375 c -8.6528,1.18433 -17.283,2.77507 -25.9687,4.3125 l 5.7813,20.4375 0.75,0.71875 c 6.2642,-1.1037 12.6095,-2.0309 19.0312,-2.8125 l 0.4062,-22.65625 z m 104.2814,0.625 -0.125,20.46875 c 6.7808,0.50854 13.5408,1.12108 20.2187,1.875 l 0.125,-0.0937 4.9375,-19.4375 c -9.4162,-1.21672 -17.3516,-2.12631 -25.1563,-2.8125 z m -50.625,21.78125 c -24.6132,0.18132 -48.014,1.83966 -70.3751,5.625 l 12.9063,12.25 0.125,0.21875 c 18.7626,-1.97285 37.4832,-2.4506 56.1875,-2.46875 17.4192,-0.0169 34.8179,0.34391 52.1875,0.125 l 0.5625,-0.75 15.6563,-11.8125 c -22.2331,-2.36699 -45.2541,-3.34954 -67.25,-3.1875 z m -2.3125,18.65625 c -5.6309,0.0188 -11.2518,0.069 -16.875,0.1875 l 0.1562,20.8125 7.9063,-0.1875 0,-7.0625 c 0,-2.5323 2.0302,-4.5625 4.5625,-4.5625 l 2.9375,0 c 2.5322,0 4.5625,2.0302 4.5625,4.5625 l 0,6.78125 15.8125,-0.34375 -2.1563,-20.15625 c -5.6339,-0.0374 -11.2754,-0.05 -16.9062,-0.0312 z m 19.9062,0.0625 2.1563,20.15625 11.3124,2.75 22.0938,-1.4375 -4.75,-21.03125 0.3125,-0.40625 c -10.3885,0.10276 -20.7522,0.0409 -31.125,-0.0312 z m -39.7813,0.1875 c -11.1564,0.28631 -22.3016,0.87827 -33.4375,2 l 0.1563,0.25 -3.9688,19.4375 37.4062,-0.875 -0.1562,-20.8125 z m 41.2188,22.875 -18.0937,0.40625 0,21.25 c 9.7612,0.14603 19.5909,0.40404 29.4374,0.75 l -1.75,-20.0625 -9.5937,-2.34375 z m -30.1563,0.6875 -22.5937,0.53125 -0.6563,20.40625 c 7.6588,-0.12463 15.4219,-0.13826 23.25,-0.0937 l 0,-20.84375 z m -25.5937,0.59375 -23.3126,0.53125 -4.25,20.8125 c 8.7804,-0.44602 17.7725,-0.76091 26.9063,-0.9375 l 0.6563,-20.40625 z m 90.5625,0.0937 -22.1563,1.46875 1.7188,19.6875 c 8.496,0.31472 17.0036,0.65573 25.4688,1.09375 l -5.0313,-22.25 z m -73.3438,23.125 c -0.8285,0.002 -1.6427,0.0275 -2.4687,0.0312 l -0.75,19.375 c 6.0265,-0.37942 12.1956,-0.668 18.8124,-0.78125 9.6845,-0.16574 16.3728,0.0249 26.1876,0.625 l -0.75,-18.625 c -13.7974,-0.41392 -27.54,-0.65625 -41.0313,-0.625 z m -5.4687,0.0312 c -13.6504,0.10024 -27.0249,0.45504 -39.9376,1.125 l -4.3437,21.375 c 16.0762,-0.61004 29.4625,-1.95159 43.5,-2.90625 l 0.7813,-19.59375 z m 49.5312,0.6875 0.7188,18.71875 c 8.9388,0.58308 20.4688,1.46075 38.8125,2.75 l -4.5312,-20 c -11.6345,-0.60809 -23.3293,-1.0952 -35,-1.46875 z m -21.25,20.84385 c -1.7475,-0.003 -3.6555,0.0356 -5.5938,0.0625 l -0.6562,22.90625 c 7.454,0.0942 14.8513,0.22379 21.9375,0.40625 7.53,0.19389 14.6563,0.42632 21.2813,0.6875 l -0.6562,-22.1875 c -17.5279,-1.27463 -26.1038,-1.85537 -36.3125,-1.875 z m -8.5625,0.0937 c -12.9872,0.27487 -24.4383,1.22304 -36.375,2.15625 l -0.9375,20.8125 c 3.1828,-0.0706 6.4066,-0.1188 9.6875,-0.15625 8.8252,-0.10074 17.9334,-0.0962 26.9687,0 l 0.6563,-22.8125 z m 47.8751,2 0.6562,22.09375 c 6.788,0.28289 12.9419,0.59007 18.0938,0.90625 3.269,0.20062 5.985,0.39034 8.4062,0.59375 l -5,-22 c -8.8206,-0.61888 -15.9515,-1.14174 -22.1563,-1.59375 z m -87.2814,0.4063 c -7.9143,0.60726 -16.1284,1.17074 -25.2187,1.5 l -4.1875,20.5625 c 8.3431,-0.69096 18.0957,-1.16726 28.5312,-1.4375 l 0.875,-20.625 z m 23.875,23.34375 0.125,18.53125 c 4.4853,-0.0744 8.9666,-0.101 13.4063,-0.0937 8.9443,0.0146 17.7383,0.18362 26.125,0.4375 0.9882,0.0299 1.9299,0.0614 2.9063,0.0937 l -2.2813,-18.40625 c -0.203,-0.005 -0.3909,-0.026 -0.5937,-0.0312 -12.4284,-0.32 -25.7374,-0.53033 -38.8126,-0.53125 -0.2923,-2e-5 -0.5815,-1.9e-4 -0.875,0 z m -6.6874,0.0312 c -10.0109,0.0651 -19.7301,0.25779 -28.6563,0.625 l 0.1563,19.53125 c 10.4824,-0.87089 21.3946,-1.36377 32.3124,-1.59375 l -0.125,-18.5625 c -1.2284,0.004 -2.4664,-0.008 -3.6874,0 z m 50,0.59375 2.2812,18.46875 c 12.1088,0.43707 22.8515,1.03251 32.0313,1.625 -0.1322,-1.7897 -0.3759,-4.81441 -0.75,-8.65625 -0.2582,-2.66305 -0.5335,-5.37498 -0.8437,-7.5 -0.1551,-1.06251 -0.3208,-1.96154 -0.4688,-2.625 -0.01,-0.0269 -0.025,-0.0361 -0.031,-0.0625 -9.0551,-0.47704 -20.1166,-0.91139 -32.2188,-1.25 z m -81.6563,0.1875 c -5.57,0.2587 -10.8283,0.56356 -15.5625,0.96875 l -4.3125,21.09375 c 6.3733,-0.99479 13.101,-1.7777 20.0313,-2.40625 l -0.1563,-19.65625 z m 116.9688,1.25 c 0.1289,0.63059 0.2618,1.31586 0.375,2.09375 0.3234,2.21226 0.6141,4.93604 0.875,7.625 0.4111,4.21534 0.6688,7.55914 0.7813,9.125 5.7739,0.38673 11.0168,0.76097 14.9062,1.0625 l -4.3125,-19.03125 c -2.5716,-0.22185 -5.5299,-0.45925 -9.25,-0.6875 -1.0268,-0.0631 -2.2708,-0.12506 -3.375,-0.1875 z m -65.0938,19.375 c -6.6971,-0.01 -13.4642,0.0661 -20.2187,0.25 l -10.8126,25 c 10.8322,-0.6191 21.6694,-0.88096 32.5,-0.84375 l 0.4063,-24.40625 c -0.6262,-0.002 -1.2471,9.2e-4 -1.875,0 z m 4.875,0.0312 -0.4063,24.375 c 11.0203,0.0982 22.0423,0.53401 33.0626,1.28125 l -9.75,-25.1875 c -0.5924,-0.019 -1.154,-0.0444 -1.75,-0.0625 -6.8321,-0.20678 -13.9277,-0.35033 -21.1563,-0.40625 z m -28.4063,0.34375 c -6.7889,0.2215 -13.5629,0.52825 -20.1562,1 l -20.375,26.8125 c 9.8823,-1.19843 19.774,-2.09016 29.6562,-2.71875 l 10.875,-25.09375 z m 54.5626,0.21875 9.8125,25.3125 c 11.0091,0.81005 22.0225,1.94793 33.0313,3.375 l -18.4063,-27.53125 c -7.4121,-0.42369 -15.654,-0.84684 -24.4375,-1.15625 z m -78.7188,1.09375 c -9.4428,0.76486 -18.5336,1.82228 -26.9062,3.25 l -0.063,0.0625 -29.1558,29.59385 c 11.8437,-2.3901 23.6885,-4.33943 35.5312,-5.875 l 20.5938,-27.03125 z m 106.9063,0.25 18.5938,27.875 c 11.2481,1.53154 22.5018,3.35727 33.75,5.5 l -27.5938,-30.875 -0.4062,-0.78125 c -5.6747,-0.44591 -14.0983,-1.10141 -24.3439,-1.71875 z"
     id="path3218"
     style="fill:#ffcb41;fill-opacity:1;stroke:none"/>
  <path
     d="m 1234.5317,753.57124 -35.5,4.59375 7.0937,25.15625 34.3438,-4.9375 0.094,0 0.094,0 c 7.5141,-0.12676 14.9988,-0.29079 22.5,-0.46875 l -22.3125,0.375 -6.3125,-24.71875 z m 115.7812,0.59375 -3.875,24.40625 -1.0937,-0.0312 c 0.6457,0.0437 1.2907,0.0786 1.9375,0.125 l 0.031,0 0.031,0 28.5938,3.46875 6.125,-24.09375 -31.75,-3.875 z m -76.2813,0.28125 0,23.21875 c 6.4315,-0.14056 12.8765,-0.27701 19.3437,-0.34375 4.4166,-0.0456 8.8342,-0.0771 13.2813,-0.0625 1.5274,0.005 3.062,0.0171 4.5937,0.0312 l -0.2812,-22.8437 -36.9374,0 z m 24.3437,25.8125 c -12.9423,0.0756 -25.7968,0.41236 -38.6562,0.71875 l 0,19.96875 c 32.0317,0.21394 51.3179,0.41773 67.5001,1.21875 l 1.4062,-21.46875 c -7.3733,-0.2686 -14.6976,-0.4124 -21.9688,-0.4375 -2.7689,-0.01 -5.5227,-0.0161 -8.2813,0 z m 33.2501,0.5625 -1.4062,21.5 c 13.0253,0.72305 24.4189,1.87911 39.5937,3.84375 l 5.375,-21.09375 -28.125,-3.4375 0,0.0312 c -5.1854,-0.37176 -10.3198,-0.63023 -15.4376,-0.84375 z m -74.9063,0.21875 c -5.327,0.12476 -10.6542,0.25357 -16,0.34375 l -33.75,4.84375 5.875,20.875 c 14.5073,-2.56494 29.0565,-5.36379 43.875,-6.09375 l 0,-19.96875 z m 1.7812,22.90625 c -5.3007,0.20366 -10.5967,0.68374 -15.875,1.34375 l -0.4062,22.6875 c 16.007,-1.82238 32.5228,-2.67737 49.5938,-2.84375 l 0.5,-20.90625 c -9.6022,-0.12312 -20.4249,-0.19282 -33.75,-0.28125 -0.026,-1.7e-4 -0.037,1.7e-4 -0.063,0 z m 36.8126,0.3125 -0.5,20.84375 c 15.0597,-0.0737 30.5641,0.39446 45.9688,1.46875 l 0.125,-20.5 c -13.0039,-1.05242 -26.221,-1.53899 -45.5938,-1.8125 z m -55.6876,1.4375 c -8.6528,1.18433 -17.283,2.77507 -25.9687,4.3125 l 5.7813,20.4375 0.75,0.71875 c 6.2642,-1.1037 12.6095,-2.0309 19.0312,-2.8125 l 0.4062,-22.65625 z m 104.2814,0.625 -0.125,20.46875 c 6.7808,0.50854 13.5408,1.12108 20.2187,1.875 l 0.125,-0.0937 4.9375,-19.4375 c -9.4162,-1.21672 -17.3516,-2.12631 -25.1563,-2.8125 z m -50.625,21.78125 c -24.6132,0.18132 -48.014,1.83966 -70.3751,5.625 l 12.9063,12.25 0.125,0.21875 c 18.7626,-1.97285 37.4832,-2.4506 56.1875,-2.46875 17.4192,-0.0169 34.8179,0.34391 52.1875,0.125 l 0.5625,-0.75 15.6563,-11.8125 c -22.2331,-2.36699 -45.2541,-3.34954 -67.25,-3.1875 z m -2.3125,18.65625 c -5.6309,0.0188 -11.2518,0.069 -16.875,0.1875 l 0.1562,20.8125 7.9063,-0.1875 0,-7.0625 c 0,-2.5323 2.0302,-4.5625 4.5625,-4.5625 l 2.9375,0 c 2.5322,0 4.5625,2.0302 4.5625,4.5625 l 0,6.78125 15.8125,-0.34375 -2.1563,-20.15625 c -5.6339,-0.0374 -11.2754,-0.05 -16.9062,-0.0312 z m 19.9062,0.0625 2.1563,20.15625 11.3124,2.75 22.0938,-1.4375 -4.75,-21.03125 0.3125,-0.40625 c -10.3885,0.10276 -20.7522,0.0409 -31.125,-0.0312 z m -39.7813,0.1875 c -11.1564,0.28631 -22.3016,0.87827 -33.4375,2 l 0.1563,0.25 -3.9688,19.4375 37.4062,-0.875 -0.1562,-20.8125 z m 41.2188,22.875 -18.0937,0.40625 0,21.25 c 9.7612,0.14603 19.5909,0.40404 29.4374,0.75 l -1.75,-20.0625 -9.5937,-2.34375 z m -30.1563,0.6875 -22.5937,0.53125 -0.6563,20.40625 c 7.6588,-0.12463 15.4219,-0.13826 23.25,-0.0937 l 0,-20.84375 z m -25.5937,0.59375 -23.3126,0.53125 -4.25,20.8125 c 8.7804,-0.44602 17.7725,-0.76091 26.9063,-0.9375 l 0.6563,-20.40625 z m 90.5625,0.0937 -22.1563,1.46875 1.7188,19.6875 c 8.496,0.31472 17.0036,0.65573 25.4688,1.09375 l -5.0313,-22.25 z m -73.3438,23.125 c -0.8285,0.002 -1.6427,0.0275 -2.4687,0.0312 l -0.75,19.375 c 6.0265,-0.37942 12.1956,-0.668 18.8124,-0.78125 9.6845,-0.16574 16.3728,0.0249 26.1876,0.625 l -0.75,-18.625 c -13.7974,-0.41392 -27.54,-0.65625 -41.0313,-0.625 z m -5.4687,0.0312 c -13.6504,0.10024 -27.0249,0.45504 -39.9376,1.125 l -4.3437,21.375 c 16.0762,-0.61004 29.4625,-1.95159 43.5,-2.90625 l 0.7813,-19.59375 z m 49.5312,0.6875 0.7188,18.71875 c 8.9388,0.58308 20.4688,1.46075 38.8125,2.75 l -4.5312,-20 c -11.6345,-0.60809 -23.3293,-1.0952 -35,-1.46875 z m -21.25,20.84385 c -1.7475,-0.003 -3.6555,0.0356 -5.5938,0.0625 l -0.6562,22.90625 c 7.454,0.0942 14.8513,0.22379 21.9375,0.40625 7.53,0.19389 14.6563,0.42632 21.2813,0.6875 l -0.6562,-22.1875 c -17.5279,-1.27463 -26.1038,-1.85537 -36.3125,-1.875 z m -8.5625,0.0937 c -12.9872,0.27487 -24.4383,1.22304 -36.375,2.15625 l -0.9375,20.8125 c 3.1828,-0.0706 6.4066,-0.1188 9.6875,-0.15625 8.8252,-0.10074 17.9334,-0.0962 26.9687,0 l 0.6563,-22.8125 z m 47.8751,2 0.6562,22.09375 c 6.788,0.28289 12.9419,0.59007 18.0938,0.90625 3.269,0.20062 5.985,0.39034 8.4062,0.59375 l -5,-22 c -8.8206,-0.61888 -15.9515,-1.14174 -22.1563,-1.59375 z m -87.2814,0.4063 c -7.9143,0.60726 -16.1284,1.17074 -25.2187,1.5 l -4.1875,20.5625 c 8.3431,-0.69096 18.0957,-1.16726 28.5312,-1.4375 l 0.875,-20.625 z m 23.875,23.34375 0.125,18.53125 c 4.4853,-0.0744 8.9666,-0.101 13.4063,-0.0937 8.9443,0.0146 17.7383,0.18362 26.125,0.4375 0.9882,0.0299 1.9299,0.0614 2.9063,0.0937 l -2.2813,-18.40625 c -0.203,-0.005 -0.3909,-0.026 -0.5937,-0.0312 -12.4284,-0.32 -25.7374,-0.53033 -38.8126,-0.53125 -0.2923,-2e-5 -0.5815,-1.9e-4 -0.875,0 z m -6.6874,0.0312 c -10.0109,0.0651 -19.7301,0.25779 -28.6563,0.625 l 0.1563,19.53125 c 10.4824,-0.87089 21.3946,-1.36377 32.3124,-1.59375 l -0.125,-18.5625 c -1.2284,0.004 -2.4664,-0.008 -3.6874,0 z m 50,0.59375 2.2812,18.46875 c 12.1088,0.43707 22.8515,1.03251 32.0313,1.625 -0.1322,-1.7897 -0.3759,-4.81441 -0.75,-8.65625 -0.2582,-2.66305 -0.5335,-5.37498 -0.8437,-7.5 -0.1551,-1.06251 -0.3208,-1.96154 -0.4688,-2.625 -0.01,-0.0269 -0.025,-0.0361 -0.031,-0.0625 -9.0551,-0.47704 -20.1166,-0.91139 -32.2188,-1.25 z m -81.6563,0.1875 c -5.57,0.2587 -10.8283,0.56356 -15.5625,0.96875 l -4.3125,21.09375 c 6.3733,-0.99479 13.101,-1.7777 20.0313,-2.40625 l -0.1563,-19.65625 z m 116.9688,1.25 c 0.1289,0.63059 0.2618,1.31586 0.375,2.09375 0.3234,2.21226 0.6141,4.93604 0.875,7.625 0.4111,4.21534 0.6688,7.55914 0.7813,9.125 5.7739,0.38673 11.0168,0.76097 14.9062,1.0625 l -4.3125,-19.03125 c -2.5716,-0.22185 -5.5299,-0.45925 -9.25,-0.6875 -1.0268,-0.0631 -2.2708,-0.12506 -3.375,-0.1875 z m -65.0938,19.375 c -6.6971,-0.01 -13.4642,0.0661 -20.2187,0.25 l -10.8126,25 c 10.8322,-0.6191 21.6694,-0.88096 32.5,-0.84375 l 0.4063,-24.40625 c -0.6262,-0.002 -1.2471,9.2e-4 -1.875,0 z m 4.875,0.0312 -0.4063,24.375 c 11.0203,0.0982 22.0423,0.53401 33.0626,1.28125 l -9.75,-25.1875 c -0.5924,-0.019 -1.154,-0.0444 -1.75,-0.0625 -6.8321,-0.20678 -13.9277,-0.35033 -21.1563,-0.40625 z m -28.4063,0.34375 c -6.7889,0.2215 -13.5629,0.52825 -20.1562,1 l -20.375,26.8125 c 9.8823,-1.19843 19.774,-2.09016 29.6562,-2.71875 l 10.875,-25.09375 z m 54.5626,0.21875 9.8125,25.3125 c 11.0091,0.81005 22.0225,1.94793 33.0313,3.375 l -18.4063,-27.53125 c -7.4121,-0.42369 -15.654,-0.84684 -24.4375,-1.15625 z m -78.7188,1.09375 c -9.4428,0.76486 -18.5336,1.82228 -26.9062,3.25 l -0.063,0.0625 -29.1558,29.59385 c 11.8437,-2.3901 23.6885,-4.33943 35.5312,-5.875 l 20.5938,-27.03125 z m 106.9063,0.25 18.5938,27.875 c 11.2481,1.53154 22.5018,3.35727 33.75,5.5 l -27.5938,-30.875 -0.4062,-0.78125 c -5.6747,-0.44591 -14.0983,-1.10141 -24.3439,-1.71875 z"
     id="path3220"
     style="fill:#ffcb41;fill-opacity:1;stroke:none"/>
</svg>
