<?xml version="1.0" encoding="UTF-8" standalone="no"?>
<!-- Created with Inkscape (http://www.inkscape.org/) -->

<svg
   xmlns:dc="http://purl.org/dc/elements/1.1/"
   xmlns:cc="http://creativecommons.org/ns#"
   xmlns:rdf="http://www.w3.org/1999/02/22-rdf-syntax-ns#"
   xmlns:svg="http://www.w3.org/2000/svg"
   xmlns="http://www.w3.org/2000/svg"
   xmlns:sodipodi="http://sodipodi.sourceforge.net/DTD/sodipodi-0.dtd"
   xmlns:inkscape="http://www.inkscape.org/namespaces/inkscape"
   width="430"
   height="258"
   id="svg4827"
   version="1.1"
   inkscape:version="0.91 r13725"
   sodipodi:docname="FlagOfLancashire.svg">
  <defs
     id="defs4829" />
  <sodipodi:namedview
     id="base"
     pagecolor="#ffffff"
     bordercolor="#666666"
     borderopacity="1.0"
     inkscape:pageopacity="0.0"
     inkscape:pageshadow="2"
     inkscape:zoom="1.979899"
     inkscape:cx="54.221225"
     inkscape:cy="114.01778"
     inkscape:document-units="px"
     inkscape:current-layer="layer2"
     showgrid="false"
     fit-margin-top="0"
     fit-margin-left="0"
     fit-margin-right="0"
     fit-margin-bottom="0"
     inkscape:window-width="1920"
     inkscape:window-height="1017"
     inkscape:window-x="-8"
     inkscape:window-y="-8"
     inkscape:window-maximized="1"
     inkscape:snap-page="true">
    <inkscape:grid
       type="xygrid"
       id="grid6516" />
  </sodipodi:namedview>
  <metadata
     id="metadata4832">
    <rdf:RDF>
      <cc:Work
         rdf:about="">
        <dc:format>image/svg+xml</dc:format>
        <dc:type
           rdf:resource="http://purl.org/dc/dcmitype/StillImage" />
        <dc:title></dc:title>
      </cc:Work>
    </rdf:RDF>
  </metadata>
  <g
     inkscape:groupmode="layer"
     id="layer2"
     inkscape:label="Layer 1"
     transform="translate(0,-2)">
    <rect
       style="opacity:1;fill:#f7d70e;fill-opacity:1;stroke:none;stroke-width:1;stroke-linecap:round;stroke-linejoin:round;stroke-miterlimit:4;stroke-dasharray:none;stroke-dashoffset:0;stroke-opacity:1"
       id="rect6452"
       width="430"
       height="258"
       x="0"
       y="2" />
    <g
       transform="translate(-115.00001,-421.44631)"
       style="display:inline"
       id="g5588">
      <g
         id="g5445">
        <g
           style="display:inline"
           id="g4347">
          <path
             sodipodi:nodetypes="ccccccccccc"
             inkscape:connector-curvature="0"
             id="path3418"
             d="m 330,444.3622 39.38162,53.79586 63.3325,20.8303 -38.99333,54.07798 -0.23998,66.66969 L 330,619.3622 l -63.4808,20.37383 -0.23999,-66.6697 -38.99331,-54.07797 63.33249,-20.83031 z"
             style="fill:#227000;fill-opacity:1;fill-rule:evenodd;stroke:none;stroke-width:1px;stroke-linecap:butt;stroke-linejoin:miter;stroke-opacity:1" />
          <path
             sodipodi:nodetypes="ccccccccccc"
             inkscape:connector-curvature="0"
             id="path4285-8-0-3-9"
             d="M 230.13906,519.91541 290.61839,498.15805 330,447.3622 l 39.38162,50.79586 60.47931,21.75735 -36.14014,53.15093 -2.00333,64.24264 L 330,619.36221 l -61.71745,17.94678 -2.00334,-64.24266 z"
             style="display:inline;fill:#00aa00;fill-opacity:1;fill-rule:evenodd;stroke:none;stroke-width:1px;stroke-linecap:butt;stroke-linejoin:miter;stroke-opacity:1" />
        </g>
        <g
           style="display:inline"
           id="g4487">
          <path
             sodipodi:nodetypes="cc"
             inkscape:connector-curvature="0"
             id="path3480"
             d="M 229.83612,519.81698 330,552.36219"
             style="display:inline;fill:none;fill-rule:evenodd;stroke:#227000;stroke-width:1.79999995;stroke-linecap:butt;stroke-linejoin:miter;stroke-miterlimit:4;stroke-dasharray:none;stroke-opacity:1" />
          <path
             sodipodi:nodetypes="cc"
             inkscape:connector-curvature="0"
             id="path3480-1"
             d="M 329.99999,447.04367 330,552.36222"
             style="display:inline;fill:none;fill-rule:evenodd;stroke:#227000;stroke-width:1.79999995;stroke-linecap:butt;stroke-linejoin:miter;stroke-miterlimit:4;stroke-dasharray:none;stroke-opacity:1" />
          <path
             sodipodi:nodetypes="cc"
             inkscape:connector-curvature="0"
             id="path3480-1-7"
             d="M 430.16389,519.81699 330,552.36222"
             style="display:inline;fill:none;fill-rule:evenodd;stroke:#227000;stroke-width:1.79999995;stroke-linecap:butt;stroke-linejoin:miter;stroke-miterlimit:4;stroke-dasharray:none;stroke-opacity:1" />
          <path
             sodipodi:nodetypes="cc"
             inkscape:connector-curvature="0"
             id="path3480-1-7-5"
             d="M 391.9047,637.56673 330,552.36222"
             style="display:inline;fill:none;fill-rule:evenodd;stroke:#227000;stroke-width:1.79999995;stroke-linecap:butt;stroke-linejoin:miter;stroke-miterlimit:4;stroke-dasharray:none;stroke-opacity:1" />
          <path
             sodipodi:nodetypes="cc"
             inkscape:connector-curvature="0"
             id="path3480-1-7-5-8"
             d="M 268.0953,637.56673 330,552.36222"
             style="display:inline;fill:none;fill-rule:evenodd;stroke:#227000;stroke-width:1.79999995;stroke-linecap:butt;stroke-linejoin:miter;stroke-miterlimit:4;stroke-dasharray:none;stroke-opacity:1" />
        </g>
      </g>
      <g
         id="g5437">
        <path
           style="display:inline;fill:#d6000a;fill-opacity:1;stroke:#8b0101;stroke-width:1;stroke-miterlimit:4;stroke-dasharray:none;stroke-opacity:1"
           d="m 380.98025,530.97193 c 2.67198,-0.72479 6.87989,-1.90115 8.75115,-2.14008 12.68671,-1.61986 17.24211,-3.78422 21.29802,-9.56232 6.49442,-9.25207 0.8867,-23.74604 -11.47401,-37.41904 -3.06129,-3.38627 -6.63364,-6.03426 -11.41928,-9.51124 -4.78565,-3.47699 -8.40796,-6.05622 -12.57449,-7.92124 -16.82346,-7.53056 -32.34094,-8.38494 -39.13328,0.65069 -4.24197,5.64292 -4.89269,10.64417 -2.51286,23.21052 0.35101,1.8535 0.53254,6.21898 0.66892,8.98417 0.14475,2.93469 -0.71812,4.13309 -4.74054,4.13311 -4.02241,2e-5 -4.88529,-1.19842 -4.74053,-4.13311 0.13637,-2.76518 0.3179,-7.13066 0.66892,-8.98416 2.37983,-12.56635 1.7291,-17.56761 -2.51286,-23.21054 -6.79235,-9.03561 -22.30982,-8.18124 -39.13328,-0.65069 -4.16653,1.86504 -7.78884,4.44428 -12.57448,7.92125 -4.78566,3.47697 -8.35801,6.12497 -11.41928,9.51125 -12.36072,13.67299 -17.96845,28.16697 -11.47401,37.41903 4.0559,5.77811 8.61129,7.94246 21.298,9.56232 1.87126,0.23893 6.07917,1.4153 8.75117,2.14008 2.83578,0.7692 3.7089,1.96017 2.46591,5.78572 -1.24299,3.82553 -2.6494,4.27585 -5.39573,3.23131 -2.5877,-0.98419 -6.68342,-2.50584 -8.33773,-3.41244 -11.2159,-6.14657 -16.17347,-7.07316 -22.85105,-4.78258 -10.69233,3.66775 -14.67494,18.68976 -12.71169,37.01689 0.48623,4.53893 1.81987,8.78098 3.64782,14.40684 1.82795,5.62587 3.24243,9.84166 5.51699,13.79952 9.18411,15.98093 21.23582,25.79308 32.04195,22.47555 6.74865,-2.07186 10.21476,-5.73547 15.67575,-17.30069 0.80549,-1.70584 3.22459,-5.34428 4.73959,-7.66153 1.60786,-2.4593 3.01036,-2.92166 6.26456,-0.55734 3.2542,2.36431 3.24787,3.84104 1.40579,6.13018 -1.73567,2.15691 -4.44849,5.58196 -5.82193,6.87515 -9.31164,8.76756 -11.72485,13.19615 -11.60986,20.25474 0.18412,11.30241 13.24021,19.73215 31.27702,23.52838 4.46703,0.94018 8.91358,0.98268 14.82896,0.98268 5.91539,0 10.36194,-0.0425 14.82897,-0.98268 18.03681,-3.79623 31.0929,-12.22597 31.27702,-23.52838 0.11499,-7.05859 -2.29822,-11.48718 -11.60986,-20.25474 -1.37344,-1.29319 -4.08626,-4.71824 -5.82193,-6.87515 -1.84208,-2.28914 -1.8484,-3.76586 1.40579,-6.13018 3.2542,-2.36432 4.65671,-1.90195 6.26456,0.55735 1.515,2.31723 3.9341,5.95568 4.73959,7.66152 5.46099,11.56521 8.92711,15.22883 15.67576,17.3007 10.80613,3.31751 22.85783,-6.49463 32.04196,-22.47555 2.27454,-3.95788 3.68901,-8.17366 5.51697,-13.79952 1.82797,-5.62587 3.16161,-9.86792 3.64782,-14.40685 1.96325,-18.32713 -2.01935,-33.34915 -12.71169,-37.01688 -6.67758,-2.2906 -11.63514,-1.364 -22.85104,4.78257 -1.65431,0.90659 -5.75003,2.42825 -8.33774,3.41244 -2.74633,1.04454 -4.15272,0.59422 -5.39573,-3.23132 -1.243,-3.82553 -0.36987,-5.01652 2.46592,-5.78571 z"
           id="path4397-9-8-2-4"
           inkscape:connector-curvature="0"
           sodipodi:nodetypes="sssssssssssssssssssssssssssssssssssssssssssssssssss" />
        <path
           inkscape:connector-curvature="0"
           style="display:inline;fill:#8b0101;fill-opacity:1"
           d="m 300.35212,640.9509 c -8.60009,-4.05659 -13.1897,-12.03727 -11.81044,-20.53668 0.88206,-5.4355 2.33263,-5.51363 2.33263,-0.12563 0,5.77842 2.08385,9.42239 7.3357,12.82775 5.13073,3.32682 8.16747,3.31323 15.94443,-0.0714 5.29291,-2.30353 7.63567,-2.71183 15.71987,-2.73968 8.2999,-0.0286 10.24164,0.31337 15.37084,2.70696 3.22897,1.50682 6.98596,2.73968 8.34887,2.73968 3.74539,0 8.9088,-2.81286 12.34279,-6.72396 2.47143,-2.81481 3.04302,-4.31354 2.91335,-7.63895 -0.22371,-5.73692 -0.0869,-6.35633 1.02415,-4.63709 0.53316,0.825 0.97458,3.975 0.98095,7 0.0134,6.35307 -2.05909,10.47847 -7.14581,14.22435 -5.93631,4.37152 -9.17625,5.14469 -17.6361,4.20863 -9.44453,-1.04501 -23.04803,-1.07893 -33.69904,-0.084 -6.80321,0.63549 -8.60172,0.46345 -12.02219,-1.14996 z"
           id="path4395-6" />
        <path
           inkscape:connector-curvature="0"
           style="display:inline;fill:#8b0101;fill-opacity:1"
           d="m 236.58545,551.54082 c 1.20047,-9.43272 7.37228,-16.26387 15.88191,-17.57858 5.44204,-0.84077 5.9646,0.51466 0.84031,2.17965 -5.49561,1.78563 -8.31728,4.89353 -9.93306,10.94065 -1.57851,5.90766 -0.62719,8.79157 4.995,15.14199 3.82639,4.32203 4.93866,6.42396 7.4633,14.10388 2.59201,7.88484 2.86681,9.83722 2.17538,15.45504 -0.43527,3.53656 -0.44681,7.49065 -0.0256,8.78685 1.15739,3.56208 5.42816,7.60355 10.209,9.66087 3.44076,1.48065 5.04276,1.56113 8.16535,0.4102 5.387,-1.98557 6.01837,-2.04686 4.72661,-0.45892 -0.61987,0.76201 -3.47929,2.15523 -6.35427,3.09606 -6.03798,1.97595 -10.60191,1.27972 -15.73633,-2.4005 -5.99199,-4.29489 -7.72851,-7.13734 -9.4525,-15.47239 -1.92466,-9.30521 -6.09611,-22.25339 -10.33369,-32.07565 -2.70669,-6.27386 -3.09884,-8.03751 -2.62138,-11.78914 z"
           id="path4395-6-0" />
        <path
           inkscape:connector-curvature="0"
           style="display:inline;fill:#8b0101;fill-opacity:1"
           d="m 301.9145,463.26587 c 9.34203,-1.77315 17.74603,1.98565 21.62601,9.67252 2.4813,4.91588 1.35369,5.83171 -1.8133,1.47272 -3.39647,-4.67484 -7.22421,-6.39801 -13.47466,-6.06605 -6.10631,0.32432 -8.55509,2.12026 -12.85735,9.42967 -2.92807,4.97469 -4.58341,6.68205 -11.1073,11.45635 -6.69795,4.9017 -8.46985,5.76637 -14.02638,6.84478 -3.49798,0.6789 -7.26211,1.8898 -8.36472,2.69089 -3.03009,2.20149 -5.55402,7.51212 -6.03329,12.69471 -0.34492,3.7299 0.0736,5.27837 2.13312,7.89247 3.55306,4.50977 3.80646,5.0913 1.89706,4.35346 -0.91626,-0.35405 -3.1249,-2.643 -4.90811,-5.08653 -3.74508,-5.13186 -4.49325,-9.68756 -2.57978,-15.70794 2.23306,-7.02591 4.39977,-9.55581 11.79414,-13.77109 8.25502,-4.70593 19.28042,-12.67442 27.31247,-19.73985 5.13038,-4.51294 6.68653,-5.4309 10.40208,-6.13612 z"
           id="path4395-6-0-6" />
        <path
           inkscape:connector-curvature="0"
           style="display:inline;fill:#8b0101;fill-opacity:1"
           d="m 406.05677,498.11908 c 4.57322,8.33686 3.59536,17.49107 -2.51631,23.55653 -3.90851,3.87895 -5.12797,3.08953 -1.96098,-1.26945 3.39647,-4.67484 3.85247,-8.84773 1.60526,-14.68968 -2.19539,-5.70723 -4.66016,-7.48118 -12.94128,-9.31414 -5.63604,-1.2475 -7.77137,-2.29422 -14.32799,-7.02346 -6.73157,-4.85542 -8.10147,-6.27341 -10.84416,-11.22473 -1.7266,-3.11699 -4.04142,-6.32269 -5.14403,-7.12379 -3.03009,-2.20149 -8.86073,-2.96081 -13.93778,-1.81511 -3.65393,0.82456 -4.99729,1.70108 -6.84701,4.46761 -3.19109,4.77276 -3.66585,5.19346 -3.55417,3.14951 0.0536,-0.98083 1.548,-3.78869 3.3209,-6.23971 3.7234,-5.14762 7.82493,-7.26696 14.14194,-7.30754 7.37209,-0.0474 10.44772,1.23152 16.74168,6.96139 7.02654,6.39678 18.01207,14.42016 27.21372,19.87575 5.87744,3.48471 7.23135,4.68103 9.05023,7.99681 z"
           id="path4395-6-0-6-9" />
        <path
           inkscape:connector-curvature="0"
           style="display:inline;fill:#8b0101;fill-opacity:1"
           d="m 405.09116,607.93442 c -6.51562,6.92561 -15.52397,8.82442 -23.18117,4.88621 -4.8969,-2.51855 -4.52295,-3.92227 0.60134,-2.25729 5.4956,1.78563 9.60517,0.92982 14.46677,-3.01267 4.74948,-3.85157 5.67496,-6.74388 4.85919,-15.18612 -0.55518,-5.74568 -0.21955,-8.09995 2.25212,-15.79709 2.53761,-7.90251 3.46287,-9.64354 7.32432,-13.78204 2.43088,-2.6053 4.76437,-5.79744 5.18554,-7.09364 1.15739,-3.56208 0.0778,-9.34199 -2.58074,-13.81651 -1.91333,-3.22029 -3.16207,-4.22704 -6.3648,-5.13132 -5.52526,-1.56005 -6.07208,-1.88157 -4.09365,-2.40697 0.94938,-0.25212 4.08161,0.30146 6.96052,1.23018 6.04627,1.95046 9.32933,5.19634 11.31999,11.19164 2.32314,6.99664 2.05727,10.31693 -1.44721,18.07346 -3.91238,8.65936 -8.14836,21.58657 -10.49347,32.02374 -1.49792,6.66661 -2.21731,8.32393 -4.80873,11.07842 z"
           id="path4395-6-0-6-9-1" />
      </g>
      <g
         id="g5392"
         style="display:inline"
         transform="translate(-1.1766899e-6,3.5139491e-6)">
        <g
           transform="translate(-1.1766899e-6,3.5139491e-6)"
           style="display:inline"
           id="g4500">
          <path
             sodipodi:nodetypes="cccccc"
             inkscape:connector-curvature="0"
             id="path24955-2-5-2-0"
             d="M 290.61839,498.15805 C 330,527.3622 330,527.3622 369.38162,498.15806 c -15.6052,46.47872 -15.6052,46.47872 24.33918,74.90828 -49.02617,-0.47872 -49.02617,-0.47872 -63.7208,46.29587 -14.69463,-46.77459 -14.69463,-46.77459 -63.72079,-46.29587 39.9444,-28.42957 39.9444,-28.42957 24.33918,-74.90829 z"
             style="display:inline;fill:#227000;fill-opacity:1;fill-rule:evenodd;stroke:none;stroke-width:1px;stroke-linecap:butt;stroke-linejoin:round;stroke-opacity:1" />
          <path
             sodipodi:nodetypes="cccccc"
             inkscape:connector-curvature="0"
             id="path24955-4-9-7-2-0"
             d="m 296,505.3622 c 34,23 34,23 68,0 -11.36772,39.44331 -11.36772,39.44331 21.01316,64.67184 -41.02564,1.37731 -41.02564,1.37731 -55.01315,39.9694 -13.98752,-38.59209 -13.98752,-38.59209 -55.01316,-39.9694 C 307.36771,544.80551 307.36771,544.80551 296,505.3622 Z"
             style="display:inline;fill:#00aa00;fill-rule:evenodd;stroke:none;stroke-width:1px;stroke-linecap:round;stroke-linejoin:miter;stroke-opacity:1" />
        </g>
        <g
           id="g3481">
          <circle
             r="32.247086"
             cy="552.37689"
             cx="329.99927"
             id="path13554"
             style="display:inline;opacity:1;fill:#000000;fill-opacity:1;stroke:none;stroke-width:0.40000001;stroke-linecap:round;stroke-linejoin:miter;stroke-miterlimit:4;stroke-dasharray:none;stroke-dashoffset:0;stroke-opacity:1" />
          <g
             style="fill:#ffcf14;fill-opacity:1"
             id="g4420">
            <circle
               style="display:inline;opacity:1;fill:#ffcf14;fill-opacity:1;stroke:none;stroke-width:1;stroke-linecap:round;stroke-linejoin:miter;stroke-miterlimit:4;stroke-dasharray:none;stroke-dashoffset:0;stroke-opacity:1"
               id="path13537-9-1-9-9-4"
               cx="121.16395"
               cy="604.78748"
               r="4.3499999"
               transform="matrix(0.93969262,-0.34202014,0.34202014,0.93969262,0,0)" />
            <circle
               style="display:inline;opacity:1;fill:#ffcf14;fill-opacity:1;stroke:none;stroke-width:1;stroke-linecap:round;stroke-linejoin:miter;stroke-miterlimit:4;stroke-dasharray:none;stroke-dashoffset:0;stroke-opacity:1"
               id="path13537"
               cx="329.98441"
               cy="525.23236"
               r="4.3499999" />
            <circle
               style="display:inline;opacity:1;fill:#ffcf14;fill-opacity:1;stroke:none;stroke-width:1;stroke-linecap:round;stroke-linejoin:miter;stroke-miterlimit:4;stroke-dasharray:none;stroke-dashoffset:0;stroke-opacity:1"
               id="path13537-4"
               cx="643.34412"
               cy="-36.737122"
               r="4.3499999"
               transform="matrix(0.5,0.8660254,-0.8660254,0.5,0,0)" />
            <circle
               style="display:inline;opacity:1;fill:#ffcf14;fill-opacity:1;stroke:none;stroke-width:1;stroke-linecap:round;stroke-linejoin:miter;stroke-miterlimit:4;stroke-dasharray:none;stroke-dashoffset:0;stroke-opacity:1"
               id="path13537-2-4"
               cx="643.34412"
               cy="-27.53174"
               r="4.3499999"
               transform="matrix(0.5,0.8660254,-0.8660254,0.5,0,0)" />
            <circle
               style="display:inline;opacity:1;fill:#ffcf14;fill-opacity:1;stroke:none;stroke-width:1;stroke-linecap:round;stroke-linejoin:miter;stroke-miterlimit:4;stroke-dasharray:none;stroke-dashoffset:0;stroke-opacity:1"
               id="path13537-4-35"
               cx="313.34412"
               cy="-589.0993"
               r="4.3499999"
               transform="matrix(-0.5,0.8660254,-0.8660254,-0.5,0,0)" />
            <circle
               style="display:inline;opacity:1;fill:#ffcf14;fill-opacity:1;stroke:none;stroke-width:1;stroke-linecap:round;stroke-linejoin:miter;stroke-miterlimit:4;stroke-dasharray:none;stroke-dashoffset:0;stroke-opacity:1"
               id="path13537-2-4-8"
               cx="313.34412"
               cy="-579.89392"
               r="4.3499999"
               transform="matrix(-0.5,0.8660254,-0.8660254,-0.5,0,0)" />
            <circle
               style="display:inline;opacity:1;fill:#ffcf14;fill-opacity:1;stroke:none;stroke-width:1;stroke-linecap:round;stroke-linejoin:miter;stroke-miterlimit:4;stroke-dasharray:none;stroke-dashoffset:0;stroke-opacity:1"
               id="path13537-9-1-9"
               cx="486.65106"
               cy="-448.03308"
               r="4.3499999"
               transform="matrix(-0.17364818,0.98480775,-0.98480775,-0.17364818,0,0)" />
            <circle
               style="display:inline;opacity:1;fill:#ffcf14;fill-opacity:1;stroke:none;stroke-width:1;stroke-linecap:round;stroke-linejoin:miter;stroke-miterlimit:4;stroke-dasharray:none;stroke-dashoffset:0;stroke-opacity:1"
               id="path13537-9-1-9-9"
               cx="-121.19518"
               cy="-659.04718"
               r="4.3499999"
               transform="matrix(-0.93969262,0.34202014,-0.34202014,-0.93969262,0,0)" />
            <circle
               style="display:inline;opacity:1;fill:#ffcf14;fill-opacity:1;stroke:none;stroke-width:1;stroke-linecap:round;stroke-linejoin:miter;stroke-miterlimit:4;stroke-dasharray:none;stroke-dashoffset:0;stroke-opacity:1"
               id="path13537-9-7-9"
               cx="601.25885"
               cy="-256.19971"
               r="4.3499999"
               transform="matrix(0.17364818,0.98480775,-0.98480775,0.17364818,0,0)" />
            <circle
               style="display:inline;opacity:1;fill:#ffcf14;fill-opacity:1;stroke:none;stroke-width:1;stroke-linecap:round;stroke-linejoin:miter;stroke-miterlimit:4;stroke-dasharray:none;stroke-dashoffset:0;stroke-opacity:1"
               id="path13537-9-7-9-6"
               cx="102.24131"
               cy="-662.38373"
               r="4.3499999"
               transform="matrix(-0.76604444,0.64278761,-0.64278761,-0.76604444,0,0)" />
            <circle
               style="display:inline;opacity:1;fill:#ffcf14;fill-opacity:1;stroke:none;stroke-width:1;stroke-linecap:round;stroke-linejoin:miter;stroke-miterlimit:4;stroke-dasharray:none;stroke-dashoffset:0;stroke-opacity:1"
               id="path13537-6-2-2"
               cx="348.31177"
               cy="552.37689"
               r="4.3499999" />
            <circle
               style="display:inline;opacity:1;fill:#ffcf14;fill-opacity:1;stroke:none;stroke-width:1;stroke-linecap:round;stroke-linejoin:miter;stroke-miterlimit:4;stroke-dasharray:none;stroke-dashoffset:0;stroke-opacity:1"
               id="path13537-9"
               cx="499.00195"
               cy="379.0542"
               r="4.3499999"
               transform="matrix(0.93969262,0.34202014,-0.34202014,0.93969262,0,0)" />
            <circle
               style="display:inline;opacity:1;fill:#ffcf14;fill-opacity:1;stroke:none;stroke-width:1;stroke-linecap:round;stroke-linejoin:miter;stroke-miterlimit:4;stroke-dasharray:none;stroke-dashoffset:0;stroke-opacity:1"
               id="path13537-9-1"
               cx="607.83063"
               cy="183.88425"
               r="4.3499999"
               transform="matrix(0.76604444,0.64278761,-0.64278761,0.76604444,0,0)" />
            <circle
               style="display:inline;opacity:1;fill:#ffcf14;fill-opacity:1;stroke:none;stroke-width:1;stroke-linecap:round;stroke-linejoin:miter;stroke-miterlimit:4;stroke-dasharray:none;stroke-dashoffset:0;stroke-opacity:1"
               id="path13537-2"
               cx="329.98441"
               cy="534.43774"
               r="4.3499999" />
            <circle
               style="display:inline;opacity:1;fill:#ffcf14;fill-opacity:1;stroke:none;stroke-width:1;stroke-linecap:round;stroke-linejoin:miter;stroke-miterlimit:4;stroke-dasharray:none;stroke-dashoffset:0;stroke-opacity:1"
               id="path13537-4-3-2-6"
               cx="-313.37531"
               cy="534.83966"
               r="4.3499999"
               transform="matrix(0.5,-0.8660254,0.8660254,0.5,0,0)" />
            <circle
               style="display:inline;opacity:1;fill:#ffcf14;fill-opacity:1;stroke:none;stroke-width:1;stroke-linecap:round;stroke-linejoin:miter;stroke-miterlimit:4;stroke-dasharray:none;stroke-dashoffset:0;stroke-opacity:1"
               id="path13537-2-4-0-9-9"
               cx="-313.37531"
               cy="544.04504"
               r="4.3499999"
               transform="matrix(0.5,-0.8660254,0.8660254,0.5,0,0)" />
            <circle
               style="display:inline;opacity:1;fill:#ffcf14;fill-opacity:1;stroke:none;stroke-width:1;stroke-linecap:round;stroke-linejoin:miter;stroke-miterlimit:4;stroke-dasharray:none;stroke-dashoffset:0;stroke-opacity:1"
               id="path13537-2-2-6-0"
               cx="607.83063"
               cy="201.91446"
               r="4.3499999"
               transform="matrix(0.76604444,0.64278761,-0.64278761,0.76604444,0,0)" />
            <circle
               style="display:inline;opacity:1;fill:#ffcf14;fill-opacity:1;stroke:none;stroke-width:1;stroke-linecap:round;stroke-linejoin:miter;stroke-miterlimit:4;stroke-dasharray:none;stroke-dashoffset:0;stroke-opacity:1"
               id="path13537-2-2-6-0-4-6-0-2"
               cx="-486.68228"
               cy="411.80362"
               r="4.3499999"
               transform="matrix(0.17364818,-0.98480775,0.98480775,0.17364818,0,0)" />
            <circle
               style="display:inline;opacity:1;fill:#ffcf14;fill-opacity:1;stroke:none;stroke-width:1;stroke-linecap:round;stroke-linejoin:miter;stroke-miterlimit:4;stroke-dasharray:none;stroke-dashoffset:0;stroke-opacity:1"
               id="path13537-2-2-6-0-4-6-02"
               cx="121.16397"
               cy="622.81769"
               r="4.3499999"
               transform="matrix(0.93969262,-0.34202014,0.34202014,0.93969262,0,0)" />
            <circle
               style="display:inline;opacity:1;fill:#ffcf14;fill-opacity:1;stroke:none;stroke-width:1;stroke-linecap:round;stroke-linejoin:miter;stroke-miterlimit:4;stroke-dasharray:none;stroke-dashoffset:0;stroke-opacity:1"
               id="path13537-9-7"
               cx="-102.27252"
               cy="608.12408"
               r="4.3499999"
               transform="matrix(0.76604444,-0.64278761,0.64278761,0.76604444,0,0)" />
            <circle
               style="display:inline;opacity:1;fill:#ffcf14;fill-opacity:1;stroke:none;stroke-width:1;stroke-linecap:round;stroke-linejoin:miter;stroke-miterlimit:4;stroke-dasharray:none;stroke-dashoffset:0;stroke-opacity:1"
               id="path13537-6-2-2-3-3-9-9"
               cx="-625.04797"
               cy="9.6219654"
               r="4.3499999"
               transform="matrix(-0.5,-0.8660254,0.8660254,-0.5,0,0)" />
            <circle
               style="display:inline;opacity:1;fill:#ffcf14;fill-opacity:1;stroke:none;stroke-width:1;stroke-linecap:round;stroke-linejoin:miter;stroke-miterlimit:4;stroke-dasharray:none;stroke-dashoffset:0;stroke-opacity:1"
               id="path13537-6-2-2-3-3-9-9-7"
               cx="-295.04794"
               cy="561.98419"
               r="4.3499999"
               transform="matrix(0.5,-0.8660254,0.8660254,0.5,0,0)" />
            <circle
               style="display:inline;opacity:1;fill:#ffcf14;fill-opacity:1;stroke:none;stroke-width:1;stroke-linecap:round;stroke-linejoin:miter;stroke-miterlimit:4;stroke-dasharray:none;stroke-dashoffset:0;stroke-opacity:1"
               id="path13537-6"
               cx="329.99927"
               cy="552.37689"
               r="4.3499999" />
            <circle
               style="display:inline;opacity:1;fill:#ffcf14;fill-opacity:1;stroke:none;stroke-width:1;stroke-linecap:round;stroke-linejoin:miter;stroke-miterlimit:4;stroke-dasharray:none;stroke-dashoffset:0;stroke-opacity:1"
               id="path13537-4-3"
               cx="-330.01559"
               cy="-579.49207"
               r="4.3499999"
               transform="scale(-1,-1)" />
            <circle
               style="display:inline;opacity:1;fill:#ffcf14;fill-opacity:1;stroke:none;stroke-width:1;stroke-linecap:round;stroke-linejoin:miter;stroke-miterlimit:4;stroke-dasharray:none;stroke-dashoffset:0;stroke-opacity:1"
               id="path13537-2-4-0"
               cx="-330.01559"
               cy="-570.28668"
               r="4.3499999"
               transform="scale(-1,-1)" />
            <circle
               style="display:inline;opacity:1;fill:#ffcf14;fill-opacity:1;stroke:none;stroke-width:1;stroke-linecap:round;stroke-linejoin:miter;stroke-miterlimit:4;stroke-dasharray:none;stroke-dashoffset:0;stroke-opacity:1"
               id="path13537-4-3-2"
               cx="-643.37531"
               cy="-17.522566"
               r="4.3499999"
               transform="matrix(-0.5,-0.8660254,0.8660254,-0.5,0,0)" />
            <circle
               style="display:inline;opacity:1;fill:#ffcf14;fill-opacity:1;stroke:none;stroke-width:1;stroke-linecap:round;stroke-linejoin:miter;stroke-miterlimit:4;stroke-dasharray:none;stroke-dashoffset:0;stroke-opacity:1"
               id="path13537-2-4-0-9"
               cx="-643.37531"
               cy="-8.3171825"
               r="4.3499999"
               transform="matrix(-0.5,-0.8660254,0.8660254,-0.5,0,0)" />
            <circle
               style="display:inline;opacity:1;fill:#ffcf14;fill-opacity:1;stroke:none;stroke-width:1;stroke-linecap:round;stroke-linejoin:miter;stroke-miterlimit:4;stroke-dasharray:none;stroke-dashoffset:0;stroke-opacity:1"
               id="path13537-2-2-6-0-4"
               cx="486.65109"
               cy="-430.00287"
               r="4.3499999"
               transform="matrix(-0.17364818,0.98480775,-0.98480775,-0.17364818,0,0)" />
            <circle
               style="display:inline;opacity:1;fill:#ffcf14;fill-opacity:1;stroke:none;stroke-width:1;stroke-linecap:round;stroke-linejoin:miter;stroke-miterlimit:4;stroke-dasharray:none;stroke-dashoffset:0;stroke-opacity:1"
               id="path13537-2-2-6-0-4-6"
               cx="-121.19516"
               cy="-641.01697"
               r="4.3499999"
               transform="matrix(-0.93969262,0.34202014,-0.34202014,-0.93969262,0,0)" />
            <circle
               style="display:inline;opacity:1;fill:#ffcf14;fill-opacity:1;stroke:none;stroke-width:1;stroke-linecap:round;stroke-linejoin:miter;stroke-miterlimit:4;stroke-dasharray:none;stroke-dashoffset:0;stroke-opacity:1"
               id="path13537-9-1-9-9-7"
               cx="-607.86188"
               cy="-238.14392"
               r="4.3499999"
               transform="matrix(-0.76604444,-0.64278761,0.64278761,-0.76604444,0,0)" />
            <circle
               style="display:inline;opacity:1;fill:#ffcf14;fill-opacity:1;stroke:none;stroke-width:1;stroke-linecap:round;stroke-linejoin:miter;stroke-miterlimit:4;stroke-dasharray:none;stroke-dashoffset:0;stroke-opacity:1"
               id="path13537-2-2-6-0-4-6-0"
               cx="-607.86182"
               cy="-220.11371"
               r="4.3499999"
               transform="matrix(-0.76604444,-0.64278761,0.64278761,-0.76604444,0,0)" />
            <circle
               style="display:inline;opacity:1;fill:#ffcf14;fill-opacity:1;stroke:none;stroke-width:1;stroke-linecap:round;stroke-linejoin:miter;stroke-miterlimit:4;stroke-dasharray:none;stroke-dashoffset:0;stroke-opacity:1"
               id="path13537-9-1-9-9-7-2"
               cx="-486.68231"
               cy="393.77341"
               r="4.3499999"
               transform="matrix(0.17364818,-0.98480775,0.98480775,0.17364818,0,0)" />
            <circle
               style="display:inline;opacity:1;fill:#ffcf14;fill-opacity:1;stroke:none;stroke-width:1;stroke-linecap:round;stroke-linejoin:miter;stroke-miterlimit:4;stroke-dasharray:none;stroke-dashoffset:0;stroke-opacity:1"
               id="path13537-9-7-9-6-4"
               cx="-499.03317"
               cy="-433.31387"
               r="4.3499999"
               transform="matrix(-0.93969262,-0.34202014,0.34202014,-0.93969262,0,0)" />
            <circle
               style="display:inline;opacity:1;fill:#ffcf14;fill-opacity:1;stroke:none;stroke-width:1;stroke-linecap:round;stroke-linejoin:miter;stroke-miterlimit:4;stroke-dasharray:none;stroke-dashoffset:0;stroke-opacity:1"
               id="path13537-9-7-9-6-4-1"
               cx="-601.2901"
               cy="201.94002"
               r="4.3499999"
               transform="matrix(-0.17364818,-0.98480775,0.98480775,-0.17364818,0,0)" />
            <circle
               style="display:inline;opacity:1;fill:#ffcf14;fill-opacity:1;stroke:none;stroke-width:1;stroke-linecap:round;stroke-linejoin:miter;stroke-miterlimit:4;stroke-dasharray:none;stroke-dashoffset:0;stroke-opacity:1"
               id="path13537-6-2-2-3"
               cx="661.67145"
               cy="-9.5925913"
               r="4.3499999"
               transform="matrix(0.5,0.8660254,-0.8660254,0.5,0,0)" />
            <circle
               style="display:inline;opacity:1;fill:#ffcf14;fill-opacity:1;stroke:none;stroke-width:1;stroke-linecap:round;stroke-linejoin:miter;stroke-miterlimit:4;stroke-dasharray:none;stroke-dashoffset:0;stroke-opacity:1"
               id="path13537-6-2-2-3-3"
               cx="331.67148"
               cy="-561.95477"
               r="4.3499999"
               transform="matrix(-0.5,0.8660254,-0.8660254,-0.5,0,0)" />
            <circle
               style="display:inline;opacity:1;fill:#ffcf14;fill-opacity:1;stroke:none;stroke-width:1;stroke-linecap:round;stroke-linejoin:miter;stroke-miterlimit:4;stroke-dasharray:none;stroke-dashoffset:0;stroke-opacity:1"
               id="path13537-6-2-2-3-3-9"
               cx="-311.68823"
               cy="-552.34753"
               r="4.3499999"
               transform="scale(-1,-1)" />
          </g>
        </g>
      </g>
    </g>
  </g>
</svg>
