<?xml version="1.0" encoding="UTF-8"?>
<svg xmlns="http://www.w3.org/2000/svg" width="720" height="540">
	<rect width="720" height="540" fill="#019e58"/>
	<path d="M 360,0 V 540 H 0 V 270 H 720 V 0 z" fill="#0160a9"/>
	<path d="M 360,0 V 540 M 0,270 H 720" stroke="#ffe315" stroke-width="120"/>
	<path d="M 360,0 V 540 M 0,270 H 720" stroke="#e13940" stroke-width="80"/>
	<g transform="scale(2.5)" fill="#ffe315">
		<path d="M 144,93.1 C 142.9,94 141.9,94.9 141.1,95.8 C 138.9,98.4 138.1,101.2 139.4,103.5 C 141.8,108.3 142.7,109.6 142.8,113.4 L 145.2,113.4 C 145.2,109.6 146.2,108.3 148.6,103.5 C 149.9,101.2 149.1,98.4 146.9,95.8 C 146.1,94.9 145.1,94 144,93.1"/>
		<path d="M 133.5,105.3 C 132.4,105.4 131.3,105.8 130.2,106.6 C 128.1,108.2 127.5,112.5 133.8,113.4 C 133.2,112.7 133.2,111.3 134.3,110.7 C 134.3,110.6 134.4,110.6 134.5,110.6 C 135.5,110.2 136.6,110.3 137.1,110.6 C 137.2,110.6 137.2,110.6 137.3,110.7 C 138.1,111 138.9,112.2 138.9,113.4 L 141,113.4 C 140.9,109.2 138.7,106.4 135.4,105.5 C 134.8,105.4 134.1,105.3 133.5,105.3"/>
		<path d="M 136.6,120.4 C 136.1,120.4 135.5,120.2 135,119.8 C 133.9,119 133.6,116.8 136.8,116.4 C 136.5,116.8 136.5,117.5 137,117.8 C 137.5,118 138.7,117.9 139.1,117.8 C 139.5,117.6 139.9,116.6 139.9,116 L 141,116 C 140.9,118.1 139.8,119.9 138.1,120.3 C 137.9,120.4 137,120.5 136.6,120.4"/>
		<path d="M 153.6,105.3 C 153.3,105.4 153,105.4 152.7,105.5 C 149.4,106.4 147.1,109.2 147,113.4 L 149.1,113.4 C 149.1,112.2 149.9,111 150.8,110.7 C 150.8,110.6 150.9,110.6 151,110.6 C 151.6,110.3 152.6,110.2 153.5,110.6 C 154.8,111.1 154.9,112.7 154.2,113.4 C 160.6,112.5 159.9,108.2 157.8,106.6 C 156.4,105.6 154.9,105.2 153.6,105.3"/>
		<path d="M 142.2,115.9 C 142.1,117.1 140.7,120.2 142.1,120.1 C 142.4,121.2 142.7,121.8 144,122.9 C 145.3,121.8 145.6,121.2 145.9,120.1 C 147.3,120.2 145.9,117.1 145.8,115.9 L 142.2,115.9"/>
		<path d="M 151.4,120.4 C 151.9,120.4 152.5,120.2 153,119.8 C 154.1,119 154.4,116.8 151.2,116.4 C 151.5,116.8 151.5,117.5 151,117.8 C 150.5,118 149.3,117.9 148.9,117.8 C 148.5,117.6 148.1,116.6 148.1,116 L 147,116 C 147.1,118.1 148.2,119.9 149.9,120.3 C 150.1,120.4 151.1,120.5 151.4,120.4"/>
		<rect x="135.75" y="113.25" width="16.5" height="2.5" rx=".75" stroke="#e13940" stroke-width=".5"/>
	</g>
</svg>