<?xml version="1.0" encoding="utf-8"?>
<!-- Generator: Adobe Illustrator 13.0.0, SVG Export Plug-In . SVG Version: 6.00 Build 14948)  -->
<!DOCTYPE svg PUBLIC "-//W3C//DTD SVG 1.1//EN" "http://www.w3.org/Graphics/SVG/1.1/DTD/svg11.dtd">
<svg version="1.1" id="Layer_1" xmlns="http://www.w3.org/2000/svg" xmlns:xlink="http://www.w3.org/1999/xlink" x="0px" y="0px"
	 width="500px" height="300px" viewBox="0 0 500 300" enable-background="new 0 0 500 300" xml:space="preserve">
<rect x="0" y="-4" fill="#FFFFFF" width="500" height="300"/>
<rect x="0" y="120" fill="#CF142B" width="500" height="60"/>
<rect x="220" fill="#CF142B" width="60" height="300"/>
<g id="Fleur_de_Lys" transform="scale(2.5)">
	<path fill="#FFE315" d="M100.027,40.716c-1.304,1.067-2.489,2.134-3.438,3.2c-2.608,3.082-3.556,6.401-2.015,9.127
		c2.845,5.69,3.912,7.231,4.03,11.735h2.845c0-4.504,1.185-6.045,4.03-11.735c1.541-2.726,0.593-6.045-2.015-9.127
		C102.517,42.85,101.331,41.783,100.027,40.716"/>
	<path fill="#FFE315" d="M87.581,55.177c-1.304,0.119-2.608,0.592-3.912,1.541c-2.489,1.896-3.2,6.993,4.267,8.06
		c-0.711-0.83-0.711-2.489,0.593-3.2c0-0.119,0.119-0.119,0.237-0.119c1.185-0.473,2.489-0.355,3.082,0c0.119,0,0.119,0,0.237,0.119
		c0.948,0.355,1.896,1.778,1.896,3.2h2.489c-0.118-4.978-2.726-8.297-6.638-9.364C89.122,55.296,88.292,55.177,87.581,55.177"/>
	<path fill="#FFE315" d="M91.256,73.076c-0.593,0-1.304-0.237-1.896-0.712c-1.304-0.948-1.66-3.556,2.134-4.03
		c-0.356,0.474-0.356,1.304,0.237,1.66c0.593,0.237,2.015,0.118,2.489,0c0.474-0.237,0.948-1.423,0.948-2.134h1.304
		c-0.118,2.489-1.422,4.623-3.438,5.096C92.797,73.076,91.73,73.194,91.256,73.076"/>
	<path fill="#FFE315" d="M111.406,55.177c-0.356,0.119-0.711,0.119-1.067,0.237c-3.912,1.067-6.638,4.387-6.757,9.364h2.489
		c0-1.422,0.948-2.845,2.015-3.2c0-0.119,0.118-0.119,0.237-0.119c0.711-0.355,1.897-0.473,2.963,0
		c1.541,0.593,1.659,2.489,0.83,3.319c7.586-1.067,6.757-6.164,4.267-8.06C114.725,55.533,112.947,55.058,111.406,55.177"/>
	<path fill="#FFE315" d="M97.893,67.741c-0.119,1.422-1.778,5.097-0.119,4.978c0.356,1.304,0.711,2.015,2.252,3.319
		c1.541-1.304,1.897-2.015,2.252-3.319c1.66,0.119,0-3.556-0.119-4.978H97.893"/>
	<path fill="#FFE315" d="M108.799,73.076c0.593,0,1.304-0.237,1.896-0.712c1.304-0.948,1.659-3.556-2.133-4.03
		c0.355,0.474,0.355,1.304-0.238,1.66c-0.593,0.237-2.015,0.118-2.489,0c-0.473-0.237-0.948-1.423-0.948-2.134h-1.304
		c0.119,2.489,1.422,4.623,3.438,5.096C107.258,73.076,108.443,73.194,108.799,73.076"/>
	<path fill="#FFE315" stroke="#E13940" stroke-width="0.5" d="M91.137,64.6h17.78c0.491,0,0.889,0.398,0.889,0.889v1.185
		c0,0.492-0.398,0.889-0.889,0.889h-17.78c-0.491,0-0.889-0.398-0.889-0.889v-1.185C90.248,64.999,90.646,64.6,91.137,64.6z"/>
</g>
</svg>
