<?xml version="1.0" encoding="utf-8"?>
<!-- Generator: Adobe Illustrator 15.0.0, SVG Export Plug-In . SVG Version: 6.00 Build 0)  -->
<!DOCTYPE svg PUBLIC "-//W3C//DTD SVG 1.1//EN" "http://www.w3.org/Graphics/SVG/1.1/DTD/svg11.dtd">
<svg version="1.1" id="_x38_00_X_500_px" xmlns="http://www.w3.org/2000/svg" xmlns:xlink="http://www.w3.org/1999/xlink" x="0px"
	 y="0px" width="800px" height="500px" viewBox="0 0 800 500" enable-background="new 0 0 800 500" xml:space="preserve">
<rect fill="#223C86" width="800" height="500"/>
<path fill="none" stroke="#000000" stroke-width="1.9919" stroke-miterlimit="10" d="M668.612,177.464"/>
<g>
	<g>
		<path fill="#FDD902" d="M721.808,95.092l32.101-49.656c-7.026-4.927-14.698-9.121-22.826-12.579c0,0-8.71,20.158-8.71,20.159
			c-6.094-2.575-12.481-4.674-19.054-6.297l5.629-21.226c-9.66-2.4-19.667-3.911-29.765-4.531l-1.479,21.881
			c-6.05-0.369-12.137-0.369-18.186,0l-1.479-21.881c-10.097,0.62-20.104,2.13-29.764,4.531l5.634,21.226
			c-6.966,1.721-13.725,3.976-20.146,6.765l-8.884-20.081c-7.66,3.352-14.903,7.363-21.563,12.035l32.079,49.656h0.402l-0.702,1.397
			c14.744,7.408,34.108,11.112,53.475,11.112s38.73-3.704,53.474-11.112l-0.702-1.397H721.808z"/>
	</g>
	<g>
		<path fill="none" d="M733.941,74.544c-7.611-5.206-16.184-9.323-25.321-12.343l-3.375,9.955c8.29,2.753,16.068,6.496,22.987,11.22
			L733.941,74.544z"/>
		<path fill="none" d="M602.208,72.944c13.028-8.906,28.828-14.66,45.451-17.27l-1.695-10.342
			c-18.084,2.822-35.281,9.066-49.48,18.737L602.208,72.944z"/>
		<path fill="none" d="M631.885,72.131l-3.356-9.903c-9.12,3.021-17.677,7.135-25.274,12.336l5.65,8.759
			C615.825,78.611,623.6,74.876,631.885,72.131z"/>
		<path fill="none" d="M702.613,45.614l5.149-19.418c-8.938-2.162-18.24-3.576-27.682-4.21l-1.354,20.021
			C686.822,42.55,694.84,43.76,702.613,45.614z"/>
		<path fill="none" d="M691.178,45.319l-1.697,10.342c16.643,2.603,32.462,8.354,45.508,17.264l5.733-8.868
			C726.504,54.377,709.285,48.134,691.178,45.319z"/>
		<path fill="none" d="M667.647,55.95c-12.737,0.091-25.446,1.99-37.279,5.691l3.358,9.907c10.774-3.353,22.334-5.074,33.921-5.157
			V55.95z"/>
		<path fill="none" d="M706.781,61.618c-11.813-3.686-24.494-5.577-37.204-5.668v10.444c11.558,0.098,23.086,1.825,33.829,5.176
			L706.781,61.618z"/>
		<path fill="none" d="M649.567,55.383c12.53-1.78,25.475-1.785,38.007-0.013l1.696-10.343c-13.651-1.935-27.75-1.93-41.399,0.013
			L649.567,55.383z"/>
		<path fill="none" d="M687.171,69.749l-1.684,10.265c13.471,2.143,25.883,6.829,36.033,13.742l5.663-8.76
			C715.707,77.147,701.802,72.066,687.171,69.749z"/>
		<path fill="none" d="M658.496,42.007l-1.353-20.021c-9.44,0.634-18.743,2.048-27.682,4.21l5.153,19.418
			C642.384,43.76,650.402,42.551,658.496,42.007z"/>
		<path fill="none" d="M723.626,52.546c6.428,2.768,12.515,6.064,18.143,9.89l10.822-16.74c-6.394-4.406-13.452-8.294-21.006-11.572
			C730.143,37.463,725.04,49.277,723.626,52.546z"/>
		<path fill="none" d="M685.265,69.457c-11.012-1.558-22.379-1.563-33.393-0.012l1.687,10.277c4.895-0.686,9.918-1.043,15.019-1.043
			c5.096,0,10.113,0.355,15.004,1.041L685.265,69.457z"/>
		<path fill="none" d="M612.505,53.024l-8.117-18.35c-7.081,3.159-13.719,6.863-19.756,11.022l10.806,16.751
			C600.75,58.834,606.474,55.694,612.505,53.024z"/>
		<path fill="none" d="M649.966,69.736c-14.628,2.307-28.533,7.375-40.017,15.208l5.684,8.811
			c10.147-6.91,22.554-11.596,36.02-13.739L649.966,69.736z"/>
		<path fill="#DA7B19" d="M754.461,44.646c-6.949-4.875-14.689-9.139-23.001-12.677l-0.884-0.375l-0.38,0.881
			c-5.467,12.652-7.533,17.435-8.313,19.291c-5.52-2.281-11.358-4.211-17.382-5.746l5.63-21.228l-0.951-0.236
			c-9.645-2.396-19.718-3.93-29.938-4.558l-0.957-0.059l-1.48,21.884c-5.438-0.297-10.948-0.297-16.388,0l-1.479-21.884
			l-0.957,0.059c-10.223,0.628-20.295,2.162-29.938,4.558l-0.951,0.236l5.634,21.228c-6.42,1.636-12.624,3.718-18.466,6.2
			l-8.887-20.087l-0.88,0.385c-7.829,3.425-15.141,7.506-21.731,12.128l-0.76,0.533l33.094,51.301l0.82-0.576
			c14.065-9.864,32.767-15.296,52.661-15.296c19.892,0,38.595,5.433,52.659,15.296l0.819,0.575l33.167-51.3L754.461,44.646z
			 M669.577,66.394V55.95c12.71,0.091,25.392,1.982,37.204,5.668l-3.375,9.953C692.663,68.219,681.134,66.492,669.577,66.394z
			 M633.726,71.547l-3.358-9.907c11.833-3.701,24.542-5.6,37.279-5.691v10.441C656.06,66.474,644.5,68.195,633.726,71.547z
			 M645.964,45.332l1.695,10.342c-16.623,2.61-32.423,8.363-45.451,17.27l-5.725-8.875C610.683,54.398,627.88,48.154,645.964,45.332
			z M689.27,45.027l-1.696,10.343c-12.532-1.772-25.477-1.767-38.007,0.013l-1.696-10.342
			C661.52,43.098,675.619,43.093,689.27,45.027z M628.529,62.228l3.356,9.903c-8.285,2.746-16.061,6.48-22.98,11.193l-5.65-8.759
			C610.852,69.363,619.409,65.25,628.529,62.228z M708.62,62.202c9.138,3.02,17.71,7.137,25.321,12.343l-5.709,8.832
			c-6.919-4.724-14.697-8.466-22.987-11.22L708.62,62.202z M689.481,55.661l1.697-10.342c18.106,2.815,35.326,9.058,49.544,18.737
			l-5.733,8.868C721.943,64.015,706.124,58.264,689.481,55.661z M680.081,21.985c9.441,0.634,18.743,2.048,27.682,4.21
			l-5.149,19.418c-7.772-1.854-15.791-3.063-23.886-3.607L680.081,21.985z M629.461,26.195c8.938-2.162,18.241-3.576,27.682-4.21
			l1.353,20.021c-8.094,0.544-16.111,1.753-23.881,3.606L629.461,26.195z M604.388,34.674l8.117,18.35
			c-6.031,2.67-11.755,5.81-17.067,9.424l-10.806-16.751C590.669,41.537,597.307,37.833,604.388,34.674z M615.633,93.755
			l-5.684-8.811c11.483-7.833,25.389-12.901,40.017-15.208l1.687,10.28C638.187,82.16,625.781,86.846,615.633,93.755z
			 M653.559,79.722l-1.687-10.277c11.014-1.55,22.381-1.545,33.393,0.012l-1.684,10.263c-4.891-0.685-9.908-1.041-15.004-1.041
			C663.477,78.679,658.454,79.036,653.559,79.722z M721.521,93.756c-10.15-6.913-22.563-11.599-36.033-13.742l1.684-10.265
			c14.631,2.317,28.535,7.398,40.013,15.247L721.521,93.756z M741.769,62.436c-5.628-3.826-11.715-7.122-18.143-9.89
			c1.413-3.269,6.517-15.083,7.959-18.422c7.554,3.278,14.612,7.166,21.006,11.572L741.769,62.436z"/>
	</g>
	<path d="M617.44,95.865c29.225,13.566,73.12,13.566,102.345,0C690.654,76.649,646.755,76.529,617.44,95.865z"/>
	<ellipse fill="#FDD902" cx="668.612" cy="95.589" rx="32.378" ry="11.093"/>
</g>
<g>
	<g>
		<path fill="#FDD902" d="M614.017,97.375l-59.054-2.972c-0.754,8.548-0.549,17.289,0.52,26.058c0,0,21.813-2.537,21.813-2.537
			c0.816,6.565,2.192,13.147,4.073,19.65l-21.197,5.738c2.751,9.566,6.446,18.988,10.958,28.042l19.689-9.659
			c2.705,5.423,5.748,10.695,9.092,15.749l-18.21,12.22c5.585,8.434,11.896,16.345,18.806,23.511l15.565-15.491
			c4.973,5.172,10.305,9.898,15.932,14.065l-12.949,17.733c6.732,4.958,13.829,9.226,21.204,12.658l26.964-52.61l1.36-0.439
			c-0.957-16.473-7.432-35.095-17.114-51.866c-9.683-16.771-22.573-31.69-36.36-40.753L614.017,97.375z"/>
	</g>
	<g>
		<path fill="none" d="M590.156,97.141c-0.703,9.195,0.019,18.676,1.972,28.101l10.309-2.055
			c-1.761-8.556-2.409-17.164-1.776-25.517L590.156,97.141z"/>
		<path fill="none" d="M654.636,212.025c-14.228-6.83-27.11-17.637-37.682-30.728l-8.109,6.64
			c11.486,14.25,25.492,26.021,40.967,33.483L654.636,212.025z"/>
		<path fill="none" d="M639.093,186.73l-6.898,7.858c7.178,6.388,15.019,11.741,23.321,15.72l4.761-9.273
			C652.736,197.399,645.614,192.532,639.093,186.73z"/>
		<path fill="none" d="M580.765,138.737l-19.392,5.25c2.598,8.821,6.023,17.585,10.195,26.078l18.015-8.838
			C586.008,153.944,583.046,146.395,580.765,138.737z"/>
		<path fill="none" d="M586.228,148.787l9.805-3.701c-6.067-15.714-8.997-32.291-7.803-48.042l-10.547-0.531
			C576.41,113.665,579.612,131.699,586.228,148.787z"/>
		<path fill="none" d="M607.2,163.85c6.447,10.986,14.445,21.042,23.568,29.439l6.899-7.861
			c-8.29-7.655-15.561-16.805-21.426-26.799L607.2,163.85z"/>
		<path fill="none" d="M592.541,127.126c2.714,12.072,7.418,24,13.694,35.053l9.045-5.222c-5.693-10.058-9.963-20.905-12.432-31.885
			L592.541,127.126z"/>
		<path fill="none" d="M615.749,179.792c-7.807-9.962-14.283-21.17-19.015-32.909l-9.805,3.703
			c5.149,12.79,12.203,24.997,20.71,35.846L615.749,179.792z"/>
		<path fill="none" d="M609.387,140.042l9.732-3.675c-4.88-12.736-7.027-25.829-6.116-38.076l-10.418-0.525
			C601.528,111.631,604.08,126.212,609.387,140.042z"/>
		<path fill="none" d="M599.701,178.747l-16.663,11.182c5.269,7.86,11.146,15.208,17.486,21.868l14.239-14.172
			C609.274,191.823,604.218,185.484,599.701,178.747z"/>
		<path fill="none" d="M576.262,117.072c-0.817-6.95-1.006-13.87-0.507-20.657l-19.908-1.001c-0.619,7.74-0.457,15.797,0.481,23.978
			C559.941,118.971,572.725,117.483,576.262,117.072z"/>
		<path fill="none" d="M610.088,141.839c4.156,10.315,9.836,20.162,16.686,28.925l8.057-6.6c-3.041-3.895-5.861-8.067-8.412-12.484
			c-2.548-4.413-4.748-8.936-6.601-13.514L610.088,141.839z"/>
		<path fill="none" d="M632.237,213.067l-11.833,16.206c6.275,4.553,12.802,8.449,19.423,11.597l9.104-17.733
			C643.145,220.342,637.565,216.955,632.237,213.067z"/>
		<path fill="none" d="M627.98,172.269c9.312,11.514,20.653,21.023,33.179,27.051l4.788-9.328
			c-11.059-5.333-21.319-13.734-29.907-24.324L627.98,172.269z"/>
		<path fill="#DA7B19" d="M554.002,94.318c-0.746,8.456-0.569,17.291,0.523,26.258l0.116,0.953l0.952-0.111
			c13.691-1.592,18.866-2.194,20.864-2.445c0.783,5.92,2.032,11.942,3.715,17.925l-21.199,5.739l0.271,0.941
			c2.747,9.551,6.455,19.042,11.021,28.207l0.428,0.858l19.692-9.66c2.462,4.858,5.217,9.63,8.194,14.192l-18.214,12.223l0.53,0.799
			c5.654,8.539,12.02,16.495,18.916,23.648l0.68,0.706l15.566-15.493c4.628,4.743,9.533,9.074,14.603,12.893l-12.952,17.739
			l0.773,0.57c6.881,5.067,14.07,9.359,21.369,12.756l0.842,0.391l27.881-54.311l-0.909-0.422
			c-15.574-7.249-29.63-20.729-39.577-37.958c-9.946-17.227-14.593-36.141-13.082-53.252l0.088-0.998l-61.01-3.073L554.002,94.318z
			 M615.28,156.957l-9.045,5.222c-6.276-11.053-10.98-22.981-13.694-35.053l10.308-2.054
			C605.317,136.052,609.586,146.899,615.28,156.957z M637.667,185.428l-6.899,7.861c-9.123-8.397-17.121-18.454-23.568-29.439
			l9.042-5.221C622.107,168.623,629.377,177.773,637.667,185.428z M608.845,187.937l8.109-6.64
			c10.571,13.091,23.454,23.897,37.682,30.728l-4.824,9.395C634.337,213.958,620.332,202.187,608.845,187.937z M586.929,150.585
			l9.805-3.703c4.731,11.739,11.208,22.947,19.015,32.909l-8.109,6.64C599.132,175.582,592.079,163.375,586.929,150.585z
			 M632.195,194.588l6.898-7.858c6.521,5.802,13.643,10.669,21.184,14.305l-4.761,9.273
			C647.213,206.329,639.373,200.976,632.195,194.588z M592.127,125.241c-1.953-9.424-2.675-18.906-1.972-28.101l10.504,0.528
			c-0.633,8.354,0.016,16.961,1.776,25.517L592.127,125.241z M596.033,145.086l-9.805,3.701
			c-6.616-17.087-9.818-35.122-8.545-52.274l10.547,0.531C587.036,112.795,589.965,129.372,596.033,145.086z M571.569,170.065
			c-4.172-8.493-7.598-17.257-10.195-26.078l19.392-5.25c2.281,7.658,5.243,15.207,8.818,22.49L571.569,170.065z M600.524,211.797
			c-6.341-6.66-12.218-14.008-17.486-21.868l16.663-11.182c4.518,6.737,9.573,13.076,15.063,18.878L600.524,211.797z
			 M620.404,229.272l11.833-16.206c5.328,3.888,10.908,7.275,16.694,10.069l-9.104,17.733
			C633.206,237.722,626.679,233.825,620.404,229.272z M665.947,189.993l-4.788,9.328c-12.525-6.028-23.867-15.537-33.179-27.051
			l8.06-6.601C644.627,176.258,654.888,184.659,665.947,189.993z M634.831,164.164l-8.057,6.6
			c-6.85-8.763-12.529-18.61-16.686-28.925l9.729-3.673c1.853,4.578,4.053,9.101,6.601,13.514
			C628.969,156.097,631.79,160.269,634.831,164.164z M613.003,98.291c-0.911,12.247,1.236,25.339,6.116,38.076l-9.732,3.675
			c-5.308-13.829-7.859-28.411-6.802-42.275L613.003,98.291z M575.755,96.415c-0.499,6.787-0.311,13.707,0.507,20.657
			c-3.537,0.412-16.321,1.899-19.934,2.319c-0.938-8.181-1.101-16.238-0.481-23.978L575.755,96.415z"/>
	</g>
	<path d="M666.871,187.374c-2.864-32.092-24.813-70.107-51.173-88.634C613.623,133.576,635.467,171.653,666.871,187.374z"/>
	
		<ellipse transform="matrix(-0.5 -0.866 0.866 -0.5 837.5591 769.9541)" fill="#FDD902" cx="641.046" cy="143.195" rx="32.378" ry="11.093"/>
</g>
<g>
	<g>
		<path fill="#FDD902" d="M669.904,189.589l26.953,52.628c7.779-3.621,15.247-8.169,22.307-13.479c0,0-13.104-17.622-13.104-17.622
			c5.277-3.99,10.288-8.473,14.981-13.353l15.567,15.488c6.909-7.166,13.221-15.077,18.806-23.511l-18.209-12.222
			c3.344-5.054,6.388-10.325,9.092-15.749l19.688,9.661c4.512-9.054,8.208-18.476,10.958-28.042l-21.198-5.734
			c1.993-6.893,3.419-13.873,4.215-20.83l21.832,2.348c0.928-8.31,1.075-16.589,0.36-24.692l-59.043,2.954l-1.061-0.959
			c-13.788,9.064-26.678,23.983-36.36,40.754c-9.684,16.771-16.158,35.394-17.113,51.865L669.904,189.589z"/>
	</g>
	<g>
		<path fill="none" d="M681.632,210.37c8.314-3.988,16.165-9.354,23.35-15.757l-6.934-7.9c-6.529,5.803-13.66,10.668-21.211,14.297
			L681.632,210.37z"/>
		<path fill="none" d="M748.884,97.087c1.199,15.736-1.719,32.297-7.77,47.998l9.804,3.702c6.599-17.072,9.79-35.087,8.514-52.22
			L748.884,97.087z"/>
		<path fill="none" d="M734.75,123.194l10.255,2.045c1.943-9.409,2.659-18.876,1.953-28.057l-10.411,0.514
			C737.168,106.045,736.514,114.646,734.75,123.194z"/>
		<path fill="none" d="M722.35,197.705l14.243,14.168c6.341-6.66,12.217-14.009,17.486-21.869l-16.662-11.182
			C732.899,185.561,727.842,191.9,722.35,197.705z"/>
		<path fill="none" d="M728.323,187.949l-8.107-6.64c-10.575,13.111-23.466,23.937-37.705,30.779l4.813,9.399
			C702.815,214.014,716.833,202.223,728.323,187.949z"/>
		<path fill="none" d="M730.882,162.256c6.29-11.076,11-23.032,13.712-35.131l-10.259-2.045
			c-2.484,11.007-6.773,21.878-12.495,31.956L730.882,162.256z"/>
		<path fill="none" d="M706.408,193.313c9.098-8.387,17.076-18.424,23.51-29.386l-9.045-5.222
			c-5.864,9.96-13.123,19.081-21.397,26.709L706.408,193.313z"/>
		<path fill="none" d="M740.414,146.881c-4.725,11.742-11.191,22.955-18.992,32.921l8.108,6.641
			c8.501-10.855,15.546-23.067,20.688-35.859L740.414,146.881z"/>
		<path fill="none" d="M709.169,172.265l-8.049-6.591c-8.59,10.594-18.854,19-29.916,24.335l4.754,9.284
			C688.496,193.277,699.847,183.776,709.169,172.265z"/>
		<path fill="none" d="M747.533,161.302l18.016,8.84c4.172-8.493,7.598-17.257,10.194-26.079l-19.393-5.246
			C754.07,146.473,751.109,154.02,747.533,161.302z"/>
		<path fill="none" d="M705.839,212.437c-5.609,4.183-11.508,7.806-17.636,10.767l9.087,17.742
			c7.013-3.334,13.908-7.503,20.524-12.406C715.645,225.622,707.964,215.295,705.839,212.437z"/>
		<path fill="none" d="M710.375,170.759c6.854-8.757,12.543-18.599,16.707-28.912l-9.744-3.678
			c-1.853,4.582-4.055,9.11-6.605,13.527c-2.548,4.413-5.364,8.581-8.403,12.474L710.375,170.759z"/>
		<path fill="none" d="M760.987,115.964l19.95,2.146c0.806-7.711,0.917-15.312,0.332-22.62l-19.909,0.982
			C761.833,102.88,761.69,109.406,760.987,115.964z"/>
		<path fill="none" d="M727.783,140.05c5.316-13.821,7.88-28.398,6.838-42.26l-10.473,0.517c0.911,12.244-1.234,25.331-6.11,38.063
			L727.783,140.05z"/>
		<path fill="#DA7B19" d="M697.264,243.091c7.696-3.582,15.259-8.152,22.479-13.583l0.768-0.577l-0.573-0.769
			c-8.224-11.061-11.333-15.242-12.55-16.846c4.735-3.639,9.326-7.731,13.666-12.18l15.569,15.489l0.68-0.706
			c6.898-7.154,13.264-15.11,18.917-23.648l0.529-0.799l-18.212-12.224c2.976-4.561,5.73-9.333,8.193-14.192l19.692,9.662
			l0.427-0.858c4.568-9.166,8.276-18.657,11.021-28.206l0.271-0.941l-21.2-5.735c1.794-6.378,3.093-12.792,3.864-19.092
			l21.839,2.347l0.106-0.955c0.948-8.492,1.07-16.864,0.362-24.883l-0.082-0.925l-60.976,3.01l0.089,0.998
			c1.511,17.113-3.136,36.025-13.083,53.253c-9.946,17.228-24.003,30.708-39.577,37.957l-0.907,0.422l27.844,54.373L697.264,243.091
			z M720.873,158.704l9.045,5.222c-6.434,10.962-14.412,21-23.51,29.386l-6.933-7.899
			C707.75,177.785,715.008,168.664,720.873,158.704z M734.335,125.08l10.259,2.045c-2.712,12.099-7.422,24.055-13.712,35.131
			l-9.042-5.22C727.562,146.958,731.851,136.087,734.335,125.08z M750.918,148.787l-9.804-3.702
			c6.051-15.701,8.969-32.261,7.77-47.998l10.548-0.52C760.708,113.7,757.517,131.715,750.918,148.787z M729.53,186.443
			l-8.108-6.641c7.801-9.967,14.268-21.179,18.992-32.921l9.805,3.703C745.076,163.375,738.031,175.588,729.53,186.443z
			 M745.004,125.239l-10.255-2.045c1.765-8.548,2.419-17.149,1.797-25.498l10.411-0.514
			C747.664,106.363,746.948,115.83,745.004,125.239z M704.982,194.613c-7.185,6.403-15.035,11.769-23.35,15.757l-4.795-9.36
			c7.551-3.629,14.682-8.494,21.211-14.297L704.982,194.613z M720.215,181.309l8.107,6.64
			c-11.49,14.274-25.508,26.065-40.999,33.538l-4.813-9.399C696.75,205.245,709.64,194.42,720.215,181.309z M754.08,190.005
			c-5.27,7.86-11.146,15.209-17.486,21.869l-14.243-14.168c5.492-5.805,10.549-12.144,15.067-18.882L754.08,190.005z
			 M775.743,144.063c-2.597,8.822-6.022,17.585-10.194,26.079l-18.016-8.84c3.576-7.282,6.537-14.829,8.817-22.484L775.743,144.063z
			 M780.937,118.109l-19.95-2.146c0.703-6.558,0.846-13.084,0.373-19.492l19.909-0.982
			C781.854,102.798,781.743,110.398,780.937,118.109z M724.148,98.307l10.473-0.517c1.042,13.862-1.521,28.438-6.838,42.26
			l-9.745-3.68C722.914,123.638,725.059,110.551,724.148,98.307z M717.338,138.169l9.744,3.678
			c-4.164,10.313-9.853,20.155-16.707,28.912l-8.046-6.589c3.039-3.893,5.855-8.061,8.403-12.474
			C713.284,147.279,715.486,142.75,717.338,138.169z M671.205,190.009c11.062-5.335,21.326-13.741,29.916-24.335l8.049,6.591
			c-9.322,11.511-20.674,21.012-33.211,27.028L671.205,190.009z M688.204,223.204c6.128-2.961,12.026-6.584,17.636-10.767
			c2.125,2.858,9.806,13.185,11.976,16.104c-6.616,4.903-13.512,9.072-20.524,12.406L688.204,223.204z"/>
	</g>
	<path d="M721.418,98.817c-26.361,18.527-48.309,56.542-51.173,88.634C701.453,171.83,723.505,133.874,721.418,98.817z"/>
	
		<ellipse transform="matrix(-0.5 0.866 -0.866 -0.5 1168.1825 -387.9091)" fill="#FDD902" cx="696.071" cy="143.272" rx="32.378" ry="11.093"/>
</g>
<g>
	<g>
		<path fill="#FDD902" d="M188.417,334.089l32.101-49.656c-7.026-4.928-14.699-9.12-22.826-12.579c0,0-8.709,20.158-8.709,20.159
			c-6.095-2.575-12.482-4.675-19.054-6.299l5.628-21.225c-9.66-2.4-19.667-3.911-29.764-4.532l-1.479,21.882
			c-6.049-0.369-12.136-0.369-18.185,0l-1.478-21.882c-10.097,0.621-20.104,2.131-29.764,4.531l5.633,21.226
			c-6.966,1.721-13.724,3.975-20.146,6.765l-8.884-20.08c-7.66,3.351-14.903,7.362-21.563,12.034l32.079,49.656h0.403l-0.702,1.396
			c14.744,7.408,34.108,11.112,53.474,11.112c19.366,0,38.731-3.704,53.474-11.112l-0.702-1.396H188.417z"/>
	</g>
	<g>
		<path fill="none" d="M200.551,313.541c-7.611-5.206-16.183-9.323-25.321-12.343l-3.375,9.955
			c8.29,2.753,16.068,6.495,22.986,11.22L200.551,313.541z"/>
		<path fill="none" d="M68.818,311.94c13.028-8.906,28.829-14.66,45.452-17.271l-1.696-10.342
			c-18.083,2.822-35.281,9.065-49.48,18.737L68.818,311.94z"/>
		<path fill="none" d="M98.495,311.128l-3.356-9.904c-9.12,3.021-17.677,7.136-25.274,12.337l5.65,8.76
			C82.435,317.607,90.21,313.872,98.495,311.128z"/>
		<path fill="none" d="M169.223,284.609l5.148-19.417c-8.938-2.162-18.24-3.577-27.682-4.211l-1.353,20.021
			C153.432,281.547,161.45,282.757,169.223,284.609z"/>
		<path fill="none" d="M157.788,284.315l-1.697,10.342c16.643,2.603,32.462,8.354,45.507,17.263l5.733-8.867
			C193.114,293.374,175.894,287.13,157.788,284.315z"/>
		<path fill="none" d="M134.257,294.946c-12.738,0.09-25.447,1.989-37.28,5.691l3.358,9.906c10.775-3.354,22.334-5.074,33.922-5.157
			V294.946z"/>
		<path fill="none" d="M173.391,300.613c-11.812-3.686-24.494-5.577-37.204-5.667v10.443c11.557,0.099,23.086,1.825,33.83,5.178
			L173.391,300.613z"/>
		<path fill="none" d="M116.177,294.379c12.531-1.779,25.475-1.785,38.007-0.013l1.696-10.343
			c-13.651-1.934-27.75-1.93-41.399,0.014L116.177,294.379z"/>
		<path fill="none" d="M153.782,308.745l-1.684,10.266c13.47,2.143,25.882,6.829,36.033,13.741l5.663-8.76
			C182.316,316.144,168.412,311.063,153.782,308.745z"/>
		<path fill="none" d="M125.105,281.003l-1.352-20.021c-9.441,0.634-18.744,2.049-27.682,4.21l5.153,19.418
			C108.995,282.756,117.012,281.547,125.105,281.003z"/>
		<path fill="none" d="M190.237,291.543c6.427,2.767,12.515,6.063,18.143,9.89l10.822-16.74
			c-6.394-4.406-13.452-8.294-21.006-11.572C196.752,276.458,191.649,288.273,190.237,291.543z"/>
		<path fill="none" d="M151.875,308.453c-11.012-1.558-22.379-1.563-33.393-0.012l1.687,10.276
			c4.894-0.686,9.917-1.043,15.018-1.043c5.096,0,10.113,0.355,15.004,1.042L151.875,308.453z"/>
		<path fill="none" d="M79.116,292.021l-8.118-18.351c-7.081,3.159-13.719,6.862-19.755,11.022l10.805,16.751
			C67.361,297.83,73.083,294.69,79.116,292.021z"/>
		<path fill="none" d="M116.576,308.732c-14.628,2.307-28.533,7.375-40.017,15.208l5.684,8.812
			c10.148-6.91,22.554-11.596,36.02-13.739L116.576,308.732z"/>
		<path fill="#DA7B19" d="M221.071,283.643c-6.95-4.874-14.689-9.139-23.001-12.677l-0.883-0.376l-0.38,0.881
			c-5.466,12.652-7.533,17.436-8.313,19.291c-5.52-2.281-11.359-4.211-17.381-5.745l5.629-21.228l-0.951-0.236
			c-9.645-2.397-19.717-3.93-29.938-4.559l-0.957-0.059l-1.48,21.885c-5.438-0.297-10.949-0.297-16.388,0l-1.479-21.885
			l-0.957,0.059c-10.222,0.629-20.295,2.161-29.938,4.558l-0.951,0.237l5.634,21.228c-6.421,1.635-12.625,3.718-18.466,6.199
			l-8.887-20.087l-0.88,0.385c-7.829,3.426-15.14,7.507-21.731,12.129l-0.76,0.533l33.094,51.301l0.82-0.575
			c14.065-9.864,32.767-15.297,52.661-15.297c19.893,0,38.596,5.433,52.659,15.297l0.82,0.574l33.166-51.3L221.071,283.643z
			 M136.187,305.39v-10.443c12.71,0.09,25.392,1.981,37.204,5.667l-3.375,9.954C159.272,307.215,147.744,305.488,136.187,305.39z
			 M100.335,310.544l-3.358-9.906c11.833-3.702,24.542-5.602,37.28-5.691v10.44C122.669,305.47,111.111,307.19,100.335,310.544z
			 M112.574,284.328l1.696,10.342c-16.623,2.61-32.423,8.364-45.452,17.271l-5.725-8.875
			C77.293,293.394,94.491,287.15,112.574,284.328z M155.88,284.023l-1.696,10.343c-12.533-1.772-25.477-1.767-38.007,0.013
			l-1.696-10.342C128.13,282.094,142.229,282.09,155.88,284.023z M95.139,301.224l3.356,9.904
			c-8.285,2.744-16.061,6.479-22.98,11.192l-5.65-8.76C77.462,308.359,86.019,304.245,95.139,301.224z M175.229,301.198
			c9.138,3.02,17.71,7.137,25.321,12.343l-5.709,8.832c-6.918-4.725-14.697-8.467-22.986-11.22L175.229,301.198z M156.091,294.657
			l1.697-10.342c18.106,2.814,35.327,9.059,49.544,18.737l-5.733,8.867C188.553,303.011,172.733,297.26,156.091,294.657z
			 M146.69,260.981c9.441,0.634,18.744,2.049,27.682,4.211l-5.148,19.417c-7.773-1.853-15.791-3.063-23.886-3.606L146.69,260.981z
			 M96.072,265.191c8.938-2.161,18.24-3.576,27.682-4.21l1.352,20.021c-8.094,0.544-16.111,1.753-23.88,3.606L96.072,265.191z
			 M70.998,273.67l8.118,18.351c-6.032,2.67-11.755,5.81-17.068,9.423l-10.805-16.751C57.279,280.532,63.917,276.829,70.998,273.67z
			 M82.243,332.752l-5.684-8.812c11.484-7.833,25.389-12.901,40.017-15.208l1.687,10.28
			C104.797,321.156,92.391,325.842,82.243,332.752z M120.169,318.718l-1.687-10.276c11.013-1.551,22.381-1.546,33.393,0.012
			l-1.684,10.264c-4.891-0.687-9.908-1.042-15.004-1.042C130.086,317.675,125.063,318.032,120.169,318.718z M188.131,332.752
			c-10.151-6.912-22.563-11.599-36.033-13.741l1.684-10.266c14.63,2.317,28.535,7.398,40.012,15.247L188.131,332.752z
			 M208.379,301.433c-5.628-3.826-11.716-7.123-18.143-9.89c1.412-3.27,6.516-15.085,7.958-18.423
			c7.554,3.278,14.613,7.166,21.006,11.572L208.379,301.433z"/>
	</g>
	<path d="M84.049,334.861c29.225,13.565,73.121,13.565,102.346,0C157.263,315.645,113.366,315.525,84.049,334.861z"/>
	<ellipse fill="#FDD902" cx="135.222" cy="334.586" rx="32.378" ry="11.093"/>
</g>
<g>
	<g>
		<path fill="#FDD902" d="M80.627,336.37l-59.054-2.972c-0.754,8.548-0.549,17.289,0.519,26.058c0,0,21.813-2.537,21.813-2.537
			c0.817,6.565,2.193,13.146,4.073,19.65l-21.197,5.738c2.75,9.566,6.446,18.988,10.958,28.042l19.689-9.659
			c2.705,5.424,5.748,10.694,9.092,15.749l-18.21,12.22c5.585,8.435,11.896,16.346,18.806,23.511l15.565-15.491
			c4.973,5.173,10.305,9.898,15.932,14.065l-12.949,17.733c6.733,4.958,13.829,9.225,21.205,12.658l26.963-52.609l1.36-0.44
			c-0.956-16.472-7.431-35.094-17.113-51.865c-9.683-16.771-22.574-31.69-36.36-40.753L80.627,336.37z"/>
	</g>
	<g>
		<path fill="none" d="M56.766,336.137c-0.703,9.195,0.018,18.676,1.972,28.101l10.309-2.056
			c-1.761-8.555-2.409-17.163-1.776-25.517L56.766,336.137z"/>
		<path fill="none" d="M121.246,451.021c-14.228-6.829-27.11-17.637-37.682-30.728l-8.109,6.641
			c11.486,14.249,25.492,26.021,40.967,33.482L121.246,451.021z"/>
		<path fill="none" d="M105.704,425.726l-6.898,7.859c7.177,6.388,15.018,11.74,23.321,15.72l4.76-9.273
			C119.345,436.396,112.224,431.529,105.704,425.726z"/>
		<path fill="none" d="M47.375,377.733l-19.391,5.249c2.597,8.822,6.023,17.585,10.195,26.078l18.015-8.838
			C52.618,392.939,49.656,385.392,47.375,377.733z"/>
		<path fill="none" d="M52.838,387.783l9.804-3.702c-6.067-15.714-8.997-32.289-7.803-48.041l-10.547-0.531
			C43.019,352.66,46.222,370.695,52.838,387.783z"/>
		<path fill="none" d="M73.809,402.847c6.447,10.985,14.446,21.042,23.569,29.438l6.9-7.861
			c-8.291-7.655-15.561-16.805-21.427-26.799L73.809,402.847z"/>
		<path fill="none" d="M59.151,366.121c2.714,12.073,7.417,24.001,13.694,35.054l9.045-5.222
			c-5.694-10.059-9.963-20.906-12.432-31.885L59.151,366.121z"/>
		<path fill="none" d="M82.358,418.788c-7.807-9.963-14.283-21.17-19.015-32.909l-9.805,3.702
			c5.15,12.79,12.204,24.998,20.711,35.847L82.358,418.788z"/>
		<path fill="none" d="M75.997,379.038l9.732-3.675c-4.879-12.737-7.026-25.829-6.116-38.076l-10.417-0.524
			C68.138,350.627,70.689,365.208,75.997,379.038z"/>
		<path fill="none" d="M66.31,417.744l-16.663,11.181c5.27,7.859,11.146,15.209,17.487,21.868l14.24-14.171
			C75.884,430.819,70.828,424.481,66.31,417.744z"/>
		<path fill="none" d="M42.872,356.068c-0.817-6.95-1.006-13.87-0.506-20.657l-19.909-1.002c-0.619,7.74-0.457,15.798,0.481,23.979
			C26.551,357.968,39.334,356.479,42.872,356.068z"/>
		<path fill="none" d="M76.698,380.835c4.157,10.315,9.836,20.162,16.686,28.925l8.057-6.6c-3.041-3.895-5.862-8.066-8.412-12.484
			c-2.548-4.413-4.749-8.937-6.601-13.514L76.698,380.835z"/>
		<path fill="none" d="M98.847,452.063l-11.833,16.205c6.276,4.553,12.802,8.45,19.424,11.597l9.104-17.733
			C109.755,459.339,104.174,455.952,98.847,452.063z"/>
		<path fill="none" d="M94.589,411.265c9.312,11.515,20.653,21.023,33.179,27.052l4.789-9.327
			c-11.059-5.334-21.32-13.735-29.908-24.325L94.589,411.265z"/>
		<path fill="#DA7B19" d="M20.613,333.313c-0.746,8.457-0.57,17.292,0.523,26.259l0.116,0.953l0.953-0.111
			c13.69-1.592,18.866-2.193,20.863-2.445c0.784,5.921,2.033,11.942,3.715,17.925l-21.199,5.738l0.271,0.942
			c2.747,9.551,6.455,19.041,11.021,28.206l0.427,0.857l19.693-9.659c2.462,4.857,5.217,9.63,8.194,14.191l-18.213,12.224
			l0.53,0.799c5.654,8.539,12.019,16.495,18.916,23.648l0.68,0.705l15.567-15.492c4.627,4.742,9.532,9.073,14.602,12.893
			L84.32,468.685l0.774,0.57c6.88,5.067,14.07,9.358,21.369,12.755l0.842,0.393l27.881-54.312l-0.909-0.422
			c-15.575-7.249-29.63-20.729-39.578-37.958c-9.946-17.227-14.593-36.14-13.083-53.252l0.088-0.997l-61.01-3.073L20.613,333.313z
			 M81.89,395.953l-9.045,5.222c-6.277-11.053-10.98-22.98-13.694-35.054l10.307-2.053C71.927,375.047,76.196,385.895,81.89,395.953
			z M104.278,424.424l-6.9,7.861c-9.123-8.396-17.122-18.453-23.569-29.438l9.042-5.222
			C88.717,407.619,95.987,416.769,104.278,424.424z M75.455,426.934l8.109-6.641c10.572,13.091,23.455,23.898,37.682,30.728
			l-4.824,9.396C100.947,452.954,86.941,441.183,75.455,426.934z M53.539,389.581l9.805-3.702
			c4.731,11.739,11.208,22.946,19.015,32.909l-8.109,6.64C65.743,414.579,58.689,402.371,53.539,389.581z M98.805,433.585
			l6.898-7.859c6.52,5.804,13.642,10.67,21.183,14.306l-4.76,9.273C113.823,445.325,105.982,439.973,98.805,433.585z
			 M58.737,364.237c-1.954-9.425-2.675-18.905-1.972-28.101l10.504,0.528c-0.632,8.354,0.016,16.962,1.776,25.517L58.737,364.237z
			 M62.642,384.081l-9.804,3.702c-6.616-17.088-9.819-35.123-8.545-52.274l10.547,0.531
			C53.646,351.792,56.575,368.367,62.642,384.081z M38.179,409.061c-4.172-8.493-7.598-17.256-10.195-26.078l19.391-5.249
			c2.281,7.658,5.243,15.206,8.819,22.489L38.179,409.061z M67.134,450.793c-6.341-6.659-12.217-14.009-17.487-21.868l16.663-11.181
			c4.518,6.737,9.574,13.075,15.063,18.878L67.134,450.793z M87.013,468.269l11.833-16.205c5.328,3.889,10.908,7.275,16.694,10.068
			l-9.104,17.733C99.815,476.719,93.29,472.821,87.013,468.269z M132.557,428.989l-4.789,9.327
			c-12.526-6.028-23.868-15.537-33.179-27.052l8.06-6.601C111.237,415.254,121.499,423.655,132.557,428.989z M101.44,403.16
			l-8.057,6.6c-6.85-8.763-12.529-18.609-16.686-28.925l9.73-3.673c1.853,4.577,4.053,9.101,6.601,13.514
			C95.579,395.094,98.399,399.266,101.44,403.16z M79.613,337.287c-0.91,12.247,1.237,25.339,6.116,38.076l-9.732,3.675
			c-5.308-13.83-7.859-28.411-6.801-42.275L79.613,337.287z M42.366,335.411c-0.5,6.787-0.311,13.707,0.506,20.657
			c-3.538,0.411-16.321,1.899-19.934,2.319c-0.938-8.181-1.101-16.238-0.481-23.979L42.366,335.411z"/>
	</g>
	<path d="M133.481,426.37c-2.865-32.093-24.813-70.107-51.173-88.634C80.232,372.572,102.077,410.649,133.481,426.37z"/>
	
		<ellipse transform="matrix(-0.5 -0.866 0.866 -0.5 -169.502 666.5217)" fill="#FDD902" cx="107.656" cy="382.191" rx="32.378" ry="11.093"/>
</g>
<g>
	<g>
		<path fill="#FDD902" d="M136.514,428.585l26.953,52.628c7.78-3.62,15.248-8.169,22.307-13.479c0,0-13.103-17.621-13.103-17.622
			c5.277-3.99,10.289-8.473,14.981-13.354l15.567,15.488c6.909-7.165,13.221-15.077,18.807-23.511l-18.209-12.221
			c3.344-5.055,6.388-10.326,9.092-15.749l19.688,9.659c4.512-9.054,8.208-18.475,10.958-28.041l-21.199-5.733
			c1.994-6.893,3.419-13.874,4.215-20.83l21.832,2.348c0.928-8.311,1.075-16.59,0.36-24.692l-59.043,2.953l-1.06-0.958
			c-13.788,9.064-26.678,23.983-36.361,40.754c-9.683,16.771-16.157,35.395-17.113,51.865L136.514,428.585z"/>
	</g>
	<g>
		<path fill="none" d="M148.242,449.367c8.315-3.989,16.165-9.354,23.35-15.759l-6.934-7.898
			c-6.529,5.802-13.66,10.667-21.21,14.296L148.242,449.367z"/>
		<path fill="none" d="M215.494,336.083c1.199,15.736-1.718,32.296-7.77,47.997l9.805,3.703c6.598-17.072,9.79-35.087,8.514-52.221
			L215.494,336.083z"/>
		<path fill="none" d="M201.359,362.19l10.255,2.046c1.944-9.41,2.659-18.877,1.954-28.058l-10.411,0.515
			C203.778,345.042,203.125,353.643,201.359,362.19z"/>
		<path fill="none" d="M188.96,436.701l14.243,14.168c6.341-6.659,12.218-14.008,17.487-21.868l-16.662-11.182
			C199.508,424.558,194.452,430.896,188.96,436.701z"/>
		<path fill="none" d="M194.933,426.945l-8.107-6.641c-10.575,13.111-23.466,23.937-37.705,30.778l4.813,9.399
			C169.425,453.01,183.442,441.219,194.933,426.945z"/>
		<path fill="none" d="M197.492,401.252c6.291-11.077,11-23.032,13.712-35.131l-10.259-2.045
			c-2.484,11.007-6.773,21.879-12.495,31.955L197.492,401.252z"/>
		<path fill="none" d="M173.018,432.308c9.098-8.386,17.076-18.422,23.51-29.385l-9.045-5.222
			c-5.864,9.959-13.124,19.08-21.397,26.708L173.018,432.308z"/>
		<path fill="none" d="M207.023,385.877c-4.724,11.742-11.192,22.955-18.993,32.922l8.109,6.64
			c8.501-10.854,15.546-23.066,20.688-35.858L207.023,385.877z"/>
		<path fill="none" d="M175.78,411.262l-8.049-6.592c-8.59,10.595-18.855,19-29.917,24.336l4.755,9.283
			C155.105,432.273,166.457,422.772,175.78,411.262z"/>
		<path fill="none" d="M214.143,400.298l18.015,8.84c4.172-8.493,7.598-17.257,10.195-26.078l-19.393-5.246
			C220.68,385.468,217.719,393.017,214.143,400.298z"/>
		<path fill="none" d="M172.449,451.434c-5.61,4.183-11.508,7.806-17.636,10.767l9.087,17.742
			c7.012-3.334,13.909-7.503,20.524-12.406C182.254,464.618,174.575,454.291,172.449,451.434z"/>
		<path fill="none" d="M176.985,409.756c6.855-8.757,12.543-18.6,16.707-28.912l-9.743-3.679c-1.853,4.582-4.055,9.11-6.606,13.527
			c-2.548,4.413-5.364,8.58-8.403,12.474L176.985,409.756z"/>
		<path fill="none" d="M227.597,354.961l19.95,2.145c0.805-7.711,0.917-15.312,0.332-22.62l-19.91,0.982
			C228.442,341.876,228.3,348.402,227.597,354.961z"/>
		<path fill="none" d="M194.393,379.046c5.316-13.821,7.88-28.397,6.837-42.26l-10.472,0.518c0.91,12.243-1.234,25.33-6.111,38.063
			L194.393,379.046z"/>
		<path fill="#DA7B19" d="M163.874,482.087c7.696-3.581,15.259-8.151,22.479-13.581l0.767-0.577l-0.572-0.77
			c-8.225-11.062-11.333-15.242-12.55-16.846c4.736-3.64,9.326-7.731,13.666-12.18l15.57,15.489l0.68-0.706
			c6.898-7.154,13.263-15.11,18.917-23.648l0.53-0.8l-18.213-12.223c2.976-4.562,5.731-9.333,8.194-14.192l19.692,9.661l0.427-0.858
			c4.567-9.166,8.276-18.657,11.021-28.206l0.271-0.941l-21.201-5.734c1.794-6.379,3.093-12.792,3.864-19.093l21.839,2.348
			l0.106-0.954c0.948-8.493,1.07-16.864,0.362-24.885l-0.082-0.924l-60.975,3.009l0.089,0.999
			c1.51,17.112-3.137,36.024-13.083,53.253c-9.946,17.228-24.002,30.708-39.577,37.956l-0.908,0.423l27.844,54.372L163.874,482.087z
			 M187.482,397.701l9.045,5.222c-6.434,10.963-14.412,20.999-23.51,29.385l-6.933-7.898
			C174.359,416.781,181.619,407.66,187.482,397.701z M200.945,364.076l10.259,2.045c-2.711,12.099-7.421,24.054-13.712,35.131
			l-9.042-5.221C194.171,385.955,198.461,375.083,200.945,364.076z M217.529,387.783l-9.805-3.703
			c6.052-15.701,8.969-32.261,7.77-47.997l10.548-0.521C227.318,352.696,224.126,370.711,217.529,387.783z M196.14,425.438
			l-8.109-6.64c7.801-9.967,14.269-21.18,18.993-32.922l9.805,3.703C211.686,402.372,204.641,414.584,196.14,425.438z
			 M211.614,364.236l-10.255-2.046c1.765-8.548,2.419-17.148,1.797-25.497l10.411-0.515
			C214.273,345.359,213.558,354.826,211.614,364.236z M171.592,433.608c-7.185,6.404-15.035,11.77-23.35,15.759l-4.794-9.361
			c7.551-3.629,14.681-8.494,21.21-14.296L171.592,433.608z M186.825,420.305l8.107,6.641
			c-11.49,14.273-25.507,26.064-40.999,33.537l-4.813-9.399C163.359,444.241,176.25,433.416,186.825,420.305z M220.689,429.001
			c-5.269,7.86-11.146,15.209-17.487,21.868l-14.243-14.168c5.492-5.805,10.548-12.144,15.068-18.882L220.689,429.001z
			 M242.353,383.06c-2.597,8.821-6.022,17.585-10.195,26.078l-18.015-8.84c3.576-7.281,6.537-14.83,8.817-22.484L242.353,383.06z
			 M247.547,357.105l-19.95-2.145c0.703-6.559,0.845-13.085,0.372-19.493l19.91-0.982
			C248.464,341.794,248.352,349.395,247.547,357.105z M190.758,337.304l10.472-0.518c1.042,13.862-1.521,28.438-6.837,42.26
			l-9.746-3.679C189.524,362.634,191.668,349.547,190.758,337.304z M183.949,377.165l9.743,3.679
			c-4.164,10.313-9.852,20.155-16.707,28.912l-8.046-6.59c3.04-3.894,5.855-8.061,8.403-12.474
			C179.894,386.275,182.096,381.747,183.949,377.165z M137.814,429.006c11.062-5.336,21.327-13.741,29.917-24.336l8.049,6.592
			c-9.323,11.511-20.675,21.012-33.211,27.027L137.814,429.006z M154.813,462.2c6.127-2.961,12.026-6.584,17.636-10.767
			c2.125,2.857,9.805,13.185,11.976,16.103c-6.616,4.903-13.512,9.072-20.524,12.406L154.813,462.2z"/>
	</g>
	<path d="M188.028,337.813c-26.36,18.527-48.308,56.542-51.172,88.634C168.063,410.825,190.116,372.869,188.028,337.813z"/>
	
		<ellipse transform="matrix(-0.5 0.866 -0.866 -0.5 575.0751 432.5158)" fill="#FDD902" cx="162.681" cy="382.268" rx="32.378" ry="11.093"/>
</g>
<g>
	<path fill="none" d="M101.588,0c11.06,4.77,23.045,6.935,34.209,5.466c42.851-5.631,89.869,21.021,107.043,60.681
		c11.084,25.593,43.811,44.146,71.459,40.511c42.852-5.632,89.871,21.022,107.045,60.683c11.085,25.591,43.811,44.144,71.462,40.509
		c42.849-5.633,89.867,21.023,107.041,60.682c11.084,25.592,43.81,44.145,71.462,40.511c42.847-5.633,89.865,21.021,107.041,60.681
		c4.382,10.117,12.152,19.125,21.648,26.106V0H101.588z"/>
	<path fill="none" d="M712.306,444.69c-11.083-25.594-43.806-44.145-71.457-40.51c-42.851,5.632-89.869-21.025-107.045-60.681
		c-11.083-25.595-43.807-44.146-71.458-40.511c-42.85,5.63-89.868-21.024-107.044-60.68c-11.084-25.594-43.808-44.146-71.461-40.512
		c-42.847,5.634-89.867-21.021-107.043-60.682c-11.083-25.594-43.808-44.143-71.46-40.51C63.834,106.062,18.418,81.227,0,43.621
		v53.963c14.165,20.4,42.005,33.99,66.026,30.831c42.851-5.631,89.869,21.021,107.043,60.681
		c11.084,25.593,43.811,44.146,71.459,40.511c42.852-5.632,89.872,21.022,107.044,60.683c11.084,25.591,43.811,44.144,71.462,40.509
		c42.849-5.633,89.867,21.023,107.041,60.682c11.084,25.592,43.81,44.145,71.462,40.51c42.847-5.632,89.865,21.021,107.041,60.682
		c1.091,2.519,2.408,4.962,3.895,7.329h61.153C746.86,490.408,723.379,470.256,712.306,444.69z"/>
	<path fill="none" d="M747.192,383.217c-11.082-25.595-43.807-44.146-71.457-40.511c-42.851,5.632-89.869-21.025-107.046-60.681
		c-11.082-25.594-43.806-44.145-71.458-40.51c-42.848,5.629-89.866-21.025-107.043-60.68
		c-11.084-25.594-43.808-44.146-71.461-40.513c-42.847,5.634-89.867-21.021-107.044-60.681
		c-11.083-25.594-43.808-44.144-71.46-40.51C105.722,43.667,68.526,27.264,46.373,0H12.027c7.253,7.851,13.233,16.75,17.425,26.43
		c11.083,25.595,43.807,44.147,71.459,40.51c42.851-5.631,89.869,21.021,107.043,60.681c11.084,25.594,43.811,44.146,71.459,40.511
		c42.852-5.632,89.872,21.023,107.044,60.684c11.084,25.59,43.81,44.143,71.462,40.509c42.85-5.633,89.867,21.023,107.041,60.682
		c11.084,25.592,43.81,44.144,71.463,40.51c42.847-5.632,89.864,21.021,107.04,60.682c9.132,21.086,32.959,37.38,56.534,40.436
		v-36.554C776.837,424.543,757.075,406.032,747.192,383.217z"/>
	<path fill="none" d="M605.963,465.654c-42.851,5.632-89.869-21.024-107.046-60.681c-11.082-25.594-43.806-44.145-71.458-40.51
		c-42.848,5.629-89.866-21.025-107.043-60.681c-11.084-25.594-43.808-44.146-71.461-40.512
		c-42.847,5.634-89.867-21.021-107.043-60.682c-11.083-25.594-43.808-44.144-71.46-40.511c-24.196,3.182-49.72-3.935-70.451-17.873
		V500h674.234C660.959,477.674,631.335,462.319,605.963,465.654z"/>
	<path fill="#FFFFFF" d="M743.465,431.197c-17.176-39.66-64.193-66.313-107.04-60.682c-27.653,3.634-60.379-14.918-71.463-40.51
		c-17.174-39.658-64.191-66.314-107.041-60.682c-27.652,3.634-60.378-14.919-71.462-40.509
		c-17.173-39.661-64.192-66.315-107.044-60.684c-27.649,3.636-60.375-14.917-71.459-40.511
		C190.781,87.962,143.762,61.31,100.912,66.94C73.26,70.577,40.536,52.025,29.453,26.43C25.261,16.75,19.281,7.851,12.027,0H0
		v43.621c18.418,37.606,63.834,62.441,105.337,56.984c27.652-3.633,60.378,14.916,71.46,40.51
		c17.177,39.661,64.197,66.316,107.043,60.682c27.653-3.634,60.376,14.918,71.461,40.512c17.177,39.655,64.195,66.31,107.044,60.68
		c27.651-3.635,60.375,14.916,71.458,40.511c17.176,39.655,64.194,66.313,107.045,60.681c27.651-3.635,60.374,14.916,71.457,40.51
		c11.073,25.565,34.554,45.718,61.321,55.31H800v-28.367C776.424,468.577,752.597,452.283,743.465,431.197z"/>
	<path fill="#FFFFFF" d="M778.351,369.723c-17.176-39.659-64.194-66.313-107.041-60.681c-27.652,3.634-60.378-14.919-71.462-40.511
		c-17.174-39.658-64.192-66.314-107.041-60.682c-27.651,3.635-60.377-14.918-71.462-40.509
		c-17.174-39.66-64.193-66.314-107.045-60.683c-27.649,3.635-60.375-14.917-71.459-40.511
		c-17.174-39.66-64.193-66.312-107.043-60.681C124.633,6.935,112.648,4.77,101.588,0H46.373
		c22.153,27.264,59.349,43.667,93.85,39.131c27.652-3.633,60.377,14.916,71.46,40.51c17.177,39.66,64.197,66.315,107.044,60.681
		c27.653-3.634,60.376,14.918,71.461,40.513c17.177,39.655,64.196,66.31,107.043,60.68c27.652-3.635,60.376,14.916,71.458,40.51
		c17.177,39.655,64.195,66.313,107.046,60.681c27.65-3.635,60.375,14.916,71.457,40.511c9.883,22.815,29.646,41.326,52.808,51.862
		v-39.25C790.503,388.848,782.733,379.84,778.351,369.723z"/>
	<path fill="#FFFFFF" d="M601.539,431.989c-27.652,3.635-60.378-14.918-71.462-40.51c-17.174-39.658-64.192-66.314-107.041-60.682
		c-27.652,3.635-60.378-14.918-71.462-40.509c-17.173-39.66-64.192-66.314-107.044-60.683
		c-27.649,3.635-60.375-14.917-71.459-40.511c-17.174-39.66-64.193-66.312-107.043-60.681C42.005,131.574,14.165,117.984,0,97.584
		v46.623c20.731,13.938,46.255,21.054,70.451,17.873c27.652-3.633,60.378,14.917,71.46,40.511
		c17.177,39.66,64.197,66.315,107.043,60.682c27.653-3.635,60.376,14.918,71.461,40.512c17.177,39.655,64.196,66.31,107.043,60.681
		c27.652-3.635,60.376,14.916,71.458,40.51c17.177,39.656,64.195,66.313,107.046,60.681c25.372-3.335,54.996,12.02,68.271,34.346
		h38.24c-1.486-2.367-2.804-4.811-3.895-7.329C691.404,453.011,644.385,426.357,601.539,431.989z"/>
</g>
</svg>
