<?xml version="1.0" encoding="utf-8"?>
<svg xmlns="http://www.w3.org/2000/svg" width="800" height="480" fill="#0038A6">
<rect id="Blue_rectangle" width="800" height="480"/>
<circle id="Gold_circle" fill="#FECB00" cx="400" cy="311.25" r="138.75"/>
<circle id="Blue_circle" cx="400" cy="264" r="97.5"/>
<path fill="#FECB00" d="M393.227,61.553C400.382,49.723,400,30.705,400,30.705S407.61,45.53,406.5,62
	c-1,14.833,7.772,27.606,5.553,23.592c0,0,5.548-9.94,19.389-12.408c15.059-2.685,27.945-17.882,27.945-17.882
	S453,75.5,441.619,83.068c-10.176,6.767-12.522,19.569-12.522,19.569s12.403-2.137,23.716,5.208
	c13.011,8.447,31.173,6.845,31.173,6.845s-14.656,9.659-31.272,6.867c-15.213-2.556-23.616,5.186-23.616,5.186
	s9.903,7.758,12.26,19.159c2.812,13.604,18.03,28.175,18.03,28.175s-17.584-3.584-26.478-16.943
	c-8.409-12.632-20.856-13.346-20.856-13.346s2.968,12.308-5.326,24.254C398.25,180.25,400,198.674,400,198.674
	s-9.155-17.661-7.083-32.258c1.833-12.916-4.969-22.629-4.969-22.629s-7.782,12.38-21.782,14.38
	c-13.673,1.953-25.552,15.909-25.552,15.909s3.754-17.265,16.219-25.576c11-7.333,14.07-21.758,14.07-21.758
	s-13.974,0.882-24.737-5.576c-13.333-8-30.151-6.477-30.151-6.477s11.149-6.798,28.68-6.298c15.471,0.442,26.208-5.755,26.208-5.755
	s-9.239-6.355-13.091-20.458c-3.646-13.345-17.198-26.876-17.198-26.876S359.929,59.084,368.5,72.5
	c7.667,12,19.448,13.092,19.448,13.092S386,73.5,393.227,61.553z"/>
</svg>
