<?xml version="1.0" encoding="UTF-8"?>
<svg xmlns="http://www.w3.org/2000/svg" xmlns:xlink="http://www.w3.org/1999/xlink" width="2000" height="1200">
	<rect width="2000" height="1200" fill="#009e58"/>
	<g id="acorn" fill="none" stroke="#886f00" stroke-width="2">
		<path d="M 65,163 c 0.807,-6.291 2.488,-12.172 4.11,-17.871 C 70,142 105.438,139 142,139 c 36.562,0 72,3 72.89,6.129 c 1.621,5.698 3.303,11.58 4.11,17.871 c 5,39 -29,71 -77,71 c -48,0 -82,-32 -77,-71 z" fill="#ffd51d"/>
		<path d="M 143,38 c -3.59,0 -6.5,2.91 -6.5,6.5 c 0,0.395 0.026,0.781 0.094,1.156 C 106.099,51.895 79,101.448 79,151 c 0,56.789 27.81,53 64,53 c 36.19,0 64,3.789 64,-53 C 207,101.448 179.901,51.895 149.406,45.656 C 149.474,45.281 149.5,44.895 149.5,44.5 C 149.5,40.91 146.59,38 143,38 z" fill="#ffd51d"/>
		<path d="M 154,232 c 0,0 4,16 -2,40 l 0,0 l -35,-9 c 16,-18 16,-31 16,-31 z" fill="#ffd51d"/>
		<path d="M 70.306,144.537 C 73.661,148.541 104.236,169 142,169 c 37.88,0 68.528,-20.585 71.725,-24.5 c 0.182,-0.223 0.241,-0.15 0.241,-0.15 c 0.535,0.258 0.85,0.518 0.924,0.779 c 1.621,5.698 3.303,11.58 4.11,17.871 c 5,39 -29,71 -77,71 c -48,0 -82,-32 -77,-71 c 0.807,-6.291 2.488,-12.172 4.11,-17.871 c 0.072,-0.253 0.37,-0.505 0.875,-0.755 c 0,0 0.118,-0.079 0.321,0.162 z" fill="#ffd51d"/>
		<path d="M 155,60 c 31.011,27.913 35,55 39,83"/>
		<path d="M 142,233 c 28,-11 68,-30 71,-88 M 106,227 c 30.957,-9.652 66,-23 80,-67 M 86,216 c 30,-10 48,-18 70,-48 M 74,202 c 16.443,-6.46 36,-14 51,-34 M 66.5,185.577 C 82.5,177.577 90,172 99,161" stroke-width="1.7"/>
		<path d="M 142,233 c -28,-11 -68,-30 -71,-88 M 178,227 c -30.957,-9.652 -66,-23 -80,-67 M 198,216 c -30,-10 -48,-18 -70,-48 M 210,202 c -16.443,-6.46 -36,-14 -51,-34 M 217.5,185.577 c -16,-8 -23.5,-13.577 -32.5,-24.577" stroke-width="1.7"/>
	</g>
	<use xlink:href="#acorn" x="858"/>
	<use xlink:href="#acorn" x="1716"/>
	<use xlink:href="#acorn" x="429" y="224"/>
	<use xlink:href="#acorn" x="1287" y="224"/>
	<use xlink:href="#acorn" y="440.25"/>
	<use xlink:href="#acorn" x="858" y="440.25"/>
	<use xlink:href="#acorn" x="1716" y="440.25"/>
	<use xlink:href="#acorn" x="429" y="668.8"/>
	<use xlink:href="#acorn" x="1287" y="668.8"/>
	<use xlink:href="#acorn" y="880.5"/>
	<use xlink:href="#acorn" x="858" y="880.5"/>
	<use xlink:href="#acorn" x="1716" y="880.5"/>
	<path d="M 800.61,664.521 c 0,114.265 98.965,265.535 -15.022,300.113 L 653.653,965 L 653.403,909 c 59.114,-2.301 52.75,-34 37.586,-74.339 c -16.613,-44.193 -39.987,-96.306 -39.987,-180.509 c 0,-198.272 156.254,-359.003 349.003,-359.003 c 192.749,0 349.003,160.731 349.003,359.003 c 0,84.203 -23.374,136.316 -39.987,180.509 C 1293.857,875 1287.494,906.699 1346.607,909 l -0.25,56 l -131.934,-0.367 c -113.987,-34.577 -15.022,-185.847 -15.022,-300.113 c 0,-114.265 -89.273,-206.896 -199.396,-206.896 c -110.123,0 -199.396,92.63 -199.396,206.896 z" fill="#ffd51d" stroke="#886f00" stroke-width="2" stroke-linecap="round"/>
	<path d="M 982.757,312.453 C 806.312,321.63 666.011,470.812 666.011,653.5 c 0,88.117 21.143,129.309 39.615,173.049 C 725.543,873.71 722.294,917.725 669.153,925 l 0,23 l 113,0 c 91.447,-31.095 4,-162.999 3.93,-282.604 c -0.073,-123.669 95.776,-223.924 213.922,-223.924 c 118.146,0 213.995,100.255 213.922,223.924 C 1213.856,785 1126.707,916.905 1218.153,948 l 113,0 l 0,-23 c -53.141,-7.275 -56.687,-51.29 -36.77,-98.451 c 18.472,-43.74 39.617,-84.932 39.617,-173.049 c 0,-182.689 -140.306,-331.872 -316.752,-341.047 a 17.256 17.256 0 0 1 -17.244,17.027 a 17.256 17.256 0 0 1 -17.248,-17.027 z" fill="none" stroke="#886f00" stroke-width="2" stroke-linecap="round"/>
	<path d="M 913.939,368.736 l -66.969,31.219 l 16.84,36.123 l 66.967,-31.219 l -16.838,-36.123 z m 225.807,23.293 l -23.147,32.445 l 60.149,42.912 l 23.148,-32.445 l -60.15,-42.912 z m -344.734,49.68 l -46.717,57.244 l 30.879,25.199 l 46.715,-57.244 l -30.877,-25.199 z m 480.768,108.799 l -38.746,9.338 l 17.311,71.83 l 38.746,-9.338 l -17.311,-71.83 z m -553.785,10.654 l -14.764,72.396 l 39.053,7.963 l 14.762,-72.396 l -39.051,-7.963 z m 25.129,137.457 l -38.516,10.246 l 18.994,71.404 l 38.518,-10.246 l -18.996,-71.404 z m 503.096,9.971 l -18.455,71.545 l 38.594,9.955 l 18.453,-71.547 l -38.592,-9.953 z" fill="#009e58" stroke="#886f00" stroke-width="1.7" stroke-linecap="round"/>
</svg>