<svg width="3000" height="1800" version="1.1" xmlns="http://www.w3.org/2000/svg">
<rect width="3000" height="1800" fill="#F9D616"/>
<g stroke="#000" stroke-width="8.16">
<path d="M915.6 335.45c23.26-10.34 42.73-3.79 63.53 14 3.24 6.88 7.24 17.81 6.72 20.37 2.5 22.4-30.55 9.03-34.63 3.15-4.27-6.17-15.05-30.9-35.62-37.52Zm-36.14 89.77c2.29-20.58 27.76-39.99 55.09-38.46 7.37 1.87 15.93 6.73 17.58 8.76 1.52 1.85-17.6 28.83-19.6 28.73-6.21-.31-31.12-10.59-53.07.97Zm15.2 98.14c-5.14-20.06 6.16-48.25 32.26-56.49 7.55-.85 20.21.97 22.47 2.28 2.08 1.2-6.27 33.19-8.17 33.8-5.92 1.91-30.12 1.84-46.56 20.41Zm25.54 63.48c18.04 17.96 38.57 18.79 64.35 9.6 5.48-5.27 13.12-14.05 13.55-16.62 10.33-20.05-25.32-19.35-31.23-15.31-6.19 4.23-25.08 23.49-46.67 22.33ZM895.07 868.09c11.04-19.2 41.76-36.53 63.07-29.02 6.59 3.79 15.71 14.4 16.75 16.79.97 2.19-33.1 22.74-34.82 21.74-6.23-3.62-18.45-11.11-45-9.51Zm-7.22 109.97c-6.14-18.25.24-41.36 30.83-60.45 7.3-2.12 19.76-1.8 22.2-.89 41.63 6.26-7.49 32.13-10.9 32.72-6.13 1.07-30.37 5.25-42.13 28.62Zm45.38 68.77c-11.44-17.26-10.03-47.59 11.92-63.95 6.86-3.28 19.41-5.72 21.97-5.22 2.36.44 4.98 33.41 3.39 34.61-4.96 3.74-27.85 11.62-37.28 34.56Zm189.72-9.88c27.87-17.26 32.71-55.15 7.47-66.25-6.86-3.28-19.41-5.72-21.97-5.22-2.36.44-4.98 33.4-3.39 34.61 4.97 3.74 17.99 10.96 17.89 36.86Zm-41.2 139.74c9.85-14.27 40.91-17.25 63.69-2.12 5.26 5.48 14.19 11.6 14.52 14.18 9.53 20.43-31.98 20.97-37.72 16.7-6.02-4.48-16.25-29.06-40.49-28.76Zm25.84 33.1c-6.41-2.49-11.79-2.76-16.44-7.56-5.22-.68-14.34 1.9-24.46 8.18-10.12 6.27-21.23 16.22-21.23 21.08 6.05-2.64 7.71-2.19 12.16-2.3 4.15-.11 7.26-.38 10.19.65 9.77 3.45 20.39 15.13 20.39 15.13 0 0 25.78-5.74 28.93-8.88 10.38-10.38-5.32-28.41-9.54-26.3Zm-43.72 122.3c-6.23-35.57 17.92-71.34 55.56-71.34 7.51 1.15 12.96 6.69 14.79 8.55 1.7 1.69-4.58 37.71-6.57 37.8-6.21.3-43.34-5.15-63.78 24.99Zm161.42 14.8c6.44 8.46 11.38 13.96 15.46 24 1.02 2.51 11.76 16.76 2.63 38.13 6.29-1.97 14.2-10.39 20.38-19.72 4.88-7.38 12.97-27.07 10.16-35.13-2.28-6.52-1.87-7.08-3.58-11.89-1.15-3.2-21.51-23.2-23.02-21.7-6.41 6.42-23.03 16.23-22.03 26.31Zm173.27 154.19c-11.29-5.65-33.18-6.05-40.44-3.29-10.9 4.15-20.27 12.27-24 17.43-2.8 3.86-6.02 14.79-4.61 26.3 12.83-11.51 26.98-8.12 28.61-8.22 11.75-.72 33.74 5.05 39.45-.66 8.05-8.05 9.41-28.75.99-31.56Zm-13.48 60.16c-12.02-7.59-26.74-6.88-39.57.95-19.61 11.98-26.15 38.71-22.9 50.67 7.53-11.03 20.87-17.73 29.59-17.42 13.78.48 13.22-1.2 22.04-3.48 11.23-2.91 22.95-20.94 10.84-30.72Zm6.9 116.06c-2.16-12.79-2.01-34.63 6.91-48 5.34-8.02 28.02-36.55 38.46-29.59 5.78 3.86 12.9 14.11 14.47 20.38 6.11 24.46-15.68 22.32-34.52 32.55-8.56 4.65-15.5 13.31-25.32 24.66Zm228.84-136.51c26.57-1.2 47.34 22.7 53.94 34.88 1.42 2.63 3.72 13.48 3.72 13.48 0 0-18.17-7.43-21.39-8.37-11.16-3.25-46.49 2.34-52.08-3.25-18.13-18.14 3.23-28.87 15.81-36.74ZM1310.7 361.67c0 0-32.92-16.86-55.33-22.32-11.64-2.83-20.54-3.34-30.22-3.25-13.69.13-18.7 1.13-30.23 3.72-14.57 3.28-28.82-.93-28.82-.93 0 0 1.7-10.34 4.65-15.81-8.81 5.17-22.95 8.89-31.62 9.77-18.08 1.82-34.41-8.37-34.41-8.37 2.02 5.27 18.47 20.55 29.76 28.36 3.6 2.16 12.99 9.48 26.04 16.27 2.8 1.46 16.74 6.51 16.74 6.51l-8.84-18.6c25.58.16 58.49 1.44 67.89 3.72 25.07 6.09 53.51 15.71 90.2 28.36Z" fill="#0072C6"/>
<g fill="#CE1126">
<path d="M1821 217.9c-8.32-35.51 14.6-67.09 9.56-92.07-228.16 189.37-345.07 450.26-345.07 450.26 68.41 36.61 51.68 120.78-17.15 130.43 31.85 22.67 124.37 19.53 182.71-7.31ZM1633.84 939.22c0 0 29.76-8.31 46.5 2.79-12.09 4.7-30.69 26.04-30.69 26.04Zm45.1 98.03c0 0 31.62-4.59 44.64 9.3-12.09 4.69-26.97 19.53-26.97 19.53ZM1477.89 373.08c0 0 34.24 28.52 42.34 52.51-15.08-10.17-29.23-11.97-42.46-16.56Zm-13.47 119.04c0 0 29.87 23.13 26.44 41.22-11.36-6.9-33.13-8.45-33.13-8.45Zm-23.95 112.67c0 0 29.59 17.36 29.33 35.77-12.37-4.83-34.09-2.61-34.09-2.61Z"/>
<path d="M2051.37 861.5c-.51 9.29-.12 17.32-1.4 26.15m27.17-1.7c0 0 9.21 1.31 43.4 30.24 0 0-11.84-89.42-74.96-192-5.26 101.26-47.34 168.33-47.34 168.33 29.65.55 39.06-2.26 51.83-5.72-4.84 66.31-15.72 102.39-36.36 144.99 9.96 20.86 9.92 42.88 14.06 64.21 44.45-59.51 54.15-176.3 43.95-239.68" stroke-linecap="round"/>
<path d="M1985.11 1075.61c-32.66 39.01-76 54.63-108.91 44.2-32.91-10.42-57.49-45.27-45.68-89.07 26.16-97.05 174.57-47.04 152.5 66.95-25.69 132.72-171.33 108.57-265.95-2.79-14.82-17.44-30.13-36.27-42.14-57.26 0 0 .41-47.42-54.46-109.73-7.72-13.39-12.77-13.19-6.62-25.5 85.81-120.65 174.13-250.16 217.6-377.54 36.18-114.14 27.9-251.76 100.43-368.24l-.41-1.45c1.87-7.22 2.19-13.1 7.82-32.48-194.26 141.74-369.92 342.07-422.38 448.94 77.32 29.29 60.23 161.19-49.47 134.39-8.96-3.02-25.61-14.29-25.69-14.36-10.32-58.22-3.74-72.69-2.43-102.27 0 0 21.05-78.25 26.31-105.87 0 0 24.1-97.06-3.95-172.28-12.28-32.93 27.62-48.65 46.48-49.1-10.43-20.19-10.87-60.46 7.65-78.05 3.48-3.31 2.42-8.81 2.42-8.81 0 0-13.13 22.89-73.63 45.5-24.55 9.18-54.06 32.24-59.32 45.04l-1.82-1.8c-232.48-121.1-30.22 73.93-62.3 170.18-8.09 61.23-46.77 130.69-87.64 171.56-10.12 10.12-10.19 31.63-14.88 43.71-10.06 25.86-8.67 58.56-16.74 82.76-6.62 19.86-13.02 38.11-13.02 58.58 11.41 20.53 12.89 24.05 6.27 26.98-35.06 15.54-79.82 48.01-89.86 51.05-8.91 2.71-23.95 10.34-32.22 14.47-9.13 5.47-25.64 9.86-25.64 9.86 0 0-21.72-14.92-36.82-33.53-2.62-3.23-11.65-6.39-13.81-8.55-5.16-5.16-3.01-10.38-8.55-13.15-8.7-1.33-20.38-2.63-20.38-2.63-.97-2.73-8.55-1.47-16.44 2.63 12.08 5.52 18.82 12.15 21.04 21.04-13.97 2.68-28.49 7.45-36.82 15.78-1.5 7.84 6.8 14.77 10.52 19.73-10.4 5.44-17.23 7.74-19.73 17.75-.72 5.33 17.13 9.06 24.33 15.12-10.31 9.31-20.38 21.05-20.38 30.91 3.21 4.2 6.22 2.63 11.17 2.63-10.15 17.5-3.94 28.93-3.94 28.93 0 0 14.72-9.72 31.56-9.21-5.55 9.12-.66 33.54-.66 33.54-.42.21 23.38 2.58 38.8-1.32 11.03-24.74 31.24-56.09 53.92-61.81 12.04-1.11 19.88 7.62 23.67 17.1 1.88 8.53-1.97 19.27-1.97 25.64 4.43 8.54 14.76 6.48 21.04 11.18 12.11-3.34 13.81-29.59 13.81-29.59 0 0 6.96-.46 26.3 5.92 5.57-3.9 7.89-12.89 7.89-17.75-.76-9.66-34.03-21.76-32.88-34.19.88-9.56 33.49-18.18 49.97-23.68 24.99-8.33 42.13-13.8 75.51-13.36 67.02 65.01 70.59 52.99 147.02 105.88-5.71 10-11.33 15.98-18.6 23.25-17.79 17.8-86.8 49.57-66.95 89.27 8.31 16.62 39.84 75.61 31.62 92.06-6.7 13.4-55.04 28.91-66.03 34.41-29.23 2.12-34.67.67-62.39.69-4.45 0-39.78-34.88-51.41-59.77-2.6-5.58-15.46.72-15.46.72 0 0 4.65 18.2 4.65 21.71-.49.15-11.65.42-18.84.07-7.18-.35-10.4-1.32-21.32-2.36-13.1-1.26-13.17 8.53-13.17 8.53 9.23 6.14 10.94 12.28 16.41 18.42l-20.9 17.74c0 0 4.85 2.55 5.42 9.13-8.3 3.51-19.57 20.3-17.28 25.6 12.48 1 19.53-5.42 39.05-3.72-3.72 9.91-9.66 27.26-4.7 32.98 2.47 5.95 8.27 9.94 20.65 10.74 8.05-5.08 16.97-14.11 22.23-15.99 11.79-4.2 51.03-5.47 57.16-2.96 2.61 1.22 11.53 31.07 2.48 50.96-4.38 9.62 12.2 12.2 21.92 17.97 0 0 9.25-17.15 9.41-29.59 7.23 1.6 26.85 14.78 26.85 14.78 0 0 9.52-10.83 7.09-19.74-.95-3.46-22.8-27.3-23.2-36.9-.55-13.58 30.19-13.97 83.24-19.95 19.9-2.25 70.43 12.07 106.93 22.31 32.62 9.16 50.62 5.58 50.22 5.58 0 0-24.96-9.8-52.14-51.15.68-6.04 6.5-14.87 13.08-26.03 37.55 0 88.21 78.91 110.66 101.36 5.88 5.88 12.49 35.34 13.02 47.43.21 4.72-5.32 7.85-7.44 12.08-11.24 22.49-26.95 46.75-41.21 69.2-28.05 41.75-40.83 57.98-55.25 54.48-7.44-1.8-19.49-.01-38.05-6.42-20.52-7.09-41.73-17.97-48.68-14.97-21.94 9.51 7.09 14.65 0 28.83-3.28 6.57-33.24 21.78-33.48 39.06 6.91 2.3 12.38 2.5 19.02 12.22-16.23 26.83-16.23 26.83-16.23 26.83 4.32 10.33 13.46 11.6 16.96 8.32 16.1-15.08 37.3-18.71 41.63-18.55 5.99.23-14.23 12.29-17.99 16.45-3.75 4.15 1.28 5.93 4.97 9.59 8.5 8.44 25.01-9.4 33.48-.93 7.21 7.22-11.07 28.79-6.98 36.97 14.99 4.41 31.51 1.87 34.19-3.83 15.02-31.91 44.29-67.45 60.2-77.77 10.29-.06 48.02 8.8 71.28 27.41 4.69 3.76 16.2-6.7 29.09-15.11-4.41-11.39-13.64-8.5-13.25-20.73-1-1.53 12.59-11.67 18.33-16.48 1.17-.98 3.32-4.24-2.26-5.39-22.82.72-58.05-4.81-63.81-7.29 6.4-14.6 13.42-46.26 37.8-74.93 20.01-23.54 46.53-62.1 79.04-86.48 18.07-13.55 33.15-38.73 49.29-54.87 2.06-2.07 9.5-6.72 7.44-4.65-8.55 8.55-64.01 15.04-73.47 5.58-6-6-17.8-32.02-20.46-39.98-1.09-3.29-8.11-9.3-4.64-9.3 14.93 0 32.95-69.74 38.59-82.3 72.38 13.61 139.63 90.39 241.31 52.54 121.77-45.33 126.47-144.02 91.66-221.23-41.19-91.38-181.73-132.88-233.01 12-14.56 41.14 5.97 96.92 47.88 122.53 39.51 24.15 102.12 28.68 135.31.68"/>
<path d="M1931.69 154.24c-192.75 138.82-349.03 411.48-349.03 411.48 65.89 48.83 45.93 138.31 17.11 180.82-32 50.85-91.63 55.68-135.47 46.03-5.73-2.27-12.02-6.02-16.32-7.3 125.45 82.79 143.25 184.85 143.25 184.85 44.93-78.91 102.34-101.28 179.49-73.67-26.3-87.23 22.83-144.19 103.05-163.04-48.98-62.64-14.6-145.26 74.75-189.4-70.89-71.8-41.01-191.12 43.16-251.17-41.7-24.42-68.96-83.61-59.99-138.6ZM1448.15 785.28c-26.86-7.95-32.58-7.92-32.58-7.92 22.05 3.85 28.62 5.35 32.58 7.92Z"/>
<path d="M1323.48 422.35c-.67 4.44-6.69 17.65-1.62 20.69 11.62 6.97 34.54 10.28 40.3 3.3 8.6-10.43 7.54-29.89 5.73-43.75-1.55-3.1-30.73-7.96-33.71-7.21-6.88 1.74-7.18 3.98-10.7 26.97Z"/>
<path d="M1318.14 576.02c21.03-10.65 52.23-109.03 41.84-117.17-9.9-7.77-25.44-9.56-38.12-10.23-13.91-.74-24.22 58.88-55.15 91.05-7.78 8.09-1.04 19.64 4.93 22.4 26.66 12.3 25.98 14.01 46.5 13.95Z"/>
<path d="M1201.9 722.94c-10.67 7.64-27.57 1.92-36.27 9.3-11.99 10.18-5.57 29.76-4.65 48.36-17.32-12.09-61.15-90.03-76.25-127.4-6.49-16.06-24.97-49.14-35.8-68.12-10.15-17.8-20.65-21.53-20.65-27.59.02-9.02-1.48-7.77-7.11.07-10.76 14.99-17.48 37.53-23.62 42.17-7.4-.01-9.3.55-16.08.65.2-5.47 2.74-22.11.97-27.7-4.69 0-25.07 3.51-30.69 2.64-.57-4.65 1.51-13.43 1.48-17.22-.01-.95 24.8-18.15 30.61-30.9 6.39-14.04 4.17-26.7 12.55-36.5 3.49-4.08-8.35-5.6-10.58-5.15-9.27 1.89-27.63 13.89-28.94 15.84-2.46 3.67-4.21 4.63-9.29 6.28-2.21.72-7.69-1.68-11.87-3.72-1.97-6.39 7.49-21.85 11.26-27.75-6.46-1.48-16.29-2.24-31.71-.61-.15-6.51 2.09-18.95 5.99-20.26 31.79-10.66 61.15-9.89 77.93-7.87 1.86.22-9.27-2.66-13.95-3.96-33.58-9.31-48.26-5.95-63.23-12.55-10.56-4.65 7.44-17.34 23.24-25.11-4.13-9.39-18.42-18.33-14.87-19.53 8.12-2.72 15.38-7.47 23.61-15.09 9.94 1.36 22.39 5.25 27.76 7.19 6.1-13.89-7.82-28.04-8.6-34.17 7.33-2.21 6.35 1.4 13.75-1.38 6.52-2.44 16.26 41.71 17.87 48.1 5.9 23.52 26.4 29.81 28.36 43.25 3.5 23.98 7.12 65.23 39.52 103.68 20.57 24.4 149.57 95.79 155.01 106.68 7.53 15.05-16.86 70.75-25.75 78.37Z"/>
<path d="M1313.49 588.1c-4.86 26.1-13.44 46.42-25.11 69.75-6.87 13.73-13.63 33.77-19.53 45.56-5.4 10.81-42.09 6.44-62.67 3.3-10.21-1.55-13.32-8.77-11.72-17.25 4.77-25.32 18.32-56.23 31.28-80.94 12.96-24.72 25.33-39.52 31.47-40.09 33.48-3.09 42.06 4.42 56.28 19.67Z"/>
<path d="M1266.66 709.21c-9.24 3.45-58.25-2.08-58.25-2.08-8.57.53-16.41 23.58-20.79 44.29-6.05 28.58 1.18 49.22 6.6 55.75 11.02 13.3 20.66 2.29 41.16-20.07 13.2-14.39 6.81-11.49 7.98-27.13 1.31-17.6 39.06-56.64 23.3-50.76Z"/>
<path d="M1247 891.02c-4.69 11.56 58.18 70.19 87.86 82.38 5.71 2.34 13.75 2.26 21.4-4.03 28.15-28.91 54.82-45.2 64.17-60.45 8.19-13.36-56.1-59.87-65.79-75.32"/>
<path d="M1524.58 1008.42c-1.07-11.34 1.29-10.16-6.76-19.63-19.2-22.59-77.38-72.74-84.19-75.34-7.73-2.94-6.48-4.63-15.99 1.05-14.51 8.67-25.73 21.08-39.06 34.41-7.51 7.51-20.87 23.06-26.81 30.8-5.35 6.97 85.4 47.81 120.88 67.76 5.12 2.88 17.52-1.85 17.52-1.85 10.44-8.83 20.52-32.31 34.41-37.2Z"/>
<path d="M1125.68 592.03c.23-2.28 4.35-24.43-2.63-28.94-6.35-4.09-20.37-12.78-33.9-22.52-13.52-9.73-27.81-21.05-28.24-19.23-4.1 17.12-10.9 23.04-5.63 25.84 13.68 7.27 40.88 24.78 54.06 41.5 3.97 5.03 12.9 2.66 16.34 3.35Z"/>
<path d="M1126.66 576.57c.24 3.52-1.18 18.33-.66 21.7 1.98 12.54 13.07 18 35.51 44.39 1.98 1.97 14.18 9.16 18.41 4.93 2.47-2.46 7.97-23.97 8.88-30.85.53-3.96-1.8-4.97-3.62-8.28-6.03-10.97-33.31-25.24-40.76-31.89-3.96-3.52-12.33-1.78-17.76 0Z"/>
<path d="M1214.44 628.85c-.6-5.97-9.02-10.52-16.43-10.52-5.05 0-9.28-1.27-9.95 2.87-1.46 9.02-8.84 26.07-6.3 33.65 2.54 7.58 11.96 14.35 13.91 14.64 4.58.69 9.26-9.17 13.84-24.53 1.55-5.18 6.24-10.24 4.93-16.11Z"/>
<path d="M1534.67 1003.65c-7.39 1.56-29.17 16.9-36.17 30.9-6.07 12.14-17.75 30.91-21.7 44.06-.82 2.75-3.29 14.73-3.71 21.34-.42 6.61 1.43 10.83 5.03 10.22 38.53-6.58 59.84-9.49 63.12-13.81 6.37-8.36 12.01-18.24 15.13-28.27 4.86-15.65 14.17-35.74 13.81-51.29-.79-3.25-24.03-14.23-35.51-13.15Z"/>
<path d="M1531.38 1102.28c-23.64 5.17-61.6 6.22-64.44 13.15-4.74 11.58-19.74 62.19-17.53 82 .8 7.18 2.18 7.64 12.27 12.69 6.65 3.32 46.35-14.63 51.29-17.1 8.73-4.36 12.39-1.09 13.81-9.86 5.08-31.49 12.07-64.77 11.79-71.12-.43-9.63-2.02-6.35-7.19-9.76Z"/>
<path d="M1568.2 1261.4c-8.04-11.96-13.79-18.37-22.35-28.27-5.97-6.9-14.77-21.28-17.76-30.25-1.51-4.54-3.1-10.52-7.89-10.52-6.22 0-52.45 18.68-55.32 21.1-4.27 3.59-10.02 4.4-4.51 14.41 12.53 22.77 42.93 54.11 64.43 62.47 4.43 1.71 9.53-5.21 18.52-12.9 8.99-7.68 23.42-13.7 24.88-16.04Z"/>
<path d="M1631.98 1342.94c1.11-5.39 4.98-4.31-.68-13.44-9.24-14.92-41.22-52.14-49.95-60.86-2.92-2.93-9.88-6.69-16.43-3.29-17.1 8.87-31.54 20.96-32.88 24.33-1.27 3.2-7.27 6.89-3.13 11.88 8.43 10.15 25.26 36.93 37.98 47.3 2.42 1.98 4.42 4.23 12.6 3.07 10.89-1.55 25.14-7.08 52.49-8.99Z"/>
<path d="M1596.48 1405.41c27.09-41.83 50.15-56.38 38.13-57.21-3.8-.26-12.33-2.71-17.75 0-7.19 3.6-32.48 4.69-39.45 8.55-12.39 6.85-10.9 15.75-17.1 32.88-1.97 3.93-7.11 23.48-4.6 23.67 37.65 2.86 39.59-4.29 40.77-7.89Z"/>
<path d="M1587.27 1419.22c-3.9-1.19-33.1-10.72-37.48-.66-5.06 11.63-9.97 24.49-18.41 38.14-2.94 4.41-20.26 22.64-17.1 29.58 3.34 7.32 13.81 2.3 27.62 7.24 1.85.92 11.73 7.45 13.15 4.6 3.87-7.74 2.07-15 5.92-26.3 7.95-23.35 14.25-29.4 26.3-52.6Z"/>
<path d="M1391.98 996.41c-12.16-10.39-37.53 24.64-34.19 26.31 5.56 2.78 25.13 11.64 38.87 19 13.73 7.36 21.64 13.2 27.54 7.3 3.07-3.07 35.79-10.9 25.64-21.04-8.86-8.87-25.44-9.55-35.5-17.1-7.7-5.77-14.1-8.57-22.36-14.47Z"/>
<path d="M1353.19 1026c-5.65-.24-15.8 8.91-21.7 14.47-12.44 11.72-30.81 30.94-31.57 41.43-.4 5.55 2.49 9.89 12.65 9.94 17.51.07 56.77 4.5 61.4 2.55 17.09-7.16 18.74-12.64 31.82-29.59-4.68 3.44 8.31-11.93 5.92-13.15-10.72-5.46-26.9-14.44-36.17-19.07-7.64-3.82-13.63-6.58-22.35-6.58Z"/>
<path d="M1378.17 1142.39c-4.42-12.14-3.14-40.62-9.2-46.69-3.88-3.87-23.95-1.62-30.91-3.94-13.19-1.46-30.83-.03-39.45 3.29-8.14 3.13-6.04 9.16-1.32 25.64 1.43 4.97 2.48 16.78 4.61 21.04 1.74 3.49 7.01 5.48 8.55 8.55 4.85 3.13 15.65 5.44 21.04 7.23 10.81-.48 37.83 6.64 43.39 2.63 1.67-4.69 1.31-11.96 3.29-17.75Z"/>
<path d="M1390.67 1221.95c-1.77-14.98-5.47-48.42-17.1-57.86-3.49-2.84-19-5.92-30.25-5.92-5.44 0-25-5.13-26.96-3.29-8.25 7.78 11.38 30.61 15.13 38.8 1.65 3.61 15.45 8.88 24.98 14.46 10.13 5.94 31.19 24.62 34.2 13.81Z"/>
<path d="M1322.94 1241.02c8.49-1.07 17.89-1.02 26.96-3.29 8.2-2.05 22.33-.63 29.59-2.63 2.59-.71 4.55-5.36 2.63-9.2-11.47-10.44-38.93-25.71-50.63-31.56-2.97-1.49-10.72 2.72-13.15 3.94-8.55 7.23-12.26 12.89-14.2 18.75-3.14 9.52 11.7 25.76 18.8 23.99Z"/>
<path d="M1263.1 1271.93c8.86-5.6 19.02-12.47 26.96-17.76 8-5.33 18.46-7.59 25.65-11.18-2.95-8.06-12.12-21.32-15.13-24.33-7.27-7.27-39.91 12.23-51.29 15.79-3.39 1.06 4.98 17.18 7.89 23.01 1.8 3.59 1.54 12.27 5.92 14.47Z"/>
<path d="M1244.03 774.82c10.96 3.97 30.47 15.57 45.37 23.02 5.61 2.8 9.9 1.27 17.1-2.63 2.16-1.18 3.07-3.07 1.32-4.61.47-9.58-2.18-23.5-.66-29.59.09-14.19 7.4-26.62 5.26-30.9-2.72-5.44-6.76-6.84-12.5-9.21-11.74-4.84-23.76-10.53-26.27-8.6-5.39 4.15-6.44 5.48-9.89 11.23-2.48 7.45-10.35 12.15-13.81 19.07-5.39 10.78-7.43 19.38-5.92 32.22Z"/>
<path d="M1226.28 825.45c21.07-5.31 29.88-6.72 48-13.15 5.26-1.86 12.18-1.98 17.1-5.26 8.59-5.73 1.56-6.16-1.47-7.94-25.51-14.97-38.9-20.59-47.19-24.28-3.34-1.48-10.7 3.13-13.15 3.95-3.31 1.1-38.54 24.58-34.19 28.93 2.64 2.64 7.94 3.99 11.17 7.23 4.96 4.95 13.43 13.67 19.73 10.52Z"/>
<path d="M1150.66 854.39c6.72 5.78 28.44-7.37 38.14-11.18 11.72-4.61 14.75-5.18 18.16-9.54 2.3-2.95 12.2-10.71 6.83-14.79-4.48-3.4-13.59-5.35-21.01-7.55-5.4-1.6-6.25.06-8.58.97-2.69 1.05-27.18 18.47-39.97 25.96-7.45 4.37-4.1 11.13 6.43 16.13Z"/>
<path d="M1147.05 854.06c-2.97-3.04-3.97-4.03-6.54-6.69-2.03-2.09-6.74-1.74-10.8-.94 0 0-19.35 11.93-41.33 23.32-2.91 1.5-11.82 3.7-15.64 11.27-2.4 4.76 3.56 3.76 5.26 5.59 4.52 4.84 10.8 11.89 18.09 18.08 8.31 7.06 7.96-4.35 17.09-12.82 6.26-5.81 29.04-19.76 31.49-24.87 1.19-2.48 5.66-10.58 2.38-12.94Z"/>
<path d="M1338.13 271.94c8.77 17.08 18.27 26.38 29.29 40.45-18.93 5.15-28.27 7.33-54.4 11.16 0 0-18.57-25.71-26.03-44.87 32.24-1.6 51.14-6.74 51.14-6.74Z" fill="#F9D616"/>
<path d="M1220.03 472.8c17.59-7.04 33.14-28.81 29.77-42.58 21.74-6.33 28.79-10.38 49.74-13.22 32.91-4.46 76.29-4.61 98.57 12.09 11.77 6.09 18.16 10.98 33.48 19.99 2.17-9.61-17.07-42.5-25.11-51.61-1.36-1.53-5.58-9.11-11.16-12.09 12.09-12.59 34.89-17.2 44.4-17.2-20.68-18.59-74.62-28.13-74.62-28.13 0 0 43.39-22.21 46.96-23.01-33.48-20.56-81.99-5.82-92.99-4.65-5.59-8.84-12.99-16.89-19.53-25.58-25.36-33.66-100.19-59.75-163.2-52.07 30.41 13.72 42.4 21.08 53.94 36.03-14.98-3.72-19.14 1.39-19.14 1.39 0 0 14.95 54.62 30.76 72.31 7.44-20.18 8.78-25.63 15.81-39.06 10.58 10.59 47.96 34.53 73.07 39.43 15.82 19.79 26.43 38.69 26.43 38.69 0 0-22.27-1.57-24.18-.93-21.47 7.15-29.91 6.23-53.93 12.08-8.83-16.1-13.11-45.56-11.63-49.75-6.05 5.58-7.09 10.95-8.83 13.49-11.97 17.48-9.5 29.02-13.02 43.7-16.74 2.56-23.25 10.7-23.25 10.7 0 0 25.36 12.14 29.29 19.53 8.51 15.94 11.69 23.43 8.37 40.45Z"/>
</g>
<g fill="none">
<path d="M1459.15 295.29c0 0 3.12 1.75 14.28 12.91-21.12-.54-32.16-.05-32.16-.05m244.18 777.45c-1.4-16.15-5.9-33.05-9.3-48.35m9.3 94.85c.37 19.4-.6 33.41-5.58 48.36M1245.6 892.42c65.1-2.27 105.84-1.43 118.1-19.76-20.03-12.52-36.61-11.75-45.56-31.62 42.39-7.99 57.2-5.43 74.39-66.02m-15.34-495.64c2.06-5.23 6.98-11.91 9.99-16.74m56.03 429.85c-26.5-12.91-40.22-14.07-40.22-14.07m585.03-386.04C1838.1 337.09 1611.14 598.1 1611.14 598.1m330.55-52.76c-105.21-2.63-315.62 102.58-315.62 102.58m244.6 84.16c-119.67-44.71-252.49-32.87-252.49-32.87m149.29 193.23c-20.5-33.43-115.91-116.04-166.62-145.35m-10.29 220.39c15.78-111.78-19.73-189.37-19.73-189.37M1311.1 686.05c-18.93-5.42-28.67 20.32-39.45 23.02M1337.2 272.4c-11.41 9.32-14.18 36.49-24.18 51.15"/>
<g stroke-linecap="round">
<path d="M1022.19 420.02c-24.91-15.19-55.56-29.37-69.51-42.07M1421.9 1587.22c45.37-31.56 53.59-45.7 53.59-45.7m-100.93-4.6c7.56 5.26 12.76 5.31 19.06 4.93 20.38-1.25 81.54-26.96 81.54-26.96"/>
<path d="M942.46 896.37c29.01 6.23 77 8.02 103.45-2.56" stroke-width="6.12"/>
<path d="M1022.66 923.1c-20.81 12.63-33.33 18.05-39.61 21.04-25.17 11.98-29.9 8.41-43.15 16.39" stroke-width="7.14"/>
<path d="M1095.76 1251.21c22.86 2.31 53.88 4.28 89.75-2.63M1124.69 1201.9c25.74 22.42 55.19 32.87 79.56 33.86" stroke-width="6.12"/>
</g>
</g>
</g>
</svg>