<?xml version="1.0" encoding="UTF-8" standalone="no"?>
<!-- Created with Inkscape (http://www.inkscape.org/) -->

<svg
   xmlns:dc="http://purl.org/dc/elements/1.1/"
   xmlns:cc="http://creativecommons.org/ns#"
   xmlns:rdf="http://www.w3.org/1999/02/22-rdf-syntax-ns#"
   xmlns:svg="http://www.w3.org/2000/svg"
   xmlns="http://www.w3.org/2000/svg"
   xmlns:sodipodi="http://sodipodi.sourceforge.net/DTD/sodipodi-0.dtd"
   xmlns:inkscape="http://www.inkscape.org/namespaces/inkscape"
   width="254.00067mm"
   height="152.4001mm"
   viewBox="0 0 900.00238 540.00036"
   id="svg2"
   version="1.1"
   inkscape:version="0.91 r13725"
   sodipodi:docname="South Yorkshire Unofficial Flag.svg">
  <defs
     id="defs4" />
  <sodipodi:namedview
     id="base"
     pagecolor="#ffffff"
     bordercolor="#666666"
     borderopacity="1.0"
     inkscape:pageopacity="0.0"
     inkscape:pageshadow="2"
     inkscape:zoom="0.5"
     inkscape:cx="1516.4423"
     inkscape:cy="263.83696"
     inkscape:document-units="px"
     inkscape:current-layer="g4155"
     showgrid="false"
     fit-margin-top="0"
     fit-margin-left="0"
     fit-margin-right="0"
     fit-margin-bottom="0"
     showguides="false"
     inkscape:window-width="2560"
     inkscape:window-height="1577"
     inkscape:window-x="1192"
     inkscape:window-y="-8"
     inkscape:window-maximized="1" />
  <metadata
     id="metadata7">
    <rdf:RDF>
      <cc:Work
         rdf:about="">
        <dc:format>image/svg+xml</dc:format>
        <dc:type
           rdf:resource="http://purl.org/dc/dcmitype/StillImage" />
        <dc:title></dc:title>
      </cc:Work>
    </rdf:RDF>
  </metadata>
  <g
     inkscape:label="Layer 1"
     inkscape:groupmode="layer"
     id="layer1"
     transform="translate(92.079787,-62.040494)">
    <g
       id="g4155"
       transform="translate(-2.020308,4.5456836)">
      <rect
         style="opacity:1;fill:#ffffff;fill-opacity:1;stroke:none;stroke-width:1;stroke-linecap:round;stroke-linejoin:round;stroke-miterlimit:4;stroke-dasharray:none;stroke-dashoffset:0;stroke-opacity:1"
         id="rect4298"
         width="900.00623"
         height="539.99951"
         x="-90.059479"
         y="57.499561" />
      <path
         style="fill:#31ab74"
         d="m 613.45113,460.58661 c -0.70709,-0.54371 -3.66651,-3.16214 -6.57648,-5.81872 -5.63958,-5.14849 -7.65081,-6.34721 -14.92646,-8.8964 -7.42446,-2.60132 -24.3099,-6.79288 -27.32202,-6.78228 -3.18591,0.0112 -13.11079,-2.1519 -18.66861,-4.0688 -13.37134,-4.61176 -22.70623,-13.04873 -24.88131,-22.48794 -0.70263,-3.04934 -0.63891,-23.51356 0.0725,-23.27642 0.30704,0.10233 0.76266,0.88037 1.0125,1.72895 0.83115,2.82262 3.7314,7.35037 6.56802,10.2537 3.12624,3.19973 8.79881,7.08098 12.5613,8.59461 1.36125,0.54763 2.98004,1.19745 3.5973,1.44406 3.03503,1.21253 7.8102,2.57474 11.2527,3.21005 4.32873,0.79886 11.03769,1.93997 13.725,2.33445 2.58678,0.37971 9.03546,1.95497 11.925,2.91297 4.03961,1.33931 4.83579,1.41995 6.62756,0.67128 3.7138,-1.55171 4.60768,-3.71443 2.70328,-6.54037 -1.78924,-2.65504 -4.15683,-3.90156 -10.23084,-5.38646 -3.09375,-0.75632 -6.6375,-1.65352 -7.875,-1.99378 -1.2375,-0.34025 -3.36375,-0.74902 -4.725,-0.90837 -2.49943,-0.29259 -6.36957,-0.94037 -13.6593,-2.28627 -4.41432,-0.81502 -12.01941,-3.39586 -16.43872,-5.57857 -6.38577,-3.15398 -12.68721,-9.08104 -15.42852,-14.5119 -2.55357,-5.05891 -2.55407,-5.06497 -2.88702,-35.28754 -0.16943,-15.37642 -0.16137,-28.19437 0.018,-28.48435 0.53847,-0.87131 1.42384,0.22011 2.07873,2.56252 19.26313,34.87733 61.23706,18.98797 88.14046,43.61069 l 2.05151,1.88175 0,10.71825 0,14.71826 c -6.00015,-2.86479 -11.16898,-4.21009 -17.35808,-6.58678 -6.28398,-2.41314 -12.23221,-4.82107 -22.46692,-9.09495 -9.56048,-3.99233 -13.87341,-5.59226 -16.58457,-6.15224 -2.45043,-0.50613 -2.86128,-0.48814 -3.50276,0.15333 -0.5652,0.56521 -0.65727,1.18975 -0.41422,2.81037 0.26496,1.76687 0.59859,2.29234 2.19451,3.45624 3.6626,2.67115 9.09855,5.20826 22.80704,10.64471 3.09375,1.22691 9.37125,3.5906 13.95,5.25266 10.24897,3.7203 13.76968,5.53398 17.49312,9.01152 3.24274,3.02861 7.03552,8.51929 7.77321,11.25306 0.26748,0.99109 0.86818,2.75078 1.33497,3.91041 0.46678,1.15963 0.8487,2.42526 0.8487,2.8125 0,0.38724 0.405,1.10908 0.9,1.60408 0.83542,0.83543 1.50529,0.90051 9.3375,0.90718 5.40868,0.005 9.97209,-0.23836 12.7125,-0.67683 2.35125,-0.37621 7.3125,-1.09798 11.025,-1.60394 15.13354,-2.06248 23.93388,-4.93278 28.38379,-9.25761 2.49791,-2.42768 2.5745,-3.56916 0.30371,-4.52513 -3.83972,-1.61643 -12.84255,-1.21487 -21.9375,0.97851 -7.76498,1.87265 -16.51131,2.95511 -26.1,3.23019 -4.14493,0.0265 -8.43714,0.59469 -11.18482,-1.44983 -0.22791,-0.16959 -0.29018,-1.12011 -0.29018,-1.12011 l 0,-20.50454 c 0,-17.93193 0.10786,-21.61494 0.67261,-22.96655 6.49963,-10.09586 19.67742,-14.9942 31.33337,-16.10174 0.34731,0.21465 0.44473,5.43028 0.3307,17.70409 -0.18256,19.64846 -0.23616,19.30599 3.18051,20.32964 6.0923,0.24925 11.70237,-1.94673 16.8471,-4.68054 8.81084,-4.68192 7.1991,-6.54673 8.39372,-29.56279 0.31455,-6.06051 0.66546,-9.40123 1.02289,-9.73874 9.67222,-4.83426 23.26983,-11.00672 25.48508,-23.11126 0.1687,-0.9687 0.53118,-1.575 0.94167,-1.575 0.58644,0 0.64732,5.45453 0.5022,45 -0.12591,34.31418 -0.30101,45.58772 -0.73733,47.475 -3.04407,13.16723 -17.10292,22.87051 -37.79752,26.08741 -13.19891,2.05173 -19.85216,3.53614 -29.925,6.67656 -9.3866,2.92648 -10.65641,3.67112 -18.38097,10.779 -3.87423,3.56495 -7.37676,6.66295 -7.78343,6.88447 -0.52209,0.28438 -1.11726,0.11221 -2.025,-0.58581 z M 117.16552,291.00535 C 78.13395,287.97421 41.0851,276.78958 22.29992,262.3665 c -1.53142,-1.17581 -5.42422,-4.67104 -8.65067,-7.76718 -3.22644,-3.09614 -7.73654,-6.94559 -10.02245,-8.55434 -16.71071,-11.76049 -39.7892,-19.58601 -68.26128,-23.1462 -6.85727,-0.85744 -16.91629,-1.59961 -21.7125,-1.60197 l -3.7125,-0.002 0,-81.9 0,-81.9 450.00122,0 450.00117,0 -0.11367,83.09266 -0.11372,83.09266 -0.94482,0.14419 c -0.51966,0.0793 -3.65841,1.24674 -6.975,2.59429 -19.45476,7.90463 -38.01532,17.70046 -56.97337,30.06925 -3.02126,1.97115 -5.70438,3.4534 -5.9625,3.29387 -0.25812,-0.15952 -0.47102,-1.74621 -0.47318,-3.52598 0,-1.77977 -0.2092,-5.56469 -0.46017,-8.41094 -5.61105,-63.62785 -58.49509,-112.0423 -122.38596,-112.0423 -46.17315,0 -88.30966,25.63211 -109.24915,66.45745 -7.76232,15.134 -11.99862,30.38233 -13.22699,47.60985 -0.28237,3.96 -0.66231,7.37017 -0.84429,7.57816 -0.18198,0.20799 -2.17611,-1.20283 -4.43137,-3.13516 -15.0705,-12.91255 -36.28067,-24.43465 -57.38333,-31.17263 -11.22291,-3.58343 -24.04327,-6.30753 -37.38987,-7.9447 -7.86622,-0.96491 -28.77183,-1.35259 -37.125,-0.68847 -24.45465,1.94431 -44.9869,7.48565 -65.29677,17.6226 -11.90133,5.94013 -20.13136,11.2728 -31.69744,20.5384 -3.97057,3.18083 -8.83057,6.9121 -10.8,8.29172 -22.24246,15.58116 -51.75479,25.58013 -86.83079,29.41884 -8.01307,0.87695 -35.79355,1.27168 -44.1,0.62661 z"
         id="path4159"
         inkscape:connector-curvature="0"
         sodipodi:nodetypes="csssssccsssssscsssssssscccccccssccsssscssscssssscscsccscssccssssssccccsssscccccccccssccssssssssssssscc" />
      <path
         style="fill:#382e46"
         d="m -90.05948,430.99498 0,-166.5 3.9375,0.002 c 2.16563,9e-4 6.7725,0.20993 10.2375,0.46429 27.74974,2.037 53.29574,8.71625 71.55,18.70744 7.53477,4.12404 11.61675,7.16119 18.51737,13.77765 6.41861,6.1543 11.00685,9.76633 16.91058,13.31264 20.6757,12.41967 53.67834,21.16853 88.72289,23.52007 10.10741,0.67822 31.25394,0.31705 40.77416,-0.6964 30.71245,-3.26941 56.8005,-11.2542 77.625,-23.75872 6.59954,-3.96284 11.92226,-7.75004 20.13699,-14.32782 11.38891,-9.11943 18.52602,-13.76052 29.98973,-19.50161 18.33803,-9.18376 36.0465,-14.51562 57.87328,-17.42509 6.75012,-0.89978 9.58209,-1.02051 24.075,-1.02635 17.5442,-0.007 22.09883,0.34014 35.775,2.72727 32.91768,5.74565 64.30608,20.34421 85.64981,39.8352 l 2.3998,2.19148 0.40793,47.58656 c 0.65146,75.9941 0.53361,70.92958 1.73551,74.58656 6.14511,18.69753 24.63584,30.10592 55.82457,34.44258 12.52791,1.74195 32.86589,7.52854 42.53238,12.10137 4.19985,1.98678 5.01705,2.61408 12.2517,9.4049 4.26344,4.00189 7.87055,7.27615 8.01581,7.27615 0.14526,0 4.31338,-3.86615 9.26257,-8.59145 8.25521,-7.88178 9.30857,-8.7347 12.75242,-10.32578 9.25258,-4.2747 29.71453,-10.00563 41.64988,-11.66519 19.79595,-2.75255 33.01776,-7.75005 43.76358,-16.54153 5.23377,-4.28194 9.82467,-11.09591 12.06077,-17.90105 l 1.03509,-3.15 0.37062,-48.375 c 0.20385,-26.60625 0.52069,-52.52625 0.70407,-57.6 l 0.33349,-9.225 3.825,-2.61321 c 9.55089,-6.52506 25.10285,-15.55767 37.29443,-21.66065 10.86403,-5.43843 27.2578,-12.46409 30.68176,-13.14888 l 1.32381,-0.26473 0,165.43125 0,165.43125 -450,0 -450,0 0,-166.5 z"
         id="path4157"
         inkscape:connector-curvature="0"
         sodipodi:nodetypes="cccssssssssssssscssssssssssscsscsscccccccc" />
      <g
         id="g4274"
         transform="matrix(0.18344993,0,0,0.18344993,437.52605,191.23674)">
        <path
           sodipodi:nodetypes="scccscccscccscccscccs"
           inkscape:connector-curvature="0"
           id="path4226"
           d="M 518.29569,168.1059 C 541.84691,107.89138 568.05253,6.4682016 672.04173,-8.5479231 c 21.58999,-20.0652049 8.55766,-44.9837919 3.08929,-70.6327069 18.68682,16.373258 45.44234,21.441894 67.86317,15.683071 16.45973,-71.960441 157.30314,-104.619071 228.99386,-101.461071 65.46125,2.88359 202.31935,-1.37501 234.16195,100.877023 21.6322,1.942828 42.8019,-12.304527 63.9691,-26.637504 -6.9841,22.440476 -8.312,44.880953 -4.6418,67.663281 84.4375,-5.846321 144.6466,104.91903 160.7028,173.88393 14.661,62.97223 60.6523,182.58868 -23.5471,249.52327 3.8326,21.05735 19.0952,45.48149 39.4445,62.02465 -24.8239,-1.02726 -45.9833,7.43142 -62.1963,21.88684 15.4929,89.6392 -67.1095,172.31674 -125.8542,212.30455 -54.1663,36.87132 -155.2436,124.73777 -239.501,65.24145 -22.36937,11.94144 -34.05358,57.74486 -39.73308,81.21229 -4.50962,-22.53944 -9.35565,-68.19612 -41.71748,-82.88413 C 874.76689,823.94768 752.95643,759.30068 695.02723,716.65158 642.95997,678.31819 538.25828,610.41429 566.77139,506.6994 551.25618,491.95562 525.53527,486.79067 499.345,485.43429 519.99686,471.62191 542.44851,449.28037 540.81079,424.7695 463.31852,383.06278 492.093,235.09961 518.29569,168.1059 Z"
           style="fill:#363047;fill-opacity:1;fill-rule:evenodd;stroke:#363047;stroke-width:1px;stroke-linecap:butt;stroke-linejoin:miter;stroke-opacity:1" />
        <path
           style="fill:#ffffff;fill-rule:evenodd;stroke:none;stroke-width:1px;stroke-linecap:butt;stroke-linejoin:miter;stroke-opacity:1"
           d="m 1255.1446,394.70566 c 17.2258,-0.68293 29.8745,-3.06525 44.8812,-11.55006 23.2188,-13.12806 36.1636,-31.03663 22.4111,-59.11161 -7.0943,-14.48251 -20.118,-30.55922 -30.157,-49.33388 -31.3958,-52.46508 -32.9468,-84.44515 -34.6404,-151.23764 -0.6553,-31.255602 -18.3264,-56.532915 -44.9802,-57.549965 -17.2268,-0.657384 -34.7579,9.618103 -50.3784,16.91161 -11.5303,5.38368 -28.1448,19.308745 -31.177,18.489305 -0.5643,-3.997334 9.0468,-23.428639 11.5575,-35.903795 3.4013,-16.900441 2.8802,-29.461648 -0.6328,-46.339208 -6.0326,-28.9822924 -28.9234,-43.387161 -61.053,-32.375644 -15.2557,5.2284448 -27.6728,10.5571826 -48.6713,14.06886681 -25.6349,4.28702669 -45.66155,5.68423289 -58.77624,5.57398999 -13.11469,0.1102429 -33.31999,0.498751 -58.9548,-3.7882757 -20.99856,-3.5116842 -33.2808,-9.6997066 -49.02843,-13.1760101 -30.52745,-6.738964 -54.8463,11.7145851 -62.12438,37.375644 -4.70393,16.58514 1.14436,36.04591 4.54568,52.946351 2.5107,12.475156 12.12183,31.906461 11.56358,34.830291 -3.19476,-0.59571 -19.09533,-15.946202 -30.5123,-22.322435 -15.4669,-8.638043 -27.86335,-13.385342 -45.69739,-14.217707 -27.59342,-1.28779 -48.47722,16.508969 -51.94335,47.683592 -1.78801,16.08147 1.22468,29.68209 -2.26265,50.7664 -4.25736,25.73967 -9.4994,45.22393 -13.9386,57.65557 -4.22278,12.50215 -10.514,31.83366 -23.18795,54.83125 -10.38177,18.8383 -14.51228,20.53495 -23.12525,34.39301 -16.69661,26.86443 -6.61294,55.88349 16.17347,71.00846 14.72721,9.7755 21.53443,10.80957 39.33326,12.10598 20.27258,1.47659 41.13215,-1.57194 43.84702,0.58978 -1.52235,3.36379 -20.72018,12.68738 -30.18755,20.85978 -12.8257,11.07138 -21.08325,20.63706 -27.3899,36.30645 -9.75778,24.24422 0.30061,48.56447 28.19446,61.57816 14.38905,6.7131 27.96224,8.34778 46.47303,18.17063 22.59788,11.99173 39.07736,22.87336 49.25224,30.79423 10.30757,7.74991 26.31961,19.52037 43.75809,38.15981 14.2846,15.26834 20.1522,27.40416 30.35765,39.50791 19.78371,23.46362 45.87842,23.68528 67.00309,8.13767 13.65318,-10.04866 20.79656,-28.63134 28.31011,-43.76695 5.54617,-11.17245 9.73342,-31.98038 11.92873,-33.9138 2.13632,2.37059 5.31606,23.77217 10.39472,35.53696 6.88021,15.9381 13.70396,27.02513 27.12966,38.32545 20.7727,17.48419 41.7898,14.1628 63.2554,-7.93711 11.0731,-11.40026 13.8943,-19.68431 30.3149,-40.00911 38.9869,-47.30248 92.3862,-70.01439 137.4539,-86.46977 29.2037,-10.85351 42.771,-38.79119 34.0784,-64.13187 -5.6181,-16.37808 -10.3116,-21.2468 -23.4306,-32.88589 -14.9423,-13.25673 -33.0659,-23.35569 -35.5229,-29.89386 1.6894,-4.94272 22.8399,-0.18846 35.5552,-0.69256 z"
           id="path4176-9"
           inkscape:connector-curvature="0"
           sodipodi:nodetypes="sssccsscsssscsssscsssscsssscsssscsssscsssccsscs" />
        <path
           style="fill:#363047;fill-opacity:1;fill-rule:evenodd;stroke:#363047;stroke-width:1px;stroke-linecap:butt;stroke-linejoin:miter;stroke-opacity:1"
           d="m 1180.464,248.42452 c 0,0 -31.6847,24.78984 -32.5794,44.41574 -1.3379,29.34958 27.1141,44.20146 16.5262,79.28363 -15.2099,50.39659 -39.4797,40.42121 -58.2658,58.91292 -14.7349,14.5041 -2.7926,62.87149 -1.6664,63.07728 0.1417,-1.10553 -30.6555,-25.49236 -59.4752,-11.68666 -24.1182,11.5535 -22.9572,38.62593 -72.76662,39.96115 -38.96258,1.04446 -47.17471,-34.80385 -72.41392,-40.90333 -24.94404,-6.02815 -56.75807,23.78864 -55.72772,23.67415 1.70205,-2.47016 19.4522,-47.24184 -0.029,-64.65677 -19.93773,-17.823 -44.98813,-10.57836 -61.21347,-57.6899 -15.57344,-45.21873 20.33624,-55.83788 17.10364,-84.29249 -2.16161,-19.02744 -35.03933,-43.80109 -35.03933,-43.80109 0,0 40.34329,-1.27573 52.91774,-16.37077 18.80448,-22.57387 7.51723,-48.6346 34.75199,-73.15258 37.59241,-33.84241 58.62053,-12.5414 84.7634,-15.9195 20.50528,-2.64963 35.00392,-47.42997 34.23105,-48.27454 -0.78448,0.79168 21.97651,45.98007 42.80234,48.48478 26.5514,3.19335 38.6424,-18.27137 78.0527,12.19171 37.839,29.24849 16.1968,47.8125 35.2952,69.15178 12.771,14.26947 53.6254,14.83655 53.6254,14.83655"
           id="path4262"
           inkscape:connector-curvature="0"
           sodipodi:nodetypes="cssscssscssscssscsssc" />
        <path
           sodipodi:nodetypes="cscscscscsc"
           inkscape:connector-curvature="0"
           id="path4256"
           d="m 879.18189,288.3885 c -21.63404,-13.83699 -50.62925,-54.58494 -9.28691,-100.07393 37.69282,-41.47342 97.30967,-9.96023 103.73614,26.33279 34.05288,-60.90391 86.05468,-48.18975 103.67708,-33.66634 16.8714,13.90449 42.447,53.3667 -1.6517,102.35672 31.8544,5.30937 74.7503,28.01734 60.1831,87.5832 -10.8773,44.47761 -78.8331,54.10923 -93.7706,34.64526 0,0 8.5383,84.3047 -65.41437,83.89341 -74.08783,-0.41204 -63.12751,-81.36804 -63.12751,-81.36804 -65.62492,31.50578 -91.4865,-8.23793 -102.513,-29.55603 -7.73725,-14.95882 -9.2907,-77.47885 68.16777,-90.14704 z"
           style="fill:#ffffff;fill-rule:evenodd;stroke:#ffffff;stroke-width:1px;stroke-linecap:butt;stroke-linejoin:miter;stroke-opacity:1" />
        <path
           sodipodi:nodetypes="ssssscssscs"
           inkscape:connector-curvature="0"
           id="path4216"
           d="m 1152.9784,-22.57115 c -10.239,-24.62976 -41.9873,-40.687392 -72.1245,-32.375644 -37.342,10.298827 -69.6976,22.671198 -110.16184,22.857143 -32.57089,0.149672 -90.35162,-15.672772 -109.84035,-19.964286 -30.5309,-6.723058 -58.99349,12.446157 -67.48154,37.732786 -10.01246,29.827949 -5.23447,49.489776 -1.52347,76.105043 -14.48469,-10.460569 -32.52949,-23.852756 -29.16615,-76.167674 4.67185,-72.668108 97.72935,-114.140388 210.82273,-109.158588 65.46122,2.88359 195.45132,-2.38516 214.16192,100.877012 7.9045,43.624329 -29.3836,80.098775 -33.6954,79.942718 5.3422,-26.076538 10.032,-53.3318386 -0.9914,-79.84851 z"
           style="fill:#ffffff;fill-rule:evenodd;stroke:none;stroke-width:1px;stroke-linecap:butt;stroke-linejoin:miter;stroke-opacity:1" />
        <path
           style="fill:#ffffff;fill-rule:evenodd;stroke:none;stroke-width:0.944359px;stroke-linecap:butt;stroke-linejoin:miter;stroke-opacity:1"
           d="m 793.56123,269.46402 c 9.73028,-1.17532 23.61254,-5.96078 33.49924,-11.66466 7.963,8.0278 16.37963,15.8765 27.28092,22.74342 -11.01491,2.85182 -21.95106,5.51017 -34.03558,10.99245 -8.37011,-8.57667 -17.56553,-15.3056 -26.74459,-22.07122 z"
           id="path4238"
           inkscape:connector-curvature="0"
           sodipodi:nodetypes="ccccc" />
        <path
           sodipodi:nodetypes="ccccc"
           inkscape:connector-curvature="0"
           id="path4240"
           d="m 974.01807,131.32237 c 3.64338,9.3798 12.46124,22.2315 21.41442,30.99248 -7.48626,9.21032 -14.6579,18.83671 -20.10544,30.74196 -5.89589,-10.35853 -11.5481,-20.67252 -20.75706,-31.63527 8.03021,-9.70485 13.71586,-19.90693 19.44809,-30.09918 z"
           style="fill:#ffffff;fill-rule:evenodd;stroke:none;stroke-width:1.02861309px;stroke-linecap:butt;stroke-linejoin:miter;stroke-opacity:1" />
        <path
           style="fill:#ffffff;fill-rule:evenodd;stroke:none;stroke-width:1.02861309px;stroke-linecap:butt;stroke-linejoin:miter;stroke-opacity:1"
           d="m 1154.264,261.5614 c -8.2694,5.73351 -18.7057,17.30945 -25.133,28.06142 -10.7042,-5.12779 -21.7395,-9.8524 -34.5879,-12.36838 8.6948,-8.15241 17.4032,-16.05748 25.9115,-27.57236 11.3122,5.54112 22.5601,8.68637 33.8094,11.87932 z"
           id="path4242"
           inkscape:connector-curvature="0"
           sodipodi:nodetypes="ccccc" />
        <path
           sodipodi:nodetypes="ccccc"
           inkscape:connector-curvature="0"
           id="path4244"
           d="m 1084.4359,471.52617 c -6.9447,-5.20365 -19.2601,-10.58818 -29.8088,-12.9171 1.2786,-10.15552 2.1373,-20.47213 0.6946,-31.67031 9.0396,4.89257 17.8806,9.86364 29.6207,13.68733 -1.4511,10.76563 -0.9596,20.8258 -0.5065,30.90008 z"
           style="fill:#ffffff;fill-rule:evenodd;stroke:none;stroke-width:1.02861309px;stroke-linecap:butt;stroke-linejoin:miter;stroke-opacity:1" />
        <path
           inkscape:transform-center-y="20.021109"
           inkscape:transform-center-x="-11.994586"
           style="fill:#ffffff;fill-rule:evenodd;stroke:none;stroke-width:1.02861309px;stroke-linecap:butt;stroke-linejoin:miter;stroke-opacity:1"
           d="m 867.03455,472.91723 c 2.72032,-8.69807 3.73896,-22.77722 2.35093,-34.03702 10.50276,-2.29035 21.01794,-5.05283 31.60014,-10.4026 -1.67868,10.66342 -3.50462,21.15779 -3.17937,34.1206 -11.16723,2.33318 -20.95574,6.34271 -30.7717,10.31902 z"
           id="path4246"
           inkscape:connector-curvature="0"
           sodipodi:nodetypes="ccccc" />
        <g
           id="g4252">
          <circle
             r="83.789886"
             cy="320.96591"
             cx="976.40906"
             id="circle4250"
             style="opacity:1;fill:#363047;fill-opacity:1;stroke:#382e46;stroke-width:1.610636;stroke-linecap:round;stroke-linejoin:round;stroke-miterlimit:4;stroke-dasharray:none;stroke-dashoffset:0;stroke-opacity:1" />
          <circle
             style="opacity:1;fill:#ffffff;fill-opacity:1;stroke:#ffffff;stroke-width:1.12020397;stroke-linecap:round;stroke-linejoin:round;stroke-miterlimit:4;stroke-dasharray:none;stroke-dashoffset:0;stroke-opacity:1"
             id="path4248"
             cx="976.40906"
             cy="320.96591"
             r="58.276211" />
        </g>
        <path
           sodipodi:nodetypes="ccccc"
           inkscape:connector-curvature="0"
           id="path4228"
           d="m 1203.2378,0.39936357 c 3.6147,-9.72869397 5.8459,-25.11678157 5.2741,-37.18990257 11.4195,-3.600098 22.8905,-7.714 34.6429,-14.642861 -2.66,11.751139 -5.4639,23.33433 -6.167,37.368478 -12.1336,3.717045 -22.9285,9.1072804 -33.75,14.46428557 z"
           style="fill:#ffffff;fill-rule:evenodd;stroke:none;stroke-width:1px;stroke-linecap:butt;stroke-linejoin:miter;stroke-opacity:1" />
        <path
           style="fill:#ffffff;fill-rule:evenodd;stroke:none;stroke-width:1.14940023px;stroke-linecap:butt;stroke-linejoin:miter;stroke-opacity:1"
           d="M 744.81741,11.335668 C 735.25159,4.2084229 718.99604,-3.2189885 705.49286,-6.4844251 705.20665,-20.24384 704.37025,-34.225881 700.51929,-49.426794 c 12.10501,6.726735 23.97831,13.558017 39.23339,18.862739 0.18478,14.584926 2.64738,28.233015 5.06473,41.899723 z"
           id="path4230"
           inkscape:connector-curvature="0"
           sodipodi:nodetypes="ccccc" />
        <path
           sodipodi:nodetypes="ccccc"
           inkscape:connector-curvature="0"
           id="path4232"
           d="m 1404.0583,449.37017 c -11.9223,-0.40087 -29.5116,2.76611 -42.4665,7.78281 -8.0805,-11.14038 -16.74,-22.14994 -28.571,-32.442 13.78,-1.37598 27.4292,-2.53396 42.9862,-6.87428 8.4678,11.87645 18.2728,21.68443 28.0513,31.53348 z"
           style="fill:#ffffff;fill-rule:evenodd;stroke:none;stroke-width:1.14940023px;stroke-linecap:butt;stroke-linejoin:miter;stroke-opacity:1" />
        <path
           style="fill:#ffffff;fill-rule:evenodd;stroke:none;stroke-width:1.14940023px;stroke-linecap:butt;stroke-linejoin:miter;stroke-opacity:1"
           d="m 975.5934,783.43779 c -3.62632,-11.36448 -12.51645,-26.86864 -21.59248,-37.38635 7.77965,-11.35252 15.24163,-23.20647 20.96269,-37.80676 5.92386,12.51757 11.59845,24.98515 20.91125,38.18099 -8.3429,11.96452 -14.28839,24.49391 -20.28147,37.01213 z"
           id="path4234"
           inkscape:connector-curvature="0"
           sodipodi:nodetypes="ccccc" />
        <path
           sodipodi:nodetypes="ccccc"
           inkscape:connector-curvature="0"
           id="path4236"
           d="m 540.48575,475.74094 c 9.09383,-7.72035 19.98293,-21.89218 26.19805,-34.31671 13.47204,2.81187 27.28466,5.13757 42.96219,4.79956 -9.27399,10.28469 -18.59776,20.32007 -27.19365,33.99374 -14.25367,-3.09623 -28.10614,-3.7623 -41.96661,-4.4766 z"
           style="fill:#ffffff;fill-rule:evenodd;stroke:none;stroke-width:1.14940023px;stroke-linecap:butt;stroke-linejoin:miter;stroke-opacity:1" />
        <path
           style="fill:#ffffff;fill-rule:evenodd;stroke:none;stroke-width:1.0303663px;stroke-linecap:butt;stroke-linejoin:miter;stroke-opacity:1"
           d="m 1345.0488,378.32986 c 41.3007,-43.6407 13.4156,-70.44113 -2.8006,-98.37846 -20.0928,-34.61621 -24.1296,-41.54215 -35.0429,-81.996 -8.7845,-32.56256 -11.6621,-79.64345 -12.5829,-100.302321 -1.4425,-32.363914 -24.7445,-51.784349 -52.0181,-53.49849 -32.1717,-2.022098 -50.7186,11.605513 -76.0723,22.458642 10.7965,-18.733058 17.4786,-39.673124 67.9969,-53.195014 72.096,-19.2974169 118.5062,58.282484 155.3493,164.251083 22.2871,64.1026 46.7977,174.59259 -34.8245,223.57024 -33.2209,19.9343 -74.4142,6.87499 -77.6865,3.78463 27.5783,-6.28945 47.3724,-5.23456 67.6816,-26.69431 z"
           id="path4266"
           inkscape:connector-curvature="0"
           sodipodi:nodetypes="ssssscssscs" />
        <path
           sodipodi:nodetypes="ssssscssscs"
           inkscape:connector-curvature="0"
           id="path4268"
           d="m 1023.9645,684.87905 c 54.6274,25.02183 71.0043,-10.01589 92.2201,-34.37467 26.2878,-30.182 31.542,-36.23654 66.3157,-59.61183 27.9904,-18.81555 71.6283,-36.72141 90.8867,-44.25479 30.17,-11.80169 41.0389,-40.12135 33.8666,-66.49078 -8.4601,-31.10518 -23.0475,-46.79228 -41.4965,-67.29185 21.2139,4.179 38.897,6.27708 67.987,49.7364 41.515,62.02197 -22.0057,140.31376 -110.433,209.35997 -53.4915,41.76743 -143.1043,106.65884 -215.786,45.1904 -29.58199,-25.01814 -32.52409,-83.62696 -30.65399,-87.72099 14.8465,24.07696 20.23096,43.15386 47.09339,55.45814 z"
           style="fill:#ffffff;fill-rule:evenodd;stroke:none;stroke-width:1.0303663px;stroke-linecap:butt;stroke-linejoin:miter;stroke-opacity:1" />
        <path
           style="fill:#ffffff;fill-rule:evenodd;stroke:none;stroke-width:1.0303663px;stroke-linecap:butt;stroke-linejoin:miter;stroke-opacity:1"
           d="m 634.72561,492.51581 c -10.61195,50.43182 29.94424,59.3246 59.25721,72.89701 36.32058,16.81717 43.60117,20.17231 75.75455,47.03818 25.8813,21.62512 67.37902,61.055 79.98906,77.44478 19.75473,25.67605 37.86085,25.68181 61.17976,11.43339 27.50688,-16.80703 38.49815,-35.1937 53.03257,-58.63188 1.90918,21.53714 9.88165,37.08263 -23.72923,77.14819 -47.96703,57.17854 -136.83806,32.68613 -234.39056,-47.09306 -52.53538,-42.96384 -137.31663,-98.04403 -98.58157,-184.9957 15.76548,-35.38999 58.5961,-55.58643 63.04942,-54.93355 -18.97526,20.97756 -29.75788,32.11315 -35.56121,59.69264 z"
           id="path4270"
           inkscape:connector-curvature="0"
           sodipodi:nodetypes="ssssscssscs" />
        <path
           sodipodi:nodetypes="ssssscssscs"
           inkscape:connector-curvature="0"
           id="path4272"
           d="m 695.98901,54.273708 c -51.01461,7.313814 -42.43967,48.966742 -45.14454,81.155932 -3.35162,39.88445 -4.51357,52.92472 -18.73348,92.33803 -11.44599,31.72502 -39.8196,77.081 -47.8679,96.12995 -13.05773,30.90541 -3.29777,50.85897 10.22548,61.39321 25.43015,19.80939 49.2864,27.13631 76.28624,32.75824 -19.57865,9.17442 -34.48103,18.96113 -83.63893,1.1162 -70.15447,-25.46706 -70.02547,-120.38049 -28.50897,-239.36615 22.35808,-64.07788 57.67492,-165.12663 152.63576,-158.535832 38.64978,2.68252 69.27092,48.625 70.18374,53.032388 -26.21011,-10.637113 -57.5392,-24.021644 -85.4374,-20.021968 z"
           style="fill:#ffffff;fill-rule:evenodd;stroke:none;stroke-width:1.0303663px;stroke-linecap:butt;stroke-linejoin:miter;stroke-opacity:1" />
      </g>
    </g>
  </g>
</svg>
