<?xml version="1.0" encoding="utf-8"?>
<svg enable-background="new 0 0 2954 1772" height="1772" version="1.1" viewBox="0 0 2954 1772" width="2954" xmlns="http://www.w3.org/2000/svg">
	<path d="m0 0h2954v1772h-2954z" fill="#0065c4"/>
	<path d="m2046.137 1183.044c-73.853-13.299-294.795-48.331-572.923-48.331s-499.07 35.032-572.924 48.331c-2.326.419-4.636.528-6.889.358 206.273 57.114 953.353 59.594 1159.626 0-2.254.17-4.563.061-6.89-.358z" fill="#b28c0b" stroke="#15314d" stroke-linejoin="round" stroke-miterlimit="10" stroke-width="10"/>
	<g>
		<g stroke="#15314d" stroke-linejoin="round" stroke-miterlimit="10" stroke-width="10">
			<path d="m1001.458 534.554c-58.517-156.602-74.618-215.372-271.669-340.454l16.56 140.456-140.349 17.444c168.5 161.5 229.415 163.108 395.458 182.554z" fill="#fdcc00"/>
			<path d="m938.792 385.695 12.957 109.889-109.806 13.648" fill="none"/>
			<path d="m764.895 216.969 17.165 145.585-145.474 18.081" fill="none"/>
			<path d="m798.549 240.311 17.561 148.937-148.823 18.497" fill="none"/>
			<path d="m832.306 265.849 17.643 149.639-.28.357-149.525 18.585" fill="none"/>
			<path d="m866.939 297.947 17.038 144.507-144.396 17.947" fill="none"/>
			<path d="m901.472 331.845 16.151 136.985-136.881 17.014" fill="none"/>
			<path d="m2202.915 1338.687c6.299 61.417 10.45 99.2 11.106 120.267l-1578.627-1237.587 9.037 27.187c1.504-.873 3.247-1.381 5.112-1.381 5.638 0 10.208 4.57 10.208 10.208s-4.57 10.208-10.208 10.208-10.208-4.57-10.208-10.208c0-.405.03-.803.076-1.196l-29.499-2.362 1578.651 1237.604c-20.614 4.392-58.296 9.378-119.441 17.921 57.379 51.652 247.379 75.152 263.771 69.012 2.049-17.383-66.122-196.283-129.978-239.673z" fill="#fdcc00"/>
		</g>
		<path d="m2242.609 1480.406c-2.605-5.354-10.696-1.416-8.094 3.938l6.332 21.856-22.734-.933c-5.827-1.247-7.709 7.548-1.893 8.799 55.444 11.922 51.298 17.515 26.389-33.66z" fill="#15314d"/>
		<path d="m2130.059 1445.562 25.539-32.411" fill="none" stroke="#15314d" stroke-linejoin="round" stroke-miterlimit="10" stroke-width="10"/>
	</g>
	<g>
		<g stroke="#15314d" stroke-linejoin="round" stroke-miterlimit="10" stroke-width="10">
			<path d="m1944.971 534.554c58.516-156.602 74.617-215.372 271.668-340.454l-16.559 140.456 140.348 17.444c-168.5 161.5-229.415 163.108-395.457 182.554z" fill="#fdcc00"/>
			<path d="m2007.635 385.695-12.955 109.889 109.804 13.648" fill="none"/>
			<path d="m2181.533 216.969-17.165 145.585 145.474 18.081" fill="none"/>
			<path d="m2147.879 240.311-17.561 148.937 148.823 18.497" fill="none"/>
			<path d="m2114.121 265.849-17.642 149.639.28.357 149.524 18.585" fill="none"/>
			<path d="m2079.488 297.947-17.037 144.507 144.397 17.947" fill="none"/>
			<path d="m2044.955 331.845-16.15 136.985 136.881 17.014" fill="none"/>
			<path d="m743.513 1338.687c-6.299 61.417-10.45 99.2-11.106 120.267l1578.627-1237.587-9.036 27.187c-1.505-.873-3.248-1.381-5.112-1.381-5.638 0-10.208 4.57-10.208 10.208s4.57 10.208 10.208 10.208 10.208-4.57 10.208-10.208c0-.405-.029-.803-.076-1.196l29.499-2.362-1578.652 1237.604c20.614 4.392 58.296 9.378 119.441 17.921-57.379 51.652-247.379 75.152-263.771 69.012-2.05-17.383 66.122-196.283 129.978-239.673z" fill="#fdcc00"/>
		</g>
		<path d="m703.818 1480.406c2.605-5.354 10.696-1.416 8.094 3.938l-6.332 21.856 22.734-.933c5.827-1.247 7.709 7.548 1.893 8.799-55.444 11.922-51.297 17.515-26.389-33.66z" fill="#15314d"/>
		<path d="m816.369 1445.562-25.539-32.411" fill="none" stroke="#15314d" stroke-linejoin="round" stroke-miterlimit="10" stroke-width="10"/>
	</g>
	<g stroke="#15314d" stroke-linejoin="round" stroke-miterlimit="10" stroke-width="10">
		<g fill="#fdcc00">
			<path d="m2063.046 904.892 18.683 5.615c42.127-71.121 37.284-129.586 44.861-203.396-65.145-59.029-167.854-37.83-189.662 67.889 95.436 4.479 125.849 70.788 126.118 129.892z"/>
			<path d="m1426.611 788.5c11.007-70.502-8.785-129.809-26.437-196.328-81.555-39.366-175.915 13.22-162.882 122.397 86.808-24.524 136.087 21.591 157.292 73.931z"/>
			<path d="m1546.253 592.172c-17.651 66.519-37.444 125.826-26.437 196.328h32.028c21.204-52.339 70.483-98.455 157.291-73.931 13.033-109.177-81.326-161.763-162.882-122.397z"/>
			<path d="m883.381 904.892c.269-59.103 30.682-125.413 126.119-129.892-21.808-105.719-124.517-126.918-189.663-67.889 7.578 73.81 2.734 132.275 44.861 203.396z"/>
			<path d="m2152.178 588.5c-51.25 148-3.25 226.025-82.584 340.93-108.503 157.152-266 71.737-272.667-55.333-86 149.738-227.44 89.435-268.749-48.846-41.25-138.083 41.416-227.417 40.75-383.821-.441-103.321-95.693-182.263-95.714-182.28-.021.018-95.273 78.959-95.714 182.28-.667 156.404 82 245.737 40.75 383.821-41.309 138.281-182.75 198.584-268.75 48.846-6.667 127.071-164.164 212.486-272.667 55.333-79.333-114.905-31.333-192.93-82.583-340.93-21.963-63.425-114.25-148.25-171.917-140.834 72.937 97.332 71.531 132.07 101.667 212.18 76.527 203.432 118.033 363.379 144.735 501.563 2.379 12.311 12.712 21.092 24.666 21.994 2.253.17 4.563.061 6.889-.358 73.854-13.299 294.796-48.331 572.924-48.331s499.07 35.032 572.923 48.331c14.666 2.641 28.729-7.005 31.556-21.636 26.702-138.184 68.207-298.13 144.735-501.563 30.135-80.109 28.729-114.848 101.666-212.18-57.666-7.416-149.953 77.409-171.916 140.834z"/>
			<path d="m819.513 992.494c.853 2.836 2.796 5.218 5.405 6.621 2.608 1.402 5.667 1.712 8.503.859l78.42-23.567c5.906-1.775 9.255-8.002 7.48-13.908l-15.642-52.047c-1.775-5.906-8.002-9.256-13.908-7.48l-78.419 23.566c-5.906 1.775-9.255 8.002-7.48 13.908z"/>
			<path d="m1554.834 788.5h-163.24c-6.167 0-11.167 5-11.167 11.167v54.238c0 6.167 5 11.167 11.167 11.167h163.24c6.167 0 11.167-5 11.167-11.167v-54.238c0-6.167-5-11.167-11.167-11.167z"/>
			<path d="m2126.915 992.494c-.853 2.836-2.797 5.218-5.405 6.621-2.607 1.402-5.667 1.712-8.503.859l-78.42-23.567c-5.906-1.775-9.256-8.002-7.48-13.908l15.642-52.047c1.775-5.906 8.002-9.256 13.908-7.48l78.419 23.566c5.906 1.775 9.256 8.002 7.48 13.908z"/>
		</g>
		<path d="m2097.611 1067.113c-491.784-101.532-759.818-95.308-1248.795 0" fill="none"/>
	</g>
</svg>
