<?xml version="1.0" encoding="UTF-8" standalone="no"?>
<!-- Created with Inkscape (http://www.inkscape.org/) -->

<svg
   xmlns:dc="http://purl.org/dc/elements/1.1/"
   xmlns:cc="http://creativecommons.org/ns#"
   xmlns:rdf="http://www.w3.org/1999/02/22-rdf-syntax-ns#"
   xmlns:svg="http://www.w3.org/2000/svg"
   xmlns="http://www.w3.org/2000/svg"
   xmlns:sodipodi="http://sodipodi.sourceforge.net/DTD/sodipodi-0.dtd"
   xmlns:inkscape="http://www.inkscape.org/namespaces/inkscape"
   width="430"
   height="258"
   id="svg3007"
   version="1.1"
   inkscape:version="0.48.1 "
   sodipodi:docname="Flag of Wessex.svg">
  <defs
     id="defs3009" />
  <sodipodi:namedview
     id="base"
     pagecolor="#ffffff"
     bordercolor="#666666"
     borderopacity="1.0"
     inkscape:pageopacity="0.0"
     inkscape:pageshadow="2"
     inkscape:zoom="1"
     inkscape:cx="164.45444"
     inkscape:cy="178.14156"
     inkscape:document-units="px"
     inkscape:current-layer="layer1"
     showgrid="false"
     inkscape:window-width="1280"
     inkscape:window-height="962"
     inkscape:window-x="-8"
     inkscape:window-y="-8"
     inkscape:window-maximized="1" />
  <metadata
     id="metadata3012">
    <rdf:RDF>
      <cc:Work
         rdf:about="">
        <dc:format>image/svg+xml</dc:format>
        <dc:type
           rdf:resource="http://purl.org/dc/dcmitype/StillImage" />
        <dc:title />
      </cc:Work>
    </rdf:RDF>
  </metadata>
  <g
     inkscape:label="Layer 1"
     inkscape:groupmode="layer"
     id="layer1"
     transform="translate(0,-794.36218)">
    <rect
       style="fill:#ce1126;fill-opacity:1;stroke:#0000ff;stroke-width:0;stroke-miterlimit:4;stroke-opacity:1;stroke-dasharray:none;stroke-dashoffset:0"
       id="rect3042"
       width="432.14285"
       height="260.71429"
       x="0"
       y="-0.57142884"
       transform="translate(0,794.36218)" />
    <path
       style="fill:#f9d616;fill-opacity:1;stroke:#000000"
       d="m 86.026297,1034.5186 c -4.28086,-3.6944 -4.42294,-4.6097 -5.21539,-8.6843 -0.66635,-3.4263 3.61758,-11.0724 4.47938,-9.0543 0.87664,3.6912 2.82687,5.6167 3.5512,6.6073 1.00821,1.3788 -0.25972,0.2779 -1.0955,2.4921 -0.8778,2.3256 0.3845,5.4071 1.74511,7.7779 0.9307,1.6216 2.00472,2.3345 1.48869,2.9084 -0.59511,0.6618 -3.6626,-0.9331 -4.95349,-2.0471 z m 222.031153,-0.4085 c 6.92036,-5.0039 2.75973,-7.8797 3.92954,-8.3076 2.1132,-0.7728 4.4519,-1.6883 6.06098,-2.7449 1.46038,-0.959 0.89148,6.2943 -1.40653,8.4189 -3.1723,2.9328 -8.58399,2.6336 -8.58399,2.6336 z m -18.31933,-7.0004 c 0.25866,-0.2905 0.36174,-0.2513 0.29125,-0.3327 1.60245,0.4246 6.42592,1.1488 7.08334,1.1372 -2.44715,3.8253 -5.49541,5.2709 -6.38594,5.0114 -2.21806,-0.1614 -5.08508,-0.4858 -6.7249,-1.2569 0,0 4.09231,-2.7129 5.73625,-4.5589 z m 0.0966,-0.3699 c -6.59778,-1.6265 -13.48616,-4.2436 -19.71756,-9.6895 -6.3173,-5.5211 -9.27857,-16.1465 -10.07889,-18.63129 -1.69232,-5.25419 -0.0877,-19.08667 7.87812,-24.72548 6.32992,-4.48079 11.42219,-7.76258 16.69262,-7.16853 2.39209,0.26963 6.15494,0.8755 7.28572,0.27041 1.56928,-0.83985 2.93422,-0.73336 5.76606,0.44986 l 5.39113,1.83034 -5.89313,2.78701 c -9.19076,4.34655 -13.44626,7.51582 -15.05389,12.387 -2.50294,7.584 3.76961,15.87918 13.15358,18.33538 7.44308,1.9482 18.65104,-5.24324 18.10318,-8.02915 -0.41502,-2.1104 0.47283,-4.02379 1.64186,-5.72304 1.5794,-2.29574 0.35865,-2.99541 -1.03081,-5.11591 -1.05662,-1.61261 -1.57852,-2.88123 -0.12808,-4.38585 1.2775,-1.32522 -0.0514,-3.01998 -1.50406,-3.53698 -2.87071,-1.0217 -5.20512,-3.46483 -5.20512,-5.33175 0,-1.30731 -1.7662,-0.82549 -5.63523,-1.69154 -2.60752,-0.58367 -4.1819,-2.22771 -5.78496,-2.24909 -1.86491,-0.0249 -1.24957,-0.57326 -3.86381,0.21387 -3.30227,0.9943 -3.24026,-0.11393 -6.85607,-0.28139 -0.64393,-0.0298 -3.04567,-0.12085 -6.69508,0.89316 -1.95034,0.54192 -4.47906,2.58723 -4.92976,2.01209 -2.76329,-3.52622 -6.89806,0.7281 -6.95443,0.74962 -2.69799,1.02972 -5.28433,3.03815 -7.354,1.65543 -1.7051,-1.13916 -3.45262,-0.91101 -4.48702,1.36572 -1.35949,2.99228 -5.82731,5.13373 -8.81354,4.80242 -3.12987,-0.34724 -2.52022,-0.25553 -3.87557,0.99958 -2.61873,2.42507 -7.49694,5.5879 -8.65539,4.79816 -3.66689,-2.49979 -4.07311,0.97596 -5.02119,1.58631 -2.82048,1.81574 -4.17695,3.1408 -7.23981,2.73 -2.493,-0.3344 -3.35124,-2.15519 -4.10689,-1.24429 -1.65262,1.9913 -5.64687,5.15779 -12.2557,3.3033 -2.09274,-0.58725 -2.75885,-1.0002 -4.46988,0.1983 -2.83379,1.9848 -7.0999,2.133 -10.62615,-0.1446 -2.0005,-1.29213 -2.04441,-2.55645 -3.50454,-1.64465 -1.01622,0.6347 -0.75309,2.73709 -4.81564,2.2068 -4.4016,-0.1761 -10.17236,-3.60335 -8.85162,-5.36235 0.39113,-0.52092 -0.349,0.0666 -1.53988,0.37803 -2.27138,0.59401 -11.01356,-2.88784 -11.01356,-4.13694 0,-1.00999 14.97646,-8.48606 18.66099,-9.87241 1.5483,-0.58257 4.11029,-1.05922 5.6933,-1.05922 1.84062,0 3.43937,-0.8012 4.4349,-2.22251 1.65535,-2.36335 0.64259,-6.98504 1.04757,-8.12969 0.15801,-0.4466 -0.64325,1.14077 -0.37672,2.53504 0.69527,3.63709 0.67964,7.64546 -5.05743,7.51407 -2.6448,-0.0606 -6.61604,1.66406 -12.10413,4.12528 -5.95821,2.67206 -12.48263,8.34248 -20.97944,10.23089 -11.47457,2.55021 -20.8851,8.15421 -20.8851,9.99871 0,1.2778 6.60287,1.936 11.6149,1.9426 8.34798,0.011 11.85947,3.81938 9.27497,10.05888 -1.64478,3.9709 -3.70323,8.6197 -9.47367,8.0914 -3.74885,-0.3432 -5.64689,-2.0253 -9.56085,-6.1164 -5.40031,-5.6446 -5.1409,-4.8836 -10.47455,-4.8836 -5.49884,0 -10.85124,1.9559 -13.24223,4.8369 -0.60948,0.7343 -3.20552,3.9147 -4.32992,6.9748 -2.42865,6.6096 -5.562163,11.4209 -9.286993,11.4209 -4.90639,0 -12.16749,-11.0513 -9.35778,-14.5848 2.90273,-3.6505 6.00331,-3.3424 10.17892,-5.4178 10.609243,-5.273 12.621983,-6.3685 7.731113,-7.11998 -3.676713,-0.56491 -9.337503,1.34528 -14.853213,6.09388 -2.82392,1.8105 -5.35289,1.8044 -7.83716,0.7754 -1.78536,-0.7395 -4.22228,-3.6358 -4.35787,-5.168 -0.20193,-2.28184 0.0358,-6.43784 0.0155,-9.40149 -0.0231,-3.3638 1.61627,-3.27116 4.28959,-3.57586 1.60533,-0.183 4.75532,1.32687 7,1.90237 2.24468,0.5756 7.90623,1.3116 12.581233,1.6356 l 8.5,0.5892 -6.29245,-2.2789 c -0.84851,-0.3073 -7.555853,-4.16357 -9.999993,-3.68 -3.0033,0.59419 -6.168,-0.59186 -7.1305,-1.43217 -2.35478,-2.0559 0.0797,-9.31716 1.99103,-11.81035 3.35732,-4.37939 7.06947,-3.94282 13.268463,2.92945 7.55958,8.38062 10.92505,10.03452 14.6587,9.16617 9.32149,-2.16794 24.26165,-13.76506 25.49051,-16.5381 3.1486,-7.10514 10.64103,-9.72802 13.51423,-10.94651 2.475,-1.04962 4.64483,-2.0023 4.82185,-2.11707 0.17701,-0.11477 -1.61819,-1.93987 -2.4827,-4.48624 -1.98145,-5.83621 -1.56201,-12.65059 0.38155,-17.30213 0.83222,-1.99178 2.08057,-3.14202 1.80557,-3.41702 -0.275,-0.275 -1.1809,1.12964 -2.01312,3.12142 -1.80502,4.32001 -1.85226,12.8244 -0.0982,17.68444 l 2.14323,4.46733 -4.53222,2.11247 c 0,0 -9.53774,4.79969 -12.76228,1.82616 -2.0629,-1.90234 -1.22525,-3.67875 0.50351,-5.79299 0.45401,-0.55525 -1.52594,-3.07969 -3.33998,-5.08264 -3.00194,-3.31455 -2.72814,-6.08539 -1.36297,-9.67607 0.71098,-1.86999 0.55298,-1.88971 -0.1206,-3.14837 -1.76771,-3.30301 -0.62104,-10.13633 1.39284,-10.73429 3.91652,-1.16288 1.3071,-3.01358 1.53638,-6.05148 0.23801,-3.1535 0.5572,-5.05504 2.39768,-7.01415 1.25716,-1.33817 3.8885,-1.90474 4.87887,-1.90474 1.46202,0 0.28055,-0.82086 -0.2001,-3.22409 0.43876,-4.40944 3.4822,-9.21616 9.97377,-8.77591 2.31877,0.15726 1.71844,-1.1523 2.19642,-2.46136 0.96855,-2.65258 2.69907,-5.49446 7.80879,-5.30187 3.13804,0.11828 5.54341,0.22422 5.54341,-0.79009 0,-2.46716 2.86244,-5.37154 9.04767,-4.13726 2.44206,0.48733 2.66467,-0.0829 2.77623,-0.98146 0.26415,-2.12751 2.99019,-5.1643 6.05882,-5.07705 1.91793,0.0545 3.92798,0.18989 3.62558,-0.59814 -0.25541,-0.6656 -0.10178,-2.33144 0.66424,-3.37904 1.35948,-1.8592 2.16791,-0.75685 10.61464,0.14685 11.17565,1.19568 11.00585,0.41695 16.02372,-2.45265 4.59678,-2.62879 5.03964,-8.4257 1.12109,-16.52576 -3.90188,-8.06557 -2.29827,-7.93812 6.8579,-10.93295 4.82544,-1.57833 5.21547,-1.57731 6.38101,0.0167 2.27379,3.10959 2.54517,10.05719 1.82126,18.83102 -0.70715,8.57063 -5.26215,20.73341 -16.48017,35.46383 -4.4162,5.79893 -4.15809,6.25101 -7.8131,5.78508 -18.88439,-2.40735 -21.8356,-1.41988 -27.73524,-0.15939 -5.57171,1.19043 -12.62979,7.74036 -14.43535,9.26713 -0.42975,0.3634 2.22728,-1.20402 4.25774,-3.23447 7.68897,-7.68893 17.65822,-9.07639 39.02404,-5.43102 12.92459,2.20515 15.61676,2.01616 22.79469,-1.6002 8.44746,-4.25597 15.22807,-12.98192 23.96754,-30.84376 8.32113,-17.00683 9.3844,-18.62358 14.95599,-22.74126 6.24211,-4.61322 8.79037,-4.9526 36.71307,-4.88947 29.93056,0.0677 37.12033,-0.89238 49.24352,-6.57552 8.54102,-4.00388 14.28893,-8.72418 17.72024,-14.05284 l 5.20465,-8.08258 -1.29477,8.60919 c -1.60263,10.65625 -6.91445,17.95935 -20.66682,26.27784 -11.0884,6.70711 -15.31808,9.25508 -15.65633,15.20464 -0.14157,2.49006 -0.0263,5.88758 0.56225,7.57601 0.58859,1.68842 2.195,6.24515 2.195,6.24515 0.6884,1.01867 -4.38014,-3.26984 -8.4451,-5.13561 -13.08653,-6.00659 -23.41368,-8.35877 -40.51537,-8.39085 -12.9343,-0.0243 -14.30023,0.1481 -20.98602,1.66016 -10.66922,2.41295 -12.92175,6.084 -12.92175,6.084 -0.86453,-1.12739 5.97089,-13.78998 9.19329,-16.43517 9.38648,-7.70517 12.31777,-7.82923 38.22864,-7.20686 25.93115,0.62286 35.66323,-2.42826 44.56229,-5.78469 4.4284,-1.67024 13.86322,-7.57721 13.86322,-9.07836 0,-0.48109 -1.41613,1.79933 -4.18966,3.56636 -5.77537,3.67954 -9.90924,6.4284 -19.92169,8.82865 -8.68296,2.08154 -12.23638,3.07235 -34.26221,2.45169 -27.58212,-0.77723 -30.85191,1.12544 -38.41433,7.28856 -4.97445,4.05402 -7.18275,11.40463 -12.22574,25.12253 -6.99598,19.03042 -14.04208,27.75676 -14.19553,27.77217 -1.47662,0.14833 -10.66981,5.07503 -11.28534,5.48195 0,0 -15.28904,-2.6202 -23.55426,-4.02817 -18.71016,-3.18725 -29.00705,-5.50116 -33.95125,-0.6316 -1.08154,1.06522 -0.89716,0.29661 1.62644,-0.98506 6.56024,-3.33176 16.98192,-1.01414 32.49808,1.6109 15.84457,2.68061 20.04292,3.45918 21.09606,3.5731 3.8342,0.41474 0.9934,1.29355 2.03674,4.45491 1.58193,4.79329 0.37295,16.64416 -2.39765,25.08399 l -3.23606,10.42525 -1.98612,-7.55241 c -1.06087,-4.03407 -6.33186,-7.8978 -15.3791,-7.1913 -3.45018,0.0394 -5.20135,-0.20767 -6.24926,-0.56856 -0.79291,-0.27307 1.7426,0.82564 6.27306,0.62486 5.93656,-0.2631 8.11922,0.14759 10.79214,1.93019 3.71699,2.4789 4.30582,3.47879 5.92567,10.82196 0.0846,0.38367 0.57117,2.18646 0.66195,1.8497 1.82884,-6.78403 2.24393,-5.5666 2.56162,-8.46387 0.14151,-1.29049 0.69827,0.75411 1.81702,0.73122 0.52347,-0.0107 3.61727,-2.29298 5.02345,-3.40909 5.81541,-4.61578 11.83187,-4.61277 19.29081,-2.30094 1.80983,0.7562 4.86462,2.75692 6.78843,4.44604 l 3.49782,3.07112 2.23033,-6.92496 c 1.33342,-4.14014 2.66339,-7.80081 3.96171,-8.71019 5.14922,-3.60665 24.3953,-0.33359 37.80734,6.24283 23.54237,11.54372 33.29934,39.56112 21.069,60.50021 -3.70348,6.3406 -8.44028,12.8993 -14.3557,17.254 -9.81355,8.3108 -22.98034,9.2012 -32.65068,6.8172 z m -21.88352,-6.0925 c 0,0 2.30432,0.038 3.7525,-0.2395 1.5142,-0.29 1.55193,-0.9597 2.45393,-0.2266 0.87851,0.714 3.41483,1.8588 3.59093,2.171 0.56269,0.9977 -5.60984,1.804 -7.86027,0.1441 -0.37561,-0.2771 -3.99691,-2.0118 -1.93709,-1.849 z m 64.01578,2.5055 c 0.13503,0.068 1.13864,-7.3448 -1.85063,-10.5362 1.91675,-2.5015 5.37264,-7.2339 5.37264,-7.2339 0.54507,2.7853 1.39287,3.8628 1.65693,5.2062 0.37206,1.893 0.757,5.1739 -0.69433,8.6747 -1.09657,1.3958 -4.63662,3.8132 -4.5286,3.8672 z m -178.67068,-5.7482 c 0.98745,-2.353 -0.3461,-3.6716 -0.28053,-4.8836 -0.74912,-1.0317 -3.85712,-1.6835 -3.42516,-2.4473 0.80176,-1.4177 2.06342,-4.4103 2.3462,-6.7966 0.17588,-1.4842 3.75722,0.4456 4.63811,1.614 2.48985,3.3027 2.68059,9.4867 -0.51036,12.7178 l -4.96276,5.0251 z m -84.303013,-7.5432 c -2.783043,-3.5371 -2.327943,-10.24128 1.06675,-13.95528 2.50194,-2.7373 6.04953,-5.29905 6.14191,-3.79094 0.0847,1.382 0.025,7.17851 -0.002,9.45272 -0.005,0.4031 -0.30914,-0.7117 -1.46227,0.1871 -0.53592,0.4178 -0.9238,0.9891 -1.44209,2.1539 -0.51829,1.1647 -0.94687,2.4826 -1.12396,3.513 l -0.0716,6.3882 z m 188.226373,-6.767 c 0.0379,0.1809 1.39597,0.685 2.64,0.7261 0.92066,0.03 1.77685,-0.7636 1.83365,-0.3387 0.14146,1.0585 1.08855,2.3499 1.08855,2.8999 0,0.55 -3.65448,0.2174 -3.55942,0.1052 -2.14406,-1.3786 -2.00278,-3.3925 -2.00278,-3.3925 z m 88.56385,-6.90718 c -0.93692,-1.6447 -5.15125,-2.39034 -4.94226,-3.10036 0.75156,-2.55345 1.01886,-4.97483 1.1981,-7.52828 0,0 1.99233,-0.68966 4.98126,2.49184 1.72055,1.8315 2.60545,4.0356 2.36456,7.1947 l -1.36987,5.95758 z M 72.815877,976.71113 c -0.003,-1.74252 1.41398,-3.61008 2.11306,-4.25869 1.95556,-1.81439 3.77203,-2.78381 9.75126,-2.78381 l 4.44031,1.2327 -4.29613,7.57206 c -1.2873,2.26891 -1.24959,-1.81301 -3.13881,-1.73031 -1.71731,0.0752 -3.67669,0.59214 -5.17445,2.46407 l -2.10538,5.42685 c -1.14632,-1.58436 -1.50018,-2.99262 -1.85405,-4.92918 z m 271.790633,-9.6903 c -4.08907,-2.20186 -5.08955,1.46714 -5.23813,0.79212 -0.28454,-1.29276 -3.54835,-7.33108 -3.54835,-7.33108 2.16939,-0.76841 2.47526,-1.07739 6.63153,-0.98934 2.0226,0.0429 3.35705,2.06479 4.0912,3.25283 2.07708,3.36127 3.55744,7.98272 3.55744,8.49053 0,1.23257 -1.98765,-1.90205 -3.2044,-2.98234 z m -220.60852,-7.42959 c -1.4845,-0.34183 -2.96781,-2.40899 -3.011,-4.68586 -0.0887,-4.67457 -2.67971,-8.98399 -10.96598,-20.35723 -4.04996,-5.55874 -9.21488,-13.88829 -11.349943,-17.85094 -5.35313,-9.93538 -8.0141,-11.27142 -12.92073,-0.68265 -1.49967,3.23635 -3.77501,7.48969 -5.1398,8.38393 -2.31642,1.51778 -4.80455,1.52414 -8.09493,-0.67061 -5.24505,-3.49857 -6.122893,-7.48463 -5.612653,-11.98016 0.369043,-3.25151 6.428703,-4.35317 9.728703,-5.67662 3.3,-1.32345 9.87422,-6.34167 9.91873,-8.17554 0.32202,-13.26758 -3.29612,-14.81309 -15.28216,-20.65184 -6.429483,-3.13199 -2.27849,-9.42149 -1.92088,-10.69577 1.00191,-3.5701 3.68412,-5.8551 5.52456,-6.06015 4.9123,-0.54731 6.5309,1.21939 7.7632,8.19392 0.5073,2.87122 3.29717,8.11569 5.67437,11.76987 l 3.52973,4.66286 0.29278,-5.31325 c 0.30198,-5.48014 -0.31822,-7.27329 -2.52751,-11.63311 -3.25368,-6.42083 -2.92268,-12.13613 1.56933,-13.19746 4.84509,-1.14475 10.264123,-2.58605 12.451163,-0.95739 1.98649,1.47931 1.9857,1.50783 -0.2298,8.31989 -1.22272,3.75952 -2.42826,9.9855 -2.67899,13.8355 -0.25073,3.85 -0.744013,8.125 -1.096173,9.5 l -0.64029,2.5 2.221413,-2.5 c 1.22177,-1.375 3.53042,-5.425 5.13033,-9 5.26794,-11.77122 0.57774,-11.31321 8.79575,-11.5 2.98933,-0.0679 3.77986,0.58388 6.29729,4.65572 3.61736,5.85094 3.38977,8.14059 -5.23807,13.02923 -11.19464,6.34301 -15.00195,13.14894 -11.64991,19.6311 0.87003,1.68246 5.43249,6.79962 10.13878,11.37147 9.15683,8.89525 14.51944,14.8005 14.45634,19.15824 -0.004,0.29798 1.38794,-0.46855 2.16182,-1.15671 1.82359,-1.62159 4.83818,-3.13591 4.83818,1.66997 0,0.95754 0.49169,1.71498 1.09264,2.83362 0.52885,0.98444 0.79019,1.65778 0,3.13426 -1.76376,3.29562 -0.50126,8.58225 1.40736,9.99073 2.1771,1.60661 3.27962,4.42815 3.2044,4.67776 -0.69384,2.30225 -5.21287,1.15282 -7.38711,1.44444 -2.17425,0.29163 -1.31898,1.03564 -2.94213,2.19143 -2.92769,2.0847 -4.84125,2.40562 -7.50881,1.79135 z m 242.85451,-2.07672 c 0.9858,-3.10139 1.79868,-7.1578 2.29014,-11.03889 0.49145,-3.8811 0.66148,-7.58688 0.3616,-9.98703 -0.36363,-2.91042 0.35056,-5.81997 0.18808,-5.81997 -0.16248,0 -2.70366,3.82995 -6.50799,7.54245 -6.40757,6.25288 -17.95994,13.52475 -25.38289,16.32659 -2.98319,1.12603 -4.4351,2.28553 -5.04346,1.49439 -6.27959,-8.16627 -12.49423,-11.04502 -10.15166,-10.30683 3.07361,0.96854 39.52533,-19.01517 39.52533,-20.71873 0,-0.26498 -3.17992,1.48945 -6.00989,1.67793 -3.1191,0.20774 -6.90165,0.21282 -9.83805,-0.41453 -6.22748,-1.33046 -15.3165,-10.17675 -13.79355,-9.76011 1.23269,0.33724 6.87394,0.42299 8.93139,0.15884 7.04516,-0.9045 16.20979,-1.42328 21.7128,-5.00137 10.03388,-6.52411 14.01915,-12.50684 15.31125,-23.95456 l 0.45815,-9.21701 c 0.0383,-0.76986 2.21294,2.65119 3.55023,6.08259 6.58688,16.90158 3.0548,46.16516 -4.30026,57.6784 0,0 -4.38031,9.94507 -11.04809,15.04765 -0.32633,0.24973 -0.58921,1.26748 -0.25313,0.21019 z m -131.04963,-9.25659 c 2.61529,-9.85544 4.11376,-18.29319 2.57534,-25.70965 -0.55407,-2.6711 0.15503,-4.88897 0.16822,-4.43085 0.009,0.3283 -0.64884,0.37236 0.10045,-0.10653 1.2729,-0.81354 9.63048,-5.21472 11.28396,-5.42343 1.65348,-0.20872 3.30367,0.12115 5.10047,1.04561 8.91398,4.58629 13.95713,14.50486 15.42104,30.32923 0.43806,4.73526 2.67513,8.85427 -1.86472,4.75164 -7.40545,-6.69224 -18.63214,-8.744 -26.32368,-2.33361 -4.11212,3.42717 -7.10079,4.28826 -6.46108,1.87759 z m 35.97548,3.29634 c -0.35569,-0.35568 -1.36269,-8.89718 -1.61526,-10.65452 -1.93008,-13.4292 -5.76345,-18.10836 -7.31512,-20.22878 -1.65233,-2.25797 -4.91563,-5.79306 -7.26718,-6.76707 -3.13516,-1.29857 -4.97582,-1.04592 -5.02526,-1.23061 -0.3953,-1.47666 7.63917,-8.8973 10.41789,-11.23036 2.12208,-1.78173 12.94562,1.01295 18.46574,4.00253 5.46776,2.96122 12.65179,10.43794 17.40323,16.36227 1.60993,2.00734 2.78445,3.69903 3.03198,3.4515 -0.0512,-0.35346 -13.1604,-16.06019 -20.42376,-19.8413 -8.09805,-4.21561 -16.67222,-5.47511 -18.33448,-4.00599 l -7.83199,6.92198 c -0.79594,0.70346 7.14455,-13.46397 7.45926,-14.10207 0.4315,-0.8749 1.49788,-3.50331 1.89794,-3.91768 4.85169,-3.6208 5.84031,-2.93715 10.35662,-3.68801 11.3092,-1.8802 22.55804,-0.72395 29.87069,2.33451 14.62124,6.11523 15.77772,9.42618 20.27419,16.72368 l 2.96925,4.81891 c -0.76482,-1.24125 -6.69653,-1.89003 -8.45716,-1.90114 -6.02659,-0.038 -10.82663,4.28593 -11.5934,5.07477 -0.66468,0.68382 -4.74498,3.8004 -4.79003,16.01935 -4.6e-4,0.12525 -4.66976,-1.464 -5.13823,-1.65707 -1.93525,-0.79753 -4.07996,-0.65454 -5.36352,-0.59228 -7.67716,0.37239 -10.49486,2.52576 -14.69252,11.59958 -1.33071,2.87652 -3.94319,12.86349 -4.29888,12.5078 z m 41.46017,-10.67483 c -2.71819,-0.72115 -8.48738,-3.4737 -8.48738,-3.4737 l 2.72865,-3.26174 c 2.58389,-3.0887 6.95513,-2.87428 10.18219,-1.79859 l 4.55325,2.10475 c -0.6402,-0.29594 -4.06672,0.99525 -6.10008,1.49288 -3.60592,0.88248 -2.87663,4.9364 -2.87663,4.9364 z M 62.584964,928.27319 c -1.2087,-0.48676 -1.80218,-2.2002 -3.05861,-3.73019 -0.96744,-1.17809 -2.85785,-5.55655 -2.56794,-6.10687 0.28991,-0.55031 2.93624,2.37531 3.82218,2.77402 1.01808,0.45818 5.8034,0.16394 7.728403,0.20708 1.925,0.0431 2.41542,1.49229 3.99546,2.35941 l 2.8728,1.57656 -3.70279,2.71432 c -1.97944,1.45101 -4.24643,1.62919 -4.3728,1.59432 -0.12637,-0.0349 -3.508003,-0.90189 -4.716703,-1.38865 z M 318.94187,899.51095 c -2.54107,-3.91205 -8.48798,-7.82324 -16.01354,-10.46608 -7.52555,-2.64283 -16.56749,-4.2041 -25.42313,-3.04276 -3.68061,0.48268 -7.44455,1.00102 -7.85729,1.08395 -5.97031,1.19957 -8.01245,4.62676 -7.4823,3.19401 l 3.38481,-9.14761 c 3.03677,-8.20703 4.14547,-8.0734 14.53751,-10.96952 4.80775,-1.20056 9.94843,-1.91229 21.04371,-1.85072 16.45581,0.0913 27.79073,2.43864 40.51149,8.38944 l 8.04695,5.01254 -6.97781,0.038 c -6.70921,1.07333 -8.98823,2.34189 -13.38285,6.34398 -3.35655,3.05674 -3.89891,6.17287 -4.44125,13.57248 l 1.2066,8.85441 z m -86.38837,-2.12242 c -0.55327,-1.3976 -5.22545,-6.18356 -4.58185,-7.08595 0.45083,-0.63211 -0.0692,-0.11894 2.84971,-3.99851 l 1.75897,-2.79956 2.2159,2.19284 c 2.09093,2.06917 1.42903,4.75107 1.25576,10.11909 -0.0331,1.02398 -0.82693,3.70355 -2.60751,4.3375 -0.55484,0.19755 -0.41415,-1.56092 -0.89098,-2.76541 z m 7.71061,-21.26381 c -3.53365,-2.21428 0.67053,0.27637 -4.52013,-2.28173 l 1.60522,-8.68377 2.995,2.17866 c 2.42908,1.76699 3.87549,4.11406 3.87549,7.783 0,2.50126 0.13014,7.25633 -1.11635,7.2773 -0.56581,-2.76009 -0.95816,-5.09473 -2.83923,-6.27346 z m -79.72536,2.88009 c 1.34991,-2.24804 2.17919,-5.17607 3.59488,-9.38038 l 1.55979,-4.63224 12.77728,-0.53663 c 8.27144,-0.34739 13.39564,-0.98087 16.02302,-2.11356 3.71449,-1.60135 2.26505,-1.62883 2.12066,-4.87513 -0.30348,-6.82313 -9.79149,-12.66669 -22.77204,-8.12547 -10.47211,3.66364 -15.50315,-1.91779 -15.9434,-9.15456 -0.13064,-2.14745 0.15975,-2.37356 -1.95472,-2.72576 -1.66307,-0.27701 -3.96138,0.30333 -5.73585,1.79644 -1.77932,1.4972 -3.76558,5.05541 -3.9734,4.47084 -0.20782,-0.58456 -0.41484,-5.99418 2.29471,-8.58713 5.19605,-4.97246 10.13657,-5.43651 27.63092,-2.9143 4.17949,0.60257 4.86259,0.37421 8.85264,-2.95939 5.47812,-4.57683 7.26711,-5.73524 13.6184,-3.14639 3.0421,1.24 8.99458,1.52985 15.75,1.53665 5.9125,0.006 10.73171,0.34833 10.70936,0.76083 -0.0224,0.4125 -1.37235,2.308 -3,4.21222 -1.62765,1.90423 -2.95936,3.91926 -2.95936,4.47785 0,0.55859 1.08524,-2.55007 3.00756,-4.41284 2.49503,-2.41773 5.86566,-3.90388 9.14368,-6.12994 3.27801,-2.22605 6.45079,-5.12449 7.05062,-6.44098 0.71285,-1.56452 1.5042,-7.35355 1.58838,-7.8362 0,0 0.94187,7.00488 1.08297,8.39614 0.1411,1.39126 0.1119,3.25154 -0.115,5.31091 -0.2269,2.05937 -0.42009,5.58559 -1.03699,6.68153 -1.38845,2.46661 -1.67875,12.16092 -10.23035,13.50902 -7.32763,1.15515 -10.82455,4.35039 -6.98023,10.91022 4.73924,8.08692 3.07031,15.1779 -4.29675,18.25606 -3.41197,1.42561 -4.8838,2.64397 -18.94915,-0.37992 -17.00698,-3.65632 -22.49874,-3.59463 -31.42677,0.52989 -3.57117,1.64979 -7.43086,3.50222 -7.43086,3.50222 z m 95.96704,-12.69256 c -3.32165,-8.38149 -2.44305,-15.00371 0.8334,-18.51026 4.0752,-4.36141 7.65169,-4.82274 20.79245,-5.49202 21.14815,-1.0771 28.07876,-3.59253 47.92353,-17.61717 4.19564,-2.96513 6.97667,-4.721 14.84098,-9.53333 1.39966,-0.85648 -4.61312,3.87468 -5.28898,4.90617 -1.896,2.89366 -3.44611,9.50924 -1.14593,14.66068 0,0 1.43122,3.51082 2.39589,4.95777 0.34504,0.51754 -6.18157,-1.77747 -7.73032,-1.65295 -2.7508,0.22117 -4.54984,0.53345 -6.48499,1.53285 -1.93515,0.99939 -4.4511,5.14194 -5.3003,7.00572 -1.57477,-0.0651 0.36003,-0.095 -15.71023,0.0803 -13.70542,0.14943 -18.70135,1.04253 -20.9154,2.18941 -8.23335,4.26492 -9.5354,6.44951 -16.05341,18.73556 l -4.38249,8.26071 z m -133.76869,5.53519 c 0,0 -3.21396,-5.67984 -4.84775,-6.16443 -0.83906,-0.24888 0.58822,-5.0871 -1.06322,-6.55964 -3.43748,-3.0651 -3.47539,-2.49328 -3.47539,-2.49328 0,0 5.43424,0.068 7.05053,0.4207 4.8237,1.05248 6.3339,4.67866 5.6683,8.78027 -0.79506,4.89938 -3.33247,6.01638 -3.33247,6.01638 z m -63.618016,-8.04206 c 1.98112,-3.70319 3.8904,-6.31284 8.532863,-6.13675 1.43513,0.0544 3.52391,0.48847 4.63945,1.08549 2.02304,1.0827 5.60024,1.59309 2.73989,1.79199 -4.41331,0.30687 -5.76163,6.01142 -5.76163,6.01142 0,0 -4.306623,-2.55612 -7.629543,-1.89593 -0.79158,0.15727 -2.36049,3.28659 -2.36049,3.28659 -0.30536,-1.20023 -0.48446,-3.53734 -0.16054,-4.14281 z m 83.850836,-3.76946 c -2.18804,-2.81739 -9.11021,-9.4506 -6.56412,-8.45218 4.7153,1.84904 7.67394,2.59945 11.22865,2.25107 5.63076,-0.55184 5.00558,-2.18191 6.98693,-2.17201 0,0 -2.86858,4.5167 -3.01364,5.30028 0,0 2.16603,1.24209 8.98984,0.95438 4.0989,-0.17282 6.93406,-0.92241 9.73717,-2.35246 6.04884,-3.08588 15.76898,-2.17961 21.81793,1.49885 7.47601,4.54628 2.8314,4.74129 1.6038,5.42829 -1.00422,0.56199 -0.0119,0.71332 -6.51761,-2.28498 -7.0008,-3.22647 -11.41247,-2.94227 -17.68672,0.88277 -5.45895,3.328 -13.87568,2.70596 -18.82372,0.64678 -1.27231,-0.52948 -2.29795,4.85033 -2.29795,4.85033 0.36417,0.26081 -3.20802,-3.65068 -5.46056,-6.55112 z m 95.28325,-3.50413 c -0.57545,-5.50894 -0.73513,-6.16265 -1.5242,-8.40011 -0.43146,-1.22342 4.60519,0.78487 7.97239,6.03526 1.02345,1.71845 1.35083,7.52049 1.35083,7.52049 -0.086,-0.0519 -3.72418,-3.87696 -7.79902,-5.15564 z M 92.014267,849.8929 c -2.89933,-1.9047 -3.57837,-2.79154 -5.91195,-2.02965 l -4.43921,1.26873 c 0.27488,-1.78162 1.60636,-3.07897 2.54161,-4.15619 0.64993,-0.7486 5.15504,-2.46112 6.7327,-2.30343 5.82573,0.58231 7.69103,3.02705 9.432113,5.60641 0.72303,2.11523 0.60802,4.57988 0.60802,4.57988 -1.224583,0.22521 -5.689393,0.63062 -7.970303,1.57496 -0.85574,0.35429 -0.21643,-4.03056 -0.99298,-4.54071 z m 69.493543,-0.90669 c 0,0 -1.42968,1.26723 1.54054,4.89146 0.38525,0.28552 1.95489,1.41944 3.53363,2.12933 -0.35024,1.74032 -2.09692,-5.7949 -2.08048,-5.78813 z m 62.03002,-21.02685 c -1.91975,-0.2413 -3.46412,-0.0284 -3.42242,-0.17103 0.50608,-1.73072 -0.27556,-7.58573 -1.09116,-9.09298 l -2.70303,-4.99526 5.10687,3.47012 c 3.64535,2.47701 6.67628,9.47258 7.05079,11.02205 0.0947,0.39181 -3.25294,1.28348 -4.00154,2.19771 -0.14807,0.18083 0.77659,-1.99513 0.77659,-1.99513 z"
       id="path3059"
       inkscape:connector-curvature="0"
       sodipodi:nodetypes="ssccccsssssssscscssscsscscssssssssssssssssssssssscsssscssssssssssssssssscssssscsssssscsssssssscsssssccsssscsssscssssssccssssssssssssssssssscssscsssscsssssssssssssssssscscsssscssssscsssssscscsscscsscssssssscsssssssscsssssssscssscsccssscsccccsssssccssssssssssssssscssssssscsssssssssssssssssssssssssssssssscsssssssscsssssssscssssssscsssscsssssssssccsssscssssscscssssscsssscssscsscsccssscsccsccsscssssssssssssscsssssssssssssssssssssssssssscssscssssscsssccssscscsssssssssscccsccssccsccsscccscscscsssssscc" />
    <path
       sodipodi:type="arc"
       style="fill:#000000;fill-opacity:1;stroke:#0000ff;stroke-width:0;stroke-miterlimit:4;stroke-opacity:1;stroke-dasharray:none;stroke-dashoffset:0"
       id="path2991"
       sodipodi:cx="191.50809"
       sodipodi:cy="40.759392"
       sodipodi:rx="1.4308076"
       sodipodi:ry="1.5628821"
       d="m 192.93889,40.759392 c 0,0.863156 -0.64059,1.562882 -1.4308,1.562882 -0.79022,0 -1.43081,-0.699726 -1.43081,-1.562882 0,-0.863156 0.64059,-1.562882 1.43081,-1.562882 0.79021,0 1.4308,0.699726 1.4308,1.562882 z"
       transform="matrix(1.1846154,0,0,1.0915493,-28.594006,791.49056)" />
    <path
       style="fill:#f9d616;fill-opacity:1;stroke:#000000"
       d="m 209.84255,833.36741 c -10.7449,1.42973 -16.30235,0.89281 -18.63265,-2.09408 -0.90423,0.0108 2.28254,1.36663 3.33338,2.03097 4.7311,1.45277 10.22078,0.56051 15.29927,0.0631 z m -15.23922,0.14061 c 0.10357,-0.33992 1.44643,0.51501 1.44643,0.51501 -2.66929,5.38659 3.11944,5.96868 4.22097,4.222 1.29571,-0.88003 -0.23144,-4.15509 0.55453,-4.20772 1.03979,-0.0696 1.68608,-0.0758 1.76488,0.19087 0.1576,0.53329 0.01,3.67564 -0.0502,4.94113 -0.6749,2.48964 -5.9333,4.43487 -8.27902,2.28551 -2.14097,-1.96175 -2.93857,-6.46638 -0.46116,-7.67889 z"
       id="path3059-1"
       inkscape:connector-curvature="0"
       sodipodi:nodetypes="cccccccsscscc" />
    <path
       sodipodi:type="arc"
       style="fill:#000000;fill-opacity:1;stroke:#000000;stroke-width:0.89999998;stroke-miterlimit:4;stroke-opacity:1;stroke-dasharray:none;stroke-dashoffset:0"
       id="path3030"
       sodipodi:cx="185.3125"
       sodipodi:cy="-275.25894"
       sodipodi:rx="1.9196429"
       sodipodi:ry="2.0089285"
       d="m 187.23214,-275.25894 c 0,1.1095 -0.85945,2.00893 -1.91964,2.00893 -1.06019,0 -1.91964,-0.89943 -1.91964,-2.00893 0,-1.1095 0.85945,-2.00893 1.91964,-2.00893 1.06019,0 1.91964,0.89943 1.91964,2.00893 z"
       transform="translate(12.725763,1112.2121)" />
  </g>
</svg>
