<?xml version="1.0" encoding="UTF-8" standalone="no"?>
<!-- Created with Inkscape (http://www.inkscape.org/) -->

<svg
   xmlns:dc="http://purl.org/dc/elements/1.1/"
   xmlns:cc="http://creativecommons.org/ns#"
   xmlns:rdf="http://www.w3.org/1999/02/22-rdf-syntax-ns#"
   xmlns:svg="http://www.w3.org/2000/svg"
   xmlns="http://www.w3.org/2000/svg"
   xmlns:sodipodi="http://sodipodi.sourceforge.net/DTD/sodipodi-0.dtd"
   xmlns:inkscape="http://www.inkscape.org/namespaces/inkscape"
   width="294mm"
   height="202mm"
   viewBox="0 0 294 202"
   version="1.1"
   id="svg8"
   inkscape:version="0.92.4 (5da689c313, 2019-01-14)"
   sodipodi:docname="flag.svg">
  <defs
     id="defs2" />
  <sodipodi:namedview
     id="base"
     pagecolor="#ffffff"
     bordercolor="#666666"
     borderopacity="1.0"
     inkscape:pageopacity="0.0"
     inkscape:pageshadow="2"
     inkscape:zoom="0.70710678"
     inkscape:cx="595.2144"
     inkscape:cy="365.14218"
     inkscape:document-units="mm"
     inkscape:current-layer="layer1"
     showgrid="false"
     inkscape:window-width="1920"
     inkscape:window-height="1027"
     inkscape:window-x="-8"
     inkscape:window-y="-8"
     inkscape:window-maximized="1" />
  <metadata
     id="metadata5">
    <rdf:RDF>
      <cc:Work
         rdf:about="">
        <dc:format>image/svg+xml</dc:format>
        <dc:type
           rdf:resource="http://purl.org/dc/dcmitype/StillImage" />
        <dc:title></dc:title>
      </cc:Work>
    </rdf:RDF>
  </metadata>
  <g
     inkscape:label="Layer 1"
     inkscape:groupmode="layer"
     id="layer1"
     transform="translate(0,-95)">
    <g
       id="g4557"
       transform="matrix(0.08414493,0,0,0.08414493,-0.54822071,93.757918)"
       style="stroke-width:3.14437628">
      <g
         id="g4555"
         style="stroke-width:3.14437628">
        <path
           id="path4549"
           d="M 0,2480.16 C 0,1653.44 0,826.72 0,0 c 1169.36,0 2338.72,0 3508.08,0 0,826.72 0,1653.44 0,2480.16 -1169.36,0 -2338.72,0 -3508.08,0 z M 1916.97,56.14 c -523.57,0 -1047.13,0 -1570.7,0 -3.52,0 -7.04,-0.01 -10.55,0.02 -1.28,0.01 -2.55,0.1 -3.83,0.2 -1.58,0.12 -2.96,1.49 -3.01,3.18 -0.13,4.15 -0.23,8.31 -0.23,12.47 -0.01,448.53 -0.01,897.07 -0.01,1345.6 0,3.2 -0.01,6.4 0.03,9.6 0.02,1.27 0.17,2.55 0.29,3.82 0.14,1.45 1.64,3.02 3.19,3.07 4.79,0.18 9.58,0.35 14.37,0.35 1046.17,0.01 2092.35,0.01 3138.52,0.01 3.52,0 7.04,0.02 10.55,-0.04 1.59,-0.03 3.19,-0.18 4.78,-0.35 1.47,-0.16 2.92,-1.69 2.97,-3.29 0.13,-4.15 0.24,-8.31 0.25,-12.46 0.01,-448.85 0.01,-897.71 0.01,-1346.56 0,-2.88 0.02,-5.76 -0.02,-8.64 -0.02,-1.27 -0.13,-2.55 -0.25,-3.82 -0.15,-1.57 -1.57,-2.96 -3.19,-3 -4.16,-0.09 -8.31,-0.15 -12.47,-0.15 -523.57,-0.01 -1047.13,-0.01 -1570.7,-0.01 z m -0.88,2334.33 c 521.96,0 1043.93,0 1565.89,0 3.84,0 7.68,0.02 11.51,-0.01 1.92,-0.01 3.84,-0.07 5.75,-0.19 2.67,-0.18 4.16,-1.64 4.24,-4.19 0.1,-3.2 0.11,-6.4 0.11,-9.6 0.01,-42.23 0,-84.46 0,-126.69 0,-196.11 0,-392.22 0,-588.34 0,-3.52 0.02,-7.04 -0.07,-10.56 -0.08,-3.32 -1.44,-4.81 -4.55,-4.92 -3.51,-0.13 -7.03,-0.14 -10.55,-0.14 -1048.09,-0.01 -2096.17,-0.01 -3144.26,0 -2.88,0 -5.76,-0.03 -8.63,0.04 -1.27,0.03 -2.53,0.24 -3.79,0.41 -1.06,0.14 -2.52,1.5 -2.57,2.54 -0.19,3.82 -0.43,7.65 -0.43,11.47 -0.02,238.66 -0.02,477.32 -0.02,715.99 0,2.88 0.01,5.76 0.08,8.64 0.02,0.95 0.05,1.99 0.44,2.82 0.37,0.79 1.11,1.63 1.89,1.95 1.14,0.47 2.46,0.67 3.72,0.7 4.16,0.1 8.31,0.09 12.47,0.09 522.92,-0.01 1045.84,-0.01 1568.77,-0.01 z"
           class="st0"
           inkscape:connector-curvature="0"
           style="fill:#ffffff;stroke-width:3.14437628" />
        <path
           id="path4551"
           d="m 1916.97,56.14 c 523.57,0 1047.13,0 1570.7,0.01 4.16,0 8.31,0.06 12.47,0.15 1.62,0.04 3.04,1.43 3.19,3 0.12,1.27 0.23,2.55 0.25,3.82 0.04,2.88 0.02,5.76 0.02,8.64 0,448.85 0,897.71 -0.01,1346.56 0,4.15 -0.11,8.31 -0.25,12.46 -0.05,1.6 -1.49,3.13 -2.97,3.29 -1.59,0.17 -3.18,0.32 -4.78,0.35 -3.52,0.06 -7.04,0.04 -10.55,0.04 -1046.17,0 -2092.35,0 -3138.52,-0.01 -4.79,0 -9.58,-0.17 -14.37,-0.35 -1.54,-0.06 -3.04,-1.62 -3.19,-3.07 -0.13,-1.27 -0.27,-2.54 -0.29,-3.82 -0.05,-3.2 -0.03,-6.4 -0.03,-9.6 0,-448.53 0,-897.07 0.01,-1345.6 0,-4.16 0.1,-8.31 0.23,-12.47 0.05,-1.68 1.44,-3.05 3.01,-3.18 1.27,-0.1 2.55,-0.19 3.83,-0.2 3.52,-0.03 7.04,-0.02 10.55,-0.02 523.57,0 1047.14,0 1570.7,0 z"
           inkscape:connector-curvature="0"
           style="fill:#2b7338;fill-opacity:1;stroke-width:3.14437628" />
        <path
           id="path4553"
           d="m 1916.09,2390.47 c -522.92,0 -1045.85,0 -1568.77,0 -4.16,0 -8.32,0.01 -12.47,-0.09 -1.25,-0.03 -2.57,-0.23 -3.72,-0.7 -0.78,-0.32 -1.52,-1.16 -1.89,-1.95 -0.39,-0.83 -0.42,-1.87 -0.44,-2.82 -0.07,-2.88 -0.08,-5.76 -0.08,-8.64 0,-238.66 0,-477.32 0.02,-715.99 0,-3.83 0.24,-7.65 0.43,-11.47 0.05,-1.04 1.51,-2.39 2.57,-2.54 1.26,-0.17 2.53,-0.38 3.79,-0.41 2.88,-0.07 5.76,-0.04 8.63,-0.04 1048.09,0 2096.17,0 3144.26,0 3.52,0 7.04,0.01 10.55,0.14 3.11,0.11 4.47,1.6 4.55,4.92 0.09,3.52 0.07,7.04 0.07,10.56 0,196.11 0,392.22 0,588.34 0,42.23 0,84.46 0,126.69 0,3.2 -0.01,6.4 -0.11,9.6 -0.08,2.55 -1.58,4.02 -4.24,4.19 -1.91,0.13 -3.83,0.18 -5.75,0.19 -3.84,0.03 -7.68,0.01 -11.51,0.01 -521.97,0.01 -1043.93,0.01 -1565.89,0.01 z"
           inkscape:connector-curvature="0"
           style="fill:#da251d;fill-opacity:1;stroke-width:3.14437628" />
      </g>
    </g>
    <g
       id="g4493"
       transform="matrix(0.2591377,0,0,0.2591377,-409.05001,-168.28292)"
       style="fill:#ffcc00;fill-opacity:1;stroke-width:1.02101445">
      <g
         id="g4491"
         transform="matrix(0.47414471,0,0,0.47414471,3088,950.20529)"
         style="fill:#ffcc00;fill-opacity:1;stroke-width:2.15338159">
        <path
           id="path4489"
           d="m -3070.1151,1786.8721 -1.6307,0.3707 -1.8324,0.4476 -2.5992,0.4983 -3.9879,0.3561 -4.5493,0.228 -4.0309,-0.095 -8.5837,-1.0375 -4.4573,-0.9701 c 0,0 -0.6152,0.3819 0,0 0.5303,-0.3322 -0.9334,0.4666 0,0 -1.8455,-0.5161 -3.3305,-0.8697 -4.773,-1.3435 -1.7182,-0.5585 -3.4153,-1.2021 -5.1053,-1.8384 -1.4778,-0.5586 -2.9628,-1.1243 -4.4123,-1.7608 -6.4772,-2.8355 -12.3179,-6.6539 -17.5293,-11.4268 -1.1667,-1.0678 -2.2486,-2.2344 -3.4153,-3.2952 -6.272,-5.7133 -10.6137,-12.8835 -15.0826,-19.9687 -5.0558,-10.7197 -9.1076,-21.6728 -8.754,-33.8209 0.1556,-5.4307 0.092,-10.8543 1.5273,-16.1646 3.6134,-13.3077 10.4794,-24.3741 21.7083,-32.6754 5.7417,-4.2497 11.936,-7.5236 18.8373,-8.9804 9.3692,-1.9799 18.8091,-2.0575 28.15,0.7779 6.6893,2.0294 12.332,5.8125 17.1403,10.6137 4.8083,4.8013 8.4287,10.5713 10.9178,17.0202 2.5173,6.5053 3.2102,13.2087 2.4041,20.0111 -0.898,7.5732 -3.9315,14.3119 -8.9237,20.1809 -4.5467,5.3387 -10.3662,8.6479 -16.7797,11.1087 -0.6293,0.2403 -1.301,0.3817 -1.9657,0.5019 -3.7123,0.6931 -7.3469,-1.8102 -7.9903,-5.586 -0.4243,-2.4961 0.6929,-4.4407 2.6516,-5.8409 1.089,-0.7777 2.3476,-1.3929 3.6204,-1.803 4.2639,-1.3647 7.4176,-4.2143 10.3733,-7.3893 2.8708,-3.09 4.4901,-6.7741 5.1619,-10.8754 0.6222,-3.8184 0.502,-7.665 0.092,-11.5045 -0.05,-0.4455 -0.092,-0.9123 -0.2333,-1.3365 -3.2103,-9.6166 -8.6197,-17.2888 -18.2859,-21.4961 -10.0621,-4.377 -19.9333,-3.4649 -29.5712,0.9545 -8.8813,4.073 -15.6271,10.4795 -20.287,19.2405 -3.7264,7.0144 -4.8436,14.5099 -5.48,22.2033 0.5161,4.7163 0.7848,9.4751 2.0364,14.0784 2.284,8.3722 5.6922,16.2281 11.0875,23.0942 4.9073,6.2438 10.3096,12.0349 17.0413,16.3765 8.3651,5.3882 17.4868,8.4006 27.5348,8.2662 2.489,0.2074 4.978,0.1193 7.46,0 11.0379,0.1133 20.8314,-3.7052 29.8682,-9.6803 7.6792,-5.0771 13.4492,-11.9218 18.3212,-19.7212 5.1265,-8.2025 8.2307,-17.1334 10.1965,-26.4459 1.3011,-6.166 2.3052,-12.4875 1.8173,-18.8586 -0.3395,-4.5043 -0.7001,-9.0369 -1.5627,-13.4633 -1.5557,-7.9974 -3.7901,-15.8038 -6.958,-23.3628 -4.2144,-10.0622 -9.3338,-19.6011 -15.4362,-28.6097 -5.8336,-8.6267 -12.2612,-16.7797 -19.7495,-24.0841 -9.2348,-8.9944 -18.2717,-18.1939 -27.4429,-27.259 -2.4112,-2.383 -4.9285,-4.6669 -7.5095,-6.8519 -2.7718,-2.3476 -5.4235,-4.8013 -7.6367,-7.6863 -1.8031,-2.3546 -3.9245,-4.3487 -6.2509,-6.1801 -1.591,-1.2516 -3.1819,-2.6021 -4.4335,-4.179 -5.4801,-6.9014 -11.2501,-13.5765 -16.1362,-20.9516 -6.8943,-10.4086 -12.827,-21.3052 -17.4161,-32.923 -3.6699,-9.3055 -5.8124,-19.0212 -7.4671,-28.85 -0.1131,-6.1023 -0.2404,-12.2117 -0.3394,-18.3141 -0.085,-4.9992 0.4596,-9.9419 1.6193,-14.7998 3.1254,-13.1168 8.3014,-25.2932 16.2423,-36.2887 8.4853,-11.738 19.6859,-19.7849 33.0078,-25.1095 1.2586,-0.502 2.5031,-1.0182 3.7406,-1.5627 0.1768,-0.078 0.396,-0.396 0.3606,-0.5303 -0.1061,-0.396 -0.2475,-0.9263 -0.5445,-1.0889 -0.7849,-0.4243 -1.6475,-0.7284 -2.5031,-0.9971 -6.7529,-2.1284 -12.9118,-5.4164 -18.6465,-9.5318 -6.4842,-4.6528 -12.0774,-10.2036 -16.6877,-16.7231 -1.0465,-1.4779 -1.987,-3.0264 -3.0547,-4.4901 -5.4023,-7.4388 -8.8318,-15.7968 -11.0733,-24.6145 -1.4991,-5.9114 -2.5739,-11.943 -2.284,-18.109 0.8273,-17.5787 7.3186,-32.6331 20.8385,-44.0529 11.144,-9.4116 24.2255,-14.0643 38.9546,-12.6784 11.6814,1.1031 21.6658,5.8973 29.6137,14.7856 4.9214,5.5084 8.5984,11.6037 10.4015,18.795 1.7395,6.9226 1.9658,13.9512 0.3041,20.8314 -2.5739,10.6349 -8.846,18.6818 -18.4131,24.0841 -2.3759,1.3435 -4.9498,2.2415 -7.6297,2.7365 -1.089,0.205 -2.2557,0.1838 -3.3659,0.057 -2.5031,-0.29 -4.5679,-2.2629 -5.1548,-4.7519 -0.5586,-2.3758 0.5445,-5.2538 2.687,-6.47 1.5627,-0.8909 3.2669,-1.5415 4.9074,-2.2911 8.0256,-3.6486 12.6006,-10.0337 14.5169,-18.4696 0.5515,-2.4395 0.7283,-4.9568 0.2828,-7.4247 -0.9687,-5.374 -2.4466,-10.5782 -5.9114,-14.9906 -1.9516,-2.4891 -3.7264,-5.1194 -6.2862,-7.0781 -4.4265,-3.3801 -9.4399,-5.4165 -14.92,-6.0388 -6.8023,-0.7778 -13.5199,-0.3535 -20.0182,2.2415 -3.6204,1.4497 -6.9438,3.3305 -9.9419,5.7488 -8.9732,7.2479 -14.8069,16.4898 -16.5322,27.952 -1.0112,6.7105 -0.9334,13.4917 0.6081,20.2233 2.3688,10.3521 6.965,19.6153 13.534,27.8388 6.8873,8.6268 15.3726,15.2594 25.7671,19.3112 3.6133,1.4071 7.3539,2.3405 11.144,2.8568 7.4176,1.0181 14.821,1.0818 22.2456,-0.5092 10.6986,-2.3052 19.8061,-7.4883 27.9166,-14.6371 3.7689,-3.3164 6.6469,-7.3964 9.4824,-11.4834 4.0234,-5.7984 6.965,-12.1412 9.1994,-18.8375 3.776,-11.3278 5.1761,-22.9668 3.9598,-34.8038 -1.3081,-12.6856 -4.7517,-24.8266 -10.1965,-36.4232 -5.0204,-10.6914 -11.0521,-20.7677 -18.0029,-30.2783 -3.7336,-5.1053 -7.7004,-10.0268 -12.233,-14.5028 -15.6129,-15.415 -31.1269,-30.9289 -46.6833,-46.4075 -0.6434,-0.6364 -1.2233,-1.3647 -1.9445,-1.888 -6.1448,-4.4336 -10.5854,-10.4723 -15.2311,-16.2847 -6.6469,-8.3156 -12.6148,-17.1049 -17.4161,-26.6438 -2.8497,-5.6569 -5.6427,-11.3279 -8.0045,-17.2181 -2.7931,-6.958 -4.7942,-14.1351 -6.364,-21.4395 -0.4242,-1.9799 -0.6081,-4.0235 -0.8414,-6.0387 -0.1839,-1.5698 -0.1556,-3.175 -0.4313,-4.7306 -1.7395,-9.9773 -0.7849,-19.8485 1.294,-29.642 2.2698,-10.7056 6.2437,-20.8031 11.8299,-30.2006 5.4942,-9.24894 12.6219,-17.00592 21.6163,-23.08704 6.0528,-4.10123 12.4451,-7.33271 19.3465,-9.64495 0.8202,-0.27578 1.5627,-0.79905 2.3193,-1.24452 0.078,-0.0495 0.064,-0.50204 -0.021,-0.55154 -0.9758,-0.53033 -1.9234,-1.14552 -2.9628,-1.49907 -4.2851,-1.46372 -8.4924,-3.09713 -12.5229,-5.19017 -4.4406,-2.30518 -8.4641,-5.12654 -12.332,-8.32266 -8.1529,-6.73161 -14.425,-14.9765 -19.6505,-24.01335 -3.8538,-6.67509 -6.6751,-13.85931 -8.061,-21.51023 -0.6435,-3.55675 -1.4567,-7.14178 -1.5628,-10.72682 -0.5091,-16.75846 4.2568,-31.67138 16.0585,-43.96799 1.4071,-1.47078 2.8638,-2.89207 4.3416,-4.29214 7.1206,-6.72461 15.6342,-10.78341 25.1943,-12.39562 6.2508,-1.05358 12.6219,-0.77074 18.9434,-0.0637 0.2263,0.0284 0.4455,0.0779 0.6647,0.12737 11.5683,2.48902 20.8597,8.48528 27.6267,18.20802 1.7961,2.58095 3.4366,5.35989 4.6528,8.25902 5.7205,13.6472 4.9073,26.80648 -3.0547,39.50614 -4.0518,6.46297 -10.0834,10.21065 -16.6383,13.41384 -1.2021,0.5869 -2.5597,0.89804 -3.8749,1.2233 -2.9557,0.72125 -5.3316,-0.29699 -7.1843,-2.63045 -2.2486,-2.8355 -1.6051,-7.00037 1.4425,-8.90249 1.1385,-0.7071 2.4396,-1.16673 3.6487,-1.76776 1.6193,-0.79903 3.3022,-1.50615 4.8084,-2.47489 8.4782,-5.43059 11.5117,-13.53405 11.2147,-23.22143 -2.7436,-21.69408 -22.3658,-32.29363 -39.4213,-28.80758 -7.9974,1.63341 -14.8139,5.28917 -20.9233,10.59247 -5.374,4.66692 -13.6119,18.49796 -13.7533,28.77931 -0.035,2.26275 0.01,4.52549 -0.078,6.78823 -0.2404,6.22256 1.3223,12.09156 3.3305,17.89693 3.2386,9.36917 8.6762,17.4302 15.2523,24.64978 8.4924,9.31262 19.198,14.9412 31.6078,17.21101 1.987,0.36064 4.0446,0.4384 6.074,0.4879 3.1679,0.0779 6.3357,0.0425 9.4965,0.0134 7.856,-0.0707 15.1745,-2.39709 22.1608,-5.71342 3.0405,-1.44251 5.8973,-3.39413 8.556,-5.47302 7.0004,-5.47302 13.131,-11.76628 17.2464,-19.79196 2.5809,-5.03462 5.0416,-10.0975 6.8448,-15.49982 4.4689,-13.39263 5.2538,-26.98325 2.8213,-40.83549 -2.6516,-15.10383 -8.0469,-29.13993 -15.8251,-42.34164 -6.1094,-10.35914 -13.0532,-20.09601 -20.7677,-29.30256 -0.8698,-1.03945 -1.8102,-2.02234 -2.786,-2.96985 -6.166,-5.97506 -11.8229,-12.48754 -18.6606,-17.76257 -1.0677,-0.82023 -1.9728,-1.86676 -2.9345,-2.82135 -10.9036,-10.84704 -21.7507,-21.75773 -32.725,-32.52698 -4.0588,-3.98101 -7.6721,-8.34388 -11.0026,-12.88352 -6.6892,-9.11461 -13.0178,-18.51207 -18.109,-28.64495 -5.7205,-11.37668 -9.949,-23.31973 -12.3037,-35.82848 -1.4637,-7.76405 -2.5739,-15.65537 -1.987,-23.60327 0.7425,-10.18235 2.4395,-20.20916 6.0741,-29.81168 2.0011,-5.28918 4.2214,-10.47936 7.0993,-15.37962 4.8791,-8.31559 11.3845,-15.22403 18.6748,-21.3476 5.0204,-4.21436 10.5783,-7.74282 16.8221,-10.04093 3.182,-1.16672 6.3145,-2.46073 9.4611,-3.71938 0.1838,-0.0707 0.4455,-0.35355 0.4101,-0.47377 -0.092,-0.37477 -0.2192,-0.91924 -0.495,-1.03945 -3.5072,-1.56242 -7.1347,-2.88471 -10.55,-4.61714 -9.8005,-4.99218 -18.2646,-11.60364 -24.8407,-20.56977 -5.2468,-7.14886 -9.9278,-14.54521 -12.9896,-22.93859 -3.7053,-10.16114 -5.4872,-20.63341 -4.2427,-31.32489 1.9375,-16.65947 9.15,-30.5683 22.8113,-40.85671 5.8973,-4.44064 12.4098,-7.35393 19.4455,-9.30555 3.5356,-0.98288 7.1701,-1.09601 10.7622,-1.18087 5.6498,-0.13437 11.243,0.34648 16.7373,2.08597 6.4064,2.0294 11.8652,5.52252 16.8433,9.86416 1.5203,1.32937 2.8708,2.89915 4.0871,4.51842 3.4224,4.5467 5.9892,9.58131 8.0398,14.87757 1.1526,2.97692 1.8314,6.05992 1.8314,9.27017 0,1.8102 0.085,3.62041 0.042,5.43061 -0.2545,12.10568 -5.4447,21.78599 -14.7715,29.25305 -3.5426,2.84257 -7.7287,4.67399 -12.141,5.87607 -0.4384,0.1202 -0.8839,0.19092 -1.3294,0.25457 -3.0759,0.43132 -6.0316,-1.35765 -6.9438,-4.20023 -0.9334,-2.92035 0.1485,-6.32155 2.6446,-7.75697 1.5627,-0.89803 3.2527,-1.56978 4.9144,-2.2769 3.6204,-1.54855 6.569,-3.97394 9.0581,-6.96501 2.5102,-3.01229 4.087,-6.42762 4.7447,-10.34499 2.0647,-12.35319 -2.2204,-22.40118 -11.6532,-30.0521 -7.3398,-5.94679 -16.1433,-8.08931 -25.5549,-6.42761 -16.0018,2.82135 -26.9267,12.10568 -33.2694,26.91253 -1.6122,3.76181 -2.5597,7.74284 -2.6375,11.85821 -0.071,4.07294 -0.1415,8.14589 0.028,12.21176 0.2262,5.48715 1.7182,10.71975 3.882,15.73315 4.2638,9.87831 10.0551,18.73129 18.1797,25.89431 7.9904,7.04279 17.2605,11.78042 27.7611,13.3502 8.9449,1.33643 18.0525,1.50614 26.9196,-1.03238 12.5582,-3.59212 22.9598,-10.38743 30.9218,-20.86676 6.9438,-9.13584 11.9431,-19.19092 14.5099,-30.37031 1.8243,-7.95495 2.8709,-16.04427 2.2486,-24.22551 -0.3465,-4.49721 -0.8627,-9.02978 -1.8314,-13.42799 -2.0577,-9.2914 -4.9498,-18.34239 -9.1358,-26.92667 -2.878,-5.89729 -5.7135,-11.81579 -9.3127,-17.32416 -6.3144,-9.65909 -12.8764,-19.07778 -21.1991,-27.23074 -17.614,-17.25344 -34.9806,-34.75436 -52.4957,-52.10679 -6.2862,-6.22963 -11.8723,-13.03201 -16.8433,-20.34352 -4.7093,-6.92257 -9.1995,-13.9583 -12.9471,-21.48194 -3.9457,-7.91961 -7.3469,-16.02307 -9.949,-24.48008 -2.9487,-9.57425 -4.7377,-19.3182 -4.6033,-29.37328 0.021,-1.58392 0.014,-3.16784 0,-4.75176 -0.1061,-13.60477 3.1113,-26.42464 9.051,-38.61518 2.8779,-5.90436 6.0882,-11.56829 10.0126,-16.88575 5.77,-7.81354 13.1027,-13.71789 21.3688,-18.5333 8.2873,-4.82955 17.2393,-7.91254 26.7711,-9.22776 1.5698,-0.21921 3.1113,-0.62226 4.6882,-0.74954 2.4748,-0.20506 4.9921,-0.56568 7.4317,-0.30405 11.7945,1.24451 23.1578,4.02344 33.5593,9.99143 3.7406,2.14961 7.3186,4.49721 10.3733,7.58728 1.1102,1.1243 2.2345,2.24153 3.4153,3.29512 6.8448,6.10941 11.9714,13.52698 16.2847,21.53852 4.4407,8.25902 7.3045,17.02009 8.1318,26.40341 0.042,0.45255 0.05,0.9051 0.1201,1.35058 1.4284,9.17119 -0.106,18.05247 -3.0618,26.67212 -3.2102,9.36211 -8.5065,17.51507 -15.9665,24.04875 -7.4246,6.5054 -15.8463,11.29252 -25.7528,12.90473 -6.5125,1.06066 -13.1028,1.22329 -19.5869,0 -8.6338,-1.62635 -16.1362,-5.55788 -22.4577,-11.82992 -6.7883,-6.73167 -11.3703,-14.55936 -13.23,-23.97097 -3.1396,-15.90994 2.7931,-32.78154 19.099,-42.11537 2.5738,-1.47078 5.3386,-2.49609 8.2802,-2.89914 2.687,-0.3677 4.872,0.61519 6.5054,2.80722 2.2133,2.97693 1.5203,6.87309 -1.6476,8.84592 -0.9546,0.59397 -1.9728,1.14552 -3.0405,1.47786 -4.2639,1.32229 -7.4812,4.08001 -10.4864,7.23372 -2.5739,2.70822 -4.2922,5.86899 -5.07,9.45403 -1.7395,8.03982 -1.0394,15.8463 3.5285,22.85374 4.4335,6.80945 10.444,11.83699 18.3141,14.37551 5.2679,1.70413 10.5288,1.83848 16.0443,0.86267 10.847,-1.91626 19.2899,-7.54484 26.0498,-15.86751 3.5851,-4.41235 5.8549,-9.65909 7.5802,-15.08261 2.383,-7.48121 2.6234,-15.06848 1.1667,-22.7901 -1.4849,-7.88426 -4.3699,-15.19576 -8.3226,-22.11834 -2.1426,-3.74768 -4.6599,-7.21958 -7.7711,-10.23893 -1.789,-1.73242 -3.6134,-3.43655 -5.2538,-5.30331 -4.773,-5.42352 -10.9107,-8.73279 -17.4444,-11.41273 -4.1932,-1.72534 -8.5489,-2.99107 -13.0037,-3.81838 -5.1548,-0.9546 -10.3733,-0.86267 -15.5423,-0.17678 -9.0934,1.20916 -17.4938,4.44064 -25.3781,9.10048 -5.1265,3.0335 -9.4823,6.98623 -13.2441,11.53294 -9.744,11.79456 -15.6059,25.32861 -17.5999,40.5173 -0.1768,1.3435 -0.3748,2.68701 -0.6152,4.02344 -0.7354,4.04466 -0.7991,8.12467 -0.3394,12.1764 0.5303,4.70934 1.2091,9.42576 2.1779,14.07146 2.5526,12.25418 6.9508,23.82247 13.0603,34.78265 4.6386,8.32266 9.8005,16.27056 15.5846,23.82247 2.1991,2.87086 4.4548,5.70637 6.8095,8.44995 1.3223,1.53443 2.8708,2.87793 4.3628,4.25678 2.6517,2.46075 5.4235,4.79419 7.9903,7.33271 14.4675,14.32603 28.8571,28.72274 43.3316,43.03461 5.4872,5.43059 10.246,11.44101 14.814,17.63528 3.7688,5.09824 7.1559,10.45106 10.451,15.85336 5.3104,8.71866 9.6096,17.93226 13.032,27.556 0.9829,2.77188 1.9163,5.56495 2.7224,8.38631 2.3617,8.29439 4.0941,16.68775 3.7901,25.39227 -0.092,2.70822 -0.1061,5.43059 0.01,8.14587 0.4667,11.08039 -2.1284,21.58802 -6.2721,31.7138 -3.783,9.23484 -8.457,18.01713 -14.9483,25.71046 -0.7283,0.86268 -1.4071,1.78899 -2.2344,2.55267 -7.6792,7.08523 -15.719,13.66132 -25.6327,17.44436 -2.5314,0.96165 -5.1619,1.65462 -7.7499,2.45366 -0.9617,0.29698 -1.6051,0.90509 -1.294,1.28694 0.396,0.49496 0.8344,1.11016 1.3859,1.30107 4.0588,1.4425 8.0045,3.13956 11.7805,5.20431 7.1912,3.9386 13.7178,8.71866 18.908,15.16749 0.99,1.23036 2.1355,2.34051 3.1749,3.52846 1.0395,1.18794 2.1355,2.3476 3.0477,3.63453 6.8801,9.7086 11.9572,20.23038 14.1068,32.01787 0.5657,3.11128 1.2091,6.24377 1.3718,9.3904 0.6505,12.29661 -2.0436,23.92854 -8.4641,34.40789 -8.1247,13.27241 -19.7283,22.21733 -34.9736,26.07814 -1.7395,0.43841 -3.5567,0.70005 -5.3457,0.81318 -2.7082,0.1697 -5.4235,0.2192 -8.1388,0.1697 -17.3383,-0.34648 -30.1228,-8.29436 -38.7213,-23.2497 -3.3305,-5.79123 -5.0346,-12.07742 -5.8336,-18.65352 -0.1344,-1.11723 -0.2122,-2.26274 -0.1273,-3.38704 0.6718,-8.76109 3.1396,-16.8999 8.7045,-23.85785 4.8225,-6.03162 11.1299,-9.83587 18.505,-11.92891 0.8556,-0.24042 1.7819,-0.3182 2.68,-0.3182 3.1961,-0.007 6.0811,2.70822 6.3215,5.93971 0.1273,1.6617 -0.4384,3.18198 -1.6476,4.29921 -0.9758,0.90511 -2.1283,1.66878 -3.3021,2.31226 -1.98,1.08894 -4.0801,1.95869 -6.06,3.04763 -3.882,2.13547 -6.8236,5.2326 -8.6479,9.2702 -2.6729,5.91848 -3.7052,11.97134 -2.0718,18.4838 3.3375,13.29363 13.534,23.01637 28.0227,25.07405 5.7275,0.81318 11.2854,-0.34648 16.6524,-2.2486 8.8318,-3.12542 15.7968,-8.88835 21.0294,-16.48269 4.8083,-6.98623 7.5165,-14.82807 7.7994,-23.49721 0.2757,-8.52066 -1.1597,-16.63119 -4.1578,-24.56494 -1.6971,-4.4972 -4.1578,-8.54895 -6.7246,-12.52997 -4.9498,-7.67918 -11.0875,-14.23409 -18.8657,-19.20505 -4.4335,-2.83551 -9.157,-4.92147 -14.128,-6.49125 -4.7659,-1.49908 -9.7298,-2.03648 -14.6654,-2.65166 -0.891,-0.11319 -1.8102,-0.1202 -2.7082,-0.0779 -9.8147,0.4667 -19.297,2.30518 -28.0157,7.09937 -3.981,2.19204 -7.7357,4.68106 -10.9248,7.96204 -1.7324,1.78192 -3.479,3.55675 -5.2892,5.26795 -4.8436,4.58207 -8.3297,10.10458 -11.0874,16.11502 -3.3164,7.22664 -5.8478,14.69369 -7.1347,22.57796 -1.5132,9.23483 -1.5132,18.44845 -0.043,27.68328 2.086,13.07444 6.2579,25.47712 12.3744,37.17975 4.9286,9.43282 10.7056,18.33531 17.2747,26.74282 3.5002,4.48308 7.3539,8.57017 11.3632,12.55824 14.4321,14.36138 28.85,28.72982 43.3033,43.06998 1.9234,1.90919 4.0588,3.5921 6.0458,5.43765 1.8173,1.69 3.8042,3.26684 5.3174,5.20433 6.8236,8.7257 13.7604,17.38071 19.5092,26.89131 0.2333,0.38892 0.5091,0.74954 0.7354,1.14552 4.3416,7.67919 8.6196,15.40789 12.0137,23.55377 4.37,10.48642 7.262,21.38295 8.5348,32.7179 0.5091,4.50428 1.1314,8.98735 0.8698,13.51283 -0.792,13.88762 -3.1891,27.40045 -9.6874,39.90919 -1.5627,3.01229 -3.0759,6.05285 -4.7942,8.97321 -5.4872,9.31261 -12.9047,16.86453 -21.7365,22.99515 -5.0346,3.49312 -10.6066,6.01748 -16.3059,8.25902 -1.2516,0.49497 -2.4749,1.07481 -3.6911,1.64049 -0.1768,0.0849 -0.396,0.36769 -0.3748,0.52326 0.064,0.41013 0.1485,1.03945 0.4172,1.16673 1.4142,0.68589 2.8567,1.35058 4.3558,1.81728 7.6509,2.3971 14.524,6.27204 20.8809,11.06623 4.7093,3.55676 8.8035,7.81356 12.5582,12.33905 7.46,9.00851 12.7633,19.19091 15.8251,30.49051 1.5415,5.6851 2.7436,11.4763 2.6517,17.3878 -0.1698,11.2642 -2.7719,21.8779 -8.5843,31.6996 -8.5914,14.5099 -21.2911,23.2144 -37.5546,26.6439 -11.9925,2.5243 -23.4547,0.3111 -33.9058,-6.1024 -5.6356,-3.4648 -10.1611,-8.259 -13.8381,-13.7886 -3.9527,-5.9397 -6.2013,-12.537 -7.4458,-19.5162 -0.4809,-2.6941 -0.6011,-5.3952 -0.1768,-8.1034 0.8061,-5.169 2.2344,-10.14 4.6103,-14.8422 3.6063,-7.1348 9.1712,-12.2613 16.1433,-15.9383 2.4042,-1.2657 4.9922,-2.1496 7.7216,-2.4324 1.8526,-0.1909 3.6416,0.064 5.1053,1.3294 3.6911,3.1819 2.6022,7.7074 -0.3252,9.956 -0.7001,0.5445 -1.5698,0.8769 -2.3901,1.2587 -1.4354,0.6717 -2.9274,1.2233 -4.3204,1.9658 -9.5035,5.0911 -14.326,16.1715 -12.9259,25.0174 2.1637,13.7179 9.6944,23.1437 23.2002,27.3015 5.07,1.5627 10.3238,1.4849 15.4715,0.6222 12.2754,-2.0647 21.6658,-8.5843 28.3621,-19.0565 2.7012,-4.2285 4.7306,-8.6975 5.9256,-13.6048 1.6334,-6.7246 1.7324,-13.5199 0.6152,-20.2162 -1.4708,-8.754 -4.7094,-16.9282 -9.5389,-24.4942 -3.9457,-6.1802 -8.7328,-11.56831 -14.2199,-16.29886 -6.2438,-5.38109 -13.5553,-8.97321 -21.4961,-11.20059 -7.5095,-2.11427 -15.217,-2.2769 -22.8891,-1.53444 -6.3286,0.61519 -12.4522,2.48902 -18.1515,5.31039 -11.8794,5.88314 -21.0506,14.6371 -27.4146,26.361 -5.1477,9.4682 -8.3439,19.5444 -9.8783,30.144 -0.9758,6.7387 -0.8697,13.5553 -0.099,20.3081 0.7708,6.7459 2.284,13.3715 4.1861,19.8981 1.3294,4.5679 2.885,9.051 5.0488,13.3007 1.2303,2.4183 2.4466,4.8437 3.6062,7.3044 4.0659,8.6409 9.348,16.5251 15.019,24.1619 1.6193,2.1779 3.2244,4.3699 4.9356,6.4771 1.8526,2.2769 3.7052,4.575 5.77,6.6468 9.8924,9.942 19.8556,19.8132 29.7975,29.7056 0.7991,0.7991 1.5769,1.6335 2.4537,2.3406 8.8601,7.0852 16.2281,15.7331 24.4518,23.483 4.0871,5.1266 8.3792,10.1046 12.2259,15.4008 7.46,10.2672 13.9371,21.1496 19.2404,32.6967 4.5538,9.9207 7.9903,20.2163 9.5318,31.035 0.8556,6.0245 1.8456,12.0774 1.6688,18.2151 -0.594,20.9162 -6.2932,40.1142 -19.1697,56.8798 -2.1991,2.8638 -4.2285,5.8619 -7.0994,8.1741 -5.4518,4.3912 -10.5783,9.2278 -17.0695,12.1552 -3.7053,1.6688 -7.4176,3.3376 -11.1016,5.0701 -0.2758,0.1272 -0.3677,0.7354 -0.4385,1.1383 -0.028,0.1415 0.2193,0.4173 0.4031,0.5021 2.0577,0.9192 4.0871,1.9516 6.2084,2.687 7.6439,2.6375 14.0715,7.255 20.0112,12.5158 11.243,9.9632 19.1202,22.2528 23.8578,36.4939 4.1719,12.5511 4.4619,25.3003 1.4284,38.1484 -0.1556,0.6577 -0.3182,1.3223 -0.5445,1.9587 -4.2568,12.0138 -10.8753,22.2739 -21.5173,29.6987 -5.8266,4.0587 -11.9855,7.2195 -18.9859,8.6761 -2.4607,0.5162 -4.9073,0.9476 -7.4175,0.9899 -2.2628,0.035 -4.5255,0.049 -6.7812,0.078 -9.9066,0.1272 -18.5899,-3.1325 -26.2974,-9.2985 -8.6267,-6.8943 -14.4462,-15.6483 -16.5746,-26.4529 -3.0405,-15.4362 1.2092,-28.6449 13.3785,-38.9758 3.6841,-3.1254 8.0186,-5.0417 12.5865,-6.47 0.4314,-0.1344 0.8769,-0.2263 1.3294,-0.2758 2.4042,-0.2687 4.5114,0.3111 6.0175,2.3122 1.6334,2.1709 1.9516,4.5821 0.7142,7.0146 -0.4879,0.9616 -1.3152,1.8879 -2.2274,2.4607 -1.3223,0.8344 -2.8567,1.3223 -4.2992,1.9799 -6.2509,2.8426 -10.9036,7.3963 -13.3149,13.7886 -2.9345,7.7641 -2.5597,15.5352 1.5132,22.9174 1.089,1.9728 2.4466,3.8042 3.6841,5.6922 1.7677,2.687 4.0588,4.8437 6.7599,6.5761 8.16,5.2326 16.8504,7.2691 26.5095,5.0205 8.6621,-2.0153 16.0372,-6.067 22.0335,-12.5724 4.978,-5.4023 8.6691,-11.6037 10.3379,-18.8162 0.8627,-3.7335 1.3294,-7.566 1.9163,-11.3632 0.1343,-0.8839 0.1131,-1.8102 0.042,-2.7082 -1.1314,-13.8805 -5.5932,-26.6014 -14.2694,-37.505 -5.6357,-7.0782 -12.1269,-13.4068 -20.4355,-17.5505 -4.9073,-2.4536 -10.0268,-4.1436 -15.3937,-5.1053 -2.8921,-0.5232 -5.8266,-0.7919 -8.7399,-1.1455 -0.6717,-0.085 -1.3576,-0.1202 -2.0294,-0.078 -10.4722,0.6576 -20.6405,2.3688 -29.9036,7.7852 -6.7246,3.9245 -12.7703,8.6762 -17.4726,14.8351 -7.5024,9.8218 -12.8694,20.7961 -15.2594,32.9726 -1.0819,5.5154 -1.9587,11.1086 -1.9799,16.8149 -0.021,6.1589 0.8839,12.2048 2.0718,18.1657 2.8992,14.5452 8.4782,28.0792 16.0443,40.8567 4.971,8.4004 10.7198,16.2211 16.6736,23.9144 1.1031,1.4283 2.3688,2.7365 3.6487,4.0163 10.0834,10.0692 20.1879,20.1243 30.2854,30.1724 0.7991,0.799 1.5769,1.6334 2.4608,2.3334 9.0368,7.2337 16.5604,16.0443 24.9255,23.971 6.3781,7.6367 12.8058,15.2311 18.102,23.6952 6.8519,10.9601 12.9896,22.2951 17.4231,34.4504 4.1296,11.3067 7.0146,22.9245 6.7812,35.1079 -0.042,2.2627 -0.064,4.5254 0.01,6.7883 0.3818,13.4349 -3.2244,25.9225 -8.9025,37.9434 -3.2032,6.7741 -6.866,13.2511 -11.6814,19.0282 -1.1597,1.3859 -2.2557,2.8496 -3.5709,4.08 -9.1783,8.6056 -19.3394,15.6201 -31.6078,19.1273 -1.2798,0.3678 -3.399,1.3653 -3.399,1.3653 z"
           inkscape:connector-curvature="0"
           style="fill:#ffcc00;fill-opacity:1;stroke-width:2.15338159"
           sodipodi:nodetypes="ccccccccccccccccccccccscccccccccccccccccccccccccccccccccccccccccsccccccccccccccccccccccccccccccccccccccccccccccccccccccccccccccccccccccccccccccccccccccccccccccccccccccccccccccccccccscccccccccccccccccccccccccccccccccccccccccccccccccccccccccccccccccccccccccccccccccccccccccccccccsccccccccccccccccccccccccccccccccccccccccccccccccccccccccccccccccccccccccccccccccccccccccccccccccccccccccccccccccccccccccccccccccccccccccccccccccccccccccccccc" />
      </g>
    </g>
  </g>
  <style
     id="style4485"
     type="text/css">
	.st0{fill:#FFFFFF;}
</style>
  <style
     id="style4547"
     type="text/css">
	.st0{fill:#FFFFFF;}
</style>
</svg>
