<?xml version="1.0" encoding="utf-8"?>
<!-- Generator: Adobe Illustrator 24.1.1, SVG Export Plug-In . SVG Version: 6.00 Build 0)  -->
<svg version="1.1" id="Layer_1" xmlns="http://www.w3.org/2000/svg" xmlns:xlink="http://www.w3.org/1999/xlink" x="0px" y="0px"
	 viewBox="0 0 450 300" style="enable-background:new 0 0 450 300;" xml:space="preserve">
<style type="text/css">
	.st0{fill:#0080FF;}
	.st1{fill:#FFFFFF;}
	.st2{fill:#FF0000;}
</style>
<g>
	<rect y="0" class="st0" width="450" height="300"/>
	<g>
		<rect x="43.3" y="217" transform="matrix(0.7071 -0.7071 0.7071 0.7071 -142.8363 99.1626)" class="st1" width="10" height="10"/>
		<polygon class="st1" points="104.9,229.1 97.8,236.1 90.7,229.1 111.9,207.9 104.9,200.8 97.8,207.9 90.7,200.8 83.6,207.9 
			90.7,214.9 83.6,222 76.6,214.9 83.6,207.9 76.6,200.8 69.5,207.9 62.4,200.8 55.4,207.9 76.6,229.1 69.5,236.1 62.4,229.1 
			55.4,236.1 48.3,229.1 41.2,236.1 34.1,229.1 27.1,236.1 20,229.1 41.2,207.9 34.1,200.8 27.1,207.9 20,200.8 12.9,207.9 
			20,214.9 12.9,222 5.9,214.9 12.9,207.9 5.9,200.8 0.1,206.6 0.1,223.3 5.9,229.1 0.1,234.9 0.1,243.2 34.1,243.2 62.4,243.2 
			104.9,243.2 111.9,236.1 		"/>
		<rect x="114" y="217" transform="matrix(0.7071 -0.7071 0.7071 0.7071 -122.1253 149.1616)" class="st1" width="10" height="10"/>
		<polygon class="st1" points="175.6,229.1 168.5,236.1 161.4,229.1 182.6,207.9 175.6,200.8 168.5,207.9 161.4,200.8 154.3,207.9 
			161.4,214.9 154.3,222 147.3,214.9 154.3,207.9 147.3,200.8 140.2,207.9 133.1,200.8 126.1,207.9 147.3,229.1 140.2,236.1 
			133.1,229.1 126.1,236.1 119,229.1 104.9,243.2 133.1,243.2 175.6,243.2 182.6,236.1 		"/>
		
			<rect x="396.8" y="217" transform="matrix(0.7071 -0.7071 0.7071 0.7071 -39.2835 349.1607)" class="st1" width="10" height="10"/>
		<polygon class="st1" points="450.1,234.9 444.3,229.1 450.1,223.3 450.1,206.6 444.3,200.8 437.2,207.9 444.3,214.9 437.2,222 
			430.1,214.9 437.2,207.9 430.1,200.8 423,207.9 416,200.8 408.9,207.9 430.1,229.1 423,236.1 416,229.1 408.9,236.1 401.8,229.1 
			387.7,243.2 416,243.2 450.1,243.2 		"/>
		<polygon class="st1" points="387.7,229.1 380.6,236.1 373.6,229.1 394.8,207.9 387.7,200.8 380.6,207.9 373.6,200.8 366.5,207.9 
			373.6,214.9 366.5,222 359.4,214.9 366.5,207.9 359.4,200.8 352.3,207.9 345.3,200.8 338.2,207.9 359.4,229.1 352.3,236.1 
			345.3,229.1 338.2,236.1 331.1,229.1 324.1,236.1 317,229.1 309.9,236.1 302.8,229.1 324.1,207.9 317,200.8 309.9,207.9 
			302.8,200.8 295.8,207.9 302.8,214.9 295.8,222 288.7,214.9 295.8,207.9 288.7,200.8 281.6,207.9 274.6,200.8 267.5,207.9 
			288.7,229.1 281.6,236.1 274.6,229.1 267.5,236.1 274.6,243.2 317,243.2 345.3,243.2 387.7,243.2 394.8,236.1 		"/>
		
			<rect x="326.1" y="217" transform="matrix(0.7071 -0.7071 0.7071 0.7071 -59.9936 299.1627)" class="st1" width="10" height="10"/>
		<polygon class="st1" points="253.3,236.1 246.3,229.1 239.2,236.1 232.1,229.1 253.3,207.9 246.3,200.8 239.2,207.9 232.1,200.8 
			225.1,207.9 232.1,214.9 225.1,222 218,214.9 225.1,207.9 218,200.8 210.9,207.9 203.8,200.8 196.8,207.9 218,229.1 210.9,236.1 
			203.8,229.1 196.8,236.1 189.7,229.1 175.6,243.2 203.8,243.2 246.3,243.2 274.6,243.2 260.4,229.1 		"/>
		
			<rect x="255.4" y="217" transform="matrix(0.7071 -0.7071 0.7071 0.7071 -80.7043 249.1626)" class="st1" width="10" height="10"/>
		
			<rect x="184.7" y="217" transform="matrix(0.7071 -0.7071 0.7071 0.7071 -101.4149 199.1614)" class="st1" width="10" height="10"/>
	</g>
	<rect y="250" class="st2" width="450" height="7"/>
	<rect y="243" class="st0" width="450" height="7"/>
</g>
</svg>
