<?xml version="1.0" encoding="iso-8859-1"?>
<!DOCTYPE svg PUBLIC "-//W3C//DTD SVG 1.0//EN"    "http://www.w3.org/TR/2001/REC-SVG-20010904/DTD/svg10.dtd" [
	<!ENTITY ns_flows "http://ns.adobe.com/Flows/1.0/">
	<!ENTITY ns_svg "http://www.w3.org/2000/svg">
	<!ENTITY ns_xlink "http://www.w3.org/1999/xlink">
]>
<svg  xmlns="&ns_svg;" xmlns:sodipodi="http://sodipodi.sourceforge.net/DTD/sodipodi-0.dtd"
	 width="850.3945313" height="510.2363281" viewBox="0 0 850.3945313 510.2363281"
	 overflow="visible" enable-background="new 0 0 850.3945313 510.2363281" xml:space="preserve">
	<g id="g630">
		<g>
			<g id="rect629">
				<rect y="255.1181641" fill="#F9DD16" width="850.3945313" height="255.1181641"/> 
			</g>
			<rect id="rect628" width="850.3945313" height="255.1181641"/> 
		</g>
	</g>
	<g id="g671">
		<g>
			<g id="path669_2_" sodipodi:nodetypes="cccccccccc">
				<path fill="#F9DD16" d="M300.6982422,94.3457031l24.6064453,263.6455078
					c15.234375,51.1650391,60.3476563,86.5146484,107.8037109,88.4658203
					c50.9707031-2.5380859,97.8398438-46.6738281,105.4570313-94.9111328l11.1298828-261.3017578
					c-10.0576172-3.4658203-71.0683594-15.75-85.7460938-15.0761719l0.1376953-8.1386719
					c-35.3310547-3.8203125-44.9443359-5.6884766-84.5136719,2.5634766l0.3203125,6.1699219"/>
			</g>
			<g id="path563" sodipodi:nodetypes="cccccccccc">
				<path fill="#F9DD16" d="M303.6503906,98.1572266l24.0234375,257.3945313
					c14.8720703,49.9541016,58.9160156,84.4648438,105.2470703,86.3701172
					c49.7617188-2.4785156,95.5205078-45.5664063,102.9560547-92.6630859l10.8681641-255.1064453
					c-9.8203125-3.3837891-69.3857422-15.3779297-83.7158203-14.7207031l0.1347656-7.9433594
					c-34.4931641-3.7294922-43.8779297-5.5537109-82.5097656,2.5019531l0.3134766,6.0234375
					C365.7714844,84.5957031,313.421875,95.4863281,303.6503906,98.1572266z"/>
			</g>
			<path id="path552" sodipodi:nodetypes="ccccccccccccccccccccccccccccccccccccccccccccccc" d="M329.6816406,205.90625
				l12.9638672,0.8105469l29.9785156,19.4453125l-13.7744141,10.5322266c0,0-21.0644531-7.0058594-20.2558594,9.1982422
				l27.2626953,0.4775391l42.4140625-9.6757813v-4.8613281c0,0,11.34375-0.8105469,13.7753906-0.8105469
				c2.4287109,0,39.6982422-17.8242188,39.6982422-17.8242188l3.2421875,0.8105469l-3.2421875,22.6855469l-12.1533203-0.8095703
				c-3.3339844,1.5566406-4.3828125,5.1152344-4.8603516,8.1015625h29.1679688c0,0,0.8085938-8.9121094,3.2402344-12.9638672
				c2.4296875-4.0517578,9.7236328-12.9638672,9.7236328-12.9638672s8.1005859,11.34375,26.7333984,17.015625
				c-13.3945313,0.5214844-10.5292969,8.9121094-10.5292969,8.9121094l22.6845703,0.8085938
				c0,0,1.6181641-17.8242188,0.8085938-17.8242188c-0.8085938,0-2.5722656-5.4794922-11.3427734-2.4296875
				c0.0957031-5.5283203-2.4785156-24.4482422-9.7216797-25.1152344c4.1953125-4.0996094,9.5800781-6.9589844,8.1005859-18.6357422
				c-4.0488281-15.3925781-22.6845703-12.1523438-22.6845703-12.1523438l-46.1806641,12.9628906
				c0,0-17.8242188,4.8613281-20.2558594,0c-2.4287109-4.8603516,4.0517578-13.7724609,4.0517578-13.7724609
				s-17.8242188,4.8603516-14.5839844,16.2041016c3.2421875,11.3417969,25.9257813,6.4804688,25.9257813,6.4804688
				l46.9941406-13.7724609c0,0,21.0615234-3.2402344,19.4423828,8.9121094
				c-1.6181641,12.1533203-6.4814453,8.1015625-6.4814453,8.1015625s-4.0488281-4.0517578-12.1523438-3.2412109
				c-8.1025391,0.8115234-73.7285156,13.7734375-79.4003906,7.2929688
				c1.1923828-10.1992188-11.3408203-23.4960938-11.3408203-23.4960938l4.8603516-6.4814453l-12.1523438,3.2402344
				c0,0-12.9638672-5.6708984-32.4082031,6.4814453c-1.140625,5.8613281,0,8.1025391,0,8.1025391
				s9.7236328-4.8623047,9.7236328,3.2412109c0,8.1005859-6.4833984,2.4306641-6.4833984,2.4306641v8.1015625
				c0,0,12.1542969-1.6201172,12.1542969-3.2412109c0-1.6201172-1.90625,7.1484375-1.90625,7.1484375l-16.7285156-0.6669922
				C353.9892578,202.6660156,335.3535156,186.4619141,329.6816406,205.90625z"/>
			
				<path id="path553" sodipodi:type="arc" sodipodi:cx="172.454727" sodipodi:cy="66.641319" sodipodi:rx="1.453278" sodipodi:ry="0.565147" fill="#FFFFFF" d="
				M376.0058594,175.2324219c0.0019531-0.5537109-1.1494141-1-2.5722656-1.0019531
				c-1.4208984,0-2.5732422,0.4482422-2.5751953,1.0009766v0.0009766c-0.0029297,0.5537109,1.1484375,1.0019531,2.5693359,1.0039063
				c1.4228516,0,2.5771484-0.4472656,2.578125-0.9990234C376.0058594,175.234375,376.0058594,175.234375,376.0058594,175.2324219
				h-2.5732422H376.0058594z"/>
			<path id="path555" sodipodi:nodetypes="cccccccccccccccccccccccccccccccccccccccccccccc" d="M332.828125,287.3798828
				l12.6054688,0.8154297l29.1533203,19.5732422l-13.3964844,10.6044922c0,0-20.4824219-7.0517578-19.6943359,9.2548828
				l26.5087891,0.4814453l41.2470703-9.7363281v-4.8955078c0,0,11.0302734-0.8164063,13.3945313-0.8164063
				c2.3613281,0,38.6015625-17.9414063,38.6015625-17.9414063l3.1523438,0.8144531l-3.1523438,22.8388672l-11.8154297-0.8173828
				c-3.2451172,1.5683594-4.265625,5.1484375-4.7285156,8.1542969h28.3652344c0,0,0.7851563-8.9707031,3.1494141-13.0488281
				c2.3671875-4.0761719,9.4550781-13.046875,9.4550781-13.046875s7.8779297,11.4169922,25.9980469,17.125
				c-13.0263672,0.5263672-10.2402344,8.9707031-10.2402344,8.9707031l22.0576172,0.8173828
				c0,0,1.5761719-17.9423828,0.7880859-17.9423828s-2.4990234-5.5195313-11.0302734-2.4482422
				c0.09375-5.5664063-2.4082031-24.609375-9.453125-25.28125c4.0800781-4.1269531,9.3164063-7.0048828,7.8779297-18.7558594
				c-3.9414063-15.4951172-22.0615234-12.2333984-22.0615234-12.2333984l-44.90625,13.0478516
				c0,0-17.3320313,4.8935547-19.6962891,0c-2.3613281-4.8925781,3.9375-13.8623047,3.9375-13.8623047
				s-17.3320313,4.8916016-14.1796875,16.3085938c3.1523438,11.4199219,25.2128906,6.5244141,25.2128906,6.5244141
				l45.6953125-13.8632813c0,0,20.4833984-3.2607422,18.9072266,8.9707031
				c-1.0019531,5.0810547-12.5322266,1.2158203-18.1171875,4.8925781
				c-7.8779297,0.8144531-71.6982422,13.8632813-77.2119141,7.3398438
				c1.1572266-10.2666016-11.03125-23.6523438-11.03125-23.6523438l4.7265625-6.5205078L391.1308594,252.3125
				c0,0-12.6054688-5.7080078-31.5166016,6.5244141c-1.1083984,5.9003906,0,8.1552734,0,8.1552734
				s9.4570313-4.8925781,9.4570313,3.2607422c0,8.1542969-6.3046875,2.4462891-6.3046875,2.4462891v8.15625
				c0,0,11.8203125-1.6308594,11.8203125-3.2607422c0-1.6318359-1.8544922,7.1953125-1.8544922,7.1953125l-16.2675781-0.6699219
				C356.4648438,284.1201172,338.34375,267.8076172,332.828125,287.3798828z"/>
			<path id="path556" sodipodi:nodetypes="ccccccccccccccccccccccccccccccccccccccccccccc" d="M344.2685547,362.8554688
				l9.8222656,0.7382813l30.4345703,22.2363281l-9.0058594,5.8505859c0,0-15.9609375-6.3603516-15.3466797,8.3496094
				l20.6552734,0.4365234l42.4335938-9.0712891v-4.4199219c0,0,9.1650391-2.4501953,11.0078125-2.4501953
				c1.8417969,0,19.7832031-7.8955078,19.7832031-7.8955078l-0.5712891,15.0507813l-9.2080078-0.7382813
				c-3.9580078,0.8427734-5.3232422,5.2197266-4.2558594,8.2177734h22.1015625
				c0-3.1445313,2.3291016-7.8105469,4.1708984-11.4902344c1.8427734-3.6777344,9.6533203-12.34375,9.6533203-12.34375
				s2.7070313,9.7275391,16.8261719,14.8808594c-10.1494141,0.4746094-14.2714844,1.8017578-12.8417969,8.6679688
				l22.0488281,0.1640625c0,0,1.2304688-16.1914063,0.6152344-16.1914063s1.1953125-4.6914063-5.4492188-1.9248047
				c0.0732422-5.0195313-1.8779297-22.2041016-7.3652344-22.8076172
				c3.1757813-3.7246094,11.2617188-5.4638672,10.1425781-16.0673828
				c-3.0703125-13.9824219-18.6210938-10.1806641-23.4814453-10.4667969l-34.7050781,12.9169922
				c-2.0009766,1.1445313-14.6484375,3.5585938-16.4882813-0.8583984
				c-1.8427734-4.4160156,2.7802734-11.3642578,3.3496094-13.6523438c-2.5732422,1.4316406-12.6455078,4.9863281-10.1875,15.2890625
				c2.7421875,11.7333984,17.9277344,6.7441406,19.9306641,7.0292969l34.7460938-13.3662109
				c3.4306641-0.2871094,21.109375-4.0839844,19.8808594,6.9492188c-1.3535156,7.4482422-13.4824219,3.0996094-19.8369141,3.84375
				c-6.1376953,0.7363281-55.8642578,14.7978516-60.1611328,8.9121094
				c0.9023438-9.265625-9.4521484-19.0537109-9.4521484-19.0537109l2.5400391-7.5996094l-8.0644531,4.6601563
				c0,0-11.8242188-10.0166016-26.5605469,1.0224609c-0.8623047,5.3232422,0,7.3564453,0,7.3564453
				s7.3681641-4.4140625,7.3681641,2.9472656c0,7.3564453-4.9111328,2.2041016-4.9111328,2.2041016v7.3613281
				c0,0,12.0683594-1.1865234,12.0683594-2.6591797c0-1.4736328-1.4423828,6.4941406-1.4423828,6.4941406l-21.828125-1.4609375
				C360.6806641,354.1953125,342.8447266,349.7734375,344.2685547,362.8554688z"/>
			<path id="path557" sodipodi:nodetypes="ccccccc" fill="#FF0000" stroke="#000000" stroke-width="0.625" d="
				M366.2822266,186.5292969c-0.2851563,0-12.0117188,0.2861328-12.0117188,0.2861328s-5.1474609-12.5830078-12.8681641-10.5820313
				c6.0058594,5.4345703,5.1474609,8.8662109,5.1474609,8.8662109s-0.8574219,5.7207031,5.1484375,6.0058594
				c6.0058594,0.2861328,15.4423828-1.4306641,15.4423828-1.4306641L366.2822266,186.5292969z"/>
			<path id="path558" sodipodi:nodetypes="ccccccc" fill="#FF0000" stroke="#000000" stroke-width="0.625" d="
				M367.9990234,266.6064453c0,0-2.0019531,2.2880859-7.4365234,2.2880859c-5.4335938,0-7.7226563-1.7148438-7.7226563-1.7148438
				s-1.7138672-6.0058594-1.7138672-7.7226563c0-1.7158203-6.2929688,8.8662109-0.8603516,13.1552734
				c5.4345703,4.2890625,18.3046875-0.2871094,18.3046875-0.2871094L367.9990234,266.6064453z"/>
			<path id="path559" fill="#FF0000" stroke="#000000" stroke-width="0.625" d="M361.421875,340.9667969
				c0,0-1.4326172,6.0068359,5.4335938,5.71875c6.8623047-0.2841797,10.5800781-1.7158203,10.5800781-1.7158203l1.1445313,3.7197266
				c0,0-9.1513672,4.0019531-13.15625,4.0019531C361.421875,352.6914063,351.9824219,347.5449219,361.421875,340.9667969z"/>
			
				<path id="path560" sodipodi:type="arc" sodipodi:cx="174.150208" sodipodi:cy="113.549622" sodipodi:rx="1.211060" sodipodi:ry="0.645905" fill="#FFFFFF" d="
				M378.5810547,258.3144531c0-0.6328125-0.9589844-1.1445313-2.1425781-1.1455078
				c-1.1855469,0-2.1464844,0.5107422-2.1474609,1.1425781c0,0.0009766,0,0.0029297,0,0.0029297
				c-0.0175781,0.6308594,0.9287109,1.1513672,2.1123047,1.1601563c1.1845703,0.0097656,2.1591797-0.4951172,2.1767578-1.1269531
				c0.0009766-0.0117188,0.0009766-0.0214844,0-0.0332031h-2.1445313H378.5810547z"/>
			
				<path id="path561" sodipodi:type="arc" sodipodi:cx="178.429291" sodipodi:cy="159.489136" sodipodi:rx="1.130325" sodipodi:ry="0.565147" fill="#FFFFFF" d="
				M386.0166016,339.6787109c0-0.5517578-0.8964844-1-2.0019531-1c-1.1064453,0-2.0029297,0.4482422-2.0029297,1
				c0,0.5527344,0.8984375,1.0019531,2.0039063,1.0019531C385.1201172,340.6806641,386.0166016,340.2314453,386.0166016,339.6787109
				L386.0166016,339.6787109h-2.0019531H386.0166016z"/>
			<path id="path564" fill="none" stroke="#000000" stroke-width="2.5" d="M309.3701172,170.2255859
				c0,0,123.5478516-38.3212891,235.0869141-2.2861328"/>
			<path id="path565" fill="none" stroke="#000000" stroke-width="1.375" d="M308.7988281,161.0751953
				c0,0,125.8359375-38.8945313,237.375-1.7167969"/>
			<path id="path569" sodipodi:nodetypes="cccccc" fill="#FFFFFF" stroke="#000000" stroke-width="1.375" d="
				M303.6503906,98.1572266l38.3242188-9.1523438l3.4306641,43.4707031c0,0-6.2910156,15.4433594-15.4423828,16.0166016
				c-10.2978516,5.1474609-23.4521484-10.8681641-23.4521484-10.8681641L303.6503906,98.1572266z"/>
			<path id="path566" fill="none" stroke="#000000" stroke-width="1.375" d="M307.6552734,155.3564453
				c0,0,112.6816406-39.46875,238.5185547-2.2880859"/>
			<polygon id="path575" sodipodi:nodetypes="cccccccccc" fill="#FF0000" stroke="#000000" points="307.328125,137.5644531 
				312.2294922,114.7451172 320.2392578,131.3310547 323.0976563,111.3125 331.1054688,129.0449219 332.8212891,109.0234375 
				344.9277344,126.4199219 342.109375,90.7304688 303.6503906,98.1572266 "/>
			<path id="path568" fill="#FFFFFF" stroke="#000000" stroke-width="1.375" d="M341.9746094,89.0048828l3.4306641,41.1826172
				c0,0,9.7236328,12.0117188,21.1630859,11.4404297c11.4404297-0.5732422,18.3046875-16.0166016,18.3046875-16.0166016
				l-2.2880859-44.6152344L341.9746094,89.0048828z"/>
			<path id="path574" sodipodi:nodetypes="ccccccc" d="M361.421875,85.5722656l3.7822266,56.0585938
				c0,0-10.6464844-0.1757813-19.4912109-11.0800781l-1.5205078-14.90625l39.8818359-5.5869141l-1.4892578-29.0615234
				L361.421875,85.5722656z"/>
			<path id="path567" fill="#FF0000" stroke="#000000" stroke-width="1.375" d="M383.0839844,90.7197266
				c0,0,29.2441406,45.7607422,29.8154297,45.1875c0.5712891-0.5712891,9.7236328-12.0117188,9.7236328-12.0117188
				l0.4775391-6.9589844l-27.8916016-45.7529297l-14.5546875,2.8066406L383.0839844,90.7197266z"/>
			<path id="path570" fill="#FF0000" stroke="#000000" stroke-width="1.375" d="M546.7451172,93.0078125l-0.5712891,33.1757813
				c0,0-10.8681641,25.1679688-25.1660156,20.0205078c-14.2998047-5.1494141-16.5908203-21.1640625-16.5908203-21.1640625
				l2.2910156-40.0390625L546.7451172,93.0078125z"/>
			<path id="path571" sodipodi:nodetypes="cccccc" stroke="#000000" stroke-width="1.375" d="M463.234375,79.8525391
				l44.6162109,6.2929688c0,0-2.859375,40.0380859-3.4335938,40.0380859c-0.5712891,0-10.2949219,16.015625-24.0234375,12.5849609
				c-13.7255859-3.4326172-17.7304688-18.4628906-17.7304688-18.4628906L463.234375,79.8525391z"/>
			<path id="path572" fill="none" stroke="#000000" stroke-width="1.375" d="M422.0517578,68.3369141l41.1123047,3.1513672
				l-1.0722656,49.5478516c0,0-9.7236328,18.875-20.5917969,16.015625
				c-10.8671875-2.859375-18.3056641-16.015625-18.3056641-16.015625L422.0517578,68.3369141z"/>
			<path id="path573" sodipodi:nodetypes="ccc" fill="none" stroke="#000000" stroke-width="1.375" d="M384.3017578,126.1835938
				c0,0,14.2998047,12.5849609,19.4453125,12.0117188c13.7285156-0.5712891,18.8759766-16.0146484,18.8759766-16.0146484"/>
			<path id="path576" sodipodi:nodetypes="ccccccccccccc" d="M432.5664063,115.6103516
				c-3.0644531-0.8740234-6.2373047,4.0507813-3.5039063,6.8955078c2.7363281,2.8457031,7.0048828-0.4365234,6.0205078-3.0644531
				c-0.984375-2.6269531,19.3740234-1.3125,21.890625,0.8759766c-1.4238281-2.6269531-2.2998047-2.7363281-3.9423828-3.2832031
				c-1.6416016-0.5478516-1.6386719-4.3779297,1.2060547-7.9902344c-2.7363281,0-3.7226563-0.984375-6.2392578,4.4882813
				c-1.8583984,1.8603516-0.8740234-6.5683594,0.6582031-6.4589844c1.5302734,0.1103516-5.3642578-0.65625-5.9111328,6.4589844
				c-1.9697266,2.4082031-1.421875-5.5839844-0.8769531-6.7880859c-2.7353516,1.3154297-4.2685547,3.0654297-4.2685547,7.2246094
				c-1.7519531,1.7519531-2.5166016-4.8164063-1.5292969-5.3632813
				C437.0546875,108.0595703,431.9101563,109.0439453,432.5664063,115.6103516z"/>
			<path id="path577" sodipodi:nodetypes="ccccccccccccc" d="M432.2939453,100.2587891
				c-3.2490234-0.8173828-6.6152344,3.7871094-3.7148438,6.4472656c2.9003906,2.6630859,7.4296875-0.4072266,6.3837891-2.8642578
				c-1.0429688-2.4560547,20.5458984-1.2285156,23.2148438,0.8193359c-1.5087891-2.4570313-2.4404297-2.5595703-4.1806641-3.0703125
				c-1.7402344-0.5126953-1.7402344-4.0957031,1.2773438-7.4707031c-2.9003906,0-3.9462891-0.9228516-6.6152344,4.1953125
				c-1.9716797,1.7402344-0.9287109-6.140625,0.6972656-6.0380859c1.6240234,0.1025391-5.6865234-0.6152344-6.2666016,6.0380859
				c-2.0888672,2.2509766-1.5107422-5.2207031-0.9316406-6.3457031c-2.9003906,1.2275391-4.5263672,2.8652344-4.5263672,6.7539063
				c-1.8574219,1.6376953-2.6689453-4.5029297-1.6230469-5.0136719
				C437.0517578,93.1972656,431.5966797,94.1201172,432.2939453,100.2587891z"/>
			<path id="path578" sodipodi:nodetypes="ccccccccccccc" d="M431.7841797,84.3886719
				c-3.421875-0.8183594-6.96875,3.7871094-3.9140625,6.4482422c3.0585938,2.6601563,7.828125-0.4101563,6.7265625-2.8662109
				c-1.0986328-2.4550781,18.46875-1.6660156,21.609375-0.7119141c-0.6054688-1.3623047-0.5996094-1.0283203-1.5576172-1.5380859
				c-1.1777344-2.0449219-1.8320313-4.0947266,1.34375-7.4726563c-3.0527344,0-4.1542969-0.9199219-6.9667969,4.1972656
				c-2.0771484,1.7382813-0.9755859-6.140625,0.7353516-6.0380859s-5.9912109-0.6152344-6.6035156,6.0380859
				c-2.2001953,2.2509766-1.5908203-5.2197266-0.9814453-6.3457031c-3.0546875,1.2275391-4.7666016,2.8652344-4.7666016,6.7539063
				c-1.9570313,1.6376953-2.8125-4.5029297-1.7099609-5.0136719
				C436.796875,77.3271484,431.0498047,78.2480469,431.7841797,84.3886719z"/>
			<path id="path579" sodipodi:nodetypes="cccccc" fill="#FFFFFF" stroke="#000000" d="M506.1162109,103.1347656
				c0,0,37.3212891,5.8007813,40.2783203,9.8496094l-0.328125,13.2431641l-1.9726563,3.5029297
				c-4.4853516-1.3144531-22.8740234-8.9755859-39.4013672-9.7412109L506.1162109,103.1347656z"/>
			<path id="path580" sodipodi:nodetypes="cccc" stroke="#000000" d="M545.40625,136.515625c0,0-3.5,7.9892578-9.1904297,9.9609375
				c5.0332031,0.984375,8.9736328,0.65625,8.9736328,0.65625L545.40625,136.515625z"/>
			<path id="path581" sodipodi:nodetypes="cccc" stroke="#000000" d="M497.46875,138.2675781
				c1.0947266-0.6582031,4.2705078-2.9560547,5.9111328-5.1445313c1.2021484,2.6259766,1.3125,4.0488281,2.8447266,6.3486328
				C504.3652344,138.8134766,499.2197266,138.4873047,497.46875,138.2675781z"/>
			<path id="path582" fill="none" stroke="#FFFF00" stroke-width="1.25" stroke-linecap="round" d="M500.5322266,98.9746094
				c0,0,1.5332031-0.4384766,1.3164063-3.0644531c-0.2197266-2.6269531-2.1894531-2.5166016-3.1738281-2.1884766
				c-0.9873047,0.328125-3.5039063,1.8603516-3.0673828,4.3769531c0.4394531,2.5175781,4.1611328,13.0253906,3.9414063,14.7753906
				c-0.2177734,1.7519531-3.3935547,6.0205078-4.0498047,5.8007813"/>
			<g id="path583">
				<path fill="#F9DD16" d="M492.1074219,125.8984375c0,0,3.7197266-2.4072266,3.5-7.2236328
					c-0.2167969-4.8144531-6.0175781-7.5507813-6.0175781-7.5507813s-2.5166016-1.3144531-2.6279297-3.2841797
					c-0.1083984-1.9707031,3.7207031-4.5966797,4.3769531-7.8808594c0.6591797-3.2832031-0.65625-6.5654297-3.8291016-7.6611328
					c-3.1757813-1.0947266-7.3330078-2.0800781-8.6455078-1.3125c-1.3144531,0.7646484,1.8603516,2.1884766,2.1865234,2.1884766
					c0.3300781,0,0.9863281,0.4375,0.3300781,0.984375c-0.65625,0.5478516-3.7207031,0.3291016-3.5039063,1.3134766
					c0.2197266,0.984375,3.5039063,1.9707031,5.3642578,1.5322266c1.8613281-0.4375-4.4882813,3.7226563-4.9248047,3.8310547
					c-0.4394531,0.1083984-3.8310547-4.9248047-4.1601563-4.9248047c-0.3271484,0,0.8759766-5.6923828-3.1728516-5.4726563
					c-4.0507813,0.2177734-2.2998047,3.2841797-2.2998047,3.2841797s-0.7646484,1.5302734,0.6572266,3.1738281
					c1.4238281,1.640625,2.5185547,6.5654297,5.2519531,7.1132813c2.7363281,0.546875-4.8154297,7.7714844-4.921875,7.7714844
					c-0.1113281,0-2.8476563-3.2841797-2.7382813-1.8603516c0.1103516,1.4238281-1.2021484,3.1738281-0.65625,3.8300781
					c0.546875,0.65625-2.1894531,2.8447266,1.53125,3.6113281c3.7216797,0.7675781,4.5996094-1.96875,4.3798828-2.4082031
					c-0.2197266-0.4365234,4.3769531-0.546875,5.2529297-1.53125c0.8759766-0.9853516,4.4882813-4.3779297,4.4882813-4.3779297
					s-3.0664063,3.9404297-1.640625,5.2529297c1.4208984,1.3134766,3.9375,2.1894531,3.9375,2.1894531
					s-7.6611328-0.3291016-7.9892578,1.0947266c-0.328125,1.421875,1.5332031,5.1445313-0.5478516,4.7060547
					c-2.0800781-0.4375-3.3925781-2.5175781-4.7050781-2.2978516c-1.3125,0.2177734-2.8447266,3.6103516-2.1884766,4.9248047
					c0.65625,1.3134766,0.9824219,4.3779297,2.40625,4.7060547c1.4228516,0.328125,5.8027344-0.2197266,5.6914063-1.421875
					c-0.1103516-1.2041016,3.9414063,0.2177734,4.7050781-2.0800781c0.7675781-2.2988281,3.9414063-6.2392578,3.5048828-7.7714844
					c-0.4375-1.5322266-1.0966797,4.9267578,0.4365234,6.4570313c1.5341797,1.5322266,2.4082031,3.3945313,1.6425781,4.1591797
					c-0.7675781,0.7675781-2.0791016,2.7363281-3.1757813,2.6279297c-1.0927734-0.1083984-5.2529297-1.9707031-4.4853516-0.65625
					c0.7675781,1.3125-3.0644531,3.0644531-0.2197266,3.3925781s1.6416016,2.7363281,3.2841797,2.4082031
					c1.640625-0.3300781,9.3017578-3.5029297,10.0693359-4.9267578
					C493.4189453,130.3867188,491.2304688,127.3222656,492.1074219,125.8984375z"/>
			</g>
			<path id="path584" sodipodi:nodetypes="ccccc" fill="#8A0000" stroke="#8A0000" d="M483.7871094,89.890625
				c0.1103516-1.0957031-1.9697266-4.1601563-1.9697266-4.1601563s13.5732422,0.1103516,14.2294922,4.3789063
				c-3.3925781,3.5019531-3.0664063,2.2978516-4.7080078,4.0488281
				C490.1357422,92.4072266,487.8388672,90.765625,483.7871094,89.890625z"/>
			<path id="path586" sodipodi:nodetypes="cccc" stroke="#000000" stroke-width="0.901345" d="M457.2519531,134.1015625
				c0.9169922-0.7021484,3.5332031-3.0810547,4.7753906-5.1943359c1.3867188,2.1855469,1.6474609,3.4287109,3.2939453,5.2890625
				C463.5625,133.8212891,458.8632813,134.1015625,457.2519531,134.1015625z"/>
			<path id="path587" sodipodi:nodetypes="cccc" stroke="#000000" stroke-width="0.86397" d="M419.0566406,133.9404297
				c0.8876953-0.6787109,3.3994141-2.9638672,4.5478516-4.953125c1.4804688,1.953125,1.7929688,3.0839844,3.5166016,4.7275391
				C425.3486328,133.4394531,420.6660156,133.8789063,419.0566406,133.9404297z"/>
			<path id="path588" sodipodi:nodetypes="cccc" stroke="#000000" stroke-width="0.86397" d="M381.2705078,137.3310547
				c0.8056641-0.7744141,3.046875-3.3261719,3.9658203-5.4296875c1.6904297,1.7734375,2.1279297,2.8632813,4.0234375,4.3017578
				C387.4667969,136.1289063,382.8632813,137.0898438,381.2705078,137.3310547z"/>
			<path id="path589" sodipodi:nodetypes="cccc" stroke="#000000" stroke-width="0.86397" d="M343.7060547,142.6328125
				c0.7519531-0.8261719,2.8125-3.5273438,3.5849609-5.6894531c2.0566406,1.8837891,1.78125,2.3583984,4.3095703,4.0166016
				C349.8076172,141.0097656,345.2792969,142.2822266,343.7060547,142.6328125z"/>
			<path id="path590" sodipodi:nodetypes="cccc" stroke="#000000" stroke-width="0.481797" d="M308.5957031,145.0878906
				c0,0,1.7353516,3.7412109,4.5566406,4.6640625c-2.4960938,0.4609375-4.4501953,0.3076172-4.4501953,0.3076172
				L308.5957031,145.0878906z"/>
			<path id="path670" sodipodi:nodetypes="cccccccccc" fill="none" stroke="#000000" stroke-width="2.5" d="M303.6503906,98.1572266
				l24.0234375,257.3945313c14.8720703,49.9541016,58.9160156,84.4648438,105.2470703,86.3701172
				c49.7617188-2.4785156,95.5205078-45.5664063,102.9560547-92.6630859l10.8681641-255.1064453
				c-9.8203125-3.3837891-69.3857422-15.3779297-83.7158203-14.7207031l0.1347656-7.9433594
				c-34.4931641-3.7294922-43.8779297-5.5537109-82.5097656,2.5019531l0.3134766,6.0234375
				C365.7714844,84.5957031,313.421875,95.4863281,303.6503906,98.1572266z"/>
		</g>
	</g>
</svg>
