<?xml version="1.0" encoding="UTF-8" standalone="no"?>
<!-- Created with Inkscape (http://www.inkscape.org/) -->

<svg
   xmlns:dc="http://purl.org/dc/elements/1.1/"
   xmlns:cc="http://creativecommons.org/ns#"
   xmlns:rdf="http://www.w3.org/1999/02/22-rdf-syntax-ns#"
   xmlns:svg="http://www.w3.org/2000/svg"
   xmlns="http://www.w3.org/2000/svg"
   xmlns:sodipodi="http://sodipodi.sourceforge.net/DTD/sodipodi-0.dtd"
   xmlns:inkscape="http://www.inkscape.org/namespaces/inkscape"
   id="svg2"
   height="1050"
   width="1500"
   y="0.00000000"
   x="0.00000000"
   version="1.0"
   inkscape:version="0.48.4 r9939"
   sodipodi:docname="Flag_of_West_Kalimantan.svg">
  <title
     id="title8154">Jambi Flag</title>
  <metadata
     id="metadata13">
    <rdf:RDF>
      <cc:Work
         rdf:about="">
        <dc:format>image/svg+xml</dc:format>
        <dc:type
           rdf:resource="http://purl.org/dc/dcmitype/StillImage" />
        <dc:title>Jambi Flag</dc:title>
      </cc:Work>
    </rdf:RDF>
  </metadata>
  <sodipodi:namedview
     pagecolor="#ffffff"
     bordercolor="#666666"
     borderopacity="1"
     objecttolerance="10"
     gridtolerance="10"
     guidetolerance="10"
     inkscape:pageopacity="0"
     inkscape:pageshadow="2"
     inkscape:window-width="1024"
     inkscape:window-height="538"
     id="namedview11"
     showgrid="false"
     inkscape:zoom="0.4"
     inkscape:cx="717.96642"
     inkscape:cy="425.10573"
     inkscape:window-x="-8"
     inkscape:window-y="-8"
     inkscape:window-maximized="1"
     inkscape:current-layer="svg2" />
  <defs
     id="defs3">
    <clipPath
       id="Clip0">
      <path
         inkscape:connector-curvature="0"
         d="m 0,0 449.104,0 0,506.999 L 0,506.999 0,0 z"
         transform="translate(-0.0520002,0)"
         id="path6071" />
    </clipPath>
    <clipPath
       id="Clip1">
      <path
         inkscape:connector-curvature="0"
         d="m 0,0 449.104,0 0,506.999 L 0,506.999 0,0 z"
         transform="translate(-0.0520002,0)"
         id="path6074" />
    </clipPath>
    <clipPath
       id="Clip2">
      <path
         inkscape:connector-curvature="0"
         d="m 0,0 449.104,0 0,506.999 L 0,506.999 0,0 z"
         transform="translate(-0.0520002,0)"
         id="path6077" />
    </clipPath>
    <clipPath
       id="Clip3">
      <path
         inkscape:connector-curvature="0"
         d="m 0,0 449.104,0 0,506.999 L 0,506.999 0,0 z"
         transform="translate(-0.0520002,0)"
         id="path6080" />
    </clipPath>
    <clipPath
       id="Clip4">
      <path
         inkscape:connector-curvature="0"
         d="m 0,0 375.752,0 0,121.393 L 0,121.393 0,0 z"
         transform="translate(36.6242,16.5161)"
         id="path6083" />
    </clipPath>
    <clipPath
       id="Clip5">
      <path
         inkscape:connector-curvature="0"
         d="m 0,0 360.456,0 0,411.566 L 0,411.566 0,0 z"
         transform="translate(44.2732,73.2731)"
         id="path6086" />
    </clipPath>
    <clipPath
       id="Clip6">
      <path
         inkscape:connector-curvature="0"
         d="m 0,0 151.719,0 0,42.3673 L 0,42.3673 0,0 z"
         transform="translate(148.64,423.044)"
         id="path6089" />
    </clipPath>
    <clipPath
       id="Clip7">
      <path
         inkscape:connector-curvature="0"
         d="m 0,0 151.719,0 0,21.7837 L 0,21.7837 0,0 z"
         transform="translate(148.64,423.044)"
         id="path6092" />
    </clipPath>
    <clipPath
       id="Clip8">
      <path
         inkscape:connector-curvature="0"
         d="m 0,0 106.883,0 0,17.6682 L 0,17.6682 0,0 z"
         transform="translate(171.305,447.743)"
         id="path6095" />
    </clipPath>
    <clipPath
       id="Clip9">
      <path
         inkscape:connector-curvature="0"
         d="m 0,0 21.8321,0 0,38.7308 L 0,38.7308 0,0 z"
         transform="translate(213.585,83.8204)"
         id="path6098" />
    </clipPath>
    <clipPath
       id="Clip10">
      <path
         inkscape:connector-curvature="0"
         d="m 0,0 21.8321,0 0,38.7308 L 0,38.7308 0,0 z"
         transform="translate(213.585,83.8204)"
         id="path6101" />
    </clipPath>
    <clipPath
       id="Clip11">
      <path
         inkscape:connector-curvature="0"
         d="m 0,0 347.946,0 0,283.328 L 0,283.328 0,0 z"
         transform="translate(51.5802,141.46)"
         id="path6104" />
    </clipPath>
    <clipPath
       id="Clip12">
      <path
         inkscape:connector-curvature="0"
         d="m 0,0 172.369,0 0,281.852 L 0,281.852 0,0 z"
         transform="translate(227.157,141.46)"
         id="path6107" />
    </clipPath>
    <clipPath
       id="Clip13">
      <path
         inkscape:connector-curvature="0"
         d="m 0,0 118.825,0 0,241.064 L 0,241.064 0,0 z"
         transform="translate(280.701,141.46)"
         id="path6110" />
    </clipPath>
    <clipPath
       id="Clip14">
      <path
         inkscape:connector-curvature="0"
         d="m 0,0 167.123,0 0,280.261 L 0,280.261 0,0 z"
         transform="translate(227.157,143.051)"
         id="path6113" />
    </clipPath>
    <clipPath
       id="Clip15">
      <path
         inkscape:connector-curvature="0"
         d="m 0,0 84.8794,0 0,269.523 L 0,269.523 0,0 z"
         transform="translate(307.307,148.911)"
         id="path6116" />
    </clipPath>
    <clipPath
       id="Clip16">
      <path
         inkscape:connector-curvature="0"
         d="m 0,0 172.318,0 0,276.427 L 0,276.427 0,0 z"
         transform="translate(51.5802,148.36)"
         id="path6119" />
    </clipPath>
    <clipPath
       id="Clip17">
      <path
         inkscape:connector-curvature="0"
         d="m 0,0 120.379,0 0,276.427 L 0,276.427 0,0 z"
         transform="translate(51.5802,148.36)"
         id="path6122" />
    </clipPath>
    <clipPath
       id="Clip18">
      <path
         inkscape:connector-curvature="0"
         d="m 0,0 37.5702,0 0,62.8958 L 0,62.8958 0,0 z"
         transform="translate(134.389,361.892)"
         id="path6125" />
    </clipPath>
    <clipPath
       id="Clip19">
      <path
         inkscape:connector-curvature="0"
         d="m 0,0 49.6282,0 0,57.2181 L 0,57.2181 0,0 z"
         transform="translate(109.587,366.577)"
         id="path6128" />
    </clipPath>
    <clipPath
       id="Clip20">
      <path
         inkscape:connector-curvature="0"
         d="m 0,0 11.5451,0 0,22.7558 L 0,22.7558 0,0 z"
         transform="translate(134.866,372.046)"
         id="path6131" />
    </clipPath>
    <clipPath
       id="Clip21">
      <path
         inkscape:connector-curvature="0"
         d="m 0,0 19.4461,0 0,22.1798 L 0,22.1798 0,0 z"
         transform="translate(129.036,149.684)"
         id="path6134" />
    </clipPath>
    <clipPath
       id="Clip22">
      <path
         inkscape:connector-curvature="0"
         d="m 0,0 19.7111,0 0,30.5528 L 0,30.5528 0,0 z"
         transform="translate(111.084,148.36)"
         id="path6137" />
    </clipPath>
    <clipPath
       id="Clip23">
      <path
         inkscape:connector-curvature="0"
         d="m 0,0 28.9001,0 0,21.1546 L 0,21.1546 0,0 z"
         transform="translate(116.628,166.639)"
         id="path6140" />
    </clipPath>
    <clipPath
       id="Clip24">
      <path
         inkscape:connector-curvature="0"
         d="m 0,0 18.6971,0 0,20.8866 L 0,20.8866 0,0 z"
         transform="translate(112.373,165.069)"
         id="path6143" />
    </clipPath>
    <clipPath
       id="Clip25">
      <path
         inkscape:connector-curvature="0"
         d="m 0,0 36.9502,0 0,19.4414 L 0,19.4414 0,0 z"
         transform="translate(101.252,185.009)"
         id="path6146" />
    </clipPath>
    <clipPath
       id="Clip26">
      <path
         inkscape:connector-curvature="0"
         d="m 0,0 16.0371,0 0,34.5973 L 0,34.5973 0,0 z"
         transform="translate(99.4234,159.118)"
         id="path6149" />
    </clipPath>
    <clipPath
       id="Clip27">
      <path
         inkscape:connector-curvature="0"
         d="m 0,0 14.3841,0 0,40.137 L 0,40.137 0,0 z"
         transform="translate(89.6594,164.067)"
         id="path6152" />
    </clipPath>
    <clipPath
       id="Clip28">
      <path
         inkscape:connector-curvature="0"
         d="m 0,0 13.3701,0 0,20.5826 L 0,20.5826 0,0 z"
         transform="translate(102.697,179.471)"
         id="path6155" />
    </clipPath>
    <clipPath
       id="Clip29">
      <path
         inkscape:connector-curvature="0"
         d="m 0,0 34.3972,0 0,18.7843 L 0,18.7843 0,0 z"
         transform="translate(90.6494,202.397)"
         id="path6158" />
    </clipPath>
    <clipPath
       id="Clip30">
      <path
         inkscape:connector-curvature="0"
         d="m 0,0 15.1691,0 0,39.1509 L 0,39.1509 0,0 z"
         transform="translate(79.0674,182.529)"
         id="path6161" />
    </clipPath>
    <clipPath
       id="Clip31">
      <path
         inkscape:connector-curvature="0"
         d="m 0,0 32.3481,0 0,19.7415 L 0,19.7415 0,0 z"
         transform="translate(82.4984,219.183)"
         id="path6164" />
    </clipPath>
    <clipPath
       id="Clip32">
      <path
         inkscape:connector-curvature="0"
         d="m 0,0 14.7801,0 0,25.8042 L 0,25.8042 0,0 z"
         transform="translate(90.3934,190.405)"
         id="path6167" />
    </clipPath>
    <clipPath
       id="Clip33">
      <path
         inkscape:connector-curvature="0"
         d="m 0,0 11.4971,0 0,27.9285 L 0,27.9285 0,0 z"
         transform="translate(83.4524,204.965)"
         id="path6170" />
    </clipPath>
    <clipPath
       id="Clip34">
      <path
         inkscape:connector-curvature="0"
         d="m 0,0 12.6361,0 0,37.5517 L 0,37.5517 0,0 z"
         transform="translate(71.2333,203.674)"
         id="path6173" />
    </clipPath>
    <clipPath
       id="Clip35">
      <path
         inkscape:connector-curvature="0"
         d="m 0,0 29.1311,0 0,25.5062 L 0,25.5062 0,0 z"
         transform="translate(76.6023,235.064)"
         id="path6176" />
    </clipPath>
    <clipPath
       id="Clip36">
      <path
         inkscape:connector-curvature="0"
         d="m 0,0 13.2191,0 0,26.8333 L 0,26.8333 0,0 z"
         transform="translate(76.7963,222.724)"
         id="path6179" />
    </clipPath>
    <clipPath
       id="Clip37">
      <path
         inkscape:connector-curvature="0"
         d="m 0,0 12.6951,0 0,25.9312 L 0,25.9312 0,0 z"
         transform="translate(71.5883,238.412)"
         id="path6182" />
    </clipPath>
    <clipPath
       id="Clip38">
      <path
         inkscape:connector-curvature="0"
         d="m 0,0 13.3921,0 0,47.7839 L 0,47.7839 0,0 z"
         transform="translate(64.9613,214.848)"
         id="path6185" />
    </clipPath>
    <clipPath
       id="Clip39">
      <path
         inkscape:connector-curvature="0"
         d="m 0,0 24.0211,0 0,29.4717 L 0,29.4717 0,0 z"
         transform="translate(74.3013,250.359)"
         id="path6188" />
    </clipPath>
    <clipPath
       id="Clip40">
      <path
         inkscape:connector-curvature="0"
         d="m 0,0 16.6391,0 0,44.9266 L 0,44.9266 0,0 z"
         transform="translate(56.6113,233.681)"
         id="path6191" />
    </clipPath>
    <clipPath
       id="Clip41">
      <path
         inkscape:connector-curvature="0"
         d="m 0,0 11.8501,0 0,34.1222 L 0,34.1222 0,0 z"
         transform="translate(67.4573,251.454)"
         id="path6194" />
    </clipPath>
    <clipPath
       id="Clip42">
      <path
         inkscape:connector-curvature="0"
         d="m 0,0 18.4251,0 0,36.5415 L 0,36.5415 0,0 z"
         transform="translate(51.8012,258.963)"
         id="path6197" />
    </clipPath>
    <clipPath
       id="Clip43">
      <path
         inkscape:connector-curvature="0"
         d="m 0,0 26.0881,0 0,31.3009 L 0,31.3009 0,0 z"
         transform="translate(69.6383,270.047)"
         id="path6200" />
    </clipPath>
    <clipPath
       id="Clip44">
      <path
         inkscape:connector-curvature="0"
         d="m 0,0 16.1711,0 0,32.306 L 0,32.306 0,0 z"
         transform="translate(66.1983,271.509)"
         id="path6203" />
    </clipPath>
    <clipPath
       id="Clip45">
      <path
         inkscape:connector-curvature="0"
         d="m 0,0 26.5611,0 0,33.3721 L 0,33.3721 0,0 z"
         transform="translate(71.3903,283.166)"
         id="path6206" />
    </clipPath>
    <clipPath
       id="Clip46">
      <path
         inkscape:connector-curvature="0"
         d="m 0,0 20.6411,0 0,35.2394 L 0,35.2394 0,0 z"
         transform="translate(51.5802,277.992)"
         id="path6209" />
    </clipPath>
    <clipPath
       id="Clip47">
      <path
         inkscape:connector-curvature="0"
         d="m 0,0 12.5761,0 0,31.1329 L 0,31.1329 0,0 z"
         transform="translate(65.7213,290.717)"
         id="path6212" />
    </clipPath>
    <clipPath
       id="Clip48">
      <path
         inkscape:connector-curvature="0"
         d="m 0,0 23.3801,0 0,34.2233 L 0,34.2233 0,0 z"
         transform="translate(73.5903,299.882)"
         id="path6215" />
    </clipPath>
    <clipPath
       id="Clip49">
      <path
         inkscape:connector-curvature="0"
         d="m 0,0 24.7921,0 0,31.0439 L 0,31.0439 0,0 z"
         transform="translate(53.1512,300.189)"
         id="path6218" />
    </clipPath>
    <clipPath
       id="Clip50">
      <path
         inkscape:connector-curvature="0"
         d="m 0,0 14.3671,0 0,30.5618 L 0,30.5618 0,0 z"
         transform="translate(66.9443,304.834)"
         id="path6221" />
    </clipPath>
    <clipPath
       id="Clip51">
      <path
         inkscape:connector-curvature="0"
         d="m 0,0 23.8721,0 0,35.0694 L 0,35.0694 0,0 z"
         transform="translate(76.8613,312.724)"
         id="path6224" />
    </clipPath>
    <clipPath
       id="Clip52">
      <path
         inkscape:connector-curvature="0"
         d="m 0,0 29.1471,0 0,32.6061 L 0,32.6061 0,0 z"
         transform="translate(52.7052,316.906)"
         id="path6227" />
    </clipPath>
    <clipPath
       id="Clip53">
      <path
         inkscape:connector-curvature="0"
         d="m 0,0 22.2611,0 0,30.5358 L 0,30.5358 0,0 z"
         transform="translate(68.9163,325.453)"
         id="path6230" />
    </clipPath>
    <clipPath
       id="Clip54">
      <path
         inkscape:connector-curvature="0"
         d="m 0,0 20.4371,0 0,39.4379 L 0,39.4379 0,0 z"
         transform="translate(82.6054,322.868)"
         id="path6233" />
    </clipPath>
    <clipPath
       id="Clip55">
      <path
         inkscape:connector-curvature="0"
         d="m 0,0 32.8791,0 0,26.0342 L 0,26.0342 0,0 z"
         transform="translate(58.4433,339.599)"
         id="path6236" />
    </clipPath>
    <clipPath
       id="Clip56">
      <path
         inkscape:connector-curvature="0"
         d="m 0,0 38.4052,0 0,16.6651 L 0,16.6651 0,0 z"
         transform="translate(62.6203,358.07)"
         id="path6239" />
    </clipPath>
    <clipPath
       id="Clip57">
      <path
         inkscape:connector-curvature="0"
         d="m 0,0 37.4492,0 0,16.6321 L 0,16.6321 0,0 z"
         transform="translate(70.1933,367.248)"
         id="path6242" />
    </clipPath>
    <clipPath
       id="Clip58">
      <path
         inkscape:connector-curvature="0"
         d="m 0,0 11.5211,0 0,39.0509 L 0,39.0509 0,0 z"
         transform="translate(107.637,343.156)"
         id="path6245" />
    </clipPath>
    <clipPath
       id="Clip59">
      <path
         inkscape:connector-curvature="0"
         d="m 0,0 28.5901,0 0,12.2335 L 0,12.2335 0,0 z"
         transform="translate(85.6644,379.619)"
         id="path6248" />
    </clipPath>
    <clipPath
       id="Clip60">
      <path
         inkscape:connector-curvature="0"
         d="m 0,0 28.6571,0 0,63.4669 L 0,63.4669 0,0 z"
         transform="translate(111.048,329.33)"
         id="path6251" />
    </clipPath>
    <clipPath
       id="Clip61">
      <path
         inkscape:connector-curvature="0"
         d="m 0,0 68.7583,0 0,27.9685 L 0,27.9685 0,0 z"
         transform="translate(63.3293,383.573)"
         id="path6254" />
    </clipPath>
    <clipPath
       id="Clip62">
      <path
         inkscape:connector-curvature="0"
         d="m 0,0 67.9933,0 0,20.1695 L 0,20.1695 0,0 z"
         transform="translate(65.8903,394.288)"
         id="path6257" />
    </clipPath>
    <clipPath
       id="Clip63">
      <path
         inkscape:connector-curvature="0"
         d="m 0,0 26.3211,0 0,26.5853 L 0,26.5853 0,0 z"
         transform="translate(77.2423,345.262)"
         id="path6260" />
    </clipPath>
    <clipPath
       id="Clip64">
      <path
         inkscape:connector-curvature="0"
         d="m 0,0 14.2551,0 0,37.3336 L 0,37.3336 0,0 z"
         transform="translate(94.5774,336.909)"
         id="path6263" />
    </clipPath>
    <clipPath
       id="Clip65">
      <path
         inkscape:connector-curvature="0"
         d="m 0,0 125.11,0 0,28.7746 L 0,28.7746 0,0 z"
         transform="translate(98.7884,368.766)"
         id="path6266" />
    </clipPath>
    <clipPath
       id="Clip66">
      <path
         inkscape:connector-curvature="0"
         d="m 0,0 68.2533,0 0,61.6847 L 0,61.6847 0,0 z"
         transform="translate(189.884,361.401)"
         id="path6269" />
    </clipPath>
    <clipPath
       id="Clip67">
      <path
         inkscape:connector-curvature="0"
         d="m 0,0 68.2533,0 0,61.6847 L 0,61.6847 0,0 z"
         transform="translate(189.884,361.401)"
         id="path6272" />
    </clipPath>
    <clipPath
       id="Clip68">
      <path
         inkscape:connector-curvature="0"
         d="m 0,0 32.6251,0 0,28.7046 L 0,28.7046 0,0 z"
         transform="translate(190.346,394.381)"
         id="path6275" />
    </clipPath>
    <clipPath
       id="Clip69">
      <path
         inkscape:connector-curvature="0"
         d="m 0,0 32.6251,0 0,28.7046 L 0,28.7046 0,0 z"
         transform="translate(190.346,394.381)"
         id="path6278" />
    </clipPath>
    <clipPath
       id="Clip70">
      <path
         inkscape:connector-curvature="0"
         d="m 0,0 68.2533,0 0,61.6847 L 0,61.6847 0,0 z"
         transform="translate(189.884,361.401)"
         id="path6281" />
    </clipPath>
    <clipPath
       id="Clip71">
      <path
         inkscape:connector-curvature="0"
         d="m 0,0 33.8122,0 0,34.9513 L 0,34.9513 0,0 z"
         transform="translate(224.325,361.401)"
         id="path6284" />
    </clipPath>
    <clipPath
       id="Clip72">
      <path
         inkscape:connector-curvature="0"
         d="m 0,0 33.8122,0 0,34.9523 L 0,34.9523 0,0 z"
         transform="translate(189.884,361.401)"
         id="path6287" />
    </clipPath>
    <clipPath
       id="Clip73">
      <path
         inkscape:connector-curvature="0"
         d="m 0,0 32.6241,0 0,28.7046 L 0,28.7046 0,0 z"
         transform="translate(225.454,394.381)"
         id="path6290" />
    </clipPath>
    <clipPath
       id="Clip74">
      <path
         inkscape:connector-curvature="0"
         d="m 0,0 21.5711,0 0,22.2418 L 0,22.2418 0,0 z"
         transform="translate(213.428,382.386)"
         id="path6293" />
    </clipPath>
    <clipPath
       id="Clip75">
      <path
         inkscape:connector-curvature="0"
         d="m 0,0 126.457,0 0,237.208 L 0,237.208 0,0 z"
         transform="translate(161.272,121.045)"
         id="path6296" />
    </clipPath>
    <clipPath
       id="Clip76">
      <path
         inkscape:connector-curvature="0"
         d="m 0,0 76.8453,0 0,26.6153 L 0,26.6153 0,0 z"
         transform="translate(185.669,313.723)"
         id="path6299" />
    </clipPath>
    <clipPath
       id="Clip77">
      <path
         inkscape:connector-curvature="0"
         d="m 0,0 9.78404,0 0,14.5528 L 0,14.5528 0,0 z"
         transform="translate(219.301,325.389)"
         id="path6302" />
    </clipPath>
    <clipPath
       id="Clip78">
      <path
         inkscape:connector-curvature="0"
         d="m 0,0 126.457,0 0,20.8366 L 0,20.8366 0,0 z"
         transform="translate(161.272,337.417)"
         id="path6305" />
    </clipPath>
    <clipPath
       id="Clip79">
      <path
         inkscape:connector-curvature="0"
         d="m 0,0 126.457,0 0,16.4 L 0,16.4 0,0 z"
         transform="translate(161.272,327.906)"
         id="path6308" />
    </clipPath>
    <clipPath
       id="Clip80">
      <path
         inkscape:connector-curvature="0"
         d="m 0,0 36.5612,0 0,181.497 L 0,181.497 0,0 z"
         transform="translate(206.494,121.045)"
         id="path6311" />
    </clipPath>
    <clipPath
       id="Clip81">
      <path
         inkscape:connector-curvature="0"
         d="m 0,0 106.548,0 0,14.1768 L 0,14.1768 0,0 z"
         transform="translate(170.386,300.942)"
         id="path6314" />
    </clipPath>
    <clipPath
       id="Clip82">
      <path
         inkscape:connector-curvature="0"
         d="m 0,0 341.914,0 0,26.5323 L 0,26.5323 0,0 z"
         transform="translate(53.5432,29.5247)"
         id="path6317" />
    </clipPath>
    <clipPath
       id="Clip83">
      <path
         inkscape:connector-curvature="0"
         d="m 0,0 147.119,0 0,26.5323 L 0,26.5323 0,0 z"
         transform="translate(53.5432,29.5247)"
         id="path6320" />
    </clipPath>
    <clipPath
       id="Clip84">
      <path
         inkscape:connector-curvature="0"
         d="m 0,0 153.063,0 0,26.1072 L 0,26.1072 0,0 z"
         transform="translate(242.394,29.5247)"
         id="path6323" />
    </clipPath>
    <clipPath
       id="Clip85">
      <path
         inkscape:connector-curvature="0"
         d="m 0,0 449.104,0 0,506.999 L 0,506.999 0,0 z"
         transform="translate(-0.0520002,0)"
         id="path6326" />
    </clipPath>
    <linearGradient
       id="SVGID_1_"
       gradientUnits="userSpaceOnUse"
       x1="5.5913"
       y1="227.77049"
       x2="329.1846"
       y2="227.77049">
      <stop
         offset="0"
         style="stop-color:#448D46"
         id="stop9137" />
      <stop
         offset="0.3515"
         style="stop-color:#70BA70"
         id="stop9139" />
      <stop
         offset="0.6727"
         style="stop-color:#70BA70"
         id="stop9141" />
      <stop
         offset="1"
         style="stop-color:#448D46"
         id="stop9143" />
    </linearGradient>
    <linearGradient
       id="SVGID_2_"
       gradientUnits="userSpaceOnUse"
       x1="122.0015"
       y1="228.8486"
       x2="212.7744"
       y2="228.8486">
      <stop
         offset="0"
         style="stop-color:#A38876"
         id="stop9164" />
      <stop
         offset="0.2061"
         style="stop-color:#EAD8CF"
         id="stop9166" />
      <stop
         offset="0.497"
         style="stop-color:#FFFFFF"
         id="stop9168" />
      <stop
         offset="0.7636"
         style="stop-color:#EAD8CF"
         id="stop9170" />
      <stop
         offset="1"
         style="stop-color:#A38876"
         id="stop9172" />
    </linearGradient>
  </defs>
  <g
     id="g6382">
    <g
       style="fill:#217844;stroke:none"
       transform="matrix(1,0,0,1.0499944,0,0.00185382)"
       id="layer1">
      <rect
         width="1500"
         height="1000"
         x="0"
         y="0"
         style="fill:#217844;fill-opacity:1;stroke:none"
         id="rect3635" />
    </g>
    <g
       id="g6178"
       transform="matrix(6.096138,0,0,5.9718755,445.99851,227.62394)">
      <path
         d="m 16.62515,1.3375443 66.985306,0 6.123652,6.1236559 0,39.5226058 c 0,17.848932 -13.233373,32.03313 -39.734107,47.333335 C 22.65887,78.531732 10.265895,64.100356 10.265895,46.983806 l 0,-39.5226058 6.359255,-6.1236559 z"
         id="path2421"
         style="fill:#01cafe;fill-rule:evenodd;stroke:none"
         inkscape:connector-curvature="0" />
      <path
         d="m 49.958149,75.666249 c -7.404694,-0.015 -14.854769,0.686784 -21.985884,2.159577 0.523086,2.60892 0.05125,3.612038 2.653836,3.11963 13.213942,-2.443667 27.545916,-2.219298 40.34264,0.377491 l 0.71057,-3.497121 C 64.723265,76.414262 57.362843,75.681247 49.958149,75.666249 z"
         id="path2500"
         style="fill:#3388aa;fill-rule:evenodd;stroke:#005588;stroke-width:0.5;stroke-linecap:butt;stroke-linejoin:miter"
         inkscape:connector-curvature="0" />
      <path
         d="m 83.050814,1.8946199 -65.896682,0 -6.336821,5.3605343 0,43.8502278 c 6.074791,0 7.929295,4.894761 11.019725,5.845635 10.762839,3.311546 12.586706,-1.437865 22.297325,0.624183 -2.933395,3.623514 2.505408,11.938617 -1.952093,14.121044 -0.673177,0.329593 -1.478156,1.035861 -0.785651,1.987122 -1.963617,0.600914 -4.794434,1.666598 -3.573368,2.887665 2.380296,2.380302 6.366633,2.499451 12.009608,2.499451 5.642979,0 9.629316,-0.119149 12.009618,-2.499451 1.221067,-1.221067 -1.609757,-2.286751 -3.573374,-2.887665 0.692505,-0.951261 -0.112474,-1.657529 -0.785651,-1.987122 -4.4575,-2.182427 0.981302,-10.49753 -1.952093,-14.121044 9.710625,-2.062048 11.534492,2.687363 22.297332,-0.624183 3.115689,-0.958645 4.729356,-5.880215 11.113589,-5.880215 l 0,-43.8151753 -5.891464,-5.3610068 z"
         id="path2478"
         style="fill:#ffff00;fill-rule:evenodd;stroke:#000000;stroke-width:0.5;stroke-linecap:butt;stroke-linejoin:miter"
         inkscape:connector-curvature="0" />
      <path
         d="M 49.825576,4.1387468 C 48.540093,8.9362293 28.364829,11.489243 41.452415,24.576829 l 16.746327,0 C 72.099746,10.675824 51.09149,8.8631994 49.825576,4.1387468 z"
         id="path2420"
         style="fill:#ffffff;fill-rule:evenodd;stroke:#000000;stroke-width:0.5;stroke-linecap:butt;stroke-linejoin:miter"
         inkscape:connector-curvature="0" />
      <path
         d="m 35.78305,24.576829 29.993415,0 c 3.315634,0 3.484379,7.935758 0,7.935758 l -29.993415,0 c -3.748873,0 -3.687712,-7.935758 0,-7.935758 z"
         id="path2422"
         style="fill:#ffffff;fill-rule:evenodd;stroke:#000000;stroke-width:0.5;stroke-linecap:butt;stroke-linejoin:miter"
         inkscape:connector-curvature="0" />
      <path
         d="m 29.846853,32.443343 41.803326,0 c 3.315635,0 3.484379,7.935768 0,7.935768 l -41.803326,0 c -3.748873,0 -3.687712,-7.935768 0,-7.935768 z"
         id="path2424"
         style="fill:#ffffff;fill-rule:evenodd;stroke:#000000;stroke-width:0.44584811px;stroke-linecap:butt;stroke-linejoin:miter"
         inkscape:connector-curvature="0" />
      <path
         d="m 33.516656,40.214018 0,-3.577335 3.124314,0 0,3.577335 m 2.225865,0 0,-3.577335 3.124312,0 0,3.577335 m 2.225865,0 0,-3.577335 3.124312,0 0,3.577335 m 4.900954,0 0,-3.577335 3.124312,0 0,3.577335 m 2.225865,0 0,-3.577335 3.124312,0 0,3.577335 m 2.225865,0 0,-3.577335 3.124312,0 0,3.577335"
         id="path2426"
         style="fill:none;stroke:#000000;stroke-width:0.5;stroke-linecap:butt;stroke-linejoin:miter"
         inkscape:connector-curvature="0" />
      <rect
         width="10.872614"
         height="2.3744788"
         x="22.706528"
         y="41.144142"
         id="rect2446"
         style="fill:#01cafe;stroke:#000000;stroke-width:0.5" />
      <rect
         width="10.872614"
         height="2.3744788"
         x="34.635921"
         y="41.144142"
         id="rect2448"
         style="fill:#01cafe;stroke:#000000;stroke-width:0.5" />
      <rect
         width="7.1859231"
         height="2.3744788"
         x="46.565308"
         y="41.144142"
         id="rect2450"
         style="fill:#01cafe;stroke:#000000;stroke-width:0.5" />
      <rect
         width="10.872614"
         height="2.3744788"
         x="54.808014"
         y="41.144142"
         id="rect2452"
         style="fill:#01cafe;stroke:#000000;stroke-width:0.5" />
      <rect
         width="10.872614"
         height="2.3744788"
         x="66.737404"
         y="41.144142"
         id="rect2454"
         style="fill:#01cafe;stroke:#000000;stroke-width:0.5" />
      <rect
         width="10.055914"
         height="3.189384"
         x="24.317379"
         y="44.237213"
         id="rect2456"
         style="fill:#01cafe;stroke:#000000;stroke-width:0.5" />
      <rect
         width="8.5562429"
         height="3.189384"
         x="35.270782"
         y="44.237213"
         id="rect2458"
         style="fill:#01cafe;stroke:#000000;stroke-width:0.5" />
      <rect
         width="10.270354"
         height="3.189384"
         x="44.724514"
         y="44.237213"
         id="rect2460"
         style="fill:#01cafe;stroke:#000000;stroke-width:0.5" />
      <rect
         width="10.055914"
         height="3.189384"
         x="65.346085"
         y="44.237213"
         id="rect2464"
         style="fill:#01cafe;stroke:#000000;stroke-width:0.5" />
      <rect
         width="11.430776"
         height="3.189384"
         x="11.989114"
         y="44.237213"
         id="rect2466"
         style="fill:#01cafe;stroke:#000000;stroke-width:0.5" />
      <rect
         width="11.555776"
         height="3.189384"
         x="76.299492"
         y="44.237213"
         id="rect2468"
         style="fill:#01cafe;stroke:#000000;stroke-width:0.5" />
      <rect
         width="8.5562429"
         height="3.189384"
         x="55.892353"
         y="44.237213"
         id="rect2470"
         style="fill:#01cafe;stroke:#000000;stroke-width:0.5" />
      <path
         d="m 49.933503,80.165222 c -6.026074,-0.01202 -12.089079,0.55023 -17.892511,1.730194 0.372015,2.883923 0.577009,2.769037 3.154618,2.324759 10.475237,-1.770334 21.742835,-1.539443 31.836698,0.477039 l 0.578274,-2.801798 C 61.94963,80.764509 55.959581,80.177237 49.933503,80.165222 z"
         id="path3278"
         style="fill:#3388aa;fill-rule:evenodd;stroke:#005588;stroke-width:0.5;stroke-linecap:butt;stroke-linejoin:miter"
         inkscape:connector-curvature="0" />
      <path
         d="m 49.903381,84.623645 c -4.341094,-0.0084 -8.708791,0.383336 -12.889501,1.20539 l 0.424751,1.951959 c 8.054394,-1.583737 16.913534,-1.520271 24.782472,0 l 0.416578,-1.951959 c -4.078065,-0.78788 -8.393202,-1.197017 -12.7343,-1.20539 z"
         id="path3280"
         style="fill:#3388aa;fill-rule:evenodd;stroke:#005588;stroke-width:0.5;stroke-linecap:butt;stroke-linejoin:miter"
         inkscape:connector-curvature="0" />
      <path
         d="m 45.479395,90.354875 4.525639,3.026239 4.571187,-3.026239 c -3.048098,-0.863675 -6.029346,-0.885445 -9.096826,0 z"
         id="path3282"
         style="fill:#3388aa;fill-rule:evenodd;stroke:#005588;stroke-width:0.5;stroke-linecap:butt;stroke-linejoin:miter"
         inkscape:connector-curvature="0" />
      <path
         d="m 11.264624,47.961444 77.379338,0 0,1.456381 c -5.286198,0 -9.565307,0.910908 -12.730503,4.076113 l -2.556243,-3.419325 -3.189464,3.419325 -2.682891,-3.419325 -3.189454,3.419325 -3.189455,-3.419325 -3.189459,3.419325 -3.189459,-3.419325 -4.58252,3.419325 -4.582516,-3.419325 -3.189464,3.419325 -3.189459,-3.419325 -3.189458,3.419325 -3.18946,-3.419325 -2.682894,3.419325 -3.18946,-3.419325 -2.049686,3.419325 C 21.637148,50.248961 16.799523,49.164547 11.264624,49.164547 l 0,-1.203103 z"
         id="path2388"
         style="fill:#ff0000;fill-rule:evenodd;stroke:none"
         inkscape:connector-curvature="0" />
      <g
         transform="matrix(0.4458481,0,0,0.4458481,-5.342643,-6.1608102)"
         id="g2488">
        <path
           d="m 136.50758,164.67802 a 13.034092,13.034092 0 1 1 -26.06818,0 13.034092,13.034092 0 1 1 26.06818,0 z"
           transform="translate(-7.4393939,-1.6818182)"
           id="path2416"
           style="fill:#808000;stroke:#000000;stroke-width:1.12145817"
           inkscape:connector-curvature="0" />
        <path
           d="m 136.50758,164.67802 a 13.034092,13.034092 0 1 1 -26.06818,0 13.034092,13.034092 0 1 1 26.06818,0 z"
           transform="translate(8.560606,-1.6818182)"
           id="path2418"
           style="fill:#808000;stroke:#000000;stroke-width:1.12145817"
           inkscape:connector-curvature="0" />
        <path
           d="m 139.03031,164.67802 a 15.55682,15.55682 0 1 1 -31.11364,0 15.55682,15.55682 0 1 1 31.11364,0 z"
           transform="translate(0.5606061,-1.6818182)"
           id="path2414"
           style="fill:#808000;stroke:#000000;stroke-width:1.12145817"
           inkscape:connector-curvature="0" />
        <path
           d="m 133.98485,164.67802 a 10.511365,10.511365 0 1 1 -21.02273,0 10.511365,10.511365 0 1 1 21.02273,0 z"
           transform="translate(0.5606061,-1.6818182)"
           id="path2412"
           style="fill:#ffff00;stroke:none"
           inkscape:connector-curvature="0" />
        <path
           d="m 129.5,164.39772 a 4.625,4.625 0 1 1 -9.25,0 4.625,4.625 0 1 1 9.25,0 z"
           transform="translate(-0.840906,-1.4015142)"
           id="path2410"
           style="fill:#ff0000;stroke:none"
           inkscape:connector-curvature="0" />
      </g>
      <path
         d="m 41.389929,73.727911 c 5.644593,3.207511 11.289191,3.290845 16.933784,0 M 42.764626,71.29095 c 4.883183,3.098769 9.707152,3.39697 14.090659,0"
         id="path2495"
         style="fill:none;stroke:#000000;stroke-width:0.5;stroke-linecap:butt;stroke-linejoin:miter"
         inkscape:connector-curvature="0" />
      <g
         transform="matrix(0.4458481,0,0,0.4458481,-5.912191,-6.1608102)"
         id="g3334">
        <path
           d="m 237.05219,194.38544 c -8.54021,6.08163 -18.22494,9.4927 -28.34319,11.89225 0,-7.98736 -2.79397,-9.20546 -8.12638,-9.11739 l 0,-8.32458 c 0,-3.38292 -12.28866,1.50389 -12.28866,-1.58563 0,-5.60748 29.1678,4.41514 42.79876,-9.56361 -1.18163,6.08859 -5.94159,11.90418 -11.08609,15.90614 9.521,2.74944 11.75767,0.89759 17.04556,0.79282 z"
           id="path3284"
           style="fill:#ffff00;fill-rule:evenodd;stroke:#000000;stroke-width:1.12145817;stroke-linecap:butt;stroke-linejoin:miter"
           inkscape:connector-curvature="0" />
        <path
           d="m 200.58262,188.83572 c 0,-3.38518 -12.28866,1.50389 -12.28866,-1.58563 l 0,17.24376 c 0,1.67184 -0.13215,4.19109 5.15331,2.77486 l 0,-11.09943 c 0,-2.68417 7.13535,-3.92361 7.13535,-7.33356 z"
           id="path3290"
           style="fill:#ffff00;fill-rule:evenodd;stroke:#000000;stroke-width:1px;stroke-linecap:butt;stroke-linejoin:miter"
           inkscape:connector-curvature="0" />
        <path
           d="m 200.58262,197.1603 0,-8.32458 c 0,3.35762 -6.98669,4.70354 -6.98669,7.03625 0,2.31709 3.4621,1.28833 6.98669,1.28833 z"
           id="path3296"
           style="fill:#ffff00;fill-rule:evenodd;stroke:#000000;stroke-width:1.12145817;stroke-linecap:butt;stroke-linejoin:miter"
           inkscape:connector-curvature="0" />
        <path
           d="m 193.4464,195.85786 c 0,2.25464 3.48554,1.30244 7.13622,1.30244 3.65068,0 3.9075,10.2682 0.0134,11.56829 -1.76912,1.92509 -7.15632,1.02297 -7.15632,-1.29412 l 0.007,-11.57661 z"
           id="path3298"
           style="fill:#ffff00;fill-rule:evenodd;stroke:#000000;stroke-width:1.12145817;stroke-linecap:butt;stroke-linejoin:miter"
           inkscape:connector-curvature="0" />
        <path
           d="m 13.76055,194.38544 c 8.54021,6.08163 18.22494,9.4927 28.34319,11.89225 0,-7.98736 2.79397,-9.20546 8.12638,-9.11739 l 0,-8.32458 c 0,-3.38292 12.28866,1.50389 12.28866,-1.58563 0,-5.60748 -29.1678,4.41514 -42.79876,-9.56361 1.18163,6.08859 5.94159,11.90418 11.08609,15.90614 -9.521,2.74944 -11.75767,0.89759 -17.04556,0.79282 z"
           id="path3313"
           style="fill:#ffff00;fill-rule:evenodd;stroke:#000000;stroke-width:1.12145817;stroke-linecap:butt;stroke-linejoin:miter"
           inkscape:connector-curvature="0" />
        <path
           d="m 50.23012,188.83572 c 0,-3.38518 12.28866,1.50389 12.28866,-1.58563 l 0,17.24376 c 0,1.67184 0.13215,4.19109 -5.15331,2.77486 l 0,-11.09943 c 0,-2.68417 -7.13535,-3.92361 -7.13535,-7.33356 z"
           id="path3315"
           style="fill:#ffff00;fill-rule:evenodd;stroke:#000000;stroke-width:1.12145817;stroke-linecap:butt;stroke-linejoin:miter"
           inkscape:connector-curvature="0" />
        <path
           d="m 50.23012,197.1603 0,-8.32458 c 0,3.35762 6.98669,4.70354 6.98669,7.03625 0,2.31709 -3.4621,1.28833 -6.98669,1.28833 z"
           id="path3317"
           style="fill:#ffff00;fill-rule:evenodd;stroke:#000000;stroke-width:1px;stroke-linecap:butt;stroke-linejoin:miter"
           inkscape:connector-curvature="0" />
        <path
           d="m 125.40637,246.71134 c -18.85192,0 -45.2696,-3.29404 -79.32617,-22.29611 -4.88931,-2.72802 -3.9894,-8.61373 -3.9894,-18.13754 0,-7.98736 2.80691,-9.20546 8.13932,-9.11739 -15.96199,15.96199 52.42082,32.50548 75.17625,32.50548 22.75543,0 91.13824,-16.54349 75.17625,-32.50548 5.33241,-0.0881 8.13932,1.13003 8.13932,9.11739 0,9.52381 0.89991,15.40952 -3.9894,18.13754 -34.05657,19.00207 -60.47425,22.29611 -79.32617,22.29611 z"
           id="path3286"
           style="fill:#ffff00;fill-rule:evenodd;stroke:#000000;stroke-width:1.12145817;stroke-linecap:butt;stroke-linejoin:miter"
           inkscape:connector-curvature="0" />
        <path
           d="m 57.36634,195.85786 c 0,2.25464 -3.48554,1.30244 -7.13622,1.30244 -3.65068,0 -3.9075,10.2682 -0.01338,11.56829 1.76912,1.92509 7.15632,1.02297 7.15632,-1.29412 l -0.0067,-11.57661 z"
           id="path3321"
           style="fill:#ffff00;fill-rule:evenodd;stroke:#000000;stroke-width:1.12145817;stroke-linecap:butt;stroke-linejoin:miter"
           inkscape:connector-curvature="0" />
      </g>
      <path
         d="m 15.859699,91.039635 0.347136,0.167777 c -0.06022,0.147911 -0.08604,0.28339 -0.07746,0.406436 0.0086,0.123049 0.05808,0.248034 0.148501,0.374949 0.09042,0.126915 0.210905,0.235452 0.361443,0.325616 0.133677,0.08007 0.263082,0.129974 0.38821,0.149729 0.125124,0.01975 0.232508,0.0084 0.322152,-0.03409 0.08964,-0.04248 0.15791,-0.10654 0.204817,-0.192178 0.04759,-0.0869 0.06506,-0.177202 0.05241,-0.270911 -0.01265,-0.09371 -0.0623,-0.195789 -0.148953,-0.306226 -0.0552,-0.07152 -0.187695,-0.210681 -0.397509,-0.417465 -0.209817,-0.206785 -0.34867,-0.36647 -0.416557,-0.479051 -0.08851,-0.145003 -0.135676,-0.287398 -0.141479,-0.427189 -0.0058,-0.139783 0.02612,-0.273278 0.09579,-0.400479 0.07656,-0.139787 0.186057,-0.247726 0.328495,-0.323819 0.14243,-0.07608 0.303751,-0.101975 0.483964,-0.07767 0.180203,0.02431 0.359427,0.08984 0.537665,0.196597 0.196298,0.117574 0.351309,0.254325 0.465038,0.410242 0.113719,0.155922 0.175748,0.322277 0.186083,0.49906 0.01033,0.176788 -0.02599,0.348217 -0.108941,0.514282 l -0.350482,-0.174799 c 0.07781,-0.185875 0.08911,-0.354717 0.03392,-0.506528 -0.0552,-0.151807 -0.184565,-0.288665 -0.38809,-0.410569 -0.211958,-0.12695 -0.388658,-0.178843 -0.53009,-0.155681 -0.141436,0.02317 -0.243541,0.09205 -0.306308,0.206655 -0.05449,0.09949 -0.065,0.201911 -0.03153,0.307252 0.03226,0.104623 0.172347,0.275917 0.420267,0.513884 0.247912,0.237972 0.411062,0.413881 0.489454,0.527733 0.113451,0.166631 0.175698,0.328933 0.18674,0.486911 0.01103,0.157973 -0.02414,0.311264 -0.105529,0.459874 -0.08071,0.147344 -0.197096,0.26203 -0.349174,0.344048 -0.152082,0.08202 -0.32352,0.113972 -0.514318,0.09586 -0.190803,-0.01811 -0.380745,-0.08379 -0.569817,-0.197034 -0.239658,-0.143541 -0.420471,-0.300341 -0.542445,-0.470405 -0.121969,-0.17006 -0.188841,-0.356041 -0.200613,-0.557939 -0.01177,-0.201898 0.03063,-0.396859 0.127209,-0.584873 l 0,0 z m 2.117003,2.433466 1.407723,-2.831675 1.957898,1.064418 -0.166121,0.334163 -1.599567,-0.869609 -0.431152,0.867268 1.497977,0.814382 -0.165162,0.332233 -1.497977,-0.814382 -0.479163,0.963848 1.662368,0.903752 -0.166121,0.334163 -2.020703,-1.098561 z m 2.525744,1.357353 1.29383,-2.890477 1.042642,0.510375 c 0.183513,0.08983 0.319547,0.167639 0.408095,0.233415 0.125159,0.09011 0.218763,0.190819 0.280809,0.302111 0.06204,0.111297 0.09426,0.240442 0.09666,0.387433 0.0024,0.146996 -0.02848,0.292133 -0.09261,0.435407 -0.110031,0.245805 -0.277926,0.417206 -0.503698,0.51421 -0.225772,0.097 -0.534114,0.04983 -0.925027,-0.141526 l -0.70892,-0.347021 -0.526005,1.175117 -0.365776,-0.179044 z m 1.04446,-1.337174 0.714582,0.34979 c 0.236302,0.115676 0.4247,0.151807 0.56519,0.108404 0.140482,-0.0434 0.248087,-0.148575 0.322812,-0.315509 0.05413,-0.120928 0.07124,-0.238747 0.05133,-0.353455 -0.01991,-0.114708 -0.07146,-0.209241 -0.154623,-0.283609 -0.05395,-0.04724 -0.163876,-0.111462 -0.329792,-0.192682 l -0.707036,-0.346098 -0.462462,1.033159 z m 4.559937,0.444578 0.372976,0.161976 -0.676262,1.702908 c -0.117633,0.296213 -0.243094,0.517527 -0.37637,0.663944 -0.133288,0.146412 -0.305251,0.237918 -0.515892,0.274517 -0.210649,0.0366 -0.451829,-0.0041 -0.723553,-0.122113 -0.264036,-0.114663 -0.461106,-0.256037 -0.591218,-0.424122 -0.130117,-0.16808 -0.195263,-0.357847 -0.195446,-0.569295 -1.88e-4,-0.211443 0.06173,-0.473321 0.185755,-0.78562 l 0.676262,-1.702907 0.372977,0.161981 -0.675461,1.700897 c -0.101667,0.256006 -0.153835,0.454537 -0.156508,0.595599 -0.0027,0.141062 0.03839,0.268503 0.123176,0.382328 0.08479,0.113825 0.207285,0.205527 0.367502,0.275107 0.274286,0.119117 0.495564,0.138997 0.663834,0.05964 0.168262,-0.07936 0.325853,-0.304006 0.472763,-0.673944 l 0.675465,-1.700892 z m 2.243064,3.087377 0.345119,0.243915 c -0.192397,0.296101 -0.421639,0.490691 -0.687722,0.583767 -0.266092,0.09307 -0.548576,0.08311 -0.847458,-0.02989 -0.309327,-0.116951 -0.538126,-0.27792 -0.686409,-0.482907 -0.148279,-0.204988 -0.229818,-0.451488 -0.244616,-0.739502 -0.01479,-0.288009 0.02735,-0.575326 0.126446,-0.861949 0.108061,-0.312553 0.259419,-0.563596 0.454076,-0.753131 0.194657,-0.189525 0.418254,-0.30484 0.6708,-0.345938 0.252547,-0.04109 0.505417,-0.01378 0.75862,0.08195 0.287136,0.108564 0.502164,0.276284 0.645092,0.503167 0.14292,0.226883 0.204992,0.493415 0.186207,0.799597 l -0.40578,-0.04925 c 0.0089,-0.243545 -0.03268,-0.439067 -0.124825,-0.586567 -0.09216,-0.1475 -0.234163,-0.257517 -0.426019,-0.330061 -0.220574,-0.08339 -0.424039,-0.09782 -0.610396,-0.04327 -0.18636,0.05455 -0.341763,0.163622 -0.46621,0.327226 -0.12445,0.163604 -0.220885,0.34436 -0.289305,0.542263 -0.08825,0.25523 -0.129712,0.491494 -0.124404,0.708782 0.0053,0.217293 0.06672,0.401402 0.184259,0.552326 0.117531,0.150919 0.263742,0.259443 0.438638,0.325567 0.212738,0.08043 0.415031,0.08439 0.60687,0.01185 0.191838,-0.07254 0.357508,-0.225189 0.497017,-0.457949 l 0,0 z m 3.305456,-1.072692 0.385874,0.124645 -0.520399,1.761778 c -0.09053,0.306454 -0.195561,0.539111 -0.315109,0.697962 -0.119551,0.158851 -0.282539,0.266835 -0.488968,0.323953 -0.206428,0.05711 -0.4502,0.04027 -0.731316,-0.05054 -0.273165,-0.08824 -0.482057,-0.209642 -0.626687,-0.364204 -0.144625,-0.154567 -0.226522,-0.337097 -0.24569,-0.547595 -0.01916,-0.210494 0.01897,-0.47729 0.114405,-0.800387 l 0.520399,-1.761778 0.385873,0.124646 -0.519784,1.759696 c -0.07823,0.26486 -0.112347,0.467636 -0.102341,0.608337 0.01,0.140701 0.06232,0.26355 0.156956,0.368547 0.09463,0.104997 0.224821,0.184269 0.390576,0.237811 0.283767,0.09166 0.505851,0.08973 0.666251,-0.0058 0.160396,-0.09553 0.297121,-0.334658 0.410175,-0.717383 l 0.519785,-1.759695 z m 0.118767,3.360116 0.765753,-3.08938 0.390942,0.10597 -0.379742,1.532045 1.846788,-1.134389 0.529991,0.143661 -1.549603,0.915834 0.838266,2.18829 -0.515889,-0.139836 -0.664341,-1.848785 -0.605872,0.362024 -0.265346,1.070531 -0.390947,-0.105965 z m 3.899318,0.06774 0.367055,0.02307 c -0.03595,0.241119 -0.0242,0.413734 0.03524,0.517839 0.05944,0.104112 0.156541,0.170172 0.291297,0.198202 0.09937,0.0207 0.189655,0.0147 0.27087,-0.018 0.08121,-0.0327 0.14321,-0.0871 0.186003,-0.163296 0.04279,-0.07619 0.08124,-0.203958 0.115348,-0.383314 l 0.41012,-2.156531 0.396105,0.08238 -0.405655,2.133044 c -0.04981,0.261914 -0.118676,0.458457 -0.206588,0.589627 -0.08791,0.13117 -0.204722,0.22082 -0.350422,0.26895 -0.145703,0.0481 -0.307033,0.0538 -0.483984,0.017 -0.262711,-0.0546 -0.448802,-0.17546 -0.558275,-0.36248 -0.109473,-0.187023 -0.131848,-0.435833 -0.06712,-0.746438 l 0,0 z m 1.79429,1.304211 1.635869,-2.959939 0.429713,0.07131 0.755311,3.356749 -0.454382,-0.0754 -0.206721,-1.01299 -1.260354,-0.209152 -0.475889,0.899712 -0.423547,-0.0703 z m 1.066125,-1.150032 1.021852,0.169578 -0.182111,-0.925139 c -0.05571,-0.281098 -0.09392,-0.510804 -0.114637,-0.689112 -0.06905,0.195741 -0.153648,0.387429 -0.253785,0.575068 l -0.471319,0.869605 z m 2.066831,1.662462 0.327109,-3.173089 0.604379,0.06813 0.486603,2.327659 c 0.04466,0.2167 0.07681,0.37871 0.09646,0.48602 0.04639,-0.11154 0.117687,-0.27503 0.213883,-0.49044 l 0.954079,-2.125839 0.540212,0.0609 -0.327106,3.173089 -0.387049,-0.0436 0.273777,-2.65578 -1.1555,2.55638 -0.362211,-0.0408 -0.599122,-2.80016 -0.278468,2.70123 -0.387049,-0.0436 z m 3.533711,0.37264 0.175847,-3.186175 1.143066,0.06899 c 0.232768,0.01405 0.417692,0.05756 0.554768,0.130522 0.137076,0.07297 0.241748,0.178865 0.31402,0.317698 0.07227,0.138833 0.104364,0.281419 0.09629,0.42776 -0.0075,0.136198 -0.04993,0.262297 -0.127223,0.378289 -0.0773,0.115996 -0.189347,0.206637 -0.336134,0.271914 0.181153,0.06763 0.317511,0.172532 0.409062,0.314712 0.09155,0.14218 0.132202,0.306 0.12197,0.49145 -0.0082,0.14924 -0.04603,0.28616 -0.113374,0.41075 -0.06735,0.12459 -0.147282,0.21899 -0.239795,0.28318 -0.09251,0.0642 -0.206602,0.11001 -0.34226,0.13744 -0.135667,0.0274 -0.300493,0.0353 -0.494459,0.0236 l -1.161778,-0.0701 z m 0.505146,-1.823043 0.658826,0.03977 c 0.178731,0.01079 0.307572,0.0062 0.386523,-0.01375 0.104293,-0.02569 0.184452,-0.07391 0.240491,-0.144669 0.05603,-0.07076 0.08713,-0.161918 0.09329,-0.273487 0.0058,-0.105769 -0.01327,-0.200324 -0.05733,-0.283671 -0.04406,-0.08334 -0.110294,-0.142578 -0.198715,-0.17772 -0.08842,-0.03513 -0.242086,-0.05931 -0.461002,-0.07253 l -0.608944,-0.03675 -0.05314,0.962805 z m -0.08121,1.471373 0.758589,0.0458 c 0.130236,0.008 0.221961,0.008 0.275173,10e-4 0.09379,-0.0118 0.17298,-0.0361 0.23757,-0.0729 0.06459,-0.0368 0.119108,-0.0928 0.163573,-0.16785 0.04445,-0.0751 0.06948,-0.16335 0.07509,-0.26478 0.0065,-0.11881 -0.01684,-0.2238 -0.0702,-0.31497 -0.05336,-0.0912 -0.130669,-0.15762 -0.23193,-0.19935 -0.101266,-0.0417 -0.248881,-0.0684 -0.442857,-0.0802 l -0.704547,-0.0425 -0.06046,1.09538 z m 2.505609,0.50191 0.08101,-3.190351 0.40372,0.01121 -0.08101,3.190351 -0.40372,-0.0112 z m 2.136834,-0.98412 0.380125,-0.0437 c 0.02145,0.15918 0.06621,0.28915 0.134303,0.3899 0.06809,0.10076 0.172182,0.18108 0.312281,0.24095 0.140099,0.0599 0.296864,0.0878 0.470303,0.0837 0.154014,-0.004 0.289476,-0.0307 0.406391,-0.0814 0.116914,-0.0506 0.203271,-0.11834 0.259073,-0.20311 0.0558,-0.0848 0.08265,-0.17649 0.08054,-0.27516 -0.0021,-0.10012 -0.03176,-0.18689 -0.08885,-0.26032 -0.0571,-0.0734 -0.15001,-0.13405 -0.278744,-0.18185 -0.08257,-0.0315 -0.264753,-0.0791 -0.546529,-0.14293 -0.281776,-0.0638 -0.479528,-0.12562 -0.59325,-0.18539 -0.147393,-0.0764 -0.258075,-0.172896 -0.332055,-0.289481 -0.07398,-0.116584 -0.112536,-0.24815 -0.115666,-0.3947 -0.0034,-0.161054 0.03706,-0.312615 0.121471,-0.454676 0.08442,-0.142056 0.209808,-0.25132 0.376145,-0.327792 0.166337,-0.07647 0.35218,-0.117097 0.557533,-0.121895 0.226161,-0.0053 0.426427,0.02815 0.600798,0.100289 0.174371,0.07215 0.309615,0.181131 0.405739,0.326954 0.09612,0.145833 0.149649,0.31225 0.160586,0.499261 l -0.386461,0.03951 c -0.02512,-0.201198 -0.09879,-0.351904 -0.221007,-0.452121 -0.12222,-0.100214 -0.300573,-0.147585 -0.535058,-0.14211 -0.2442,0.0057 -0.421148,0.05665 -0.530844,0.152846 -0.109692,0.0962 -0.163132,0.210315 -0.160314,0.342349 0.0024,0.114632 0.044,0.208019 0.124672,0.280171 0.07928,0.07219 0.283823,0.14326 0.613626,0.213222 0.329798,0.06997 0.556369,0.132542 0.679708,0.187733 0.179428,0.0815 0.312861,0.18686 0.400305,0.31619 0.08744,0.12934 0.132988,0.27961 0.136648,0.45082 0.0036,0.16977 -0.03944,0.33082 -0.129198,0.48317 -0.08976,0.15235 -0.22081,0.27227 -0.393157,0.35976 -0.172352,0.0875 -0.367446,0.13379 -0.585283,0.13888 -0.276114,0.006 -0.508374,-0.0302 -0.696789,-0.11003 -0.188416,-0.0798 -0.337503,-0.20297 -0.447257,-0.36953 -0.109755,-0.16656 -0.169681,-0.35642 -0.179784,-0.56958 l 0,0 z m 3.014522,0.93983 -0.19917,-3.184667 2.201973,-0.150598 0.02351,0.375818 -1.798971,0.123037 0.061,0.975386 1.684713,-0.115225 0.02337,0.373649 -1.684718,0.11522 0.06779,1.084 1.869601,-0.12786 0.0235,0.37581 -2.272599,0.15543 z m 2.820992,-0.20024 -0.343762,-3.171161 0.604008,-0.0716 0.961177,2.160251 c 0.08886,0.20125 0.154085,0.352 0.195683,0.45223 0.02197,-0.11945 0.05738,-0.29527 0.106237,-0.52746 l 0.48687,-2.292475 0.539886,-0.064 0.343763,3.171155 -0.386814,0.0459 -0.287719,-2.654167 -0.593468,2.758627 -0.361993,0.0429 -1.169696,-2.595618 0.292641,2.699598 -0.386813,0.0459 z m 3.526315,-0.44248 -0.48506,-3.150913 1.130421,-0.190301 c 0.230191,-0.03875 0.419735,-0.03795 0.56863,0.0024 0.148891,0.04035 0.27293,0.12017 0.372123,0.239443 0.09919,0.119282 0.159921,0.25128 0.182204,0.395998 0.02073,0.13469 0.0053,0.267384 -0.04626,0.398075 -0.05158,0.130696 -0.142302,0.244459 -0.272182,0.341292 0.190841,0.02521 0.345613,0.09691 0.46432,0.215104 0.118698,0.118199 0.192169,0.269003 0.220405,0.452407 0.02272,0.147589 0.01403,0.289805 -0.02604,0.426645 -0.04009,0.13684 -0.09868,0.24704 -0.17578,0.33057 -0.07711,0.0836 -0.179071,0.154 -0.305892,0.21137 -0.126822,0.0574 -0.286145,0.10219 -0.477972,0.13449 l -1.148919,0.19342 z m 0.11749,-1.894054 0.651531,-0.109687 c 0.176757,-0.02975 0.301625,-0.06327 0.374606,-0.100548 0.09654,-0.04859 0.164879,-0.113753 0.205015,-0.195482 0.04013,-0.08172 0.05171,-0.177751 0.03472,-0.288089 -0.0161,-0.104596 -0.05425,-0.19262 -0.114453,-0.264076 -0.0602,-0.07145 -0.137094,-0.114364 -0.230678,-0.128747 -0.09359,-0.01438 -0.248623,-0.0033 -0.465117,0.0331 l -0.602203,0.101382 0.146577,0.952148 z m 0.223999,1.455094 0.750188,-0.12629 c 0.128797,-0.0217 0.218461,-0.0419 0.268985,-0.0607 0.08916,-0.0327 0.161477,-0.0742 0.216958,-0.12473 0.05548,-0.0505 0.09719,-0.11742 0.125127,-0.20078 0.02793,-0.08334 0.03418,-0.175171 0.01874,-0.275473 -0.01809,-0.117495 -0.06258,-0.214743 -0.133474,-0.291746 -0.07089,-0.077 -0.160086,-0.124458 -0.267566,-0.142381 -0.10749,-0.01792 -0.257143,-0.01073 -0.448974,0.02156 l -0.696749,0.117298 0.166761,1.083262 z m 2.550496,-0.073 -0.572086,-3.134904 0.396707,-0.07917 0.572086,3.134904 -0.396707,0.0792 z m 1.077633,-0.21552 -0.64739,-3.118848 0.394674,-0.08959 0.570993,2.750789 1.468833,-0.333419 0.0764,0.368048 -1.863506,0.42302 z m 2.009259,-0.451481 0.379942,-3.395561 0.421541,-0.112653 1.965775,2.768712 -0.445745,0.119118 -0.573744,-0.844325 -1.236395,0.330404 -0.09588,1.023271 -0.41549,0.111034 z m 0.542887,-1.497742 1.002427,-0.267879 -0.517853,-0.773876 c -0.157692,-0.23498 -0.279845,-0.43003 -0.366451,-0.585145 0.0108,0.208327 0.0058,0.419383 -0.01502,0.633158 l -0.103102,0.993742 z m 2.534387,0.663377 -0.874887,-3.057519 0.396885,-0.124195 2.222584,1.920009 -0.686896,-2.400549 0.370954,-0.116081 0.874884,3.057524 -0.396881,0.124191 -2.223181,-1.922096 0.687493,2.40264 -0.370955,0.116076 z m 4.055649,-1.331289 -1.026164,-3.005653 0.380348,-0.142008 0.905067,2.65096 1.415524,-0.528495 0.121096,0.35469 -1.795871,0.670506 z m 2.982594,-4.585342 0.375297,-0.15602 0.651384,1.713479 c 0.113304,0.298058 0.171041,0.548152 0.173212,0.750282 0.0022,0.202134 -0.06001,0.393144 -0.186525,0.573026 -0.126518,0.179886 -0.326485,0.326659 -0.599893,0.440324 -0.265676,0.110445 -0.501186,0.152912 -0.706531,0.127392 -0.205353,-0.02552 -0.378614,-0.113968 -0.519796,-0.265337 -0.141178,-0.15137 -0.271499,-0.384174 -0.390955,-0.698413 l -0.651389,-1.713479 0.375297,-0.15602 0.650617,1.711455 c 0.09793,0.257598 0.192977,0.437903 0.28516,0.540921 0.09218,0.103022 0.206615,0.164389 0.343294,0.184095 0.13668,0.01971 0.285624,-0.004 0.446834,-0.07097 0.275989,-0.114739 0.447796,-0.261909 0.515427,-0.441523 0.06763,-0.179605 0.03069,-0.455527 -0.110816,-0.827762 L 74.65701,93.102985 z m 2.130414,2.533554 -1.237723,-2.91722 1.236867,-0.573891 c 0.248645,-0.115363 0.448777,-0.176864 0.600406,-0.184506 0.151628,-0.0076 0.294277,0.03693 0.427952,0.133684 0.133665,0.09676 0.234551,0.225394 0.302659,0.385912 0.0878,0.206954 0.09776,0.41113 0.02986,0.612524 -0.0679,0.201399 -0.22753,0.38343 -0.478877,0.546093 0.118506,0.0038 0.213263,0.01775 0.284273,0.04196 0.151731,0.05345 0.308727,0.135409 0.470998,0.24589 l 0.822104,0.568835 -0.464302,0.215429 -0.626666,-0.435642 c -0.182129,-0.125078 -0.327779,-0.217864 -0.436949,-0.278357 -0.109175,-0.06049 -0.199232,-0.0965 -0.270175,-0.108046 -0.07094,-0.01154 -0.138052,-0.01136 -0.201332,5.3e-4 -0.0458,0.01014 -0.116277,0.03728 -0.211421,0.08143 l -0.428143,0.198657 0.549628,1.295434 -0.369158,0.171286 z m -0.322312,-1.80103 0.793498,-0.368168 c 0.168722,-0.07828 0.292917,-0.157741 0.372582,-0.238369 0.07966,-0.08063 0.127209,-0.172547 0.142631,-0.275766 0.01542,-0.103213 0.0031,-0.201915 -0.03681,-0.296105 -0.05854,-0.137968 -0.154549,-0.22917 -0.28804,-0.273617 -0.133491,-0.04444 -0.303623,-0.01869 -0.510402,0.07725 l -0.882936,0.409667 0.409481,0.96511 z m 2.825892,0.636854 -0.286663,-3.405558 0.390924,-0.199735 2.462005,2.294116 -0.413373,0.211202 -0.725604,-0.70505 -1.146588,0.585826 0.10461,1.02233 -0.385311,0.196869 z m 0.241052,-1.581767 0.92962,-0.474966 -0.657211,-0.647929 c -0.199999,-0.196641 -0.357446,-0.361721 -0.472341,-0.495239 0.05099,0.20171 0.08703,0.409435 0.108114,0.623184 l 0.09182,0.99495 z m 2.625666,0.104904 -1.437797,-2.815099 0.356237,-0.198973 0.590419,1.155995 1.399236,-0.781522 -0.590419,-1.155995 0.356233,-0.198974 1.437797,2.815103 -0.356237,0.198969 -0.677707,-1.326898 -1.399231,0.781523 0.677702,1.326902 -0.356233,0.198969 z"
         id="text3345"
         style="fill:#000000;stroke:none"
         inkscape:connector-curvature="0" />
      <path
         d="m 16.62515,1.3375443 66.985306,0 6.123652,6.1236559 0,39.5226058 c 0,17.848932 -13.233373,32.03313 -39.734107,47.333335 C 22.65887,78.531732 10.265895,64.100356 10.265895,46.983806 l 0,-39.5226058 6.359255,-6.1236559 z"
         id="path2384"
         style="fill:none;stroke:#808000;stroke-width:2.5;stroke-linecap:butt;stroke-linejoin:miter"
         inkscape:connector-curvature="0" />
      <g
         transform="matrix(0.4458481,0,0,0.4458481,96.855796,-4.7118039)"
         id="keris">
        <path
           d="m -106.375,91.875 c 0.33223,5.405591 -0.40364,10.88112 -1.83355,16.21677 -3.12477,11.65991 3.35248,21.29427 -6.29145,34.78323 l 20.625,0 c -8.08513,-10.75309 -6.54706,-24.89984 -7.421,-37.61348 -0.30492,-4.43575 -2.00128,-8.864417 -5.079,-13.38652 z"
           id="path2423"
           style="fill:#01cafe;fill-rule:evenodd;stroke:#000000;stroke-width:1.12145817;stroke-linecap:butt;stroke-linejoin:miter"
           inkscape:connector-curvature="0" />
        <path
           d="m -109.5,140.625 c 3.39881,-7.2869 4.00025,-15.43328 5,-23.375 0.73561,8.58333 0.7097,13.41667 5.5,23.375 l -3.23494,0 -2.39006,-7.875 -2.42705,7.875 -2.44795,0 z"
           id="path2425"
           style="fill:#000000;fill-rule:evenodd;stroke:none"
           inkscape:connector-curvature="0" />
        <path
           d="m -106.625,142.875 0,10.10515 c 0,3.24854 -2.60039,1.50808 -2.60039,3.62525 0,6.6102 7.71031,6.60562 7.71031,0 l 0,-13.7304 -5.10992,0 z"
           id="path2431"
           style="fill:#ee9900;fill-rule:evenodd;stroke:#000000;stroke-width:1.12145817;stroke-linecap:butt;stroke-linejoin:miter"
           inkscape:connector-curvature="0" />
      </g>
    </g>
  </g>
</svg>
