<?xml version="1.0" encoding="UTF-8" standalone="no"?>
<!-- Created with Inkscape (http://www.inkscape.org/) -->

<svg
   xmlns:dc="http://purl.org/dc/elements/1.1/"
   xmlns:cc="http://creativecommons.org/ns#"
   xmlns:rdf="http://www.w3.org/1999/02/22-rdf-syntax-ns#"
   xmlns:svg="http://www.w3.org/2000/svg"
   xmlns="http://www.w3.org/2000/svg"
   xmlns:sodipodi="http://sodipodi.sourceforge.net/DTD/sodipodi-0.dtd"
   xmlns:inkscape="http://www.inkscape.org/namespaces/inkscape"
   id="svg2"
   height="1050"
   width="1500"
   y="0.00000000"
   x="0.00000000"
   version="1.0"
   inkscape:version="0.48.4 r9939"
   sodipodi:docname="Flag_of_West_Papua_(vectorised).svg">
  <title
     id="title8154">Papua Flag</title>
  <metadata
     id="metadata13">
    <rdf:RDF>
      <cc:Work
         rdf:about="">
        <dc:format>image/svg+xml</dc:format>
        <dc:type
           rdf:resource="http://purl.org/dc/dcmitype/StillImage" />
        <dc:title>Papua Flag</dc:title>
      </cc:Work>
    </rdf:RDF>
  </metadata>
  <sodipodi:namedview
     pagecolor="#ffffff"
     bordercolor="#666666"
     borderopacity="1"
     objecttolerance="10"
     gridtolerance="10"
     guidetolerance="10"
     inkscape:pageopacity="0"
     inkscape:pageshadow="2"
     inkscape:window-width="1024"
     inkscape:window-height="538"
     id="namedview11"
     showgrid="false"
     inkscape:zoom="0.35355339"
     inkscape:cx="812.39237"
     inkscape:cy="490.86077"
     inkscape:window-x="-8"
     inkscape:window-y="-8"
     inkscape:window-maximized="1"
     inkscape:current-layer="svg2" />
  <defs
     id="defs3">
    <clipPath
       id="Clip0">
      <path
         inkscape:connector-curvature="0"
         d="m 0,0 449.104,0 0,506.999 L 0,506.999 0,0 z"
         transform="translate(-0.0520002,0)"
         id="path6071" />
    </clipPath>
    <clipPath
       id="Clip1">
      <path
         inkscape:connector-curvature="0"
         d="m 0,0 449.104,0 0,506.999 L 0,506.999 0,0 z"
         transform="translate(-0.0520002,0)"
         id="path6074" />
    </clipPath>
    <clipPath
       id="Clip2">
      <path
         inkscape:connector-curvature="0"
         d="m 0,0 449.104,0 0,506.999 L 0,506.999 0,0 z"
         transform="translate(-0.0520002,0)"
         id="path6077" />
    </clipPath>
    <clipPath
       id="Clip3">
      <path
         inkscape:connector-curvature="0"
         d="m 0,0 449.104,0 0,506.999 L 0,506.999 0,0 z"
         transform="translate(-0.0520002,0)"
         id="path6080" />
    </clipPath>
    <clipPath
       id="Clip4">
      <path
         inkscape:connector-curvature="0"
         d="m 0,0 375.752,0 0,121.393 L 0,121.393 0,0 z"
         transform="translate(36.6242,16.5161)"
         id="path6083" />
    </clipPath>
    <clipPath
       id="Clip5">
      <path
         inkscape:connector-curvature="0"
         d="m 0,0 360.456,0 0,411.566 L 0,411.566 0,0 z"
         transform="translate(44.2732,73.2731)"
         id="path6086" />
    </clipPath>
    <clipPath
       id="Clip6">
      <path
         inkscape:connector-curvature="0"
         d="m 0,0 151.719,0 0,42.3673 L 0,42.3673 0,0 z"
         transform="translate(148.64,423.044)"
         id="path6089" />
    </clipPath>
    <clipPath
       id="Clip7">
      <path
         inkscape:connector-curvature="0"
         d="m 0,0 151.719,0 0,21.7837 L 0,21.7837 0,0 z"
         transform="translate(148.64,423.044)"
         id="path6092" />
    </clipPath>
    <clipPath
       id="Clip8">
      <path
         inkscape:connector-curvature="0"
         d="m 0,0 106.883,0 0,17.6682 L 0,17.6682 0,0 z"
         transform="translate(171.305,447.743)"
         id="path6095" />
    </clipPath>
    <clipPath
       id="Clip9">
      <path
         inkscape:connector-curvature="0"
         d="m 0,0 21.8321,0 0,38.7308 L 0,38.7308 0,0 z"
         transform="translate(213.585,83.8204)"
         id="path6098" />
    </clipPath>
    <clipPath
       id="Clip10">
      <path
         inkscape:connector-curvature="0"
         d="m 0,0 21.8321,0 0,38.7308 L 0,38.7308 0,0 z"
         transform="translate(213.585,83.8204)"
         id="path6101" />
    </clipPath>
    <clipPath
       id="Clip11">
      <path
         inkscape:connector-curvature="0"
         d="m 0,0 347.946,0 0,283.328 L 0,283.328 0,0 z"
         transform="translate(51.5802,141.46)"
         id="path6104" />
    </clipPath>
    <clipPath
       id="Clip12">
      <path
         inkscape:connector-curvature="0"
         d="m 0,0 172.369,0 0,281.852 L 0,281.852 0,0 z"
         transform="translate(227.157,141.46)"
         id="path6107" />
    </clipPath>
    <clipPath
       id="Clip13">
      <path
         inkscape:connector-curvature="0"
         d="m 0,0 118.825,0 0,241.064 L 0,241.064 0,0 z"
         transform="translate(280.701,141.46)"
         id="path6110" />
    </clipPath>
    <clipPath
       id="Clip14">
      <path
         inkscape:connector-curvature="0"
         d="m 0,0 167.123,0 0,280.261 L 0,280.261 0,0 z"
         transform="translate(227.157,143.051)"
         id="path6113" />
    </clipPath>
    <clipPath
       id="Clip15">
      <path
         inkscape:connector-curvature="0"
         d="m 0,0 84.8794,0 0,269.523 L 0,269.523 0,0 z"
         transform="translate(307.307,148.911)"
         id="path6116" />
    </clipPath>
    <clipPath
       id="Clip16">
      <path
         inkscape:connector-curvature="0"
         d="m 0,0 172.318,0 0,276.427 L 0,276.427 0,0 z"
         transform="translate(51.5802,148.36)"
         id="path6119" />
    </clipPath>
    <clipPath
       id="Clip17">
      <path
         inkscape:connector-curvature="0"
         d="m 0,0 120.379,0 0,276.427 L 0,276.427 0,0 z"
         transform="translate(51.5802,148.36)"
         id="path6122" />
    </clipPath>
    <clipPath
       id="Clip18">
      <path
         inkscape:connector-curvature="0"
         d="m 0,0 37.5702,0 0,62.8958 L 0,62.8958 0,0 z"
         transform="translate(134.389,361.892)"
         id="path6125" />
    </clipPath>
    <clipPath
       id="Clip19">
      <path
         inkscape:connector-curvature="0"
         d="m 0,0 49.6282,0 0,57.2181 L 0,57.2181 0,0 z"
         transform="translate(109.587,366.577)"
         id="path6128" />
    </clipPath>
    <clipPath
       id="Clip20">
      <path
         inkscape:connector-curvature="0"
         d="m 0,0 11.5451,0 0,22.7558 L 0,22.7558 0,0 z"
         transform="translate(134.866,372.046)"
         id="path6131" />
    </clipPath>
    <clipPath
       id="Clip21">
      <path
         inkscape:connector-curvature="0"
         d="m 0,0 19.4461,0 0,22.1798 L 0,22.1798 0,0 z"
         transform="translate(129.036,149.684)"
         id="path6134" />
    </clipPath>
    <clipPath
       id="Clip22">
      <path
         inkscape:connector-curvature="0"
         d="m 0,0 19.7111,0 0,30.5528 L 0,30.5528 0,0 z"
         transform="translate(111.084,148.36)"
         id="path6137" />
    </clipPath>
    <clipPath
       id="Clip23">
      <path
         inkscape:connector-curvature="0"
         d="m 0,0 28.9001,0 0,21.1546 L 0,21.1546 0,0 z"
         transform="translate(116.628,166.639)"
         id="path6140" />
    </clipPath>
    <clipPath
       id="Clip24">
      <path
         inkscape:connector-curvature="0"
         d="m 0,0 18.6971,0 0,20.8866 L 0,20.8866 0,0 z"
         transform="translate(112.373,165.069)"
         id="path6143" />
    </clipPath>
    <clipPath
       id="Clip25">
      <path
         inkscape:connector-curvature="0"
         d="m 0,0 36.9502,0 0,19.4414 L 0,19.4414 0,0 z"
         transform="translate(101.252,185.009)"
         id="path6146" />
    </clipPath>
    <clipPath
       id="Clip26">
      <path
         inkscape:connector-curvature="0"
         d="m 0,0 16.0371,0 0,34.5973 L 0,34.5973 0,0 z"
         transform="translate(99.4234,159.118)"
         id="path6149" />
    </clipPath>
    <clipPath
       id="Clip27">
      <path
         inkscape:connector-curvature="0"
         d="m 0,0 14.3841,0 0,40.137 L 0,40.137 0,0 z"
         transform="translate(89.6594,164.067)"
         id="path6152" />
    </clipPath>
    <clipPath
       id="Clip28">
      <path
         inkscape:connector-curvature="0"
         d="m 0,0 13.3701,0 0,20.5826 L 0,20.5826 0,0 z"
         transform="translate(102.697,179.471)"
         id="path6155" />
    </clipPath>
    <clipPath
       id="Clip29">
      <path
         inkscape:connector-curvature="0"
         d="m 0,0 34.3972,0 0,18.7843 L 0,18.7843 0,0 z"
         transform="translate(90.6494,202.397)"
         id="path6158" />
    </clipPath>
    <clipPath
       id="Clip30">
      <path
         inkscape:connector-curvature="0"
         d="m 0,0 15.1691,0 0,39.1509 L 0,39.1509 0,0 z"
         transform="translate(79.0674,182.529)"
         id="path6161" />
    </clipPath>
    <clipPath
       id="Clip31">
      <path
         inkscape:connector-curvature="0"
         d="m 0,0 32.3481,0 0,19.7415 L 0,19.7415 0,0 z"
         transform="translate(82.4984,219.183)"
         id="path6164" />
    </clipPath>
    <clipPath
       id="Clip32">
      <path
         inkscape:connector-curvature="0"
         d="m 0,0 14.7801,0 0,25.8042 L 0,25.8042 0,0 z"
         transform="translate(90.3934,190.405)"
         id="path6167" />
    </clipPath>
    <clipPath
       id="Clip33">
      <path
         inkscape:connector-curvature="0"
         d="m 0,0 11.4971,0 0,27.9285 L 0,27.9285 0,0 z"
         transform="translate(83.4524,204.965)"
         id="path6170" />
    </clipPath>
    <clipPath
       id="Clip34">
      <path
         inkscape:connector-curvature="0"
         d="m 0,0 12.6361,0 0,37.5517 L 0,37.5517 0,0 z"
         transform="translate(71.2333,203.674)"
         id="path6173" />
    </clipPath>
    <clipPath
       id="Clip35">
      <path
         inkscape:connector-curvature="0"
         d="m 0,0 29.1311,0 0,25.5062 L 0,25.5062 0,0 z"
         transform="translate(76.6023,235.064)"
         id="path6176" />
    </clipPath>
    <clipPath
       id="Clip36">
      <path
         inkscape:connector-curvature="0"
         d="m 0,0 13.2191,0 0,26.8333 L 0,26.8333 0,0 z"
         transform="translate(76.7963,222.724)"
         id="path6179" />
    </clipPath>
    <clipPath
       id="Clip37">
      <path
         inkscape:connector-curvature="0"
         d="m 0,0 12.6951,0 0,25.9312 L 0,25.9312 0,0 z"
         transform="translate(71.5883,238.412)"
         id="path6182" />
    </clipPath>
    <clipPath
       id="Clip38">
      <path
         inkscape:connector-curvature="0"
         d="m 0,0 13.3921,0 0,47.7839 L 0,47.7839 0,0 z"
         transform="translate(64.9613,214.848)"
         id="path6185" />
    </clipPath>
    <clipPath
       id="Clip39">
      <path
         inkscape:connector-curvature="0"
         d="m 0,0 24.0211,0 0,29.4717 L 0,29.4717 0,0 z"
         transform="translate(74.3013,250.359)"
         id="path6188" />
    </clipPath>
    <clipPath
       id="Clip40">
      <path
         inkscape:connector-curvature="0"
         d="m 0,0 16.6391,0 0,44.9266 L 0,44.9266 0,0 z"
         transform="translate(56.6113,233.681)"
         id="path6191" />
    </clipPath>
    <clipPath
       id="Clip41">
      <path
         inkscape:connector-curvature="0"
         d="m 0,0 11.8501,0 0,34.1222 L 0,34.1222 0,0 z"
         transform="translate(67.4573,251.454)"
         id="path6194" />
    </clipPath>
    <clipPath
       id="Clip42">
      <path
         inkscape:connector-curvature="0"
         d="m 0,0 18.4251,0 0,36.5415 L 0,36.5415 0,0 z"
         transform="translate(51.8012,258.963)"
         id="path6197" />
    </clipPath>
    <clipPath
       id="Clip43">
      <path
         inkscape:connector-curvature="0"
         d="m 0,0 26.0881,0 0,31.3009 L 0,31.3009 0,0 z"
         transform="translate(69.6383,270.047)"
         id="path6200" />
    </clipPath>
    <clipPath
       id="Clip44">
      <path
         inkscape:connector-curvature="0"
         d="m 0,0 16.1711,0 0,32.306 L 0,32.306 0,0 z"
         transform="translate(66.1983,271.509)"
         id="path6203" />
    </clipPath>
    <clipPath
       id="Clip45">
      <path
         inkscape:connector-curvature="0"
         d="m 0,0 26.5611,0 0,33.3721 L 0,33.3721 0,0 z"
         transform="translate(71.3903,283.166)"
         id="path6206" />
    </clipPath>
    <clipPath
       id="Clip46">
      <path
         inkscape:connector-curvature="0"
         d="m 0,0 20.6411,0 0,35.2394 L 0,35.2394 0,0 z"
         transform="translate(51.5802,277.992)"
         id="path6209" />
    </clipPath>
    <clipPath
       id="Clip47">
      <path
         inkscape:connector-curvature="0"
         d="m 0,0 12.5761,0 0,31.1329 L 0,31.1329 0,0 z"
         transform="translate(65.7213,290.717)"
         id="path6212" />
    </clipPath>
    <clipPath
       id="Clip48">
      <path
         inkscape:connector-curvature="0"
         d="m 0,0 23.3801,0 0,34.2233 L 0,34.2233 0,0 z"
         transform="translate(73.5903,299.882)"
         id="path6215" />
    </clipPath>
    <clipPath
       id="Clip49">
      <path
         inkscape:connector-curvature="0"
         d="m 0,0 24.7921,0 0,31.0439 L 0,31.0439 0,0 z"
         transform="translate(53.1512,300.189)"
         id="path6218" />
    </clipPath>
    <clipPath
       id="Clip50">
      <path
         inkscape:connector-curvature="0"
         d="m 0,0 14.3671,0 0,30.5618 L 0,30.5618 0,0 z"
         transform="translate(66.9443,304.834)"
         id="path6221" />
    </clipPath>
    <clipPath
       id="Clip51">
      <path
         inkscape:connector-curvature="0"
         d="m 0,0 23.8721,0 0,35.0694 L 0,35.0694 0,0 z"
         transform="translate(76.8613,312.724)"
         id="path6224" />
    </clipPath>
    <clipPath
       id="Clip52">
      <path
         inkscape:connector-curvature="0"
         d="m 0,0 29.1471,0 0,32.6061 L 0,32.6061 0,0 z"
         transform="translate(52.7052,316.906)"
         id="path6227" />
    </clipPath>
    <clipPath
       id="Clip53">
      <path
         inkscape:connector-curvature="0"
         d="m 0,0 22.2611,0 0,30.5358 L 0,30.5358 0,0 z"
         transform="translate(68.9163,325.453)"
         id="path6230" />
    </clipPath>
    <clipPath
       id="Clip54">
      <path
         inkscape:connector-curvature="0"
         d="m 0,0 20.4371,0 0,39.4379 L 0,39.4379 0,0 z"
         transform="translate(82.6054,322.868)"
         id="path6233" />
    </clipPath>
    <clipPath
       id="Clip55">
      <path
         inkscape:connector-curvature="0"
         d="m 0,0 32.8791,0 0,26.0342 L 0,26.0342 0,0 z"
         transform="translate(58.4433,339.599)"
         id="path6236" />
    </clipPath>
    <clipPath
       id="Clip56">
      <path
         inkscape:connector-curvature="0"
         d="m 0,0 38.4052,0 0,16.6651 L 0,16.6651 0,0 z"
         transform="translate(62.6203,358.07)"
         id="path6239" />
    </clipPath>
    <clipPath
       id="Clip57">
      <path
         inkscape:connector-curvature="0"
         d="m 0,0 37.4492,0 0,16.6321 L 0,16.6321 0,0 z"
         transform="translate(70.1933,367.248)"
         id="path6242" />
    </clipPath>
    <clipPath
       id="Clip58">
      <path
         inkscape:connector-curvature="0"
         d="m 0,0 11.5211,0 0,39.0509 L 0,39.0509 0,0 z"
         transform="translate(107.637,343.156)"
         id="path6245" />
    </clipPath>
    <clipPath
       id="Clip59">
      <path
         inkscape:connector-curvature="0"
         d="m 0,0 28.5901,0 0,12.2335 L 0,12.2335 0,0 z"
         transform="translate(85.6644,379.619)"
         id="path6248" />
    </clipPath>
    <clipPath
       id="Clip60">
      <path
         inkscape:connector-curvature="0"
         d="m 0,0 28.6571,0 0,63.4669 L 0,63.4669 0,0 z"
         transform="translate(111.048,329.33)"
         id="path6251" />
    </clipPath>
    <clipPath
       id="Clip61">
      <path
         inkscape:connector-curvature="0"
         d="m 0,0 68.7583,0 0,27.9685 L 0,27.9685 0,0 z"
         transform="translate(63.3293,383.573)"
         id="path6254" />
    </clipPath>
    <clipPath
       id="Clip62">
      <path
         inkscape:connector-curvature="0"
         d="m 0,0 67.9933,0 0,20.1695 L 0,20.1695 0,0 z"
         transform="translate(65.8903,394.288)"
         id="path6257" />
    </clipPath>
    <clipPath
       id="Clip63">
      <path
         inkscape:connector-curvature="0"
         d="m 0,0 26.3211,0 0,26.5853 L 0,26.5853 0,0 z"
         transform="translate(77.2423,345.262)"
         id="path6260" />
    </clipPath>
    <clipPath
       id="Clip64">
      <path
         inkscape:connector-curvature="0"
         d="m 0,0 14.2551,0 0,37.3336 L 0,37.3336 0,0 z"
         transform="translate(94.5774,336.909)"
         id="path6263" />
    </clipPath>
    <clipPath
       id="Clip65">
      <path
         inkscape:connector-curvature="0"
         d="m 0,0 125.11,0 0,28.7746 L 0,28.7746 0,0 z"
         transform="translate(98.7884,368.766)"
         id="path6266" />
    </clipPath>
    <clipPath
       id="Clip66">
      <path
         inkscape:connector-curvature="0"
         d="m 0,0 68.2533,0 0,61.6847 L 0,61.6847 0,0 z"
         transform="translate(189.884,361.401)"
         id="path6269" />
    </clipPath>
    <clipPath
       id="Clip67">
      <path
         inkscape:connector-curvature="0"
         d="m 0,0 68.2533,0 0,61.6847 L 0,61.6847 0,0 z"
         transform="translate(189.884,361.401)"
         id="path6272" />
    </clipPath>
    <clipPath
       id="Clip68">
      <path
         inkscape:connector-curvature="0"
         d="m 0,0 32.6251,0 0,28.7046 L 0,28.7046 0,0 z"
         transform="translate(190.346,394.381)"
         id="path6275" />
    </clipPath>
    <clipPath
       id="Clip69">
      <path
         inkscape:connector-curvature="0"
         d="m 0,0 32.6251,0 0,28.7046 L 0,28.7046 0,0 z"
         transform="translate(190.346,394.381)"
         id="path6278" />
    </clipPath>
    <clipPath
       id="Clip70">
      <path
         inkscape:connector-curvature="0"
         d="m 0,0 68.2533,0 0,61.6847 L 0,61.6847 0,0 z"
         transform="translate(189.884,361.401)"
         id="path6281" />
    </clipPath>
    <clipPath
       id="Clip71">
      <path
         inkscape:connector-curvature="0"
         d="m 0,0 33.8122,0 0,34.9513 L 0,34.9513 0,0 z"
         transform="translate(224.325,361.401)"
         id="path6284" />
    </clipPath>
    <clipPath
       id="Clip72">
      <path
         inkscape:connector-curvature="0"
         d="m 0,0 33.8122,0 0,34.9523 L 0,34.9523 0,0 z"
         transform="translate(189.884,361.401)"
         id="path6287" />
    </clipPath>
    <clipPath
       id="Clip73">
      <path
         inkscape:connector-curvature="0"
         d="m 0,0 32.6241,0 0,28.7046 L 0,28.7046 0,0 z"
         transform="translate(225.454,394.381)"
         id="path6290" />
    </clipPath>
    <clipPath
       id="Clip74">
      <path
         inkscape:connector-curvature="0"
         d="m 0,0 21.5711,0 0,22.2418 L 0,22.2418 0,0 z"
         transform="translate(213.428,382.386)"
         id="path6293" />
    </clipPath>
    <clipPath
       id="Clip75">
      <path
         inkscape:connector-curvature="0"
         d="m 0,0 126.457,0 0,237.208 L 0,237.208 0,0 z"
         transform="translate(161.272,121.045)"
         id="path6296" />
    </clipPath>
    <clipPath
       id="Clip76">
      <path
         inkscape:connector-curvature="0"
         d="m 0,0 76.8453,0 0,26.6153 L 0,26.6153 0,0 z"
         transform="translate(185.669,313.723)"
         id="path6299" />
    </clipPath>
    <clipPath
       id="Clip77">
      <path
         inkscape:connector-curvature="0"
         d="m 0,0 9.78404,0 0,14.5528 L 0,14.5528 0,0 z"
         transform="translate(219.301,325.389)"
         id="path6302" />
    </clipPath>
    <clipPath
       id="Clip78">
      <path
         inkscape:connector-curvature="0"
         d="m 0,0 126.457,0 0,20.8366 L 0,20.8366 0,0 z"
         transform="translate(161.272,337.417)"
         id="path6305" />
    </clipPath>
    <clipPath
       id="Clip79">
      <path
         inkscape:connector-curvature="0"
         d="m 0,0 126.457,0 0,16.4 L 0,16.4 0,0 z"
         transform="translate(161.272,327.906)"
         id="path6308" />
    </clipPath>
    <clipPath
       id="Clip80">
      <path
         inkscape:connector-curvature="0"
         d="m 0,0 36.5612,0 0,181.497 L 0,181.497 0,0 z"
         transform="translate(206.494,121.045)"
         id="path6311" />
    </clipPath>
    <clipPath
       id="Clip81">
      <path
         inkscape:connector-curvature="0"
         d="m 0,0 106.548,0 0,14.1768 L 0,14.1768 0,0 z"
         transform="translate(170.386,300.942)"
         id="path6314" />
    </clipPath>
    <clipPath
       id="Clip82">
      <path
         inkscape:connector-curvature="0"
         d="m 0,0 341.914,0 0,26.5323 L 0,26.5323 0,0 z"
         transform="translate(53.5432,29.5247)"
         id="path6317" />
    </clipPath>
    <clipPath
       id="Clip83">
      <path
         inkscape:connector-curvature="0"
         d="m 0,0 147.119,0 0,26.5323 L 0,26.5323 0,0 z"
         transform="translate(53.5432,29.5247)"
         id="path6320" />
    </clipPath>
    <clipPath
       id="Clip84">
      <path
         inkscape:connector-curvature="0"
         d="m 0,0 153.063,0 0,26.1072 L 0,26.1072 0,0 z"
         transform="translate(242.394,29.5247)"
         id="path6323" />
    </clipPath>
    <clipPath
       id="Clip85">
      <path
         inkscape:connector-curvature="0"
         d="m 0,0 449.104,0 0,506.999 L 0,506.999 0,0 z"
         transform="translate(-0.0520002,0)"
         id="path6326" />
    </clipPath>
    <radialGradient
       id="SVGID_1_"
       cx="183.35249"
       cy="278.8306"
       r="166.2702"
       gradientUnits="userSpaceOnUse">
      <stop
         offset="0.3152"
         style="stop-color:#FFFFFF"
         id="stop4410" />
      <stop
         offset="1"
         style="stop-color:#71CFEB"
         id="stop4412" />
    </radialGradient>
  </defs>
  <g
     id="g5177">
    <g
       style="stroke:none"
       transform="matrix(1,0,0,1.0499944,0,0.00185382)"
       id="layer1">
      <rect
         width="1500"
         height="1000"
         x="0"
         y="0"
         style="fill:#ffffff;fill-opacity:1;stroke:none"
         id="rect3635" />
    </g>
    <g
       id="g5044">
      <g
         transform="matrix(1.2619454,0,0,1.28506,374.8797,139.37004)"
         id="g13230">
        <g
           id="g13232">
          <path
             style="fill:#2e3192"
             inkscape:connector-curvature="0"
             d="m 455.008,133.217 c 0,-22.422 15.121,-38.066 15.121,-38.066 l -17.748,-17.75 h -309.55 l -17.75,17.75 c 0,0 15.122,15.644 15.122,38.066 0,10.64 0,62.614 0,116.247 h 314.805 c 0,-53.633 0,-105.608 0,-116.247 z"
             id="path13234" />
          <path
             style="fill:#ef4123;stroke:#981b1e;stroke-width:2;stroke-linecap:round;stroke-linejoin:round"
             inkscape:connector-curvature="0"
             d="m 140.203,249.463 c 0,59.386 0,120.804 0,130.396 0,28.68 23.791,60.268 50.582,67.787 29.723,8.344 78.217,8.863 106.375,40.15 h 0.894 c 28.156,-31.287 76.65,-31.809 106.373,-40.15 26.791,-7.52 50.582,-39.107 50.582,-67.787 0,-9.592 0,-71.01 0,-130.396 H 140.203 l 0,0 z"
             id="path13236" />
        </g>
        <path
           style="fill:#008857"
           inkscape:connector-curvature="0"
           d="m 144.65,247.847 c 0,0 30.771,-23.194 53.275,-46.617 22.505,-23.423 42.112,-42.712 45.327,-44.549 3.215,-1.838 4.274,1.377 7.489,1.377 3.215,0 2.296,0.918 3.215,0 0.918,-0.918 9.186,-5.512 9.186,-5.512 0,0 4.135,0 5.512,1.837 1.377,1.837 3.215,3.216 4.592,2.297 1.377,-0.919 3.674,-3.675 6.43,-3.675 2.757,0 4.595,-1.378 6.891,0 2.295,1.378 2.294,1.837 5.051,1.837 2.756,0 7.349,1.378 8.727,-0.918 1.379,-2.296 -1.837,-1.837 4.134,-1.837 5.972,0 8.726,3.214 10.104,3.674 1.379,0.46 4.134,1.838 4.134,1.838 0,0 0.919,-3.675 3.675,-3.675 2.756,0 2.297,0.918 6.89,0.918 4.593,0 7.348,0.459 9.186,0 1.837,-0.459 3.214,1.838 11.482,6.89 8.268,5.052 22.046,22.045 38.579,36.742 16.532,14.697 60.624,49.373 60.624,49.373 H 144.65 l 0,0 z"
           id="path13238" />
        <g
           id="g13240">
          <g
             id="g13242">
            <path
               style="fill:#005e3a"
               inkscape:connector-curvature="0"
               d="M 449.219,248.782 H 144.718 c -0.452,0 -0.854,-0.29 -0.998,-0.719 -0.145,-0.43 0.003,-0.903 0.364,-1.175 0.307,-0.231 30.964,-23.414 53.15,-46.506 19.794,-20.603 41.8,-42.584 45.563,-44.734 0.831,-0.476 1.614,-0.706 2.396,-0.706 1.178,0 2.078,0.517 2.948,1.016 0.832,0.478 1.616,0.929 2.669,0.929 1.324,0 2.06,0.152 2.493,0.287 1.022,-0.982 7.439,-4.58 9.396,-5.666 0.156,-0.087 0.332,-0.133 0.511,-0.133 0.478,0 4.709,0.063 6.354,2.259 0.986,1.316 2.082,2.168 2.788,2.168 0.14,0 0.26,-0.037 0.378,-0.116 0.291,-0.194 0.664,-0.514 1.095,-0.884 1.461,-1.252 3.461,-2.967 5.918,-2.967 0.871,0 1.667,-0.16 2.438,-0.314 0.729,-0.146 1.483,-0.298 2.259,-0.298 0.985,0 1.881,0.25 2.735,0.763 0.481,0.289 0.865,0.539 1.193,0.753 1.16,0.754 1.435,0.934 3.316,0.934 0.778,0 1.646,0.097 2.563,0.199 0.935,0.104 1.898,0.211 2.767,0.211 1.795,0 2.282,-0.466 2.493,-0.817 0.282,-0.471 0.248,-0.648 0.218,-0.806 -0.037,-0.185 -0.134,-0.676 0.223,-1.109 0.389,-0.471 0.953,-0.471 1.407,-0.471 0.192,0 0.442,0.004 0.766,0.011 0.558,0.011 1.337,0.026 2.425,0.026 4.773,0 7.633,1.919 9.342,3.066 0.453,0.304 0.879,0.59 1.096,0.662 0.884,0.295 2.262,0.926 3.213,1.38 0.598,-1.327 1.88,-3.271 4.262,-3.271 1.354,0 2.068,0.211 2.757,0.416 0.796,0.236 1.697,0.503 4.133,0.503 1.777,0 3.254,0.066 4.558,0.125 2.021,0.091 3.503,0.124 4.373,-0.094 0.235,-0.059 0.475,-0.089 0.709,-0.089 1.24,0 2.271,0.748 4.328,2.238 1.606,1.166 3.81,2.762 7.25,4.863 4.659,2.849 11.024,9.395 18.396,16.975 6.058,6.231 12.925,13.294 20.334,19.879 16.32,14.508 60.136,48.985 60.575,49.332 0.354,0.278 0.491,0.749 0.346,1.173 -0.151,0.423 -0.551,0.707 -0.999,0.707 l 0,0 z M 147.82,246.676 h 298.361 c -9.414,-7.435 -44.133,-34.95 -58.287,-47.532 -7.466,-6.637 -14.36,-13.728 -20.444,-19.985 -7.271,-7.478 -13.549,-13.936 -17.984,-16.646 -3.51,-2.145 -5.752,-3.77 -7.387,-4.956 -1.58,-1.145 -2.535,-1.837 -3.092,-1.837 -0.064,0 -0.129,0.009 -0.199,0.026 -1.119,0.28 -2.67,0.259 -4.979,0.154 -1.278,-0.058 -2.73,-0.123 -4.461,-0.123 -2.741,0 -3.844,-0.327 -4.729,-0.59 -0.619,-0.184 -1.109,-0.329 -2.159,-0.329 -1.88,0 -2.646,2.848 -2.653,2.877 -0.075,0.31 -0.291,0.568 -0.58,0.702 -0.291,0.133 -0.626,0.128 -0.911,-0.015 -0.026,-0.013 -2.705,-1.35 -3.996,-1.78 -0.485,-0.162 -0.979,-0.493 -1.603,-0.911 -1.606,-1.079 -4.035,-2.709 -8.168,-2.709 -1.105,0 -1.898,-0.016 -2.467,-0.027 -0.09,-0.001 -0.174,-0.003 -0.252,-0.005 -0.053,0.373 -0.193,0.827 -0.513,1.358 -1.104,1.84 -3.509,1.84 -4.3,1.84 -0.984,0 -2.009,-0.114 -2.999,-0.225 -0.858,-0.096 -1.668,-0.186 -2.331,-0.186 -2.411,0 -3.072,-0.368 -4.465,-1.275 -0.313,-0.203 -0.674,-0.438 -1.129,-0.712 -1.026,-0.615 -2.068,-0.492 -3.495,-0.205 -0.83,0.167 -1.771,0.355 -2.853,0.355 -1.677,0 -3.269,1.364 -4.547,2.46 -0.483,0.415 -0.901,0.772 -1.298,1.037 -0.467,0.312 -0.987,0.47 -1.547,0.47 -1.929,0 -3.63,-1.887 -4.473,-3.011 -0.723,-0.963 -2.976,-1.363 -4.405,-1.411 -3.919,2.184 -8.188,4.689 -8.705,5.199 -0.4,0.4 -0.717,0.716 -1.272,0.716 -0.262,0 -0.463,-0.081 -0.609,-0.139 -0.219,-0.087 -0.674,-0.269 -2.078,-0.269 -1.614,0 -2.78,-0.67 -3.718,-1.208 -1.188,-0.682 -1.977,-1.035 -3.249,-0.309 -3.066,1.753 -22.873,21.24 -45.092,44.365 -18.622,19.386 -43.16,38.815 -50.932,44.836 l 0,0 z"
               id="path13244" />
          </g>
          <path
             style="fill:#005e3a"
             inkscape:connector-curvature="0"
             d="m 349.371,203.072 c 0,0 -6.227,-8.741 -11.789,-15.232 -5.563,-6.491 -7.417,-11.789 -10.596,-15.763 -3.181,-3.974 -8.203,-14.597 -8.203,-14.597 l -5.838,-2.358 c 0,0 5.96,9.404 6.755,11.789 0.796,2.384 8.477,17.087 12.317,20.133 3.843,3.047 7.285,9.272 8.479,11.392 1.191,2.12 7.285,4.636 8.875,4.636 z"
             id="path13246" />
          <path
             style="fill:#005e3a"
             inkscape:connector-curvature="0"
             d="m 219.43,196.714 c 0,0 20.266,-16.027 23.18,-18.147 2.914,-2.119 9.801,-6.093 12.317,-8.609 2.518,-2.517 9.404,-9.14 11.26,-11.127 1.854,-1.986 2.537,-4.565 2.537,-4.565 0,0 1.568,2.579 2.895,2.711 1.325,0.133 2.251,-0.265 2.251,-0.265 l 3.842,-3.179 c 0,0 -9.537,12.053 -13.643,15.365 -4.106,3.312 -12.318,10.596 -13.113,13.378 -0.795,2.782 -3.312,6.623 -3.842,6.623 -0.53,0 -2.913,0.663 -1.854,-1.986 1.06,-2.649 1.854,-6.358 1.854,-6.358 0,0 -9.536,5.431 -10.861,6.888 -1.325,1.457 -2.251,5.034 -5.431,6.755 -3.18,1.721 -11.392,2.516 -11.392,2.516 z"
             id="path13248" />
          <path
             style="fill:#005e3a"
             inkscape:connector-curvature="0"
             d="m 289.632,176.315 c -0.396,0.133 -1.721,2.649 -4.503,2.649 -2.781,0 -5.033,-0.397 -5.695,0.265 -0.663,0.662 -1.723,0.663 -0.397,-1.59 1.325,-2.252 5.695,-6.49 5.695,-6.49 0,0 0.264,4.106 1.722,4.106 1.458,0 3.178,1.06 3.178,1.06 z"
             id="path13250" />
          <path
             style="fill:#005e3a"
             inkscape:connector-curvature="0"
             d="m 302.083,172.209 c 1.06,-0.132 2.383,1.192 2.251,2.119 -0.131,0.927 0.53,4.901 0.53,4.901 0,0 0.796,0.265 -1.854,0.265 -2.649,0 -4.636,-0.795 -5.563,-1.325 -0.927,-0.53 -3.046,-1.324 -1.59,-1.987 1.457,-0.662 2.914,-1.457 4.105,-1.854 1.194,-0.397 2.121,-2.119 2.121,-2.119 z"
             id="path13252" />
          <path
             style="fill:#005e3a"
             inkscape:connector-curvature="0"
             d="m 278.506,174.064 c 0,0 -3.047,2.914 -3.047,4.636 0,1.722 0.794,4.239 -1.458,4.372 -2.251,0.132 -2.779,0.264 -4.37,0.396 -1.59,0.133 -2.647,0.265 -4.238,0.265 -1.592,0 -2.914,-0.927 -2.914,-1.589 0,-0.663 2.915,0.131 4.769,-0.795 1.854,-0.926 3.709,-2.252 3.974,-3.841 0.265,-1.589 1.06,-3.179 2.913,-3.841 1.854,-0.663 4.371,0.397 4.371,0.397 z"
             id="path13254" />
        </g>
        <g
           id="g13256">
          <g
             id="g13258">
            <polygon
               style="fill:#ffffff;stroke:#636466;stroke-width:3;stroke-linecap:round;stroke-linejoin:round"
               points="245.683,345.482 245.683,356.703 242.557,356.703 242.557,373.185 257.995,373.185 257.995,356.892 258.02,356.892 258.02,373.185 273.458,373.185 273.458,356.892 273.483,356.892 273.483,373.185 288.92,373.185 288.92,356.892 288.945,356.892 288.945,373.185 304.383,373.185 304.383,356.892 304.407,356.892 304.407,373.185 319.845,373.185 319.845,356.892 319.871,356.892 319.871,373.185 335.308,373.185 335.308,356.892 335.334,356.892 335.334,373.185 350.771,373.185 350.771,356.703 347.643,356.703 347.643,345.482 330.654,345.482 330.635,345.482 328.488,345.482 328.488,336.769 339.463,329.378 333.416,263.09 326.474,256.819 319.531,263.09 313.486,329.378 324.459,336.769 324.459,345.482 313.664,345.482 313.644,345.482 298.68,345.482 298.68,336.769 309.653,329.378 303.605,263.09 296.664,256.819 289.723,263.09 283.675,329.378 294.649,336.769 294.649,345.482 279.683,345.482 279.664,345.482 268.869,345.482 268.869,336.769 279.843,329.378 273.796,263.09 266.854,256.82 266.854,256.819 266.854,256.819 266.854,256.819 266.854,256.82 259.912,263.09 253.866,329.378 264.839,336.769 264.839,345.482 262.692,345.482 262.673,345.482 "
               id="polygon13260" />
            <rect
               style="fill:#ffffff;stroke:#636466;stroke-width:3;stroke-linecap:round;stroke-linejoin:round"
               x="227.09399"
               y="356.703"
               width="15.438"
               height="16.48"
               id="rect13262" />
            <rect
               style="fill:#ffffff;stroke:#636466;stroke-width:3;stroke-linecap:round;stroke-linejoin:round"
               x="350.797"
               y="356.703"
               width="15.438"
               height="16.48"
               id="rect13264" />
          </g>
          <g
             id="g13266">
            <g
               id="g13268">
              <g
                 id="g13270">
                <polygon
                   style="fill:#a7b6bf;stroke:#636466;stroke-width:1.5;stroke-linecap:round;stroke-linejoin:round"
                   points="253.866,329.378 259.912,263.09 266.854,256.819 266.854,347.07 264.839,347.07 264.839,336.769 "
                   id="polygon13272" />
                <polygon
                   style="fill:#ffffff;stroke:#636466;stroke-width:1.5;stroke-linecap:round;stroke-linejoin:round"
                   points="279.843,329.378 273.796,263.09 266.854,256.819 266.854,347.07 268.869,347.07 268.869,336.769 "
                   id="polygon13274" />
              </g>
              <g
                 id="g13276">
                <polygon
                   style="fill:#a7b6bf;stroke:#636466;stroke-width:1.5;stroke-linecap:round;stroke-linejoin:round"
                   points="283.675,329.378 289.723,263.09 296.664,256.819 296.664,347.07 294.649,347.07 294.649,336.769 "
                   id="polygon13278" />
                <polygon
                   style="fill:#ffffff;stroke:#636466;stroke-width:1.5;stroke-linecap:round;stroke-linejoin:round"
                   points="309.653,329.378 303.605,263.09 296.664,256.819 296.664,347.07 298.68,347.07 298.68,336.769 "
                   id="polygon13280" />
              </g>
              <g
                 id="g13282">
                <polygon
                   style="fill:#a7b6bf;stroke:#636466;stroke-width:1.5;stroke-linecap:round;stroke-linejoin:round"
                   points="313.486,329.378 319.531,263.09 326.474,256.819 326.474,347.07 324.459,347.07 324.459,336.769 "
                   id="polygon13284" />
                <polygon
                   style="fill:#ffffff;stroke:#636466;stroke-width:1.5;stroke-linecap:round;stroke-linejoin:round"
                   points="339.463,329.378 333.416,263.09 326.474,256.819 326.474,347.07 328.488,347.07 328.488,336.769 "
                   id="polygon13286" />
              </g>
            </g>
            <g
               id="g13288">
              <rect
                 style="fill:#ffffff;stroke:#636466;stroke-width:1.5;stroke-linecap:round;stroke-linejoin:round"
                 x="245.683"
                 y="345.48199"
                 width="17.009001"
                 height="11.41"
                 id="rect13290" />
              <rect
                 style="fill:#ffffff;stroke:#636466;stroke-width:1.5;stroke-linecap:round;stroke-linejoin:round"
                 x="262.673"
                 y="345.48199"
                 width="17.011"
                 height="11.41"
                 id="rect13292" />
              <rect
                 style="fill:#ffffff;stroke:#636466;stroke-width:1.5;stroke-linecap:round;stroke-linejoin:round"
                 x="279.664"
                 y="345.48199"
                 width="17.01"
                 height="11.41"
                 id="rect13294" />
              <rect
                 style="fill:#ffffff;stroke:#636466;stroke-width:1.5;stroke-linecap:round;stroke-linejoin:round"
                 x="296.655"
                 y="345.48199"
                 width="17.009001"
                 height="11.41"
                 id="rect13296" />
              <rect
                 style="fill:#ffffff;stroke:#636466;stroke-width:1.5;stroke-linecap:round;stroke-linejoin:round"
                 x="313.64401"
                 y="345.48199"
                 width="17.011"
                 height="11.41"
                 id="rect13298" />
              <rect
                 style="fill:#ffffff;stroke:#636466;stroke-width:1.5;stroke-linecap:round;stroke-linejoin:round"
                 x="330.63501"
                 y="345.48199"
                 width="17.009001"
                 height="11.41"
                 id="rect13300" />
            </g>
            <g
               id="g13302">
              <rect
                 style="fill:#ffffff;stroke:#636466;stroke-width:1.5;stroke-linecap:round;stroke-linejoin:round"
                 x="227.09399"
                 y="356.703"
                 width="15.438"
                 height="16.48"
                 id="rect13304" />
              <rect
                 style="fill:#ffffff;stroke:#636466;stroke-width:1.5;stroke-linecap:round;stroke-linejoin:round"
                 x="242.55701"
                 y="356.703"
                 width="15.438"
                 height="16.48"
                 id="rect13306" />
              <rect
                 style="fill:#ffffff;stroke:#636466;stroke-width:1.5;stroke-linecap:round;stroke-linejoin:round"
                 x="258.01999"
                 y="356.703"
                 width="15.438"
                 height="16.48"
                 id="rect13308" />
              <rect
                 style="fill:#ffffff;stroke:#636466;stroke-width:1.5;stroke-linecap:round;stroke-linejoin:round"
                 x="273.483"
                 y="356.703"
                 width="15.437"
                 height="16.48"
                 id="rect13310" />
              <rect
                 style="fill:#ffffff;stroke:#636466;stroke-width:1.5;stroke-linecap:round;stroke-linejoin:round"
                 x="288.94501"
                 y="356.703"
                 width="15.438"
                 height="16.48"
                 id="rect13312" />
              <rect
                 style="fill:#ffffff;stroke:#636466;stroke-width:1.5;stroke-linecap:round;stroke-linejoin:round"
                 x="304.40701"
                 y="356.703"
                 width="15.438"
                 height="16.48"
                 id="rect13314" />
              <rect
                 style="fill:#ffffff;stroke:#636466;stroke-width:1.5;stroke-linecap:round;stroke-linejoin:round"
                 x="319.871"
                 y="356.703"
                 width="15.438"
                 height="16.48"
                 id="rect13316" />
              <rect
                 style="fill:#ffffff;stroke:#636466;stroke-width:1.5;stroke-linecap:round;stroke-linejoin:round"
                 x="335.33401"
                 y="356.703"
                 width="15.438"
                 height="16.48"
                 id="rect13318" />
              <rect
                 style="fill:#ffffff;stroke:#636466;stroke-width:1.5;stroke-linecap:round;stroke-linejoin:round"
                 x="350.797"
                 y="356.703"
                 width="15.438"
                 height="16.48"
                 id="rect13320" />
            </g>
          </g>
        </g>
        <g
           id="g13322">
          <path
             style="fill:#0db14b;stroke:#007236;stroke-width:1.5;stroke-linecap:round;stroke-linejoin:round"
             inkscape:connector-curvature="0"
             d="m 416.702,283.843 c 0.319,-0.369 0.179,-0.939 0.247,-1.382 0.436,-2.813 2.287,-4.315 4.563,-7.133 2.276,-2.816 3.332,-3.675 3.219,-4.896 -0.114,-1.224 -1.709,-3.616 -1.709,-3.616 0,0 0.935,-0.582 1.461,-1.012 0.525,-0.429 1.858,-3.003 1.858,-3.003 l -3.479,-0.071 c 0,0 0.579,-0.907 1.513,-1.489 0.932,-0.582 0.474,-1.791 0.474,-1.791 l -3.236,0.876 c 0,0 -17.742,4.85 -19.293,5.319 -1.55,0.469 -3.564,1.229 -3.564,1.229 0.809,1.538 3.385,2.869 3.385,2.869 l -1.989,1.441 c 1.719,2.115 3.762,2.036 3.762,2.036 0,0 0.566,0.591 0.621,1.953 0.053,1.361 4.039,2.16 7.66,4.133 1.971,1.074 2.579,2.42 2.274,4.541 -0.004,0 1.017,1.406 2.233,-0.004 z"
             id="path13324" />
          <path
             style="fill:#ffffff;stroke:#a5c3d2;stroke-width:1.5"
             inkscape:connector-curvature="0"
             d="m 414.16,257.422 c -0.426,-0.47 -0.947,-0.863 -1.563,-1.142 -2.385,-1.078 -5.189,-0.019 -6.271,2.366 -0.122,0.27 -0.213,0.544 -0.28,0.822 -0.055,-0.028 -0.105,-0.057 -0.162,-0.083 -2.106,-0.954 -4.59,-0.018 -5.542,2.09 -0.954,2.107 -0.019,4.59 2.09,5.543 2.109,0.953 4.591,0.017 5.543,-2.091 0.049,-0.109 0.092,-0.221 0.132,-0.334 0.185,0.119 0.38,0.229 0.587,0.322 2.051,0.93 4.415,0.271 5.721,-1.45 0.305,0.267 0.652,0.496 1.043,0.671 2.107,0.954 4.588,0.018 5.543,-2.092 0.952,-2.108 0.016,-4.589 -2.092,-5.541 -1.664,-0.753 -3.554,-0.326 -4.749,0.919 z"
             id="path13326" />
          <path
             style="fill:#0db14b;stroke:#007236;stroke-width:1.5;stroke-linecap:round;stroke-linejoin:round"
             inkscape:connector-curvature="0"
             d="m 423.761,306.451 c 0.334,-0.385 0.188,-0.982 0.258,-1.445 0.455,-2.938 2.39,-4.509 4.771,-7.456 2.38,-2.943 3.484,-3.843 3.364,-5.121 -0.12,-1.277 -1.785,-3.778 -1.785,-3.778 0,0 0.975,-0.607 1.523,-1.058 0.554,-0.45 1.945,-3.14 1.945,-3.14 l -3.639,-0.075 c 0,0 0.604,-0.948 1.581,-1.557 0.974,-0.608 0.495,-1.872 0.495,-1.872 l -3.384,0.916 c 0,0 -18.549,5.069 -20.17,5.562 -1.619,0.49 -3.727,1.285 -3.727,1.285 0.844,1.608 3.536,2.999 3.536,2.999 l -2.079,1.506 c 1.797,2.211 3.934,2.127 3.934,2.127 0,0 0.593,0.62 0.648,2.043 0.055,1.421 4.223,2.259 8.01,4.32 2.058,1.124 2.695,2.53 2.377,4.748 0.003,0 1.072,1.47 2.342,-0.004 z"
             id="path13328" />
          <path
             style="fill:#ffffff;stroke:#a5c3d2;stroke-width:1.5"
             inkscape:connector-curvature="0"
             d="m 421.102,278.83 c -0.443,-0.491 -0.988,-0.902 -1.632,-1.194 -2.494,-1.126 -5.428,-0.02 -6.557,2.475 -0.127,0.281 -0.223,0.568 -0.293,0.858 -0.059,-0.028 -0.112,-0.06 -0.17,-0.087 -2.202,-0.998 -4.797,-0.019 -5.793,2.186 -0.998,2.202 -0.021,4.799 2.185,5.795 2.203,0.996 4.798,0.018 5.796,-2.187 0.051,-0.115 0.095,-0.23 0.138,-0.35 0.192,0.125 0.396,0.241 0.611,0.337 2.145,0.972 4.616,0.284 5.981,-1.516 0.317,0.278 0.681,0.519 1.089,0.701 2.203,0.996 4.798,0.019 5.795,-2.188 0.995,-2.203 0.018,-4.796 -2.187,-5.792 -1.737,-0.785 -3.714,-0.34 -4.963,0.962 z"
             id="path13330" />
          <path
             style="fill:#0db14b;stroke:#007236;stroke-width:1.5;stroke-linecap:round;stroke-linejoin:round"
             inkscape:connector-curvature="0"
             d="m 430.162,331.992 c 0.354,-0.406 0.197,-1.035 0.271,-1.521 0.479,-3.096 2.518,-4.752 5.024,-7.854 2.506,-3.102 3.67,-4.047 3.543,-5.393 -0.127,-1.348 -1.881,-3.979 -1.881,-3.979 0,0 1.026,-0.643 1.606,-1.115 0.58,-0.475 2.048,-3.307 2.048,-3.307 l -3.832,-0.078 c 0,0 0.639,-1 1.663,-1.639 1.027,-0.645 0.523,-1.975 0.523,-1.975 l -3.563,0.965 c 0,0 -19.535,5.34 -21.244,5.857 -1.705,0.516 -3.925,1.354 -3.925,1.354 0.89,1.695 3.726,3.158 3.726,3.158 l -2.19,1.588 c 1.894,2.328 4.145,2.242 4.145,2.242 0,0 0.624,0.648 0.683,2.148 0.059,1.498 4.446,2.379 8.437,4.551 2.168,1.184 2.84,2.666 2.505,5.002 -0.002,0.002 1.123,1.55 2.461,-0.004 z"
             id="path13332" />
          <path
             style="fill:#ffffff;stroke:#a5c3d2;stroke-width:1.5"
             inkscape:connector-curvature="0"
             d="m 427.362,302.9 c -0.469,-0.52 -1.042,-0.951 -1.721,-1.258 -2.626,-1.187 -5.716,-0.021 -6.903,2.604 -0.136,0.297 -0.234,0.6 -0.31,0.907 -0.061,-0.031 -0.116,-0.064 -0.18,-0.092 -2.32,-1.051 -5.053,-0.021 -6.102,2.301 -1.053,2.318 -0.021,5.055 2.301,6.104 2.319,1.049 5.054,0.02 6.104,-2.303 0.054,-0.119 0.099,-0.242 0.144,-0.367 0.203,0.131 0.416,0.252 0.646,0.355 2.258,1.021 4.861,0.299 6.299,-1.598 0.335,0.293 0.719,0.545 1.147,0.738 2.32,1.049 5.054,0.02 6.104,-2.305 1.049,-2.32 0.02,-5.052 -2.303,-6.101 -1.828,-0.826 -3.909,-0.357 -5.226,1.015 z"
             id="path13334" />
          <path
             style="fill:#0db14b;stroke:#007236;stroke-width:1.5;stroke-linecap:round;stroke-linejoin:round"
             inkscape:connector-curvature="0"
             d="m 426.958,355.433 c 0.464,-0.326 0.466,-1.012 0.668,-1.49 1.282,-3.055 3.796,-4.229 7.159,-6.771 3.365,-2.541 4.8,-3.211 5.013,-4.625 0.215,-1.414 -0.912,-4.564 -0.912,-4.564 0,0 1.218,-0.395 1.935,-0.73 0.717,-0.338 2.947,-2.871 2.947,-2.871 l -3.912,-1.059 c 0,0 0.908,-0.863 2.127,-1.256 1.215,-0.396 1.039,-1.891 1.039,-1.891 l -3.901,0.078 c 0,0 -21.404,0.482 -23.289,0.578 -1.881,0.094 -4.371,0.385 -4.371,0.385 0.48,1.965 3.014,4.191 3.014,4.191 l -2.649,1.068 c 1.345,2.871 3.676,3.355 3.676,3.355 0,0 0.475,0.83 0.15,2.383 -0.322,1.551 3.955,3.576 7.487,6.824 1.925,1.768 2.234,3.461 1.292,5.77 -0.003,0 0.756,1.877 2.527,0.625 z"
             id="path13336" />
          <path
             style="fill:#ffffff;stroke:#a5c3d2;stroke-width:1.5"
             inkscape:connector-curvature="0"
             d="m 431.519,324.876 c -0.348,-0.652 -0.825,-1.242 -1.44,-1.729 -2.392,-1.889 -5.859,-1.482 -7.75,0.906 -0.213,0.27 -0.395,0.557 -0.548,0.848 -0.055,-0.045 -0.104,-0.094 -0.159,-0.139 -2.111,-1.67 -5.178,-1.313 -6.848,0.803 -1.673,2.111 -1.313,5.18 0.801,6.85 2.112,1.67 5.179,1.311 6.85,-0.803 0.087,-0.109 0.164,-0.225 0.241,-0.34 0.177,0.186 0.364,0.363 0.571,0.527 2.056,1.629 4.912,1.551 6.871,-0.025 0.269,0.387 0.597,0.742 0.985,1.053 2.113,1.67 5.181,1.309 6.851,-0.805 1.67,-2.111 1.311,-5.18 -0.804,-6.848 -1.665,-1.317 -3.918,-1.37 -5.621,-0.298 z"
             id="path13338" />
          <path
             style="fill:#0db14b;stroke:#007236;stroke-width:1.5;stroke-linecap:round;stroke-linejoin:round"
             inkscape:connector-curvature="0"
             d="m 416.467,383.72 c 0.646,-0.172 0.933,-0.928 1.352,-1.375 2.675,-2.85 5.939,-3.117 10.706,-4.545 4.767,-1.424 6.631,-1.576 7.446,-3.055 0.82,-1.475 0.869,-5.422 0.869,-5.422 0,0 1.508,0.063 2.439,-0.016 0.932,-0.074 4.439,-1.961 4.439,-1.961 l -3.89,-2.777 c 0,0 1.358,-0.582 2.867,-0.518 1.507,0.063 1.929,-1.662 1.929,-1.662 l -4.349,-1.52 c 0,0 -23.875,-8.271 -25.998,-8.943 -2.117,-0.67 -4.993,-1.371 -4.993,-1.371 -0.276,2.371 1.609,5.877 1.609,5.877 l -3.373,0.092 c 0.308,3.727 2.685,5.225 2.685,5.225 0,0 0.186,1.111 -0.812,2.697 -0.995,1.584 2.9,5.582 5.476,10.629 1.4,2.744 1.045,4.746 -0.945,6.912 0.002,10e-4 0.07,2.389 2.543,1.733 z"
             id="path13340" />
          <path
             style="fill:#ffffff;stroke:#a5c3d2;stroke-width:1.5"
             inkscape:connector-curvature="0"
             d="m 434.085,351.798 c -0.117,-0.861 -0.405,-1.713 -0.884,-2.506 -1.867,-3.072 -5.871,-4.049 -8.945,-2.186 -0.346,0.211 -0.663,0.451 -0.954,0.713 -0.042,-0.072 -0.076,-0.146 -0.12,-0.219 -1.647,-2.717 -5.188,-3.582 -7.901,-1.932 -2.72,1.648 -3.583,5.189 -1.935,7.906 1.65,2.715 5.188,3.578 7.906,1.932 0.141,-0.086 0.273,-0.182 0.407,-0.275 0.119,0.277 0.251,0.551 0.414,0.818 1.604,2.646 4.794,3.734 7.609,2.795 0.14,0.539 0.355,1.068 0.658,1.57 1.651,2.715 5.189,3.58 7.907,1.93 2.716,-1.648 3.58,-5.188 1.931,-7.904 -1.299,-2.142 -3.772,-3.124 -6.093,-2.642 z"
             id="path13342" />
          <path
             style="fill:#0db14b;stroke:#007236;stroke-width:1.5;stroke-linecap:round;stroke-linejoin:round"
             inkscape:connector-curvature="0"
             d="m 391.248,406.314 c 0.756,0.033 1.316,-0.689 1.918,-1.029 3.839,-2.178 7.448,-1.373 13.065,-1.316 5.615,0.061 7.677,0.518 9.052,-0.801 1.378,-1.318 2.752,-5.557 2.752,-5.557 0,0 1.604,0.572 2.635,0.803 1.031,0.229 5.445,-0.631 5.445,-0.631 l -3.267,-4.299 c 0,0 1.662,-0.17 3.267,0.402 1.605,0.572 2.636,-1.146 2.636,-1.146 l -4.181,-3.094 c 0,0 -22.977,-16.908 -25.039,-18.344 -2.063,-1.432 -4.926,-3.15 -4.926,-3.15 -1.093,2.463 -0.23,6.877 -0.23,6.877 l -3.668,-1.031 c -0.916,4.123 1.145,6.531 1.145,6.531 0,0 -0.172,1.26 -1.774,2.637 -1.604,1.373 1.26,6.99 2.346,13.293 0.592,3.43 -0.461,5.469 -3.333,7.137 -0.002,10e-4 -0.728,2.597 2.157,2.718 z"
             id="path13344" />
          <path
             style="fill:#ffffff;stroke:#a5c3d2;stroke-width:1.5"
             inkscape:connector-curvature="0"
             d="m 420.929,377.792 c 0.162,-0.969 0.139,-1.984 -0.114,-2.998 -0.984,-3.938 -4.974,-6.332 -8.912,-5.35 -0.445,0.111 -0.867,0.266 -1.271,0.447 -0.02,-0.092 -0.032,-0.182 -0.055,-0.273 -0.869,-3.482 -4.396,-5.6 -7.877,-4.73 -3.481,0.871 -5.6,4.398 -4.729,7.879 0.871,3.481 4.397,5.6 7.878,4.729 0.183,-0.045 0.357,-0.104 0.533,-0.162 0.035,0.34 0.085,0.682 0.172,1.023 0.845,3.389 3.92,5.631 7.271,5.563 -0.033,0.629 0.024,1.271 0.186,1.91 0.87,3.48 4.396,5.6 7.877,4.729 3.481,-0.869 5.599,-4.395 4.729,-7.877 -0.685,-2.747 -3.023,-4.636 -5.688,-4.89 z"
             id="path13346" />
          <path
             style="fill:#0db14b;stroke:#007236;stroke-width:1.5;stroke-linecap:round;stroke-linejoin:round"
             inkscape:connector-curvature="0"
             d="m 364.07,421.695 c 0.78,0.178 1.502,-0.469 2.194,-0.709 4.415,-1.535 8.021,-0.01 13.861,1.123 5.84,1.131 7.9,2.004 9.586,0.893 1.687,-1.109 3.926,-5.266 3.926,-5.266 0,0 1.563,0.904 2.594,1.34 1.029,0.434 5.792,0.383 5.792,0.383 l -2.582,-5.104 c 0,0 1.764,0.143 3.325,1.045 1.563,0.902 2.964,-0.691 2.964,-0.691 l -3.766,-4.021 c 0,0 -20.712,-21.998 -22.587,-23.885 -1.875,-1.887 -4.531,-4.225 -4.531,-4.225 -1.606,2.357 -1.551,7.121 -1.551,7.121 l -3.625,-1.775 c -1.742,4.121 -0.054,7.023 -0.054,7.023 0,0 -0.42,1.279 -2.354,2.406 -1.933,1.125 -0.021,7.523 -0.09,14.299 -0.039,3.686 -1.524,5.607 -4.835,6.799 0.002,0 -1.249,2.566 1.733,3.244 z"
             id="path13348" />
          <path
             style="fill:#ffffff;stroke:#a5c3d2;stroke-width:1.5"
             inkscape:connector-curvature="0"
             d="m 400.433,397.644 c 0.355,-0.979 0.523,-2.043 0.452,-3.146 -0.272,-4.289 -3.974,-7.547 -8.265,-7.273 -0.484,0.031 -0.953,0.111 -1.408,0.227 -0.003,-0.1 0.002,-0.197 -0.004,-0.297 -0.242,-3.795 -3.513,-6.672 -7.305,-6.432 -3.793,0.242 -6.672,3.516 -6.431,7.307 0.242,3.793 3.513,6.67 7.307,6.43 0.195,-0.014 0.392,-0.039 0.585,-0.068 -0.028,0.361 -0.041,0.729 -0.017,1.1 0.234,3.693 3.013,6.613 6.517,7.184 -0.154,0.648 -0.217,1.328 -0.172,2.025 0.241,3.793 3.513,6.672 7.307,6.43 3.792,-0.242 6.67,-3.512 6.428,-7.305 -0.189,-2.996 -2.265,-5.41 -4.994,-6.182 z"
             id="path13350" />
          <path
             style="fill:#0db14b;stroke:#007236;stroke-width:1.5;stroke-linecap:round;stroke-linejoin:round"
             inkscape:connector-curvature="0"
             d="m 302.607,438.792 c 0,0 4.813,-3.293 17.229,-3.801 12.415,-0.506 17.481,-1.016 17.989,-7.855 0.507,-6.84 -1.012,-13.428 1.014,-14.441 2.026,-1.014 2.533,-2.279 2.533,-2.279 0,0 -1.521,-3.041 0.508,-7.094 l 3.547,2.025 c 0,0 0.252,-4.813 2.027,-7.096 0,0 2.533,2.535 4.307,4.563 1.774,2.027 21.283,25.592 21.283,25.592 l 3.547,4.307 c 0,0 -1.52,1.521 -3.041,0.506 -1.52,-1.012 -3.293,-1.268 -3.293,-1.268 l 2.28,5.32 c 0,0 -4.814,-0.254 -5.827,-0.76 -1.014,-0.506 -2.534,-1.52 -2.534,-1.52 0,0 -2.532,4.055 -4.307,5.066 -1.774,1.014 -3.8,0 -9.628,-1.52 -5.828,-1.521 -9.375,-3.295 -13.937,-2.027 -4.561,1.268 -10.896,2.279 -15.963,2.279 -5.065,0 -9.628,0.76 -12.668,1.52 -3.041,0.762 -5.066,1.775 -5.066,1.775 0,0 -1.013,-1.77 0,-3.292 z"
             id="path13352" />
          <path
             style="fill:#ffffff;stroke:#a5c3d2;stroke-width:1.5"
             inkscape:connector-curvature="0"
             d="m 372.339,415.125 c 0.421,-0.965 0.659,-2.029 0.659,-3.15 0,-4.352 -3.529,-7.881 -7.882,-7.881 -0.491,0 -0.973,0.051 -1.438,0.137 0.004,-0.102 0.017,-0.199 0.017,-0.303 0,-3.848 -3.119,-6.967 -6.968,-6.967 -3.849,0 -6.969,3.119 -6.969,6.967 0,3.85 3.12,6.969 6.969,6.969 0.2,0 0.397,-0.014 0.596,-0.029 -0.053,0.361 -0.087,0.73 -0.087,1.107 0,3.748 2.616,6.877 6.121,7.68 -0.197,0.645 -0.305,1.326 -0.305,2.035 0,3.848 3.12,6.969 6.968,6.969 3.849,0 6.968,-3.121 6.968,-6.969 -0.002,-3.034 -1.943,-5.608 -4.649,-6.565 z"
             id="path13354" />
        </g>
        <path
           style="fill:#ffffff"
           inkscape:connector-curvature="0"
           d="m 214.265,186.912 c 0.408,-0.246 8.874,-8.61 12.186,-11.921 3.313,-3.311 13.377,-12.319 14.968,-14.041 1.591,-1.722 1.062,-3.047 3.18,-2.914 2.118,0.133 2.78,0.663 2.78,0.663 0,0 1.062,1.457 0.398,1.457 -0.662,0 -0.663,0.53 -0.928,1.192 -0.265,0.663 -2.648,5.298 -2.648,5.298 0,0 4.769,-4.106 6.092,-5.034 1.324,-0.928 3.444,-1.854 4.77,-2.384 1.326,-0.53 3.178,-2.119 5.298,-3.179 2.12,-1.06 3.178,-1.59 4.768,-1.06 1.59,0.53 1.589,1.06 1.192,1.457 -0.397,0.397 -1.458,3.312 -2.251,3.842 -0.794,0.53 -1.06,1.59 -2.649,2.914 -1.59,1.324 -5.694,5.431 -9.403,8.345 -3.709,2.914 -15.233,9.802 -18.678,12.849 -3.442,3.046 -7.947,5.033 -8.609,5.43 -0.662,0.398 15.479,-15.075 15.876,-15.605 0.396,-0.53 -12.453,5.311 -14.44,6.768 -1.986,1.457 -6.705,5.654 -8.824,6.184 -2.118,0.529 -5.592,3.845 -6.254,4.507 -0.666,0.663 0.528,-3.179 3.176,-4.768 z"
           id="path13356" />
        <path
           style="fill:#ffffff"
           inkscape:connector-curvature="0"
           d="m 267.247,181.349 c 0.927,-0.927 2.648,-6.49 5.828,-7.947 3.18,-1.457 5.167,-1.325 6.359,-2.384 1.191,-1.059 2.12,-2.384 2.914,-2.384 0.794,0 1.059,-0.529 2.118,-1.986 1.061,-1.457 2.517,-2.649 2.251,-2.12 -0.264,0.53 -1.458,6.226 0,6.623 1.458,0.397 1.458,2.781 2.254,2.781 0.794,0 1.058,0.397 1.985,0.265 0.928,-0.132 2.914,0 3.577,-0.53 0.662,-0.53 3.842,0.397 3.842,-1.192 0,-1.589 1.457,-2.384 3.047,-1.986 1.589,0.397 5.166,1.059 6.49,1.059 1.323,0 4.504,0.265 5.961,0.397 1.455,0.133 3.045,0.663 3.707,1.192 0.662,0.529 -5.033,-9.802 -6.225,-10.994 -1.192,-1.192 -5.033,-5.298 -6.228,-6.093 -1.191,-0.794 -2.251,-1.721 -2.78,-0.927 -0.529,0.795 -2.251,0.927 -5.165,2.781 -2.914,1.854 -2.913,3.709 -3.443,4.636 -0.531,0.927 -2.517,0.794 -3.709,-0.265 -1.192,-1.06 -2.781,-1.987 -5.431,-1.324 -2.649,0.662 -4.902,0 -3.843,-1.59 1.062,-1.589 3.576,-4.238 0.795,-4.636 -2.78,-0.398 -5.298,4.504 -7.151,6.888 -1.854,2.384 -9.007,9.007 -10.067,10.729 -1.06,1.722 -2.781,3.576 -4.239,5.166 -1.458,1.589 -5.961,5.167 -4.371,5.563 1.59,0.396 6.621,-3.313 7.683,-3.974 1.061,-0.662 1.062,3.179 1.723,3.047 0.661,-0.133 2.118,-0.795 2.118,-0.795 z"
           id="path13358" />
        <path
           style="fill:#ffffff"
           inkscape:connector-curvature="0"
           d="m 321.289,157.374 c 0.304,-0.434 1.192,-3.179 4.239,-1.589 3.046,1.589 5.563,2.781 7.683,2.649 2.119,-0.132 2.384,-2.781 5.563,-1.06 3.179,1.722 9.271,5.696 10.86,8.08 1.589,2.384 8.079,7.683 10.331,10.2 2.252,2.516 9.742,10.539 10.142,11.201 0.397,0.662 -8.418,-4.313 -9.214,-4.711 -0.795,-0.398 -5.598,-4.447 -4.141,-2.857 1.456,1.589 1.756,4.446 -0.363,3.387 -2.118,-1.06 -5.641,-2.962 -7.495,-5.612 -1.854,-2.649 -6.143,-5.846 -6.673,-6.375 -0.528,-0.53 4.631,6.557 3.572,6.159 -1.061,-0.396 -4.239,-1.723 -6.623,-3.842 -2.385,-2.119 -4.657,-6.807 -8.365,-8.396 -3.708,-1.59 -4.881,1.64 -6.866,-1.141 -1.988,-2.781 -3.578,-4.768 -2.65,-6.093 z"
           id="path13360" />
        <path
           style="fill:#005e3a"
           inkscape:connector-curvature="0"
           d="m 285.79,152.473 c 0,0 0.397,1.589 -0.53,3.046 -0.927,1.457 -1.722,3.841 -1.722,3.841 0,0 1.986,0.133 3.577,0.133 1.59,0 2.782,0 3.709,0 0.927,0 3.178,-0.794 3.443,-1.722 0.266,-0.927 0.133,-3.18 0.133,-3.18 0,0 -8.61,-1.588 -8.61,-2.118 z"
           id="path13362" />
        <g
           id="g13364">
          <g
             id="g13366">
            <path
               style="fill:#005e3a"
               inkscape:connector-curvature="0"
               d="m 340.629,174.594 c 0,0 1.723,1.589 4.504,2.384 2.781,0.794 3.312,0.662 4.503,2.119 1.192,1.457 4.901,4.371 4.901,4.371 0,0 -3.313,0.265 -5.696,-1.192 -2.384,-1.457 -8.212,-7.682 -8.212,-7.682 z"
               id="path13368" />
            <path
               style="fill:#f2be1a;stroke:#995b05;stroke-width:1.5;stroke-linecap:round;stroke-linejoin:round"
               inkscape:connector-curvature="0"
               d="m 185.061,256.633 c 0,0 1.88,3.948 1.41,8.554 -0.471,4.606 -3.008,7.802 -3.103,10.152 -0.094,2.35 -0.376,4.888 -0.376,4.888 l -1.598,1.786 c 0,0 -0.188,-5.546 -0.188,-6.58 0,-1.034 -2.255,-7.144 -0.563,-10.433 1.691,-3.291 3.854,-6.581 4.418,-8.367 z"
               id="path13370" />
            <path
               style="fill:#f2be1a;stroke:#995b05;stroke-width:1.5;stroke-linecap:round;stroke-linejoin:round"
               inkscape:connector-curvature="0"
               d="m 202.744,266.797 c 0,0 -4.348,0.468 -8.023,3.281 -3.678,2.814 -5.07,6.649 -7.022,7.961 -1.952,1.312 -3.965,2.881 -3.965,2.881 l -0.685,2.297 c 0,0 4.822,-2.746 5.703,-3.287 0.881,-0.541 7.267,-1.822 9.183,-4.986 1.914,-3.165 3.583,-6.732 4.809,-8.147 z"
               id="path13372" />
            <path
               style="fill:#f2be1a;stroke:#995b05;stroke-width:1.5;stroke-linecap:round;stroke-linejoin:round"
               inkscape:connector-curvature="0"
               d="m 175.512,267.156 c 0,0 2.761,3.39 3.396,7.976 0.635,4.586 -1.073,8.293 -0.608,10.599 0.466,2.305 0.793,4.838 0.793,4.838 l -1.129,2.113 c 0,0 -1.497,-5.344 -1.741,-6.349 -0.245,-1.004 -3.884,-6.406 -3.021,-10.003 0.864,-3.596 2.185,-7.305 2.31,-9.174 z"
               id="path13374" />
            <path
               style="fill:#f2be1a;stroke:#995b05;stroke-width:1.5;stroke-linecap:round;stroke-linejoin:round"
               inkscape:connector-curvature="0"
               d="m 168.442,278.231 c 0,0 3.183,2.725 4.441,6.936 1.259,4.21 0.094,7.988 0.869,10.08 0.776,2.093 1.448,4.421 1.448,4.421 l -1.595,4.213 c 0,0 -2.211,-4.778 -2.591,-5.683 -0.379,-0.903 -4.704,-5.374 -4.353,-8.907 0.354,-3.532 1.917,-9.28 1.781,-11.06 z"
               id="path13376" />
            <path
               style="fill:#f2be1a;stroke:#995b05;stroke-width:1.5;stroke-linecap:round;stroke-linejoin:round"
               inkscape:connector-curvature="0"
               d="m 162.494,292.715 c 0,0 3.917,2.608 5.62,7.137 1.702,4.528 0.502,8.9 1.528,11.13 1.023,2.232 1.938,4.736 1.938,4.736 l -0.97,3.746 c 0,0 -2.862,-5.029 -3.358,-5.988 -0.495,-0.955 -5.854,-5.355 -5.609,-9.348 0.243,-3.99 1.099,-9.445 0.851,-11.413 z"
               id="path13378" />
            <path
               style="fill:#f2be1a;stroke:#995b05;stroke-width:1.5;stroke-linecap:round;stroke-linejoin:round"
               inkscape:connector-curvature="0"
               d="m 158.188,308.824 c 0,0 4.618,2.26 6.906,6.936 2.288,4.674 1.305,9.605 2.644,11.881 1.336,2.277 2.57,4.867 2.57,4.867 l -0.896,4.141 c 0,0 -3.634,-5.053 -4.271,-6.021 -0.636,-0.963 -7.021,-4.965 -7.079,-9.342 -0.059,-4.378 0.568,-10.357 0.126,-12.462 z"
               id="path13380" />
            <path
               style="fill:#f2be1a;stroke:#995b05;stroke-width:1.5;stroke-linecap:round;stroke-linejoin:round"
               inkscape:connector-curvature="0"
               d="m 153.705,329.804 c 0,0 5.282,1.111 8.814,5.279 3.53,4.168 2.548,10.582 4.496,12.553 1.944,1.977 5.118,3.15 5.118,3.15 l -1.122,5.439 c 0,0 -4.999,-4.205 -5.896,-5.027 -0.895,-0.816 -7.328,-5.545 -8.512,-9.986 -1.186,-4.437 -1.906,-9.382 -2.898,-11.408 z"
               id="path13382" />
            <path
               style="fill:#f2be1a;stroke:#995b05;stroke-width:1.5;stroke-linecap:round;stroke-linejoin:round"
               inkscape:connector-curvature="0"
               d="m 200.658,278.502 c 0,0 -4.307,-0.108 -8.229,2.189 -3.923,2.299 -5.73,5.906 -7.792,6.946 -2.063,1.04 -4.214,2.328 -4.214,2.328 l -0.936,2.179 c 0,0 5.036,-2.079 5.959,-2.5 0.923,-0.419 7.318,-0.846 9.559,-3.723 2.242,-2.875 4.288,-6.181 5.653,-7.419 z"
               id="path13384" />
            <path
               style="fill:#f2be1a;stroke:#995b05;stroke-width:1.5;stroke-linecap:round;stroke-linejoin:round"
               inkscape:connector-curvature="0"
               d="m 196.804,289.594 c 0,0 -4.308,-0.107 -8.229,2.189 -3.922,2.299 -5.729,5.907 -7.792,6.948 -2.061,1.038 -4.213,2.326 -4.213,2.326 l -1.299,3.653 c 0,0 5.035,-2.081 5.959,-2.5 0.923,-0.42 7.317,-0.847 9.559,-3.724 2.241,-2.875 4.651,-7.654 6.015,-8.892 z"
               id="path13386" />
            <path
               style="fill:#f2be1a;stroke:#995b05;stroke-width:1.5;stroke-linecap:round;stroke-linejoin:round"
               inkscape:connector-curvature="0"
               d="m 193.043,302.848 c 0,0 -4.307,-0.106 -8.229,2.191 -3.923,2.299 -5.731,5.906 -7.792,6.947 -2.063,1.039 -4.213,2.326 -4.213,2.326 l -0.936,4.184 c 0,0 5.036,-2.08 5.96,-2.5 0.923,-0.418 7.318,-0.846 9.56,-3.725 2.24,-2.873 4.286,-8.185 5.65,-9.423 z"
               id="path13388" />
            <path
               style="fill:#f2be1a;stroke:#995b05;stroke-width:1.5;stroke-linecap:round;stroke-linejoin:round"
               inkscape:connector-curvature="0"
               d="m 188.197,316.783 c 0,0 -4.53,0.125 -7.9,3.117 -3.368,2.992 -4.115,7.439 -5.938,8.813 -1.824,1.371 -3.664,3.045 -3.664,3.045 l -0.289,4.248 c 0,0 4.601,-2.797 5.433,-3.354 0.831,-0.561 7.373,-3.021 8.804,-6.611 1.428,-3.592 2.521,-7.688 3.554,-9.258 z"
               id="path13390" />
            <path
               style="fill:#f2be1a;stroke:#995b05;stroke-width:1.5;stroke-linecap:round;stroke-linejoin:round"
               inkscape:connector-curvature="0"
               d="m 183.826,331.103 c 0,0 -4.299,1.432 -6.658,5.271 -2.355,3.842 -1.783,8.313 -3.129,10.156 -1.349,1.84 -2.624,3.977 -2.624,3.977 l 0.498,4.912 c 0,0 3.592,-4.01 4.228,-4.787 0.634,-0.773 6.637,-5.789 6.965,-9.641 0.328,-3.849 0.187,-8.085 0.72,-9.888 z"
               id="path13392" />
            <path
               style="fill:#f2be1a;stroke:#995b05;stroke-width:1.5;stroke-linecap:round;stroke-linejoin:round"
               inkscape:connector-curvature="0"
               d="m 152.044,350.185 c 0,0 4.559,0.012 9.6,3.848 5.039,3.834 6.66,9.736 9.356,11.479 2.696,1.748 5.452,3.893 5.452,3.893 l 0.552,5.404 c 0,0 -6.71,-3.512 -7.932,-4.219 -1.218,-0.701 -10.348,-1.566 -12.798,-6.299 -2.45,-4.727 -2.6,-12.059 -4.23,-14.106 z"
               id="path13394" />
            <path
               style="fill:#f2be1a;stroke:#995b05;stroke-width:1.5;stroke-linecap:round;stroke-linejoin:round"
               inkscape:connector-curvature="0"
               d="m 187.072,343.494 c 0,0 -4.798,2.139 -7.084,6.836 -2.283,4.701 -1.115,9.793 -2.46,12.072 -1.348,2.275 -2.577,4.885 -2.577,4.885 l 2.053,4.725 c 0,0 3.689,-5.035 4.334,-6.002 0.644,-0.967 6.08,-6.543 6.023,-11.023 -0.057,-4.48 -0.7,-9.353 -0.289,-11.493 z"
               id="path13396" />
            <path
               style="fill:#f2be1a;stroke:#995b05;stroke-width:1.5;stroke-linecap:round;stroke-linejoin:round"
               inkscape:connector-curvature="0"
               d="m 154.939,372.388 c 0,0 4.846,-1.34 11.342,1.24 6.492,2.578 9.967,8.369 13.35,9.42 3.385,1.059 6.949,2.518 6.949,2.518 l 2.212,4.826 c 0,0 -8.172,-1.738 -9.68,-2.129 -1.503,-0.385 -11.461,1.404 -15.47,-2.895 -4.005,-4.294 -6.363,-11.288 -8.703,-12.98 z"
               id="path13398" />
            <path
               style="fill:#f2be1a;stroke:#995b05;stroke-width:1.5;stroke-linecap:round;stroke-linejoin:round"
               inkscape:connector-curvature="0"
               d="m 191.014,356.25 c 0,0 -4.466,3.695 -5.499,9.367 -1.032,5.672 1.722,10.736 0.968,13.559 -0.757,2.818 -1.288,5.955 -1.288,5.955 l 3.596,4.861 c 0,0 1.001,-7.771 1.398,-8.99 0.396,-1.219 5.932,-7.883 4.542,-12.627 -1.39,-4.743 -3.519,-9.727 -3.717,-12.125 z"
               id="path13400" />
            <path
               style="fill:#f2be1a;stroke:#995b05;stroke-width:1.5;stroke-linecap:round;stroke-linejoin:round"
               inkscape:connector-curvature="0"
               d="m 165.298,393.587 c 0,0 4.709,-2.475 12.008,-1.264 7.292,1.207 12.229,7.32 15.964,7.648 3.736,0.334 7.706,0.139 7.706,0.139 l 2.722,3.266 c 0,0 -8.842,0.037 -10.488,-0.029 -1.641,-0.059 -11.537,4.027 -16.647,0.48 -5.108,-3.54 -8.466,-9.015 -11.265,-10.24 z"
               id="path13402" />
            <path
               style="fill:#f2be1a;stroke:#995b05;stroke-width:1.5;stroke-linecap:round;stroke-linejoin:round"
               inkscape:connector-curvature="0"
               d="m 198.981,368.8 c 0,0 -3.788,4.824 -3.584,10.922 0.206,6.098 4.189,10.719 4.044,13.803 -0.15,3.086 0.005,6.447 0.005,6.447 l 2.535,2.613 c 0,0 1.063,-7.207 1.201,-8.559 0.138,-1.35 4.866,-8.93 2.363,-13.523 -2.501,-4.589 -5.82,-9.269 -6.564,-11.703 z"
               id="path13404" />
            <path
               style="fill:#f2be1a;stroke:#995b05;stroke-width:1.5;stroke-linecap:round;stroke-linejoin:round"
               inkscape:connector-curvature="0"
               d="m 180.437,411.64 c 0,0 4.261,-3.188 11.658,-3.143 7.391,0.041 13.23,5.301 16.971,5.035 3.743,-0.26 7.631,-1.078 7.631,-1.078 l 3.203,2.795 c 0,0 -8.727,1.432 -10.361,1.625 -1.629,0.201 -10.757,5.797 -16.364,3.1 -5.602,-2.691 -9.781,-7.568 -12.738,-8.334 z"
               id="path13406" />
            <path
               style="fill:#f2be1a;stroke:#995b05;stroke-width:1.5;stroke-linecap:round;stroke-linejoin:round"
               inkscape:connector-curvature="0"
               d="m 209.937,382.585 c 0,0 -2.979,5.361 -1.817,11.35 1.166,5.988 5.829,9.924 6.17,12.992 0.339,3.07 1.023,6.365 1.023,6.365 l 2.915,2.182 c 0,0 0.628,-5.877 0.55,-7.23 -0.077,-1.355 2.684,-10.992 -0.512,-15.135 -3.196,-4.141 -7.212,-8.236 -8.329,-10.524 z"
               id="path13408" />
            <path
               style="fill:#f2be1a;stroke:#995b05;stroke-width:1.5;stroke-linecap:round;stroke-linejoin:round"
               inkscape:connector-curvature="0"
               d="m 196.738,425.904 c 0,0 4.152,-3.953 12.07,-4.848 7.912,-0.896 14.831,3.982 18.796,3.221 3.971,-0.752 8.024,-2.125 8.024,-2.125 l 3.783,2.582 c 0,0 -9.152,2.643 -10.876,3.061 -1.717,0.422 -10.768,7.57 -17.108,5.402 -6.335,-2.166 -11.428,-6.85 -14.689,-7.293 z"
               id="path13410" />
            <path
               style="fill:#f2be1a;stroke:#995b05;stroke-width:1.5;stroke-linecap:round;stroke-linejoin:round"
               inkscape:connector-curvature="0"
               d="m 223.892,394.281 c 0,0 -1.95,5.813 0.287,11.488 2.239,5.678 7.543,8.693 8.438,11.648 0.895,2.957 7.316,9.012 7.316,9.012 l 3.264,1.611 c 0,0 -4.258,-6.611 -4.582,-7.93 -0.323,-1.314 2.202,-11.434 -1.696,-14.922 -3.895,-3.485 -11.509,-8.862 -13.027,-10.907 z"
               id="path13412" />
            <path
               style="fill:#f2be1a;stroke:#995b05;stroke-width:1.5;stroke-linecap:round;stroke-linejoin:round"
               inkscape:connector-curvature="0"
               d="m 218.691,437.726 c 0,0 4.04,-3.859 12.359,-5.045 8.314,-1.184 16.113,3.047 20.253,2.162 4.145,-0.875 8.319,-2.334 8.319,-2.334 l 4.255,2.234 c 0,0 -9.468,2.867 -11.26,3.33 -1.784,0.469 -10.725,7.521 -17.658,5.783 -6.923,-1.733 -12.764,-5.862 -16.268,-6.13 z"
               id="path13414" />
            <path
               style="fill:#f2be1a;stroke:#995b05;stroke-width:1.5;stroke-linecap:round;stroke-linejoin:round"
               inkscape:connector-curvature="0"
               d="m 242.348,408.074 c 0,0 -0.673,7.811 3.222,12.887 3.896,5.076 11.943,5.939 13.668,8.639 1.724,2.701 3.914,5.477 3.914,5.477 l 4.063,0.887 c 0,0 -3.326,-6.688 -4.011,-7.906 -0.683,-1.217 -0.65,-10.152 -5.882,-12.74 -5.232,-2.588 -12.77,-5.565 -14.974,-7.244 z"
               id="path13416" />
          </g>
          <g
             id="g13418">
            <path
               style="fill:#f2be1a;stroke:#995b05;stroke-width:1.5;stroke-linecap:round;stroke-linejoin:round"
               inkscape:connector-curvature="0"
               d="m 299.393,443.033 c -0.14,0 -0.277,-0.014 -0.418,-0.041 -0.179,-0.037 -11.605,-2.533 -30.527,-4.758 -18.757,-2.209 -85.894,-30.498 -97.72,-76.914 -11.404,-44.76 15.502,-89.14 16.652,-91.007 0.61,-0.991 1.907,-1.3 2.898,-0.688 0.99,0.61 0.091,2.091 -0.52,3.082 -0.271,0.443 -25.905,44.572 -14.949,87.572 10.805,42.408 74.17,71.422 94.13,73.77 19.098,2.246 30.687,4.775 30.866,4.813 1.141,0.229 1.879,1.342 1.648,2.48 -0.199,0.999 -1.078,1.691 -2.06,1.691 l 0,0 z"
               id="path13420" />
          </g>
          <path
             style="fill:#f2be1a;stroke:#995b05;stroke-width:1.5;stroke-linecap:round;stroke-linejoin:round"
             inkscape:connector-curvature="0"
             d="m 198.22,251.652 c 0,0 -7.521,4.042 -9.023,9.306 -1.457,5.101 -1.599,12.501 -1.599,12.501 0,0 5.546,-4.888 8.365,-8.648 2.821,-3.76 2.257,-13.159 2.257,-13.159 z"
             id="path13422" />
        </g>
        <g
           id="g13424">
          <g
             id="g13426">
            <g
               id="g13428">
              <path
                 style="fill:#f2be1a;stroke:#995b05;stroke-width:1.5;stroke-linecap:round;stroke-linejoin:round"
                 inkscape:connector-curvature="0"
                 d="m 288.43,443.38 -12.957,11.9 c 0,0 2.592,4.164 5.47,1.783 2.879,-2.379 11.805,-12.789 11.805,-12.789 l -4.318,13.682 c 0,0 2.015,2.381 4.03,0 2.016,-2.379 3.167,-13.088 3.167,-13.088 0,0 -0.576,-2.678 -3.167,-2.678 -2.591,0 -2.016,10e-4 -4.03,1.19 z"
                 id="path13430" />
            </g>
            <g
               id="g13432">
              <path
                 style="fill:#f2be1a;stroke:#995b05;stroke-width:1.5;stroke-linecap:round;stroke-linejoin:round"
                 inkscape:connector-curvature="0"
                 d="m 299.084,442.49 c 0,0 11.803,-0.895 15.834,-7.439 4.03,-6.545 0.864,-13.684 -4.605,-13.98 -5.471,-0.297 -9.337,3.238 -10.973,8.098 -1.618,4.813 -1.84,7.607 -1.84,7.607 l 3.022,0.953 c 0,0 1.148,-8.924 6.909,-10.113 5.759,-1.189 4.03,5.354 0.864,8.031 -3.166,2.677 -5.76,2.977 -5.76,2.977 0,0 -4.602,2.973 -3.451,3.866 z"
                 id="path13434" />
              <path
                 style="fill:#f2be1a;stroke:#995b05;stroke-width:1.5;stroke-linecap:round;stroke-linejoin:round"
                 inkscape:connector-curvature="0"
                 d="m 294.501,442.49 c 0,0 -11.804,-0.895 -15.834,-7.439 -4.029,-6.545 -0.865,-13.684 4.606,-13.98 5.471,-0.296 9.337,3.238 10.973,8.098 1.619,4.813 1.84,7.607 1.84,7.607 l -3.021,0.953 c 0,0 -1.151,-8.924 -6.912,-10.113 -5.756,-1.189 -4.031,5.354 -0.864,8.031 3.168,2.678 5.759,2.977 5.759,2.977 0,0 4.604,2.973 3.453,3.866 z"
                 id="path13436" />
              <path
                 style="fill:#f2be1a;stroke:#995b05;stroke-width:1.5;stroke-linecap:round;stroke-linejoin:round"
                 inkscape:connector-curvature="0"
                 d="m 305.416,443.38 12.957,11.9 c 0,0 -2.591,4.164 -5.469,1.783 -2.882,-2.379 -11.805,-12.789 -11.805,-12.789 l 4.315,13.682 c 0,0 -2.014,2.381 -4.028,0 -2.017,-2.379 -3.169,-13.088 -3.169,-13.088 0,0 0.576,-2.678 3.169,-2.678 2.591,10e-4 2.016,10e-4 4.03,1.19 z"
                 id="path13438" />
            </g>
          </g>
          <path
             style="fill:#f2be1a;stroke:#995b05;stroke-width:1.5;stroke-linecap:round;stroke-linejoin:round"
             inkscape:connector-curvature="0"
             d="m 303.439,441.134 c 0,-3.717 -2.918,-6.729 -6.515,-6.729 -3.601,0 -6.516,3.014 -6.516,6.729 0,3.721 2.915,6.734 6.516,6.734 3.597,0.001 6.515,-3.015 6.515,-6.734 z"
             id="path13440" />
        </g>
        <path
           style="fill:#ef4123;stroke:#981b1e;stroke-width:1.5;stroke-linecap:round;stroke-linejoin:round"
           inkscape:connector-curvature="0"
           d="m 176.64,472.14 c 0,0 -17.12,-3.914 -29.594,-13.941 -10.448,-8.4 -26.657,-33.018 -26.657,-33.018 v 26.17 L 93.975,442.79 c 0,0 5.625,16.387 27.636,35.707 22.012,19.32 55.028,37.418 55.028,37.418 l 10e-4,-43.775 0,0 z"
           id="path13442" />
        <polygon
           style="fill:#9e280e;stroke:#981b1e;stroke-width:1.5;stroke-linecap:round;stroke-linejoin:round"
           points="176.64,472.14 156.831,486.57 156.831,522.595 176.64,515.916 "
           id="polygon13444" />
        <path
           style="fill:#ef4123;stroke:#981b1e;stroke-width:1.5;stroke-linecap:round;stroke-linejoin:round"
           inkscape:connector-curvature="0"
           d="m 418.149,472.14 c 0,0 17.119,-3.914 29.593,-13.941 10.449,-8.4 26.658,-33.018 26.658,-33.018 v 26.17 l 26.414,-8.561 c 0,0 -5.625,16.387 -27.638,35.707 -22.011,19.32 -55.027,37.418 -55.027,37.418 V 472.14 z"
           id="path13446" />
        <polygon
           style="fill:#9e280e;stroke:#981b1e;stroke-width:1.5;stroke-linecap:round;stroke-linejoin:round"
           points="418.149,472.14 437.958,486.57 437.958,522.595 418.149,515.916 "
           id="polygon13448" />
        <path
           style="fill:#ef4123;stroke:#981b1e;stroke-width:1.5;stroke-linecap:round;stroke-linejoin:round"
           inkscape:connector-curvature="0"
           d="m 298.309,563.927 c 0,0 99.56,1.656 139.648,-41.332 V 486.57 c -48.421,42.354 -139.648,41.332 -139.648,41.332 h -1.828 c 0,0 -91.333,-0.023 -139.649,-41.332 v 36.025 c 44.604,39.301 139.649,41.332 139.649,41.332 h 1.828 z"
           id="path13450" />
        <path
           style="fill:#ffe96b;stroke:#995b05;stroke-width:1.5;stroke-linecap:round;stroke-linejoin:round"
           inkscape:connector-curvature="0"
           d="M 459.701,59.692 H 135.51 l -35.458,34.416 c 0,0 23.466,27.637 23.466,41.194 0,13.557 0,226.307 0,251.858 0,43.801 45.364,72.834 66.745,77.691 22.943,5.217 91.242,14.078 106.885,46.932 h 0.918 c 15.643,-32.854 83.94,-41.715 106.885,-46.932 21.381,-4.857 66.744,-33.893 66.744,-77.691 0,-25.551 0,-238.301 0,-251.858 0,-13.557 23.466,-41.194 23.466,-41.194 l -35.46,-34.416 z m -4.693,73.525 c 0,22.422 0,228.392 0,246.642 0,28.68 -23.791,60.27 -50.582,67.789 -29.723,8.342 -78.217,8.863 -106.374,40.148 h -0.893 c -28.157,-31.285 -76.652,-31.807 -106.375,-40.148 -26.792,-7.521 -50.582,-39.109 -50.582,-67.789 0,-18.25 0,-224.22 0,-246.642 0,-22.422 -15.122,-38.066 -15.122,-38.066 l 17.75,-17.75 h 309.55 l 17.748,17.75 c 0.001,0 -15.12,15.643 -15.12,38.066 z"
           id="path13452" />
        <g
           id="g13454">
          <path
             style="fill:#ffe850"
             inkscape:connector-curvature="0"
             d="m 191.692,124.056 v 3.826 h -33.814 v -3.826 h 6.161 v -23.25 h -6.161 V 96.98 h 29.167 c 7.061,0 12.517,1.009 16.363,3.029 3.849,2.02 5.773,2.631 5.773,6.048 0,1.953 -0.679,3.724 -2.028,5.314 -1.353,1.591 -3.083,2.811 -5.192,3.661 -2.111,0.85 -4.524,1.431 -7.24,1.742 -2.718,0.312 -6.117,0.467 -10.199,0.467 h -5.504 v 6.816 l 12.674,-0.001 0,0 z m -12.675,-12.673 h 2.233 c 5.13,0 8.434,-0.509 9.91,-1.527 1.474,-1.018 2.212,-2.285 2.212,-3.799 0,-1.279 -0.511,-2.369 -1.529,-3.27 -1.021,-0.9 -2.192,-1.456 -3.518,-1.666 -1.323,-0.21 -3.491,-0.316 -6.496,-0.316 h -2.813 l 0.001,10.578 0,0 z"
             id="path13456" />
          <path
             style="fill:#ffe850"
             inkscape:connector-curvature="0"
             d="m 300.703,124.056 v 3.826 H 266.89 v -3.826 h 6.162 v -23.25 H 266.89 V 96.98 h 29.166 c 7.061,0 12.517,1.009 16.362,3.029 3.85,2.02 5.772,2.631 5.772,6.048 0,1.953 -0.678,3.724 -2.026,5.314 -1.354,1.591 -3.084,2.811 -5.194,3.661 -2.107,0.85 -4.521,1.431 -7.241,1.742 -2.714,0.312 -6.114,0.467 -10.196,0.467 h -5.503 v 6.816 l 12.673,-0.001 0,0 z m -12.675,-12.673 h 2.234 c 5.13,0 8.435,-0.509 9.909,-1.527 1.476,-1.018 2.214,-2.285 2.214,-3.799 0,-1.279 -0.511,-2.369 -1.53,-3.27 -1.021,-0.9 -2.192,-1.456 -3.519,-1.666 -1.324,-0.21 -3.488,-0.316 -6.497,-0.316 h -2.812 v 10.578 z"
             id="path13458" />
          <path
             style="fill:#ffe850"
             inkscape:connector-curvature="0"
             d="M 321.555,100.806 V 96.98 h 27.473 v 3.826 h -5.668 v 13.772 c 0,2.121 0.146,3.648 0.434,4.582 0.291,0.935 1.057,1.704 2.299,2.31 1.24,0.606 2.813,0.909 4.715,0.909 1.959,0 3.586,-0.286 4.885,-0.858 1.296,-0.572 2.131,-1.287 2.503,-2.146 0.371,-0.858 0.559,-2.609 0.559,-5.251 v -13.318 h -5.586 V 96.98 h 22.921 v 3.826 h -7.034 v 15.464 c 0,2.39 -0.205,4.128 -0.619,5.213 -0.414,1.086 -1.364,2.163 -2.854,3.232 -1.489,1.069 -3.647,1.935 -6.476,2.6 -2.827,0.665 -6.075,0.997 -9.743,0.997 -4.25,0 -7.868,-0.366 -10.862,-1.098 -2.992,-0.732 -5.221,-1.704 -6.682,-2.916 -1.462,-1.212 -2.4,-2.415 -2.813,-3.61 -0.413,-1.195 -0.622,-3.231 -0.622,-6.109 v -13.772 l -6.83,-0.001 0,0 z"
             id="path13460" />
          <path
             style="fill:#ffe850"
             inkscape:connector-curvature="0"
             d="m 415.562,100.806 12.078,23.25 h 5.707 v 3.826 H 406.21 v -3.826 h 7.362 l -2.73,-6.033 h -14.937 l -3.063,6.033 h 7.696 v 3.826 h -25.485 v -3.826 h 7.115 l 11.213,-23.25 h -7.654 V 96.98 h 27.83 l 2.005,3.826 z m -7.078,12.067 -4.8,-10.578 -5.172,10.578 h 9.972 z"
             id="path13462" />
          <path
             style="fill:#ffe850"
             inkscape:connector-curvature="0"
             d="m 244.646,100.806 12.081,23.25 h 5.708 v 3.826 h -27.142 v -3.826 h 7.364 l -2.729,-6.033 H 224.99 l -3.062,6.033 h 7.696 v 3.826 H 204.14 v -3.826 h 7.116 l 11.21,-23.25 h -7.653 V 96.98 h 27.83 l 2.003,3.826 z m -7.075,12.067 -4.8,-10.578 -5.171,10.578 h 9.971 z"
             id="path13464" />
        </g>
        <g
           id="g13466">
          <path
             inkscape:connector-curvature="0"
             d="m 175.423,523.619 4.708,-9.604 -2.103,-1.029 0.786,-1.604 6.802,3.336 -0.785,1.602 -2.163,-1.061 -4.708,9.604 1.935,0.947 -0.786,1.604 -6.573,-3.225 0.785,-1.602 2.102,1.032 z m 5.152,-3.875 7.567,-1.799 -1.921,-0.943 0.785,-1.602 6.585,3.229 -0.784,1.604 -1.789,-0.877 -7.354,1.904 2.79,7.77 1.8,0.883 -0.786,1.602 -6.826,-3.348 0.784,-1.602 1.813,0.889 -2.664,-7.71 z"
             id="path13468" />
          <path
             inkscape:connector-curvature="0"
             d="m 203.549,532.455 -6.295,-2.42 -2.496,2.502 2.123,0.814 -0.64,1.666 -6.884,-2.646 0.64,-1.664 2.114,0.813 8.67,-8.313 -2.111,-0.813 0.577,-1.502 8.931,3.434 -0.577,1.502 -2.185,-0.84 0.99,12.023 1.955,0.752 -0.64,1.666 -6.847,-2.631 0.641,-1.666 2.173,0.836 -0.139,-3.513 z m -0.059,-1.813 -0.184,-6.465 -0.239,-0.092 -4.563,4.641 4.986,1.916 z"
             id="path13470" />
          <path
             inkscape:connector-curvature="0"
             d="m 212.833,539.095 3.052,-10.25 -2.463,-0.732 0.51,-1.709 7.286,2.17 c 1.522,0.453 2.703,0.9 3.545,1.348 0.84,0.447 1.467,1.047 1.879,1.801 0.412,0.754 0.488,1.564 0.231,2.43 -0.539,1.809 -2.108,2.576 -4.713,2.309 l 1.688,5.916 2.192,0.654 -0.509,1.709 -3.886,-1.156 -2.184,-7.604 -2.527,-0.754 -1.394,4.678 2.296,0.684 -0.509,1.711 -7.467,-2.225 0.509,-1.709 2.464,0.729 z m 4.61,-5.58 2.115,0.629 c 1.022,0.307 1.792,0.48 2.309,0.521 0.517,0.043 0.975,-0.045 1.377,-0.264 0.402,-0.221 0.681,-0.592 0.837,-1.115 0.133,-0.445 0.088,-0.869 -0.134,-1.271 -0.222,-0.4 -0.551,-0.711 -0.987,-0.93 -0.436,-0.219 -1.126,-0.469 -2.071,-0.75 l -2.296,-0.684 -1.15,3.864 z"
             id="path13472" />
          <path
             inkscape:connector-curvature="0"
             d="m 234.661,545.025 1.032,-4.594 -4.123,-7.063 -2.232,-0.502 0.392,-1.74 7.51,1.688 -0.391,1.74 -2.302,-0.518 3.068,5.209 4.651,-3.475 -2.293,-0.516 0.391,-1.74 7.274,1.635 -0.392,1.74 -2.416,-0.543 -6.38,4.703 -1.032,4.592 2.495,0.563 -0.391,1.74 -7.707,-1.73 0.391,-1.742 2.455,0.553 z"
             id="path13474" />
          <path
             inkscape:connector-curvature="0"
             d="m 258.526,546.181 -6.665,-1.029 -1.908,2.973 2.248,0.348 -0.271,1.764 -7.288,-1.125 0.271,-1.764 2.238,0.346 6.71,-9.961 -2.235,-0.346 0.246,-1.592 9.456,1.461 -0.246,1.592 -2.313,-0.357 3.518,11.541 2.069,0.32 -0.272,1.764 -7.248,-1.119 0.272,-1.764 2.301,0.354 -0.883,-3.406 z m -0.443,-1.76 -1.551,-6.279 -0.252,-0.039 -3.474,5.504 5.277,0.814 z"
             id="path13476" />
          <path
             inkscape:connector-curvature="0"
             d="m 283.814,553.707 0.161,-5.176 2.341,0.07 -0.04,1.262 c 1.072,1.586 2.514,2.406 4.326,2.465 0.923,0.027 1.71,-0.162 2.359,-0.572 0.65,-0.412 0.986,-0.965 1.008,-1.662 0.021,-0.676 -0.224,-1.172 -0.733,-1.484 -0.509,-0.312 -1.483,-0.641 -2.918,-0.979 -1.667,-0.395 -2.898,-0.756 -3.696,-1.086 -0.797,-0.328 -1.427,-0.783 -1.889,-1.361 -0.462,-0.578 -0.683,-1.254 -0.657,-2.025 0.037,-1.195 0.589,-2.135 1.656,-2.814 1.066,-0.682 2.389,-0.998 3.968,-0.949 1.497,0.047 2.875,0.459 4.135,1.236 l 0.03,-0.953 2.287,0.072 -0.136,4.324 -2.286,-0.07 0.03,-0.994 c -0.925,-1.131 -2.23,-1.721 -3.917,-1.773 -1.021,-0.031 -1.813,0.123 -2.37,0.465 -0.56,0.342 -0.846,0.762 -0.861,1.262 -0.012,0.381 0.117,0.723 0.386,1.021 0.27,0.299 0.616,0.523 1.042,0.674 0.426,0.148 1.269,0.367 2.524,0.65 1.64,0.379 2.828,0.723 3.563,1.029 0.735,0.305 1.362,0.799 1.878,1.479 0.519,0.682 0.764,1.449 0.736,2.313 -0.038,1.217 -0.633,2.203 -1.782,2.961 -1.149,0.758 -2.555,1.111 -4.214,1.059 -1.704,-0.053 -3.222,-0.566 -4.556,-1.547 l -0.037,1.18 -2.338,-0.077 z"
             id="path13478" />
          <path
             inkscape:connector-curvature="0"
             d="m 306.533,554.195 -5.331,-12.396 -2.245,0.102 -0.081,-1.781 7.152,-0.322 0.08,1.783 -2.242,0.1 3.959,9.162 2.98,-9.475 -2.225,0.102 -0.08,-1.781 8.59,-0.389 0.081,1.783 -2.198,0.098 3.834,9.168 3.054,-9.477 -2.229,0.1 -0.08,-1.781 6.883,-0.311 0.08,1.783 -2.205,0.098 -4.103,12.82 -2.677,0.121 -4.715,-11.078 -3.675,11.455 -2.607,0.116 z"
             id="path13480" />
          <path
             inkscape:connector-curvature="0"
             d="m 340.408,546.208 -6.688,0.871 -1.003,3.389 2.255,-0.293 0.23,1.77 -7.313,0.953 -0.229,-1.77 2.246,-0.293 3.663,-11.439 -2.243,0.293 -0.208,-1.596 9.487,-1.238 0.207,1.598 -2.319,0.303 6.6,10.1 2.076,-0.27 0.231,1.77 -7.272,0.947 -0.231,-1.77 2.31,-0.301 -1.799,-3.024 z m -0.916,-1.566 -3.241,-5.596 -0.254,0.033 -1.8,6.254 5.295,-0.691 z"
             id="path13482" />
          <path
             inkscape:connector-curvature="0"
             d="m 351.742,547.701 -2.224,-10.461 -2.487,0.527 -0.37,-1.744 7.081,-1.506 c 1.957,-0.416 3.479,-0.658 4.571,-0.729 1.09,-0.072 2.188,0.059 3.295,0.389 1.106,0.332 2.057,0.906 2.851,1.729 0.793,0.818 1.318,1.836 1.575,3.045 0.293,1.379 0.262,2.635 -0.093,3.771 -0.355,1.139 -0.941,2.057 -1.761,2.754 -0.818,0.699 -1.847,1.281 -3.082,1.75 -1.233,0.471 -2.839,0.914 -4.813,1.332 l -6.661,1.416 -0.37,-1.744 2.488,-0.529 z m 2.765,-0.588 1.448,-0.309 c 1.614,-0.344 2.877,-0.691 3.788,-1.047 0.91,-0.354 1.649,-0.785 2.222,-1.295 0.57,-0.508 0.979,-1.18 1.223,-2.016 0.244,-0.834 0.26,-1.76 0.042,-2.775 -0.257,-1.211 -0.807,-2.166 -1.646,-2.869 -0.842,-0.701 -1.806,-1.07 -2.892,-1.107 -1.087,-0.039 -2.699,0.17 -4.841,0.623 l -1.565,0.334 2.221,10.461 z"
             id="path13484" />
          <path
             inkscape:connector-curvature="0"
             d="m 381.804,536.828 -6.457,1.947 -0.438,3.506 2.178,-0.656 0.516,1.707 -7.061,2.131 -0.516,-1.709 2.169,-0.654 1.754,-11.881 -2.165,0.652 -0.465,-1.541 9.16,-2.764 0.465,1.541 -2.24,0.676 8.153,8.895 2.005,-0.604 0.516,1.707 -7.021,2.119 -0.517,-1.709 2.229,-0.674 -2.265,-2.689 z m -1.158,-1.397 -4.108,-4.994 -0.245,0.074 -0.76,6.461 5.113,-1.541 z"
             id="path13486" />
          <path
             inkscape:connector-curvature="0"
             d="m 396.268,535.158 -1.718,-4.383 -7.372,-3.543 -2.13,0.836 -0.649,-1.662 7.166,-2.809 0.65,1.66 -2.194,0.861 5.457,2.596 1.907,-5.482 -2.188,0.857 -0.651,-1.662 6.941,-2.719 0.649,1.66 -2.305,0.902 -2.651,7.473 1.718,4.381 2.381,-0.932 0.649,1.66 -7.354,2.883 -0.651,-1.66 2.345,-0.917 z"
             id="path13488" />
          <path
             inkscape:connector-curvature="0"
             d="m 416.654,522.458 -6.026,3.025 0.169,3.527 2.032,-1.02 0.801,1.594 -6.591,3.309 -0.801,-1.594 2.023,-1.016 -0.309,-12.008 -2.021,1.016 -0.722,-1.439 8.551,-4.293 0.723,1.439 -2.092,1.049 9.559,7.365 1.872,-0.939 0.8,1.596 -6.555,3.289 -0.801,-1.596 2.08,-1.043 -2.692,-2.261 z m -1.38,-1.177 -4.903,-4.215 -0.229,0.113 0.359,6.496 4.773,-2.394 z"
             id="path13490" />
        </g>
      </g>
    </g>
  </g>
</svg>
