<?xml version="1.0" encoding="utf-8"?>
<!-- Generator: Adobe Illustrator 23.0.0, SVG Export Plug-In . SVG Version: 6.00 Build 0)  -->
<svg version="1.1"
	 id="Flag" inkscape:version="0.48.4 r9939" sodipodi:docname="Flag_of_South_Sulawesi.svg" xmlns:cc="http://creativecommons.org/ns#" xmlns:dc="http://purl.org/dc/elements/1.1/" xmlns:inkscape="http://www.inkscape.org/namespaces/inkscape" xmlns:rdf="http://www.w3.org/1999/02/22-rdf-syntax-ns#" xmlns:sodipodi="http://sodipodi.sourceforge.net/DTD/sodipodi-0.dtd" xmlns:svg="http://www.w3.org/2000/svg"
	 xmlns="http://www.w3.org/2000/svg" xmlns:xlink="http://www.w3.org/1999/xlink" x="0px" y="0px" viewBox="0 0 1500 1000"
	 style="enable-background:new 0 0 1500 1000;" xml:space="preserve">
<style type="text/css">
	.st0{fill:#01652F;}
	.st1{stroke:#000000;stroke-width:11;stroke-miterlimit:10;}
	.st2{fill:#FBE600;}
	.st3{fill:none;}
	.st4{fill:#FBE600;stroke:#000000;stroke-width:7;stroke-miterlimit:10;}
	.st5{clip-path:url(#SVGID_3_);fill:#006F23;}
	.st6{clip-path:url(#SVGID_5_);}
	.st7{fill:#021EAA;}
	.st8{fill:#FFFFFF;}
	.st9{clip-path:url(#SVGID_7_);}
	.st10{fill:#FFFFFF;stroke:#000000;stroke-width:0.75;stroke-miterlimit:10;}
	.st11{fill:#D81F00;stroke:#000000;stroke-width:0.75;stroke-miterlimit:10;}
	.st12{clip-path:url(#SVGID_9_);}
	.st13{fill:none;stroke:#000000;stroke-width:2.5;stroke-miterlimit:10;}
	.st14{fill:#FFFFFF;stroke:#000000;stroke-miterlimit:10;}
	.st15{fill:#006F23;stroke:#000000;stroke-miterlimit:10;}
	.st16{clip-path:url(#SVGID_11_);}
	.st17{fill:#FBE600;stroke:#000000;stroke-width:0.75;stroke-miterlimit:10;}
	.st18{fill:none;stroke:#000000;stroke-width:7;stroke-miterlimit:10;}
</style>
<rect id="Base" y="0" class="st0" width="1500" height="1000"/>
<g id="Emblem">
	<path class="st1" d="M952.9,564.1c-2.1-10-11.3-14.5-12.4-15.1c0.1,4.4-0.8,9.8-4.7,13.4c-1.3,1.2-3.4,2.7-13.3,5.3
		c-5.5,1.5-10.2,2.5-13.8,3.1c-22.3,88.3-84.8,151.9-158.7,151.9s-136.4-63.6-158.7-151.9c-3.6-0.7-8.4-1.7-13.8-3.1
		c-9.9-2.7-12-4.1-13.3-5.3c-3.8-3.5-4.7-9-4.7-13.4c-1.2,0.6-10.3,5.1-12.4,15.1c-1.3,6.4-2,12.7,4.3,18.6c4.9,4.5,25.5-0.3,23,0.7
		c-19.9,8.1-15.4,20.1,5.3,11.4c0.9-0.4-5.5,2.8-10.3,5.5c-3.1,1.7-4.5,5.5-3.3,8.8c32.3,88,102.4,149.1,183.8,149.1
		s151.5-61,183.9-149c1.2-3.4-0.2-7.1-3.3-8.8c-4.9-2.7-11.3-5.9-10.3-5.5c20.7,8.8,25.2-3.4,5.3-11.4c-2.5-1,18.2,3.9,23-0.7
		C955,576.7,954.3,570.5,952.9,564.1z"/>
	<path class="st2" d="M952.9,564.1c-2.1-10-11.3-14.5-12.4-15.1c0.1,4.4-0.8,9.8-4.7,13.4c-1.3,1.2-3.4,2.7-13.3,5.3
		c-5.5,1.5-10.2,2.5-13.8,3.1c-22.3,88.3-84.8,151.9-158.7,151.9s-136.4-63.6-158.7-151.9c-3.6-0.7-8.4-1.7-13.8-3.1
		c-9.9-2.7-12-4.1-13.3-5.3c-3.8-3.5-4.7-9-4.7-13.4c-1.2,0.6-10.3,5.1-12.4,15.1c-0.4,2-3.5,12.9,4.3,18.6c5.4,3.9,18.2,2.3,23,0.7
		c-20.5,9.8-14.3,18.9,5.3,11.4c0,0-13.3,6.3-13.9,10.6c-0.8,5.8,5,15.6,6.2,18.5c2.8,6.6,5.9,13.1,9.2,19.4
		c36.3,69.2,98.3,114.8,168.7,114.8s132.3-45.6,168.7-114.8c3.3-6.3,6.4-12.8,9.2-19.4c1.2-2.9,6.9-12.8,6.2-18.5
		c-0.6-4.3-13.9-10.6-13.9-10.6c19.6,7.4,25.8-1.7,5.3-11.4c4.9,1.6,17.6,3.3,23-0.7C956.4,576.9,953.4,566.1,952.9,564.1z"/>
	<g>
		<ellipse class="st3" cx="750" cy="500" rx="202.8" ry="258.2"/>
		<path d="M585.8,620.6l3.2-1.4l3.6,8.3l-7.6,3.4c-1.2-0.4-2.3-1.3-3.6-2.7c-1.2-1.2-2.2-2.7-2.9-4.3c-0.9-2-1.2-3.9-1.1-5.8
			c0.2-1.9,0.9-3.5,2.1-5c1.2-1.4,2.7-2.6,4.6-3.4c2-0.9,4-1.2,5.9-1.1c2,0.2,3.6,0.9,5.1,2.1c1.2,1,2.1,2.3,3,4.2
			c1.1,2.4,1.3,4.4,1,6.2c-0.4,1.8-1.4,3.3-3,4.4l-2.4-3.5c0.8-0.7,1.3-1.5,1.6-2.5c0.2-1,0.1-2-0.4-3.2c-0.7-1.7-1.9-2.8-3.4-3.4
			c-1.5-0.5-3.3-0.4-5.4,0.6c-2.3,1-3.7,2.2-4.4,3.7c-0.7,1.5-0.7,3.1,0,4.7c0.4,0.8,0.9,1.6,1.5,2.2c0.7,0.7,1.3,1.2,2,1.6l2.4-1.1
			L585.8,620.6z"/>
		<path d="M585.5,638l18.4-10.1l7.4,13.7l-3.1,1.7l-5.4-9.9l-4.1,2.2l5.1,9.2l-3.1,1.7l-5.1-9.2l-5,2.7l5.6,10.3l-3.1,1.7L585.5,638
			z"/>
		<path d="M596.4,657.4l17.3-11.8l3.5,5.2l-9.7,11.2l13.9-5l3.5,5.2l-17.3,11.8l-2.2-3.3l13.7-9.3l-16,5.9l-2.3-3.4l11.3-12.7
			l-13.7,9.3L596.4,657.4z"/>
		<path d="M624.4,694.1l-3-3.5l2.4-4.5l-5.4-6.4l-4.7,1.8l-2.9-3.4l21.2-7.4l2.9,3.4L624.4,694.1z M625.6,682.8l4-7.3l-7.7,2.9
			L625.6,682.8z"/>
		<path d="M628,697.8l14.4-15.2l3.1,2.9l-5.7,6l6,5.7l5.7-6l3.1,2.9l-14.4,15.2l-3.1-2.9l6.3-6.6l-6-5.7l-6.3,6.6L628,697.8z"/>
		<path d="M654.4,720.4l11.4-17.6l7.4,4.9c1.9,1.2,3.1,2.2,3.8,3.1c0.7,0.9,1,1.9,1,3s-0.4,2.2-1.1,3.3c-0.9,1.3-2,2.1-3.3,2.5
			c-1.3,0.4-2.8,0.2-4.5-0.6c0.4,1,0.8,1.9,1,2.7c0.2,0.9,0.2,2.2,0.2,4.2l-0.1,4.8l-4.3-2.7l-0.1-5.5c0-2-0.1-3.2-0.2-3.8
			c-0.1-0.5-0.3-1.1-0.6-1.4c-0.3-0.4-0.9-0.8-1.7-1.3l-0.7-0.4l-4.8,7.4L654.4,720.4z M664.5,712.6l2.7,1.7
			c1.7,1.1,2.8,1.7,3.4,1.9c0.5,0.1,1,0.1,1.5-0.1c0.4-0.2,0.9-0.5,1.2-1.1c0.4-0.6,0.5-1.2,0.4-1.8c-0.1-0.5-0.4-1.1-0.9-1.6
			c-0.3-0.3-1.2-0.8-2.6-1.8l-2.7-1.8L664.5,712.6z"/>
		<path d="M674.7,732.8l9.7-18.6l3.7,2l-9.7,18.6L674.7,732.8z"/>
		<path d="M684.6,737.8l7.7-19.4l6.3,2.5c2.4,1,3.9,1.7,4.5,2.1c1,0.7,1.7,1.8,2,3c0.4,1.2,0.3,2.7-0.4,4.3
			c-0.4,1.2-1.1,2.1-1.9,2.7c-0.8,0.6-1.6,1.1-2.4,1.2c-0.9,0.2-1.7,0.3-2.4,0.1c-1-0.2-2.4-0.6-4.2-1.3l-2.6-1.1l-2.9,7.4
			L684.6,737.8z M694.9,723.3l-2.2,5.5l2.1,0.9c1.5,0.6,2.7,0.9,3.2,1c0.5,0.1,1.2-0.2,1.6-0.4s0.8-0.8,1.1-1.3
			c0.3-0.7,0.3-1.3,0.1-2c-0.2-0.7-0.6-1.2-1.2-1.5c-0.4-0.3-1.3-0.7-2.7-1.2L694.9,723.3z"/>
		<path d="M721.9,749.8l-4.4-1.2l-0.6-5.1l-8.2-2l-2.8,4.2l-4.3-1.1l13-18.3l4.3,1.1L721.9,749.8z M716.4,739.9l-0.9-8.2l-4.6,6.8
			L716.4,739.9z"/>
		<path d="M727.3,750.5l2-20.8l4.2,0.4l-0.8,8.2l8.2,0.8l0.8-8.2l4.2,0.4l-2,20.8l-4.2-0.4l0.8-9.1l-8.2-0.8l-0.8,9.1L727.3,750.5z"
			/>
		<path d="M762.4,751.8l-2.8-20.7l8.8-1.2c2.2-0.3,3.8-0.4,4.9-0.1c1.1,0.3,2,0.8,2.7,1.7c0.7,0.9,1.2,2,1.3,3.2
			c0.2,1.6-0.1,2.9-0.9,4.1c-0.8,1.2-2,2-3.8,2.5c1,0.4,1.8,0.9,2.5,1.4s1.6,1.6,2.8,3l3.1,3.7l-5.1,0.7l-3.6-4.1
			c-1.3-1.5-2.1-2.4-2.7-2.7c-0.4-0.4-0.9-0.6-1.4-0.7c-0.4-0.1-1.2-0.1-2.1,0.1l-0.9,0.1l1.2,8.7L762.4,751.8z M765,739.2l3.1-0.4
			c2-0.3,3.3-0.5,3.7-0.8c0.4-0.3,0.8-0.6,1.1-1.1c0.3-0.4,0.3-1,0.2-1.6c-0.1-0.7-0.4-1.2-0.8-1.6s-1-0.6-1.7-0.6
			c-0.4,0-1.3,0.1-3.1,0.4l-3.3,0.4L765,739.2z"/>
		<path d="M786.3,747.9l-5.9-20.1l14.9-4.3l1,3.4l-10.8,3.2l1.3,4.4l10.1-2.9l1,3.4l-10.1,2.9l1.6,5.5l11.3-3.3l1,3.4L786.3,747.9z"
			/>
		<path d="M807.9,741l-8.6-19.1l6.2-2.7c2.3-1.1,3.9-1.7,4.7-1.8c1.2-0.2,2.4,0,3.5,0.6s2.1,1.7,2.7,3.2c0.5,1.2,0.8,2.2,0.7,3.3
			c-0.1,1-0.4,1.9-0.8,2.6s-1,1.3-1.6,1.8c-0.8,0.6-2.1,1.2-3.9,2l-2.5,1.2l3.2,7.2L807.9,741z M804.6,723.5l2.4,5.4l2.1-1
			c1.5-0.7,2.5-1.2,2.9-1.7s0.7-0.9,0.8-1.5c0.1-0.5,0-1.2-0.3-1.7c-0.4-0.7-0.8-1.2-1.4-1.4s-1.2-0.4-2-0.2
			c-0.5,0.1-1.4,0.5-2.8,1.2L804.6,723.5z"/>
		<path d="M828.3,731.4l-11-17.8l13.2-8.2l1.9,3l-9.7,5.9l2.4,4l9-5.5l1.9,3l-9,5.5l3,4.9l9.9-6.1l1.9,3L828.3,731.4z"/>
		<path d="M847.2,719.2l-13-16.4l3.3-2.7l5.1,6.5l6.5-5.1l-5.1-6.5l3.3-2.7l13,16.4l-3.3,2.7l-5.7-7.2l-6.5,5.1l5.7,7.2L847.2,719.2
			z"/>
		<path d="M873.3,696.4l-15.6-14l5.9-6.6c1.5-1.7,2.7-2.7,3.6-3.3c1-0.5,2-0.6,3.1-0.4c1.2,0.2,2.1,0.7,3.1,1.5
			c1.2,1.1,1.9,2.2,2,3.6c0.2,1.3-0.3,2.8-1.3,4.3c1-0.4,2-0.5,2.8-0.5s2.2,0.2,4.2,0.4l4.8,0.8l-3.4,3.7l-5.4-0.8
			c-2-0.3-3.2-0.4-3.8-0.4c-0.6,0-1.1,0.2-1.5,0.4c-0.4,0.3-1,0.7-1.6,1.4l-0.5,0.6l6.5,5.9L873.3,696.4z M867.1,685.2l2.1-2.3
			c1.3-1.5,2.1-2.5,2.3-3c0.2-0.5,0.3-1,0.1-1.5c-0.2-0.5-0.4-1-0.9-1.3c-0.5-0.4-1.1-0.7-1.7-0.7c-0.6,0-1.2,0.2-1.7,0.6
			c-0.3,0.3-1,1-2.1,2.2l-2.2,2.5L867.1,685.2z"/>
		<path d="M900.1,663l-2.7,3.7l-5-1.3l-4.9,6.7l2.8,4.2l-2.7,3.6l-12.1-18.9l2.7-3.6L900.1,663z M888.8,664.4l-8-2.2l4.6,6.8
			L888.8,664.4z"/>
		<path d="M902.7,658.8l-18-10.7l3.5-5.9c1.3-2.2,2.2-3.6,2.8-4.2c0.9-0.9,2-1.4,3.3-1.5c1.3-0.2,2.7,0.2,4.2,1.1
			c1.1,0.6,2,1.4,2.4,2.2c0.5,0.9,0.8,1.7,0.9,2.6c0.1,0.9,0,1.7-0.3,2.4c-0.4,1-1,2.3-2,3.9l-1.4,2.4l6.8,4L902.7,658.8z
			 M890,646.3l5.1,3l1.2-2c0.9-1.4,1.3-2.5,1.4-3c0.1-0.6,0-1.2-0.2-1.7c-0.3-0.5-0.6-0.9-1.2-1.2c-0.6-0.4-1.3-0.5-2-0.4
			s-1.2,0.4-1.7,1c-0.4,0.4-0.9,1.2-1.7,2.6L890,646.3z"/>
		<path d="M913.6,639.6L895,630l2-3.7l18.6,9.6L913.6,639.6z"/>
		<path d="M918.5,630l-19.2-8.3l1.7-3.9l7.5,3.3l3.3-7.6l-7.5-3.3l1.7-3.9l19.2,8.3l-1.7,3.9l-8.4-3.6l-3.3,7.6l8.4,3.6L918.5,630z"
			/>
	</g>
	<ellipse class="st4" cx="750" cy="500" rx="167.4" ry="222.8"/>
	<g>
		<g>
			<defs>
				<ellipse id="SVGID_1_" cx="750" cy="500" rx="154.1" ry="209.5"/>
			</defs>
			<clipPath id="SVGID_3_">
				<use xlink:href="#SVGID_1_"  style="overflow:visible;"/>
			</clipPath>
			<rect x="596" y="290.6" class="st5" width="308.1" height="436.1"/>
		</g>
		<g>
			<defs>
				<ellipse id="SVGID_4_" cx="750" cy="500" rx="154.1" ry="209.5"/>
			</defs>
			<clipPath id="SVGID_5_">
				<use xlink:href="#SVGID_4_"  style="overflow:visible;"/>
			</clipPath>
			<g class="st6">
				<rect x="596" y="570.8" class="st7" width="308.1" height="139.3"/>
				<rect x="867" y="687.8" class="st8" width="29.3" height="29.3"/>
				<rect x="808.5" y="687.8" class="st8" width="29.3" height="29.3"/>
				<rect x="750" y="687.8" class="st8" width="29.3" height="29.3"/>
				<rect x="837.8" y="658.6" class="st8" width="29.3" height="29.3"/>
				<rect x="779.3" y="658.6" class="st8" width="29.3" height="29.3"/>
				<rect x="867" y="629.3" class="st8" width="29.3" height="29.3"/>
				<rect x="808.5" y="629.3" class="st8" width="29.3" height="29.3"/>
				<rect x="750" y="629.3" class="st8" width="29.3" height="29.3"/>
				<rect x="837.8" y="600.1" class="st8" width="29.3" height="29.3"/>
				<rect x="779.3" y="600.1" class="st8" width="29.3" height="29.3"/>
				<rect x="867" y="570.8" class="st8" width="29.3" height="29.3"/>
				<rect x="808.5" y="570.8" class="st8" width="29.3" height="29.3"/>
				<rect x="750" y="570.8" class="st8" width="29.3" height="29.3"/>
				<path class="st8" d="M750,682.5c-8.8,4-17.3,5.8-25.7,5.2c-11.6-0.7-14.2-5.2-25.7-5.2c-12.3,0-13.3,5.2-25.7,5.2
					c-12.3,0-13.3-5.2-25.7-5.2c-11.5,0-14.1,4.5-25.7,5.2c-8.3,0.5-16.9-1.2-25.7-5.2v-29.3c8.8,4,17.3,5.8,25.7,5.2
					c11.6-0.7,14.2-5.2,25.7-5.2c12.4,0,13.3,5.2,25.7,5.2s13.3-5.2,25.7-5.2c11.5,0,14.1,4.5,25.7,5.2c8.3,0.5,16.9-1.2,25.7-5.2
					V682.5z"/>
				<path class="st8" d="M750,624c-8.8,4-17.3,5.8-25.7,5.2c-11.6-0.7-14.2-5.2-25.7-5.2c-12.3,0-13.3,5.2-25.7,5.2
					c-12.3,0-13.3-5.2-25.7-5.2c-11.5,0-14.1,4.5-25.7,5.2c-8.3,0.5-16.9-1.2-25.7-5.2v-29.3c8.8,4,17.3,5.8,25.7,5.2
					c11.6-0.7,14.2-5.2,25.7-5.2c12.4,0,13.3,5.2,25.7,5.2s13.3-5.2,25.7-5.2c11.5,0,14.1,4.5,25.7,5.2c8.3,0.5,16.9-1.2,25.7-5.2
					V624z"/>
				<path class="st7" d="M754.4,727.4h5.3c0-6-1-9-1.9-12c-0.9-2.7-1.7-5.2-1.7-10.4s0.8-7.7,1.7-10.4c1-2.9,1.9-6,1.9-12
					c0-6-1-9-1.9-12c-0.9-2.7-1.7-5.2-1.7-10.4c0-5.1,0.8-7.7,1.7-10.4c1-2.9,1.9-6,1.9-12s-1-9-1.9-12c-0.9-2.7-1.7-5.2-1.7-10.4
					s0.8-7.7,1.7-10.4c1-2.9,1.9-6,1.9-12c0-6-1-9-1.9-12c-0.9-2.7-1.7-5.2-1.7-10.4h-5.3c0,6,1,9,1.9,12c0.9,2.7,1.7,5.2,1.7,10.4
					c0,5.1-0.8,7.7-1.7,10.4c-1,2.9-1.9,6-1.9,12c0,5.9,1,9,1.9,12c0.9,2.7,1.7,5.2,1.7,10.4s-0.8,7.7-1.7,10.4c-1,2.9-1.9,6-1.9,12
					c0,6,1,9,1.9,12c0.9,2.7,1.7,5.2,1.7,10.4s-0.8,7.7-1.7,10.4c-1,2.9-1.9,6-1.9,12c0,5.9,1,9,1.9,12
					C753.6,719.7,754.4,722.2,754.4,727.4z"/>
				<path class="st8" d="M749.1,727.4h5.3c0-6-1-9-1.9-12c-0.9-2.7-1.7-5.2-1.7-10.4s0.8-7.7,1.7-10.4c1-2.9,1.9-6,1.9-12
					c0-6-1-9-1.9-12c-0.9-2.7-1.7-5.2-1.7-10.4c0-5.1,0.8-7.7,1.7-10.4c1-2.9,1.9-6,1.9-12s-1-9-1.9-12c-0.9-2.7-1.7-5.2-1.7-10.4
					s0.8-7.7,1.7-10.4c1-2.9,1.9-6,1.9-12c0-6-1-9-1.9-12c-0.9-2.7-1.7-5.2-1.7-10.4h-5.3c0,6,1,9,1.9,12c0.9,2.7,1.7,5.2,1.7,10.4
					c0,5.1-0.8,7.7-1.7,10.4c-1,2.9-1.9,6-1.9,12c0,5.9,1,9,1.9,12c0.9,2.7,1.7,5.2,1.7,10.4s-0.8,7.7-1.7,10.4c-1,2.9-1.9,6-1.9,12
					c0,6,1,9,1.9,12c0.9,2.7,1.7,5.2,1.7,10.4s-0.8,7.7-1.7,10.4c-1,2.9-1.9,6-1.9,12c0,5.9,1,9,1.9,12
					C748.3,719.7,749.1,722.2,749.1,727.4z"/>
				<path class="st7" d="M743.8,727.4h5.3c0-6-1-9-1.9-12c-0.9-2.7-1.7-5.2-1.7-10.4s0.8-7.7,1.7-10.4c1-2.9,1.9-6,1.9-12
					c0-6-1-9-1.9-12c-0.9-2.7-1.7-5.2-1.7-10.4c0-5.1,0.8-7.7,1.7-10.4c1-2.9,1.9-6,1.9-12s-1-9-1.9-12c-0.9-2.7-1.7-5.2-1.7-10.4
					s0.8-7.7,1.7-10.4c1-2.9,1.9-6,1.9-12c0-6-1-9-1.9-12c-0.9-2.7-1.7-5.2-1.7-10.4h-5.3c0,6,1,9,1.9,12c0.9,2.7,1.7,5.2,1.7,10.4
					c0,5.1-0.8,7.7-1.7,10.4c-1,2.9-1.9,6-1.9,12c0,5.9,1,9,1.9,12c0.9,2.7,1.7,5.2,1.7,10.4s-0.8,7.7-1.7,10.4c-1,2.9-1.9,6-1.9,12
					c0,6,1,9,1.9,12c0.9,2.7,1.7,5.2,1.7,10.4s-0.8,7.7-1.7,10.4c-1,2.9-1.9,6-1.9,12c0,5.9,1,9,1.9,12
					C743,719.7,743.8,722.2,743.8,727.4z"/>
			</g>
		</g>
		<g>
			<defs>
				<ellipse id="SVGID_6_" cx="750" cy="500" rx="154.1" ry="209.5"/>
			</defs>
			<clipPath id="SVGID_7_">
				<use xlink:href="#SVGID_6_"  style="overflow:visible;"/>
			</clipPath>
			<g class="st9">
				<polygon points="881.4,543.6 818.2,543.6 807.4,561.6 776.3,521.4 750,521.4 723.7,521.4 692.6,561.6 681.8,543.6 618.6,543.6 
					605.9,570.8 750,570.8 894.1,570.8 				"/>
				<path class="st10" d="M785.5,413.8c-1-0.9-2-1.6-2-1.6s0.6-0.8,1.2-2.3c0.5-1.5,0.2-3.7-0.9-4.7c-1.1-0.9-1.8-1.2-1.8-1.2
					s0.8-0.8,1.2-2.6c0.3-1,0.2-2.8-0.7-3.8c-1.1-1.2-2.7-1.6-2.7-1.6s0.9-1.1,1.3-2.7c0.4-1.5-0.1-3.6-1.4-4.5
					c-1.2-0.9-3.6-1.2-3.6-1.2s2-2.1,2-4.2c0-1.3-0.4-4.1-4.4-5.2c-2.1-0.6-4.6,0.6-6.7,0c-3.5-1-20.9-13.9-20.7-31.3
					c0-2,0.3-4.3,1-6.7c-2.7,1.3-7.1,4-11,8.8c-3.5,4.3-5.3,8.4-6.2,11.2c-0.5,3.3-0.8,8,0.6,13.2c0.4,1.5,0.9,2.8,1.4,4.1
					c-0.7,1-1.6,2.4-2.3,4.1c-0.8,1.8-1.2,3.4-1.4,4.7c0.1,1.4,0.4,3.5,1.2,5.7c0.5,1.3,1.2,2.3,1.8,3.2
					c8.6,10.5,18.3,20.3,25.8,31.6c1.2,1.7,2.8,5.8,2.7,11.2c-0.1,5.1-1.8,8.9-2.7,10.6c-0.9,1.8-2.7,4.9-6.1,7.6
					c-2.9,2.4-5.9,4.4-7.7,4.1c-1-0.2-2.1-1.4-3.9-2c-1.8-0.6-3.4-0.6-4.4-0.6c-0.1,0-1.9-0.3-3,1.1c-0.8,1-0.7,2-0.7,2.3
					c0.2,0.9,0.7,3.5,3,5.7c3.5,3.1,8.1,1.8,8.3,2.3c0.6,1.1-2,2.2-2.9,3.9c-0.7,1.2-1.2,2.5-1.4,3.5c-0.3,0.4-0.7,1.4-0.6,2.7
					c0,1.2,0.4,2,0.6,2.4c0.4,0.8,1.2,2,2.6,3.2c1.7,1.4,4.5,1.2,4.4,2.1c0,0.4-2.4,0.2-3.8,2c-1.3,1.7-1.1,3.5-1,3.9
					c0.1,0.9,0.4,2.6,1.5,4.3c1.2,1.9,2.7,2.9,3.5,3.5c1.7,0,6.3,0,8,0c0.8-0.9,1.9-2.1,2.7-3.7c1-1.8,1.5-3.4,1.9-4.5
					c0.4-2,0.6-4.4,0.6-7.2c0-2.5-0.3-4.7-0.5-6.6c0-1.2-0.2-3.5-1.6-5.9s-3.3-3.3-3.2-4.4c0.2-1.2,2-1,3.9-2
					c9.5-4.9,14-13.3,17.8-20.9c2.5-4.9,5.8-12.3,7.6-22.2c0.7-0.4,1.7-1.2,2.7-2.4C787.1,418.5,787,415.2,785.5,413.8z M769,384.1
					c0-1.7,1.3-3,3-3s3,1.3,3,3c0,1.7-1.3,3-3,3S769,385.8,769,384.1z M772,393c0-1.7,1.3-3,3-3s3,1.3,3,3c0,1.7-1.3,3-3,3
					S772,394.7,772,393z M774.3,401c0-1.7,1.3-3,3-3c1.7,0,3,1.3,3,3s-1.3,3-3,3C775.6,404,774.3,402.7,774.3,401z M776,409.1
					c0-1.7,1.3-3,3-3c1.7,0,3,1.3,3,3s-1.3,3-3,3C777.3,412.1,776,410.8,776,409.1z M779.9,420.2c-1.7,0-3-1.3-3-3c0-1.7,1.3-3,3-3
					s3,1.3,3,3C782.9,418.9,781.6,420.2,779.9,420.2z"/>
				<path class="st11" d="M753.6,500.4h-8c-2,7.8-3,14.9-3.5,19.9c-0.5,5.2-0.6,9.5,1.7,13.7c0.9,1.6,2.6,2.4,2.6,3.5
					c0,0.4-3.2,3.4-2.5,7.7c0.6,4.2,4,6.2,4.4,6.5c0.2,0.2,0.8,0.6,1.7,0.6c1.1,0.1,1.7-0.5,1.9-0.6c0.9-1,2-2.5,2.9-4.5
					c1.5-3.2,1.7-6.2,1.8-8c0.2-4,0.6-8.3,0.6-13c0-4.5-0.3-8.6-0.6-12.4c-0.1-2-0.3-4.3-0.9-6.8C755.1,504.3,754.3,502,753.6,500.4
					z"/>
			</g>
		</g>
		<g>
			<defs>
				<ellipse id="SVGID_8_" cx="750" cy="500" rx="154.1" ry="209.5"/>
			</defs>
			<clipPath id="SVGID_9_">
				<use xlink:href="#SVGID_8_"  style="overflow:visible;"/>
			</clipPath>
			<g class="st12">
				<path class="st13" d="M780.1,530.5c46.8-28.6,72-78.4,63.7-124.5c-6.4-35.5-30.5-57.7-40.1-65.7"/>
				<g>
					<path class="st14" d="M811.2,332c-0.1-0.3-0.9-2.1-2.9-2.9c-0.4-0.2-2.3-0.8-4.2,0.3c-1.8,1-2.3,2.7-2.4,3
						c-0.5-0.3-2.1-1.1-4.3-0.7c-2.3,0.4-3.6,1.9-4,2.3c-0.3,0.4-1,1.5-1,3c0,2,1,3.4,1.3,3.7c-0.4,0.1-2.1,0.6-2.8,2.2
						c-0.9,1.9-0.1,4.4,2.1,5.9c0.7,0.2,8,1.3,13.7-4C811.8,339.7,811.2,332.9,811.2,332z"/>
					<path class="st15" d="M791.7,350.9c1.4,0.6,3.5,1.4,6,2.1c3.9,1.1,6.4,1.8,9.3,1.1c1.2-0.3,3.9-1.2,6.5-4.3
						c2.5-2.6,3-5,3.2-6.1c0.4-2.4-0.4-4.4-1.9-8.4c-0.7-2-1.5-3.7-2-5c-0.7,0.6-1.6,1.5-2.3,2.7c-1.4,2.4-1.8,4.7-1.8,5.9
						c-1.5-0.5-3.2-1.1-5.1-1.5c-2-0.4-3.9-0.7-5.5-0.8c0.2,1.3,0.5,2.9,1.1,4.6c0.7,2.1,1.5,3.8,2.3,5.2c-0.8,0-1.9,0.1-3.1,0.3
						c-2.3,0.4-3.8,0.6-5.1,1.8C792.7,349,792.1,349.7,791.7,350.9z"/>
				</g>
				<g>
					<path class="st14" d="M828.3,346.7c-0.1-0.3-0.4-2.2-2.1-3.4c-0.3-0.2-2-1.2-3.9-0.6c-1.9,0.5-2.7,2-2.8,2.3
						c-0.4-0.4-1.8-1.5-3.9-1.6c-2.2-0.1-3.7,1-4.2,1.2c-0.4,0.4-1.2,1.2-1.5,2.7c-0.4,1.9,0.2,3.3,0.4,3.7c-0.4,0-2,0.1-3.1,1.4
						c-1.2,1.5-1,4.1,0.7,5.9c0.6,0.3,7.1,2.9,13.5-0.9C827.3,354,828.2,347.5,828.3,346.7z"/>
					<path class="st15" d="M806.3,360c1.2,0.9,2.8,2,5.1,3.3c3.4,1.8,5.6,2.9,8.4,2.9c1.2,0,3.8-0.3,6.8-2.6c2.8-1.9,3.8-3.9,4.3-5
						c0.8-2.1,0.5-4.2,0.1-8.2c-0.3-2-0.6-3.8-0.8-5c-0.8,0.4-1.8,1.1-2.7,2c-1.9,1.9-2.6,4-2.9,5.1c-1.2-0.8-2.7-1.7-4.4-2.5
						c-1.8-0.8-3.5-1.4-4.9-1.9c-0.1,1.3-0.1,2.8,0.1,4.5c0.2,2,0.6,3.9,1,5.3c-0.7-0.2-1.7-0.4-2.9-0.4c-2.2-0.2-3.7-0.3-5.1,0.5
						C807.6,358.5,806.9,359,806.3,360z"/>
				</g>
				<g>
					<path class="st14" d="M843.6,363.3c0-0.4,0.1-2.4-1.5-3.9c-0.3-0.3-1.8-1.7-4-1.5c-2,0.2-3.2,1.6-3.5,1.9
						c-0.4-0.4-1.6-2-3.7-2.5c-2.3-0.5-4.2,0.3-4.6,0.4c-0.4,0.3-1.5,1.1-2.1,2.5c-0.9,1.9-0.4,3.5-0.4,4c-0.4-0.1-2.2-0.3-3.5,0.9
						c-1.6,1.3-1.9,4.1-0.4,6.4c0.6,0.4,6.8,4.5,14.3,1.9C841.1,370.8,843.3,364.1,843.6,363.3z"/>
					<path class="st15" d="M817.8,372.9c1.1,1.2,2.6,2.7,4.7,4.4c3.2,2.6,5.2,4.3,8.2,4.8c1.2,0.2,4.1,0.4,7.7-1.3
						c3.4-1.3,4.9-3.4,5.5-4.3c1.2-2,1.4-4.3,1.8-8.6c0.2-2.2,0.2-4.1,0.1-5.4c-0.9,0.3-2,0.8-3.3,1.6c-2.3,1.6-3.5,3.6-4.1,4.8
						c-1.2-1.1-2.6-2.3-4.2-3.5c-1.7-1.2-3.4-2.2-4.8-3c-0.4,1.3-0.7,2.9-0.9,4.7c-0.3,2.2-0.2,4.2,0,5.8c-0.7-0.3-1.8-0.7-3-1
						c-2.3-0.6-3.8-1-5.5-0.4C819.6,371.5,818.7,371.9,817.8,372.9z"/>
				</g>
				<g>
					<path class="st14" d="M854.9,384.2c0.1-0.3,0.6-2.1-0.5-4c-0.2-0.3-1.2-2-3.3-2.3c-1.9-0.3-3.3,0.7-3.5,0.9
						c-0.2-0.5-1-2.1-2.8-3.1c-2-1.1-3.8-0.7-4.3-0.6c-0.4,0.2-1.6,0.6-2.6,1.7c-1.2,1.5-1.2,3.1-1.2,3.5c-0.4-0.2-2-0.8-3.5,0
						c-1.8,0.9-2.7,3.3-2,5.8c0.4,0.5,5.2,5.8,12.6,5C850.9,390.4,854.4,384.8,854.9,384.2z"/>
					<path class="st15" d="M829.2,386.9c0.7,1.2,1.8,3.1,3.3,5.1c2.3,3.1,3.8,5.1,6.4,6.2c1.1,0.4,3.6,1.4,7.4,0.5
						c3.4-0.4,5.1-2,6-2.7c1.7-1.6,2.3-3.5,3.5-7.4c0.6-2,1.1-3.7,1.3-4.9c-0.9,0.1-2,0.3-3.4,0.7c-2.5,0.9-4.1,2.5-4.9,3.4
						c-0.8-1.2-1.8-2.7-3-4.2c-1.2-1.5-2.5-2.7-3.6-3.8c-0.6,1.2-1.3,2.5-1.9,4.1c-0.7,2-1.2,3.8-1.3,5.3c-0.6-0.4-1.4-1.1-2.5-1.6
						c-2-1.1-3.3-1.8-4.9-1.7C831,386.1,830.1,386.3,829.2,386.9z"/>
				</g>
				<g>
					<path class="st14" d="M862.1,403.5c0.1-0.3,0.8-2.1-0.2-4.1c-0.2-0.4-1.1-2.1-3.2-2.6c-2-0.4-3.5,0.4-3.7,0.6
						c-0.2-0.5-0.8-2.2-2.7-3.5c-2-1.2-3.8-1.1-4.3-1c-0.5,0.1-1.7,0.4-2.7,1.6c-1.3,1.4-1.5,3.1-1.5,3.5c-0.4-0.2-2-1-3.5-0.3
						c-1.9,0.8-3,3.2-2.4,5.7c0.4,0.5,4.9,6.3,12.5,6.1C857.5,409.5,861.6,404.1,862.1,403.5z"/>
					<path class="st15" d="M835.5,404.2c0.6,1.3,1.5,3.4,2.9,5.6c2.1,3.4,3.5,5.5,6,6.9c1.1,0.6,3.6,1.7,7.5,1.2
						c3.5-0.2,5.5-1.5,6.4-2.3c1.9-1.5,2.7-3.5,4.3-7.3c0.9-2,1.4-3.7,1.8-4.9c-0.9,0-2.1,0.1-3.5,0.4c-2.7,0.7-4.3,2.2-5.2,3.1
						c-0.7-1.3-1.6-2.9-2.7-4.5c-1.2-1.7-2.4-3.1-3.5-4.3c-0.7,1.2-1.5,2.5-2.3,4.1c-0.9,2-1.4,3.8-1.9,5.3
						c-0.6-0.5-1.4-1.2-2.4-1.9c-2-1.3-3.2-2.1-4.9-2.1C837.5,403.5,836.6,403.6,835.5,404.2z"/>
				</g>
				<g>
					<path class="st14" d="M865.9,426.8c0.2-0.3,1.4-2,1-4.3c-0.1-0.4-0.5-2.5-2.6-3.5c-1.9-1-3.6-0.5-4-0.4c0-0.6-0.2-2.5-1.8-4.3
						s-3.6-2.1-4.2-2.2c-0.5,0-1.9,0-3.2,0.8c-1.8,1.1-2.4,2.7-2.6,3.2c-0.3-0.3-1.7-1.5-3.5-1.3c-2.1,0.3-4,2.4-4.1,5.1
						c0.3,0.7,3.2,7.8,11.1,9.8C859.5,431.7,865.2,427.3,865.9,426.8z"/>
					<path class="st15" d="M838.5,420c0.2,1.6,0.6,3.8,1.4,6.5c1.2,4.1,2,6.6,4.3,8.8c1,0.9,3.2,2.7,7.4,3.3c3.6,0.8,6,0,7.2-0.5
						c2.3-1.1,3.6-2.7,6.4-6.3c1.4-1.8,2.5-3.4,3.2-4.5c-1-0.3-2.2-0.5-3.7-0.5c-2.9,0-5.1,1.1-6.2,1.7c-0.4-1.6-0.8-3.4-1.5-5.3
						c-0.7-2-1.5-3.8-2.3-5.3c-1.1,0.9-2.2,2.1-3.5,3.5c-1.5,1.8-2.6,3.5-3.4,4.9c-0.4-0.7-1.1-1.6-2-2.6c-1.6-1.9-2.7-3.1-4.4-3.5
						C840.8,419.9,839.8,419.8,838.5,420z"/>
				</g>
				<g>
					<path class="st14" d="M863.6,449.6c0.3-0.3,1.8-1.6,1.9-4c0-0.4,0-2.5-1.7-4.1c-1.6-1.4-3.5-1.3-3.8-1.2
						c0.1-0.6,0.4-2.6-0.8-4.6c-1.2-2.1-3.1-2.9-3.6-3.1c-0.5-0.2-1.9-0.4-3.4,0.1c-2,0.6-2.9,2.1-3.2,2.6c-0.2-0.4-1.3-1.9-3.2-2
						c-2.1-0.2-4.4,1.5-5.1,4.2c0.1,0.7,1.4,8.3,8.8,12.1C856.1,452.9,862.8,450,863.6,449.6z"/>
					<path class="st15" d="M838,436.9c-0.1,1.6-0.3,3.9,0,6.7c0.4,4.3,0.5,7,2.2,9.6c0.7,1.1,2.6,3.4,6.5,4.9
						c3.4,1.6,5.9,1.2,7.2,1.1c2.5-0.5,4.2-2,7.7-4.8c1.8-1.4,3.2-2.7,4.2-3.7c-0.9-0.4-2-1-3.5-1.3c-2.8-0.6-5.2-0.1-6.5,0.3
						c0-1.7-0.1-3.5-0.4-5.6c-0.3-2.1-0.7-4.1-1.2-5.8c-1.2,0.7-2.7,1.6-4.2,2.7c-1.9,1.4-3.3,2.8-4.3,4.1c-0.3-0.8-0.7-1.8-1.3-2.9
						c-1.2-2.2-2-3.6-3.5-4.4C840.3,437.3,839.4,436.9,838,436.9z"/>
				</g>
				<g>
					<path class="st14" d="M856.9,471.5c0.3-0.2,2.2-1.2,2.7-3.5c0.1-0.4,0.6-2.6-0.8-4.5c-1.3-1.8-3.2-2.1-3.5-2.1
						c0.3-0.5,0.9-2.5,0.2-4.8c-0.7-2.4-2.5-3.6-2.9-4c-0.5-0.3-1.8-0.8-3.5-0.6c-2.1,0.2-3.5,1.5-3.8,1.9c-0.2-0.4-1-2.2-2.7-2.7
						c-2.1-0.7-4.8,0.5-6.1,3.1c-0.1,0.8-0.4,8.8,6.1,14.1C848.8,473.2,856,471.7,856.9,471.5z"/>
					<path class="st15" d="M834,453c-0.4,1.6-1.1,3.9-1.5,6.7c-0.6,4.3-1.1,7.2,0.1,10.1c0.4,1.2,1.8,4,5.5,6.4
						c3.1,2.3,5.7,2.7,7,2.7c2.6,0,4.7-1,8.8-3.1c2.1-1.1,3.8-2.1,5.1-2.8c-0.8-0.7-1.9-1.5-3.3-2.1c-2.7-1.2-5.2-1.2-6.6-1.2
						c0.4-1.7,0.7-3.5,0.9-5.8c0.2-2.2,0.2-4.3,0.1-6c-1.4,0.4-3,1-4.8,1.8c-2.1,1-3.9,2.1-5.3,3.2c-0.1-0.8-0.4-2-0.7-3.3
						c-0.7-2.5-1.2-4.1-2.6-5.3C836.3,453.9,835.4,453.3,834,453z"/>
				</g>
				<g>
					<path class="st14" d="M845.7,491.9c0.4-0.1,2.5-0.8,3.6-3c0.2-0.4,1.2-2.5,0.2-4.8c-0.9-2.1-2.8-2.8-3.2-3
						c0.4-0.5,1.5-2.3,1.3-4.8c-0.2-2.7-1.7-4.3-2.1-4.7c-0.4-0.4-1.6-1.2-3.4-1.4c-2.2-0.3-3.9,0.7-4.3,1.1
						c-0.1-0.4-0.4-2.5-2.2-3.5c-2-1.2-5-0.5-6.9,1.8c-0.3,0.8-2.4,8.9,3,15.8C837.1,491.8,844.9,491.9,845.7,491.9z"/>
					<path class="st15" d="M826.7,467.9c-0.8,1.5-2,3.7-3.1,6.6c-1.6,4.3-2.7,7-2.1,10.4c0.2,1.4,0.9,4.5,4.2,7.7
						c2.6,3.1,5.2,4,6.6,4.3c2.7,0.6,5,0,9.7-1.2c2.4-0.6,4.4-1.2,5.8-1.8c-0.6-0.9-1.6-2-2.8-2.9c-2.5-1.9-5.1-2.5-6.5-2.7
						c0.8-1.6,1.6-3.5,2.2-5.7c0.7-2.2,1.2-4.3,1.5-6.1c-1.5,0.1-3.4,0.3-5.3,0.7c-2.4,0.5-4.5,1.3-6.1,2c0.1-0.9,0.1-2.1,0-3.5
						c-0.2-2.7-0.3-4.4-1.4-5.9C828.7,469.3,827.9,468.5,826.7,467.9z"/>
				</g>
				<g>
					<path class="st14" d="M830.8,509.3c0.4,0,2.7-0.4,4.3-2.5c0.3-0.4,1.6-2.3,1-4.9c-0.5-2.3-2.4-3.5-2.7-3.6
						c0.4-0.4,2-2.1,2.2-4.7c0.3-2.7-1-4.7-1.3-5.2c-0.4-0.4-1.4-1.5-3.2-2c-2.2-0.6-4.1,0.1-4.6,0.3c0-0.4,0-2.6-1.7-4
						c-1.9-1.6-5.1-1.5-7.4,0.5c-0.4,0.8-4,8.7,0.4,16.8C821.8,507.7,829.9,509.1,830.8,509.3z"/>
					<path class="st15" d="M815.4,481.3c-1.2,1.4-2.7,3.5-4.3,6.2c-2.4,4.2-4,6.7-4.1,10.3c0,1.5,0.2,4.8,2.8,8.7
						c2.1,3.6,4.7,5,5.9,5.5c2.6,1.1,5.1,0.9,10.1,0.5c2.6-0.2,4.7-0.5,6.2-0.8c-0.5-1-1.2-2.2-2.4-3.5c-2.2-2.4-4.8-3.5-6.2-3.9
						c1.1-1.5,2.2-3.3,3.3-5.4c1.2-2.1,2-4.2,2.6-6c-1.6-0.2-3.5-0.3-5.6-0.2c-2.6,0.1-4.9,0.5-6.6,1c0.3-0.9,0.4-2.1,0.6-3.6
						c0.4-2.7,0.5-4.6-0.4-6.4C817.3,483.1,816.7,482.2,815.4,481.3z"/>
				</g>
				<g>
					<path class="st14" d="M813.4,524.8c0.4,0,2.9,0.1,4.9-2c0.4-0.4,2-2.2,1.8-5c-0.3-2.6-2-4-2.3-4.3c0.5-0.4,2.4-2,3-4.7
						c0.7-2.8-0.4-5.1-0.6-5.8c-0.4-0.5-1.3-1.9-3-2.7c-2.3-1.1-4.3-0.5-5-0.4c0.1-0.4,0.4-2.7-1.2-4.4c-1.7-2-5.1-2.3-8-0.5
						c-0.5,0.8-5.6,8.5-2.2,17.7C804.2,521.7,812.4,524.5,813.4,524.8z"/>
					<path class="st15" d="M801.4,492.8c-1.4,1.3-3.4,3.3-5.5,5.9c-3.2,4-5.2,6.6-5.9,10.2c-0.3,1.5-0.5,5.1,1.7,9.6
						c1.7,4.2,4.2,5.9,5.4,6.7c2.6,1.6,5.2,1.8,10.6,2.1c2.7,0.2,5.1,0.2,6.7,0.1c-0.4-1.2-1-2.6-2-4.1c-2-2.8-4.5-4.3-5.9-5.1
						c1.3-1.4,2.8-3.2,4.3-5.2c1.5-2.1,2.7-4.2,3.6-5.9c-1.7-0.4-3.6-0.8-5.9-1.1c-2.7-0.3-5.2-0.2-7.2,0c0.4-0.9,0.8-2.1,1.2-3.7
						c0.8-2.8,1.2-4.8,0.5-6.8C803.1,495,802.6,494,801.4,492.8z"/>
				</g>
				<path d="M789.9,522.6c0,0,4.5-5,9.4-4.3c2.1,0.3,3.8,1.2,4.8,1.8c-3.7,1-7.4,3.1-11.2,3C792,523,789.9,522.6,789.9,522.6z"/>
			</g>
		</g>
		<g>
			<defs>
				<ellipse id="SVGID_10_" cx="750" cy="500" rx="154.1" ry="209.5"/>
			</defs>
			<clipPath id="SVGID_11_">
				<use xlink:href="#SVGID_10_"  style="overflow:visible;"/>
			</clipPath>
			<g class="st16">
				<path class="st17" d="M664,507c1.1,1.7,3,4.1,6,6.2c4.3,3,8.6,4.1,10.8,4.1c1.9,0.1,4.9-0.4,8.2-1.9c2.7-1.2,4.7-2.7,6-3.8
					c-1.4-1.3-3.5-2.8-6-4.2c-3.9-2-7.5-3-10-3.1c-1.2-0.1-2.8,0.2-4.9,0.8c-2.2,0.6-3.1,1.3-5.1,1.9
					C667.9,507.1,666.2,507.3,664,507z"/>
				<path class="st17" d="M697.3,512.5c1.2-2,2.4-4.5,3.5-7.6c1.3-4.3,2-8.1,1.8-10.8c-0.2-3.2-1.7-8.1-4.8-13.3
					c-2.3-3.8-4.9-6.6-6.9-8.4c0.2,1.7,0.4,4.3-0.3,7.4c-0.5,2.5-1.2,3.5-2,6.3c-0.5,1.8-1.1,4.5-1.2,8c-0.1,1.9,0,6.3,2.7,11.1
					C692.5,509.3,695.7,511.5,697.3,512.5z"/>
				<path class="st17" d="M650.7,493.1c1.1,1.7,3,4.1,6,6.2c4.3,3,8.6,4.1,10.8,4.1c1.9,0.1,4.9-0.4,8.2-1.9c2.7-1.2,4.7-2.7,6-3.8
					c-1.4-1.3-3.5-2.8-6-4.2c-3.9-2-7.5-3-10-3.1c-1.2-0.1-2.8,0.2-4.9,0.8c-2.2,0.6-3.1,1.3-5.1,1.9
					C654.6,493.2,652.9,493.4,650.7,493.1z"/>
				<path class="st17" d="M679.8,493.3c1.4-1.6,3-3.6,4.5-6.2c2-3.6,3.3-6.9,3.6-9.5c0.4-2.9,0-7.6-1.9-12.9
					c-1.3-3.9-3.2-6.8-4.7-8.9c-0.1,1.6-0.5,4-1.7,6.6c-1,2.1-1.8,3-3,5.3c-0.8,1.5-1.8,3.9-2.5,7c-0.4,1.7-1.2,5.8,0.4,10.5
					C676,489.5,678.5,492.1,679.8,493.3z"/>
				<path class="st17" d="M642,474.7c0.9,1.8,2.6,4.3,5.2,6.8c4,3.5,8.1,5,10.3,5.3c1.9,0.3,4.9,0.1,8.2-1c2.8-0.9,5-2.1,6.4-3.2
					c-1.3-1.4-3.1-3.2-5.5-4.8c-3.6-2.5-7.1-3.8-9.6-4.3c-1.2-0.2-2.8-0.2-4.9,0.2c-2.3,0.4-3.2,1.1-5.3,1.2
					C645.9,475.3,644.2,475.3,642,474.7z"/>
				<path class="st17" d="M666.1,470.9c1.6-1.2,3.5-2.8,5.4-5.1c2.6-3,4.4-5.9,5.2-8.2c0.9-2.7,1.4-7.2,0.6-12.5
					c-0.5-3.9-1.8-7.1-2.7-9.2c-0.4,1.5-1.2,3.6-2.7,5.9c-1.3,1.9-2.2,2.5-3.8,4.5c-1.1,1.3-2.4,3.4-3.6,6.1
					c-0.7,1.5-2.2,5.1-1.6,9.9C663.1,466.7,665.1,469.6,666.1,470.9z"/>
				<path class="st17" d="M638.1,455.9c0.6,1.6,1.7,4.1,3.7,6.5c3,3.5,6.4,5.2,8.2,5.8c1.6,0.4,4.2,0.6,7.2,0.1
					c2.6-0.4,4.5-1.2,5.9-2c-1-1.4-2.3-3.1-4.2-4.8c-2.8-2.6-5.7-4.1-7.7-4.7c-1-0.3-2.5-0.4-4.3-0.4c-2,0.1-2.9,0.5-4.7,0.4
					C641.4,456.8,639.9,456.7,638.1,455.9z"/>
				<path class="st17" d="M657.5,447.5c1.8-0.8,3.9-2,6.1-3.7c3-2.4,5.3-4.8,6.6-6.8c1.4-2.4,2.7-6.6,3-11.8c0.3-3.8-0.3-7-0.9-9.3
					c-0.7,1.3-1.9,3.3-3.8,5.1c-1.6,1.5-2.7,2-4.4,3.5c-1.2,1.1-2.9,2.7-4.7,5.1c-1,1.3-3.1,4.5-3.5,9.1
					C655.6,442.8,656.8,446,657.5,447.5z"/>
				<path class="st17" d="M635.9,433.7c0.2,1.8,0.6,4.4,2,7.3c2,4.2,5,6.7,6.6,7.7c1.4,0.9,3.9,1.7,7.1,2c2.6,0.3,4.8-0.1,6.3-0.4
					c-0.5-1.6-1.4-3.6-2.8-5.8c-2.1-3.2-4.5-5.5-6.4-6.6c-0.9-0.5-2.3-1.1-4.1-1.4c-2-0.4-2.9-0.3-4.7-0.7
					C638.9,435.4,637.5,434.8,635.9,433.7z"/>
				<path class="st17" d="M655.2,423.5c1.9-0.4,4.1-1.1,6.6-2.2c3.4-1.6,6-3.4,7.5-5.1c1.8-2,3.9-5.6,5.3-10.4c1-3.5,1.2-6.6,1.2-9
					c-0.9,1.1-2.4,2.7-4.6,4c-1.8,1.1-2.8,1.2-4.9,2.4c-1.4,0.7-3.3,2-5.5,3.8c-1.2,1-3.8,3.5-5.1,7.8
					C654.4,418.8,655,422,655.2,423.5z"/>
				<path class="st17" d="M637.3,413.3c-0.2,1.7-0.3,4.2,0.6,7.2c1.2,4.3,3.4,7.2,4.8,8.4c1.2,1.1,3.4,2.3,6.2,3.1
					c2.4,0.7,4.4,0.8,5.9,0.7c-0.3-1.6-0.7-3.6-1.7-5.9c-1.4-3.4-3.2-5.9-4.8-7.3c-0.7-0.6-2-1.4-3.5-2c-1.8-0.8-2.7-0.7-4.3-1.5
					C639.8,415.4,638.6,414.7,637.3,413.3z"/>
				<path class="st17" d="M642.1,393.6c-0.5,1.6-1.2,4-1.2,7.1c0.1,4.4,1.6,7.8,2.7,9.3c0.9,1.3,2.7,3,5.3,4.5
					c2.1,1.2,4.2,1.9,5.6,2.1c0.2-1.6,0.2-3.7-0.2-6.1c-0.5-3.6-1.7-6.5-2.8-8.2c-0.5-0.8-1.5-1.9-2.9-2.8c-1.6-1.2-2.5-1.4-3.7-2.5
					C644,396.3,643,395.3,642.1,393.6z"/>
				<path class="st17" d="M650.6,374.4c-0.8,1.3-2,3.5-2.5,6.4c-0.8,4.1-0.1,7.5,0.6,9.1c0.6,1.4,2,3.4,4.1,5.2
					c1.8,1.6,3.5,2.5,4.8,3.1c0.4-1.5,0.9-3.4,1.1-5.7c0.2-3.5-0.3-6.4-1.1-8.2c-0.4-0.9-1.1-2-2.1-3.3c-1.2-1.4-2-1.8-3-3.1
					C651.9,377.2,651.1,376.1,650.6,374.4z"/>
				<path class="st17" d="M658.2,397.4c1.7,0,3.7-0.2,6-0.7c3.2-0.7,5.8-1.8,7.4-2.9c1.9-1.3,4.3-4.1,6.5-8c1.5-2.8,2.2-5.5,2.6-7.4
					c-1,0.8-2.6,1.9-4.7,2.6c-1.8,0.6-2.7,0.6-4.6,1.2c-1.3,0.4-3.2,1.1-5.4,2.3c-1.2,0.6-3.9,2.4-5.9,5.8
					C658.3,393.3,658.2,396.1,658.2,397.4z"/>
				<path class="st17" d="M662.5,358.4c-1.1,1.1-2.5,2.7-3.5,5.2c-1.5,3.5-1.6,6.8-1.3,8.4c0.3,1.4,1.1,3.5,2.6,5.6
					c1.2,1.8,2.7,3,3.6,3.8c0.7-1.2,1.5-2.9,2.1-5c0.9-3.1,1.1-5.9,0.8-7.6c-0.1-0.9-0.5-2-1.2-3.4c-0.8-1.5-1.4-2-2-3.4
					C663,361.3,662.6,360.1,662.5,358.4z"/>
				<path class="st17" d="M668.2,374.6c1.5,0.4,3.5,0.6,5.8,0.5c3.1-0.1,5.8-0.5,7.5-1.2c2-0.9,4.9-2.8,7.6-6.1c2-2.4,3.2-4.7,4-6.4
					c-1.1,0.5-2.7,1.2-4.9,1.4c-1.8,0.2-2.7,0-4.6,0.1c-1.3,0.1-3.2,0.4-5.5,1.1c-1.2,0.4-4.2,1.4-6.6,4.2
					C669.2,370.7,668.4,373.2,668.2,374.6z"/>
				<path class="st17" d="M674.6,343c-1.2,0.9-2.9,2.4-4.3,4.8c-2.1,3.4-2.7,6.6-2.6,8.2c0,1.4,0.5,3.6,1.8,6c1,2,2.2,3.4,3.1,4.3
					c0.9-1.2,2-2.7,2.8-4.7c1.3-3,2-5.8,1.9-7.6c0-0.9-0.3-2.1-0.8-3.5c-0.6-1.7-1.2-2.2-1.6-3.7C674.7,345.9,674.6,344.7,674.6,343
					z"/>
				<path class="st17" d="M683.1,353.3c1.3,0.7,3,1.4,5.1,2c2.8,0.7,5.3,1,7.1,0.8c2-0.3,5.1-1.3,8.4-3.5c2.4-1.6,4.1-3.4,5.2-4.8
					c-1.1,0.2-2.7,0.4-4.8,0.1c-1.6-0.3-2.4-0.7-4.2-1.1c-1.2-0.3-2.9-0.5-5.2-0.4c-1.2,0-4.1,0.2-7.1,2.1
					C684.9,350,683.6,352.2,683.1,353.3z"/>
				<path class="st17" d="M692.1,330.5c-1.3,0.5-3.4,1.4-5.4,3.2c-2.9,2.6-4.3,5.4-4.8,7c-0.4,1.3-0.5,3.5,0,6.1
					c0.4,2.1,1.2,3.8,1.7,5c1.2-0.8,2.6-2,4-3.5c2.1-2.4,3.5-4.9,3.9-6.6c0.3-0.8,0.4-2,0.3-3.5c-0.1-1.7-0.4-2.4-0.4-4
					C691.4,333.3,691.5,332,692.1,330.5z"/>
				<path class="st13" d="M696.3,340.3c-9.6,7.9-33.8,30.1-40.1,65.7c-8.2,46.2,16.9,95.8,63.7,124.5"/>
				<path class="st17" d="M714.3,331.7c-1.4-0.6-3.9-1.2-7-1.2c-2.6-0.1-4.4,0.5-5.8,1.2c-1.5,0.7-3.4,2-5.1,4.2
					c-2.4,3-3.4,5.9-3.9,7.8c1.8,0.1,4.3,0.1,7.4-0.8c2.8-0.8,4.5-1.7,5.9-2.7c1.2-0.8,2.9-2.3,4.2-3.5
					C711.8,334.9,713.2,333.2,714.3,331.7z"/>
			</g>
		</g>
		<g>
			<ellipse id="SVGID_2_" class="st18" cx="750" cy="500" rx="154.1" ry="209.5"/>
		</g>
	</g>
</g>
</svg>
